<svg width="121" height="40" viewBox="0 0 121 40" fill="none" xmlns="http://www.w3.org/2000/svg">
<rect x="1.21429" y="0.5" width="119" height="39" rx="5.5" fill="white"/>
<rect x="1.21429" y="0.5" width="119" height="39" rx="5.5" stroke="black"/>
<path d="M25.4188 20.763C25.4309 19.8431 25.6812 18.9411 26.1463 18.141C26.6115 17.3409 27.2763 16.6687 28.0791 16.1869C27.5691 15.4758 26.8964 14.8907 26.1143 14.4779C25.3321 14.065 24.4622 13.836 23.5735 13.8088C21.6778 13.6146 19.8401 14.9163 18.8741 14.9163C17.8894 14.9163 16.4021 13.8281 14.8005 13.8603C13.7645 13.893 12.7549 14.1871 11.87 14.714C10.9851 15.2408 10.255 15.9825 9.75103 16.8668C7.56781 20.5571 9.1963 25.9808 11.2877 28.9639C12.334 30.4246 13.5569 32.0562 15.1571 31.9984C16.7229 31.9349 17.3077 31.0235 19.1978 31.0235C21.0704 31.0235 21.619 31.9984 23.2517 31.9616C24.9319 31.9349 25.9905 30.4944 27.0002 29.0198C27.752 27.979 28.3305 26.8287 28.7143 25.6115C27.7381 25.2084 26.9051 24.5337 26.3191 23.6715C25.733 22.8093 25.4199 21.7977 25.4188 20.763Z" fill="black"/>
<path d="M22.3351 11.8471C23.2512 10.7734 23.7026 9.39335 23.5933 8C22.1936 8.14352 20.9008 8.7966 19.9723 9.82911C19.5183 10.3335 19.1706 10.9203 18.9491 11.556C18.7275 12.1917 18.6365 12.8638 18.6812 13.5338C19.3812 13.5408 20.0738 13.3927 20.7067 13.1005C21.3396 12.8084 21.8964 12.3798 22.3351 11.8471Z" fill="black"/>
<path d="M37.5053 8.50146H39.5751C41.3637 8.50146 42.2338 9.56494 42.2338 11.4941C42.2338 13.4233 41.3549 14.5 39.5751 14.5H37.5053V8.50146ZM38.5029 9.34082V13.6606H39.4653C40.6518 13.6606 41.2099 12.9443 41.2099 11.5073C41.2099 10.0615 40.6474 9.34082 39.4653 9.34082H38.5029ZM45.3891 9.77588C46.602 9.77588 47.4501 10.5625 47.4501 11.8677V12.4697C47.4501 13.8188 46.602 14.5791 45.3891 14.5791C44.1586 14.5791 43.3193 13.8276 43.3193 12.4741V11.8721C43.3193 10.6021 44.1718 9.77588 45.3891 9.77588ZM45.3935 10.5625C44.6992 10.5625 44.3036 11.1426 44.3036 11.9204V12.439C44.3036 13.2168 44.6728 13.7925 45.3935 13.7925C46.1054 13.7925 46.4702 13.2212 46.4702 12.439V11.9204C46.4702 11.1426 46.0878 10.5625 45.3935 10.5625ZM54.6132 9.85498L53.3915 14.5H52.3984L51.4272 11.0723H51.4008L50.4472 14.5H49.4496L48.1752 9.85498H49.2255L49.9726 13.397H50.0165L50.9526 9.85498H51.871L52.8334 13.397H52.8774L53.6376 9.85498H54.6132ZM55.58 14.5V9.85498H56.538V10.6899H56.5864C56.705 10.3252 57.0434 9.78467 57.9838 9.78467C58.9199 9.78467 59.5483 10.3032 59.5483 11.3623V14.5H58.5727V11.6479C58.5727 10.9404 58.2036 10.6152 57.6542 10.6152C56.9335 10.6152 56.5556 11.1689 56.5556 11.9204V14.5H55.58ZM61.0248 14.5V8.18506H62.0004V14.5H61.0248ZM65.3491 9.77588C66.562 9.77588 67.4101 10.5625 67.4101 11.8677V12.4697C67.4101 13.8188 66.562 14.5791 65.3491 14.5791C64.1186 14.5791 63.2792 13.8276 63.2792 12.4741V11.8721C63.2792 10.6021 64.1318 9.77588 65.3491 9.77588ZM65.3535 10.5625C64.6591 10.5625 64.2636 11.1426 64.2636 11.9204V12.439C64.2636 13.2168 64.6328 13.7925 65.3535 13.7925C66.0654 13.7925 66.4301 13.2212 66.4301 12.439V11.9204C66.4301 11.1426 66.0478 10.5625 65.3535 10.5625ZM69.937 14.5703C69.0361 14.5703 68.4164 14.0166 68.4164 13.1509C68.4164 12.3291 68.9877 11.7754 70.06 11.7754H71.2333V11.3403C71.2333 10.8086 70.895 10.5581 70.3588 10.5581C69.8315 10.5581 69.5942 10.7778 69.5195 11.0854H68.5922C68.6494 10.3076 69.2338 9.78467 70.3896 9.78467C71.3828 9.78467 72.2045 10.1978 72.2045 11.3535V14.5H71.2773V13.8979H71.2333C71.0268 14.2539 70.6225 14.5703 69.937 14.5703ZM70.2402 13.8145C70.7939 13.8145 71.2333 13.4365 71.2333 12.9312V12.4302H70.2138C69.6469 12.4302 69.3964 12.7158 69.3964 13.1025C69.3964 13.5859 69.8007 13.8145 70.2402 13.8145ZM75.2104 9.79346C75.8652 9.79346 76.3661 10.0835 76.5463 10.5537H76.5947V8.18506H77.5703V14.5H76.621V13.7573H76.5727C76.4321 14.2275 75.874 14.5615 75.1972 14.5615C74.1293 14.5615 73.435 13.8013 73.435 12.5752V11.7798C73.435 10.5537 74.1425 9.79346 75.2104 9.79346ZM75.4828 10.5933C74.8325 10.5933 74.4282 11.0767 74.4282 11.9204V12.4302C74.4282 13.2783 74.8369 13.7617 75.5048 13.7617C76.164 13.7617 76.5947 13.2827 76.5947 12.4917V11.7886C76.5947 11.0723 76.1245 10.5933 75.4828 10.5933ZM82.9272 9.77588C84.1401 9.77588 84.9882 10.5625 84.9882 11.8677V12.4697C84.9882 13.8188 84.1401 14.5791 82.9272 14.5791C81.6967 14.5791 80.8574 13.8276 80.8574 12.4741V11.8721C80.8574 10.6021 81.7099 9.77588 82.9272 9.77588ZM82.9316 10.5625C82.2372 10.5625 81.8417 11.1426 81.8417 11.9204V12.439C81.8417 13.2168 82.2109 13.7925 82.9316 13.7925C83.6435 13.7925 84.0082 13.2212 84.0082 12.439V11.9204C84.0082 11.1426 83.6259 10.5625 82.9316 10.5625ZM86.2451 14.5V9.85498H87.2031V10.6899H87.2514C87.3701 10.3252 87.7084 9.78467 88.6489 9.78467C89.5849 9.78467 90.2133 10.3032 90.2133 11.3623V14.5H89.2377V11.6479C89.2377 10.9404 88.8686 10.6152 88.3193 10.6152C87.5986 10.6152 87.2206 11.1689 87.2206 11.9204V14.5H86.2451ZM93.9882 9.88574V8.72559H94.9418V9.88574H95.9833V10.6504H94.9418V13.1157C94.9418 13.6211 95.1308 13.7617 95.6537 13.7617C95.7856 13.7617 95.9614 13.7529 96.0361 13.7441V14.4912C95.957 14.5044 95.6318 14.5308 95.412 14.5308C94.2827 14.5308 93.975 14.1265 93.975 13.1948V10.6504H93.2675V9.88574H93.9882ZM97.2138 14.5V8.18506H98.185V10.6899H98.2333C98.3344 10.3604 98.7123 9.78467 99.644 9.78467C100.549 9.78467 101.195 10.3076 101.195 11.3667V14.5H100.224V11.6523C100.224 10.9448 99.8329 10.6152 99.2792 10.6152C98.5805 10.6152 98.185 11.1646 98.185 11.9204V14.5H97.2138ZM104.469 14.5791C103.204 14.5791 102.417 13.8013 102.417 12.4917V11.8633C102.417 10.5449 103.278 9.77588 104.412 9.77588C105.577 9.77588 106.398 10.5845 106.398 11.8633V12.4082H103.384V12.6367C103.384 13.3047 103.779 13.7969 104.465 13.7969C104.975 13.7969 105.326 13.5552 105.392 13.2651H106.346C106.289 13.8013 105.722 14.5791 104.469 14.5791ZM103.384 11.771H105.445V11.7095C105.445 11.0107 105.036 10.5449 104.416 10.5449C103.797 10.5449 103.384 11.0107 103.384 11.7095V11.771Z" fill="black"/>
<path d="M38.9203 30.5H36.8901L41.0209 18.5029H43.2534L47.3754 30.5H45.2661L44.2026 27.1777H39.9926L38.9203 30.5ZM42.1459 20.5771H42.0668L40.4409 25.6484H43.7543L42.1459 20.5771ZM52.9787 30.6318C51.7746 30.6318 50.8605 30.0605 50.3683 29.208H50.298V33.585H48.3468V21.21H50.2453V22.5723H50.3156C50.8253 21.6846 51.7746 21.0869 53.0226 21.0869C55.1056 21.0869 56.591 22.6602 56.591 25.4375V26.2637C56.591 29.0234 55.1232 30.6318 52.9787 30.6318ZM52.5304 29.0234C53.7697 29.0234 54.6134 28.0303 54.6134 26.1582V25.5078C54.6134 23.7061 53.8224 22.6777 52.4953 22.6777C51.133 22.6777 50.2804 23.7852 50.2804 25.499V26.1582C50.2804 27.916 51.1418 29.0234 52.5304 29.0234ZM62.8973 30.6318C61.6932 30.6318 60.7792 30.0605 60.287 29.208H60.2167V33.585H58.2655V21.21H60.1639V22.5723H60.2343C60.744 21.6846 61.6932 21.0869 62.9413 21.0869C65.0243 21.0869 66.5096 22.6602 66.5096 25.4375V26.2637C66.5096 29.0234 65.0419 30.6318 62.8973 30.6318ZM62.4491 29.0234C63.6884 29.0234 64.5321 28.0303 64.5321 26.1582V25.5078C64.5321 23.7061 63.7411 22.6777 62.4139 22.6777C61.0516 22.6777 60.1991 23.7852 60.1991 25.499V26.1582C60.1991 27.916 61.0604 29.0234 62.4491 29.0234ZM70.553 27.1689H72.5042C72.5921 28.2061 73.5062 29.0938 75.2025 29.0938C76.7581 29.0938 77.681 28.3643 77.681 27.2305C77.681 26.3164 77.0657 25.8242 75.7825 25.5166L73.8138 25.0244C72.2669 24.6641 70.8782 23.7412 70.8782 21.79C70.8782 19.4961 72.8821 18.2393 75.2112 18.2393C77.5403 18.2393 79.4827 19.4961 79.5267 21.7373H77.6107C77.5228 20.7178 76.7405 19.874 75.1849 19.874C73.8138 19.874 72.8821 20.5244 72.8821 21.6406C72.8821 22.4229 73.4271 22.9854 74.5433 23.2402L76.5032 23.7236C78.305 24.1631 79.6761 25.0156 79.6761 27.0547C79.6761 29.4102 77.7689 30.7373 75.053 30.7373C71.7132 30.7373 70.597 28.7861 70.553 27.1689ZM82.0537 21.21V18.9512H83.9698V21.21H85.7803V22.7744H83.9698V27.7314C83.9698 28.7422 84.3477 29.0234 85.3936 29.0234C85.5606 29.0234 85.7188 29.0234 85.833 29.0059V30.5C85.6748 30.5264 85.3057 30.5615 84.9102 30.5615C82.6514 30.5615 82.0274 29.7529 82.0274 27.8896V22.7744H80.7442V21.21H82.0537ZM91.0496 21.0518C93.7214 21.0518 95.1716 22.9326 95.1716 25.4639V26.2109C95.1716 28.8301 93.7302 30.6582 91.0496 30.6582C88.3689 30.6582 86.9099 28.8301 86.9099 26.2109V25.4639C86.9099 22.9414 88.3777 21.0518 91.0496 21.0518ZM91.0496 22.6162C89.5994 22.6162 88.8787 23.8027 88.8787 25.4902V26.2021C88.8787 27.8633 89.5906 29.085 91.0496 29.085C92.5086 29.085 93.2117 27.8721 93.2117 26.2021V25.4902C93.2117 23.7939 92.4998 22.6162 91.0496 22.6162ZM96.8198 30.5V21.21H98.771V22.4316H98.8413C99.0786 21.8516 99.7729 21.0781 101.065 21.0781C101.32 21.0781 101.54 21.0957 101.724 21.1309V22.8535C101.557 22.8096 101.214 22.7832 100.889 22.7832C99.3247 22.7832 98.7973 23.75 98.7973 24.998V30.5H96.8198ZM106.457 30.6582C103.97 30.6582 102.388 29.0146 102.388 26.2637V25.3232C102.388 22.7305 103.935 21.0518 106.378 21.0518C108.857 21.0518 110.351 22.792 110.351 25.4111V26.2988H104.313V26.5186C104.313 28.083 105.156 29.1201 106.484 29.1201C107.477 29.1201 108.154 28.6279 108.391 27.8281H110.245C109.964 29.3311 108.751 30.6582 106.457 30.6582ZM104.313 24.9365H108.444V24.9189C108.444 23.6006 107.626 22.5635 106.387 22.5635C105.13 22.5635 104.313 23.6006 104.313 24.9189V24.9365Z" fill="black"/>
</svg>
