<svg width="110" height="77" viewBox="0 0 110 77" fill="none" xmlns="http://www.w3.org/2000/svg">
<path d="M29.3409 52.2353C24.9313 55.0509 19.5163 52.8739 14.4004 54.484C15.383 55.2938 16.409 56.0494 17.4739 56.7475C31.3625 64.7383 46.1659 66.2 61.6072 62.3087C65.3922 61.4765 68.895 59.6724 71.7704 57.074C74.7947 54.1638 76.7636 50.8501 76.5756 46.1505C75.0705 46.1098 73.6644 46.052 72.2662 46.0232C67.3281 45.8753 62.6001 43.9912 58.9138 40.7021C55.2274 37.413 52.8187 32.9295 52.1112 28.04C51.145 20.7854 56.3698 16.4894 63.1858 19.3065C70.3415 22.2268 75.0319 27.9029 78.7779 34.4416C79.5585 35.803 80.2576 37.2075 80.9585 38.5805C92.9463 33.454 105.59 14.5871 106.11 0.769883C107.167 1.32867 108.456 1.56395 108.685 2.2061C109.342 3.65906 109.584 5.26502 109.386 6.84701C108.419 10.8592 107.503 15.0545 105.692 18.6773C100.87 28.3637 93.5511 36.5881 84.4899 42.5018C82.995 43.4749 82.1603 44.3591 82.1559 46.2588C82.0542 57.1593 75.6649 63.4368 66.1523 66.7074C51.3333 71.8378 36.4803 71.0226 21.88 65.3758C20.3703 64.7554 18.9378 64.1136 17.1644 63.3273C17.5185 65.6986 19.2793 66.6647 20.4694 68.0063C22.2827 70.0265 24.284 71.9013 26.0046 73.999C26.1891 74.3933 26.2812 74.8246 26.2738 75.2599C26.2664 75.6953 26.1597 76.1232 25.9618 76.511C25.7648 76.887 24.4485 76.929 23.8085 76.753C22.7505 76.3841 21.7621 75.84 20.8845 75.1434C18.6871 73.5269 16.6217 71.7384 14.7076 69.7948C10.4157 65.0357 6.34944 60.0794 2.18082 55.2032C1.05919 53.8842 0.330374 52.2596 1.50202 50.8674C2.45768 49.8393 3.7773 49.2254 5.17929 49.1567C12.0732 49.2134 18.9678 49.4981 25.8528 49.7855C27.0349 49.9683 28.1932 50.2816 29.3062 50.7199L29.3409 52.2353ZM57.652 23.2728C56.2547 30.0079 58.9309 34.1759 62.6919 37.7641C64.3253 39.4228 66.4229 40.5477 68.7083 40.9906C70.9937 41.4335 73.3597 41.1736 75.4945 40.2452C71.7243 32.7173 67.2386 26.0924 57.6713 23.2675L57.652 23.2728Z" fill="black"/>
</svg>
