<svg width="118" height="24" viewBox="0 0 118 24" fill="none" xmlns="http://www.w3.org/2000/svg">
<path d="M99.42 12.0721L108.52 17.3221L117.62 22.5721V12.0721V1.56213L108.52 6.81213L99.42 12.0721Z" fill="#B19B6C"/>
<path d="M99.16 23.9421V0.192139L78.62 12.0721L99.16 23.9421ZM97.62 2.93214V21.1921L81.79 12.0621L97.62 2.93214Z" fill="#3D3D3D"/>
<path d="M60.13 12.0721L69.23 17.3221L78.33 22.5721V12.0721V1.56213L69.23 6.81213L60.13 12.0721Z" fill="#B19B6C"/>
<path d="M59.87 23.9421V0.192139L39.29 12.0721L59.87 23.9421ZM58.28 2.94214V21.1921L42.46 12.0621L58.28 2.94214Z" fill="#3D3D3D"/>
<path d="M20.83 12.0721L29.93 17.3221L39.03 22.5721V12.0721V1.56213L29.93 6.81213L20.83 12.0721Z" fill="#B19B6C"/>
<path d="M20.57 23.9421V0.192139L0 12.0721L20.57 23.9421ZM18.99 2.94214V21.1921L3.17001 12.0621L18.99 2.94214Z" fill="#3D3D3D"/>
</svg>
