<svg width="88" height="124" viewBox="0 0 88 124" fill="none" xmlns="http://www.w3.org/2000/svg">
<path d="M41.8527 93.0431C42.9038 98.2081 37.6696 102.313 36.9708 107.648C38.4009 107.068 39.79 106.426 41.132 105.726C57.3447 96.1526 66.4546 83.1468 69.6852 67.4299C70.6181 63.6257 70.2839 59.6945 68.7156 56.0237C66.8609 52.0924 64.0099 48.9696 58.4735 47.2759C57.6721 48.6411 56.9007 49.9087 56.1668 51.1804C53.5213 55.6538 48.9704 59.2448 43.3144 61.3219C37.6584 63.3991 31.2595 63.8293 25.2428 62.5371C16.3576 60.5431 14.0005 54.0419 20.678 48.905C27.6452 43.4973 36.5686 41.4466 46.0176 40.6051C47.9852 40.4293 49.962 40.3454 51.9031 40.2474C51.973 27.2095 36.4594 8.11367 20.7192 2.14941C21.8959 1.4013 22.8143 0.311566 23.6728 0.35618C25.6842 0.330758 27.6655 0.745904 29.3983 1.55587C33.5602 4.03635 37.9595 6.54313 41.2475 9.64371C50.0487 17.9157 55.9055 27.899 58.2136 38.5635C58.5915 40.3219 59.1971 41.4391 61.3949 42.1975C73.9671 46.6193 78.0354 54.9761 77.0565 65.0053C75.5725 80.643 67.1864 93.9511 53.3317 105.109C51.8567 106.248 50.3957 107.308 48.5966 108.623C51.5201 109.24 53.5212 108.007 55.6711 107.448C58.919 106.586 62.093 105.493 65.3842 104.747C65.9334 104.735 66.479 104.821 66.9794 105.001C67.4798 105.181 67.9218 105.449 68.2718 105.784C68.6086 106.114 67.9976 107.339 67.4732 107.856C66.5158 108.681 65.3904 109.372 64.144 109.901C61.1711 111.276 58.0651 112.461 54.8552 113.446C47.1935 115.495 39.4165 117.259 31.681 119.148C29.5915 119.654 27.345 119.678 26.3199 118.05C25.6081 116.764 25.5584 115.309 26.1813 113.995C29.7012 107.691 33.4855 101.476 37.2681 95.2715C38.072 94.2592 39.0152 93.3206 40.0804 92.4731L41.8527 93.0431ZM22.4985 55.5588C29.5978 59.5158 35.7654 58.7147 41.8051 56.6878C44.5444 55.8474 46.8981 54.369 48.5561 52.4473C50.2142 50.5257 51.0987 48.2511 51.0932 45.9232C40.4865 46.394 30.567 47.8801 22.502 55.539L22.4985 55.5588Z" fill="black"/>
</svg>
