<svg width="118" height="24" viewBox="0 0 118 24" fill="none" xmlns="http://www.w3.org/2000/svg">
<path d="M18.2 12.0721L9.1 17.3221L0 22.5721V12.0721V1.56213L9.1 6.81213L18.2 12.0721Z" fill="#B19B6C"/>
<path d="M18.46 23.9421V0.192139L39 12.0721L18.46 23.9421ZM20 2.93214V21.1921L35.83 12.0621L20 2.93214Z" fill="#3D3D3D"/>
<path d="M57.49 12.0721L48.39 17.3221L39.29 22.5721V12.0721V1.56213L48.39 6.81213L57.49 12.0721Z" fill="#B19B6C"/>
<path d="M57.75 23.9421V0.192139L78.33 12.0721L57.75 23.9421ZM59.34 2.94214V21.1921L75.16 12.0621L59.34 2.94214Z" fill="#3D3D3D"/>
<path d="M96.79 12.0721L87.69 17.3221L78.59 22.5721V12.0721V1.56213L87.69 6.81213L96.79 12.0721Z" fill="#B19B6C"/>
<path d="M97.05 23.9421V0.192139L117.62 12.0721L97.05 23.9421ZM98.63 2.94214V21.1921L114.45 12.0621L98.63 2.94214Z" fill="#3D3D3D"/>
</svg>
