<svg width="68" height="402" viewBox="0 0 68 402" fill="none" xmlns="http://www.w3.org/2000/svg">
<g clip-path="url(#clip0_107_3931)">
<path d="M18.4322 346.8C17.8901 346.25 17.4698 345.829 17.0526 345.408C16.3307 345.507 16.1389 344.699 15.6394 344.539C14.8749 344.293 14.3968 343.762 13.8942 343.233C13.3917 342.705 12.7217 342.312 12.612 341.464C12.5846 341.264 12.2679 341.107 12.0973 340.917C11.8476 340.643 11.1836 341 11.211 340.302C11.2384 339.783 10.7999 339.565 10.4983 339.334C10.1055 339.027 10.1572 338.594 10.011 338.247C9.60901 337.282 8.84456 336.668 8.18365 335.936C7.93024 335.729 7.73847 335.454 7.62935 335.144C7.25778 333.755 7.09027 333.546 5.57354 332.615C4.62026 332.028 3.99285 331.128 3.20403 330.388C2.8416 330.05 3.24667 329.466 2.85683 328.996C2.26902 328.299 2.70455 327.377 2.57968 326.566C2.4944 326.01 3.23144 325.832 3.11876 325.235C3.07916 325.023 3.46291 324.999 3.68525 324.91C4.23041 324.689 4.65985 324.326 4.62026 323.619C4.58066 322.913 4.65376 322.255 4.56239 321.589C4.52584 321.318 3.91367 321.091 4.12686 320.781C4.92177 319.632 4.49843 318.357 4.61721 317.143C4.64928 316.936 4.62579 316.724 4.54919 316.53C4.47259 316.335 4.34568 316.165 4.18168 316.037C4.13412 315.971 4.10338 315.895 4.09222 315.815C4.08106 315.734 4.08982 315.652 4.11773 315.576C4.83345 314.9 4.55021 314.04 4.62026 313.22C4.64462 312.912 4.45884 312.768 4.28828 312.587C3.8893 312.163 4.12382 311.849 4.45275 311.527C4.5521 311.402 4.60588 311.247 4.60503 311.087C4.62939 310.599 3.76139 310.356 4.18168 309.803C4.4497 309.453 4.67812 309.158 4.61417 308.697C4.52889 308.061 4.79995 307.401 4.203 306.805C3.93499 306.534 3.96544 305.883 4.39183 305.447C4.57191 305.271 4.67782 305.032 4.68747 304.78C4.69712 304.527 4.60975 304.281 4.44361 304.092C4.01417 303.603 3.94717 303.247 4.46493 302.838C4.63548 302.706 4.60807 302.617 4.40706 302.469C4.29175 302.416 4.19845 302.323 4.14295 302.208C4.08745 302.092 4.07316 301.961 4.1025 301.837C4.19996 301.563 4.45579 301.327 4.48016 301.059C4.49539 300.875 4.136 300.675 4.11468 300.466C4.069 300.07 3.98981 299.643 4.38879 299.305C4.78777 298.967 4.57457 298.614 4.28219 298.251C4.11042 298.068 4.01474 297.825 4.01474 297.572C4.01474 297.32 4.11042 297.077 4.28219 296.893C4.63548 296.531 4.44666 296.389 4.203 296.144C4.10859 296.048 4.14514 295.836 4.07813 295.692C3.73702 294.976 5.06492 294.549 4.46493 293.925C3.94412 293.388 4.16037 292.835 4.07813 292.282C4.06417 292.157 4.08534 292.031 4.13921 291.918C4.19309 291.805 4.27748 291.709 4.3827 291.643C4.74817 291.335 4.36442 291.222 4.23651 291.108C4.14043 291.027 4.07469 290.916 4.0503 290.792C4.0259 290.669 4.04433 290.541 4.1025 290.429C4.57153 290.066 4.60198 289.606 4.59285 289.08C4.60963 288.874 4.58422 288.667 4.5182 288.472C4.45218 288.276 4.34696 288.096 4.2091 287.943C4.03245 287.753 4.08118 287.329 4.08118 286.991C4.08118 285.455 4.05986 283.919 4.08118 282.383C4.08118 281.82 3.86494 281.184 4.48929 280.757C4.58066 280.696 4.57153 280.45 4.57457 280.293C4.57457 279.866 4.57457 279.439 4.57457 279.015C4.57457 278.508 4.64462 277.989 4.11468 277.673C4.27305 277.326 4.66594 277.12 4.59285 276.622C4.59495 276.292 4.46803 275.974 4.23955 275.737C3.86798 275.405 4.136 274.941 4.07813 274.542C4.70249 274.161 4.57153 273.537 4.57153 272.96C4.57153 271 4.5898 269.039 4.57153 267.079C4.57153 266.526 4.83041 265.872 4.19082 265.445C4.22345 265.323 4.26942 265.206 4.32788 265.095C4.44886 264.893 4.52956 264.67 4.56543 264.437C4.54412 263.958 4.74208 263.457 4.31265 263.008C3.88321 262.56 4.88218 262.305 4.59285 261.779C4.51975 261.65 4.65071 261.346 4.57153 261.291C3.88321 260.802 4.08727 260.093 4.07813 259.448C4.07813 258.338 4.05681 257.232 4.07813 256.123C4.08434 255.959 4.05423 255.795 3.98997 255.643C3.92571 255.492 3.82891 255.357 3.70656 255.248C3.4355 254.971 3.58474 254.698 3.77052 254.375C4.26392 253.509 4.22737 253.223 3.62738 252.645C3.22535 252.258 2.92688 251.819 2.21116 251.751C1.21828 251.668 0.703564 250.642 0.0670253 249.902C-0.015207 249.807 0.0670253 249.573 0.0670253 249.401C0.0333631 248.89 0.0333631 248.376 0.0670253 247.865C0.201033 246.903 -0.386775 245.794 0.505597 244.992C1.21828 244.341 1.75126 243.49 2.7411 243.066C3.12818 242.92 3.46937 242.672 3.72917 242.348C3.98896 242.023 4.15784 241.635 4.21823 241.223C4.67508 241.014 4.5228 240.485 4.75426 240.169C5.09538 239.723 5.64968 239.474 5.69841 238.755C5.71973 238.448 6.30754 238.184 6.53901 237.834C7.05372 237.099 8.14102 236.814 8.15929 235.702C8.59482 235.348 9.19481 235.305 9.58465 234.817C9.88921 234.451 10.1359 233.987 10.7207 233.895C11.3054 233.803 11.6344 233.207 12.0303 232.792C12.5368 232.264 13.1384 231.839 13.8029 231.539C14.3084 231.296 14.8414 231.139 15.2191 230.644C15.5967 230.15 16.0871 229.588 16.9033 229.803C17.0038 229.827 17.15 229.603 17.2962 229.557C17.9267 229.36 17.5368 228.26 18.2495 228.328C18.9165 228.386 19.2728 227.876 19.815 227.778C20.3571 227.68 20.8109 227.283 20.7926 226.822C20.7591 226.008 21.2799 225.468 21.5388 224.813C21.6515 224.506 21.8829 224.285 21.8433 223.919C21.8251 223.683 21.7642 223.412 22.0322 223.234C22.5591 222.871 22.7875 222.103 23.6159 222.125C23.7895 222.125 23.9814 221.796 24.1489 221.606C24.4687 221.246 24.3469 220.601 24.8707 220.377C25.9732 219.913 26.759 218.887 27.9377 218.592C28.4158 218.472 28.6351 217.821 29.226 218.02C29.6981 217.578 30.0574 216.976 30.8067 216.917C30.8706 216.917 30.9711 216.632 30.9529 216.49C30.8554 215.688 31.2331 215.175 31.9549 215.019C32.3417 214.936 32.5214 214.466 32.7467 214.512C33.7518 214.721 33.3559 213.682 33.7853 213.399C34.2147 213.117 34.0015 212.619 33.9833 212.226C33.9833 211.919 33.4746 211.839 33.4868 211.415C33.5203 210.493 33.4868 209.538 33.5142 208.604C33.5142 208.478 33.7274 208.352 33.8554 208.241C33.9462 208.154 34.0063 208.039 34.0267 207.914C34.047 207.79 34.0264 207.662 33.968 207.55C33.4746 206.238 33.4655 206.241 33.9132 205.11C34.0685 204.714 34.163 204.189 33.8919 203.931C33.4472 203.5 33.6391 203.316 33.965 202.99C34.0533 202.907 34.0442 202.656 33.9985 202.505C33.3559 200.453 33.3498 200.453 33.8584 199.03C33.9949 198.734 34.0571 198.408 34.0396 198.082C34.0221 197.756 33.9253 197.439 33.7579 197.159C33.4899 196.714 33.7579 196.643 33.9102 196.406C33.9924 196.287 34.0564 196.019 33.9924 195.949C33.1274 195.027 33.633 193.869 33.499 192.827C34.2909 192.084 33.9193 191.11 34.0046 190.225C33.1518 189.61 33.6178 188.689 33.496 187.881C33.4491 187.634 33.4719 187.38 33.5619 187.146C33.6518 186.913 33.8053 186.709 34.0046 186.56C34.0046 185.109 34.0198 183.662 33.9863 182.215C33.9863 182.009 33.7031 181.828 33.6178 181.601C33.4381 181.131 33.362 180.679 33.7335 180.215C33.8767 180.04 34.0533 179.656 33.9833 179.582C33.1884 178.719 33.5873 177.674 33.499 176.707C33.4503 176.19 33.4686 175.69 33.9833 175.376C33.7305 175.069 33.4503 174.817 33.4746 174.319C33.5021 173.733 33.4746 173.18 33.965 172.759C33.2036 172.356 33.9132 172.009 33.9955 171.628C34.0472 171.385 34.1142 171.014 33.9955 170.884C33.301 170.187 33.5569 169.33 33.5021 168.522C33.5096 168.361 33.4612 168.202 33.365 168.073C33.0604 167.818 32.9752 167.649 33.3315 167.33C33.8036 166.903 34.4797 166.528 33.6361 165.711C33.2615 165.342 33.3315 164.5 33.6178 164.058C33.9041 163.615 33.8797 163.471 33.566 163.108C33.3376 162.847 33.5081 162.466 33.8188 162.257C34.035 162.116 34.035 162.039 33.8462 161.886C33.74 161.822 33.6516 161.732 33.5893 161.625C33.527 161.517 33.4927 161.396 33.4899 161.271C33.5142 159.993 33.5173 158.715 33.4899 157.437C33.4857 157.272 33.5173 157.108 33.5826 156.957C33.6478 156.806 33.7451 156.671 33.8675 156.561C34.1356 156.282 34.0137 155.999 33.7914 155.689C33.5702 155.393 33.4487 155.034 33.4449 154.663C33.441 154.293 33.555 153.931 33.7701 153.63C33.8797 153.455 34.0046 153.372 33.898 153.262C33.231 152.58 33.3559 151.962 33.9802 151.317C34.0476 151.208 34.0704 151.077 34.0437 150.951C34.0169 150.826 33.9429 150.715 33.8371 150.644C33.4198 150.374 33.6147 150.18 33.8645 149.904C33.9894 149.765 34.032 149.32 33.9376 149.249C33.4442 148.884 33.496 148.389 33.499 147.882C33.499 145.839 33.4564 143.793 33.5295 141.737C33.5477 141.197 33.1457 140.914 33.1061 140.462C33.6665 140.13 33.4838 139.577 33.496 139.092C33.5142 138.496 33.5234 137.897 33.496 137.304C33.4777 136.997 33.6574 136.849 33.8249 136.671C34.2269 136.244 33.962 135.958 33.6696 135.605C33.3772 135.252 33.4472 135.242 33.7092 134.745C33.7792 134.616 33.9559 134.407 33.9437 134.394C33.1762 133.712 33.5752 132.812 33.5234 132.013C33.5021 131.632 34.2878 131.334 33.9833 130.972C33.228 130.069 33.566 129.058 33.5142 128.09C33.4625 127.073 33.5142 126.047 33.4929 125.018C33.4929 124.71 33.7 124.591 33.8218 124.382C34.0746 123.958 34.0746 123.936 33.8218 123.518C33.7 123.312 33.4868 123.193 33.4899 122.885C33.5112 121.097 33.5142 119.306 33.4899 117.518C33.4978 117.187 33.6345 116.872 33.8706 116.642C33.9894 116.495 34.029 116.056 33.9315 115.988C33.3224 115.546 33.5173 114.928 33.5051 114.363C33.5051 113.859 33.5325 113.395 33.0726 112.993C32.8229 112.771 33.0726 112.421 33.2797 112.132C33.6787 111.616 33.6483 111.097 33.1853 110.565C32.8807 110.212 32.9234 110.144 33.1853 109.711C33.3071 109.502 33.5721 109.376 33.4899 109.075C33.3315 108.366 33.8371 107.539 33.1122 106.925C33.0497 106.829 33.0124 106.718 33.0038 106.604C32.9953 106.489 33.0158 106.375 33.0635 106.27C33.2154 106.131 33.3336 105.958 33.4091 105.765C33.4846 105.572 33.5154 105.365 33.499 105.158C33.4655 104.236 33.4625 103.284 33.499 102.347C33.519 102.14 33.4884 101.931 33.4098 101.739C33.3312 101.546 33.2071 101.377 33.0483 101.244C33.0009 101.178 32.971 101.1 32.9615 101.019C32.9519 100.938 32.9629 100.856 32.9934 100.78C33.8401 99.9351 33.3924 98.8751 33.4716 97.9104C33.5051 97.5018 33.8158 97.3697 33.9894 97.1055C33.0239 96.2944 33.6056 95.2006 33.5112 94.2451C33.4107 93.2313 33.5112 92.202 33.4716 91.1728C33.4716 90.9669 33.1823 90.7857 33.1061 90.5583C33.03 90.331 32.9599 89.993 33.0665 89.8886C33.2159 89.7472 33.3323 89.574 33.4071 89.3817C33.4819 89.1893 33.5133 88.9825 33.499 88.7764C33.4746 86.8162 33.4746 84.8561 33.499 82.8959C33.4938 82.4842 33.3375 82.0891 33.0604 81.7868C32.896 81.5656 32.8503 80.9972 33.0087 80.8313C33.6787 80.1155 33.4503 24.1253 33.4807 23.3172C33.486 23.2378 33.4747 23.1582 33.4474 23.0836C33.4201 23.0089 33.3775 22.9409 33.3224 22.884C32.9478 22.6044 33.0939 22.4539 33.3224 22.1313C33.6818 21.6367 33.4655 21.0099 33.4472 20.4354C32.5335 19.6059 33.1762 18.5121 32.9782 17.5627C33.8066 16.641 33.4016 15.5012 33.4777 14.4505C33.5021 14.1217 34.297 13.9896 33.6848 13.5103C33.0239 12.9942 32.5823 12.4258 33.4868 11.7192C33.3955 11.0832 33.7548 10.3796 33.097 9.82661C32.8198 9.59311 32.9478 9.21214 33.231 8.96636C33.6208 8.61304 33.5904 8.24129 33.1975 7.92176C32.8716 7.6514 33.1975 7.54694 33.2889 7.37182C33.4646 7.1389 33.5485 6.84852 33.5243 6.55683C33.5001 6.26515 33.3696 5.99286 33.1579 5.79264C32.8533 5.45161 32.8747 5.35329 33.1884 4.94775C33.4137 4.66202 33.6574 4.31484 33.4168 4.08442C32.8686 3.55598 32.8077 3.16272 33.3985 2.62813C33.5051 2.53289 33.4746 2.1212 33.3589 1.97065C33.1518 1.70029 32.8412 1.4545 32.9965 1.10733C33.1508 0.808227 33.3823 0.556673 33.6665 0.379185C33.7711 0.330644 33.8849 0.305511 34 0.305511C34.1152 0.305511 34.2289 0.330644 34.3335 0.379185C34.5498 0.480572 34.6838 0.744792 34.8817 0.898409C35.6675 1.51288 35.701 2.35777 35.3873 3.14121C35.2411 3.50989 34.9761 3.81405 35.0005 4.25954C35.0553 5.26727 35.031 6.28114 35.1558 7.27657C35.1863 7.52236 35.436 7.6176 35.232 8.02315C34.8086 8.8619 34.9274 9.43028 35.3599 10.5916C35.5861 11.2065 35.5676 11.8859 35.3081 12.4873C34.9091 13.5257 34.8239 14.1801 35.2655 15.0619C35.5914 15.7163 35.698 16.4413 35.3751 16.936C35.1039 17.3653 34.9807 17.8729 35.0249 18.38C35.0249 19.3017 35.0249 20.2541 35.0249 21.1912C35.0249 21.4462 34.9183 21.7872 35.0249 21.9439C36.033 23.2373 35.2838 79.8666 35.5152 81.2399C35.554 81.4023 35.5459 81.5724 35.4919 81.7303C35.4379 81.8881 35.3404 82.0272 35.2107 82.1309C34.8147 82.4596 35.0188 82.942 35.0553 83.3261C35.0797 83.5995 35.5548 83.7162 35.5396 84.1402C35.5061 85.2432 35.5396 86.3462 35.4878 87.4491C35.4878 87.5751 35.2472 87.6796 35.1497 87.8147C35.0952 87.8771 35.0546 87.9506 35.0306 88.0302C35.0067 88.1098 35 88.1937 35.0109 88.2761C35.0219 88.3586 35.0503 88.4377 35.0942 88.5081C35.1382 88.5785 35.1966 88.6385 35.2655 88.6842C35.4939 88.8747 35.5091 89.0375 35.2655 89.228C34.8543 89.5352 35.0827 90.0084 35.0249 90.4047C35.698 90.9762 35.5244 91.7627 35.5305 92.4939C35.5305 94.368 35.5305 96.2452 35.5305 98.1193C35.5151 98.4424 35.4095 98.7545 35.2259 99.0195C35.0469 99.2959 34.9516 99.6188 34.9516 99.9489C34.9516 100.279 35.0469 100.602 35.2259 100.878C35.6188 101.416 35.5305 101.683 35.1589 102.156C34.9152 102.464 35.6949 102.682 35.5274 103.152C35.3904 103.527 34.7386 103.834 35.0432 104.193C35.6827 104.934 35.4909 105.754 35.5183 106.562C35.5457 107.37 35.5365 108.098 35.5183 108.863C35.5183 108.989 35.2868 109.097 35.2137 109.238C34.9792 109.653 34.9701 109.671 35.2137 110.101C35.3355 110.31 35.5396 110.436 35.5365 110.74C35.5244 114.147 35.5244 117.555 35.5365 120.965C35.5365 121.355 34.6229 121.666 35.4421 122.111C35.4695 122.695 35.5061 123.279 35.5213 123.865C35.5213 124.376 35.5213 124.886 35.5213 125.402C35.5213 125.918 35.5518 126.425 35.5213 126.938C35.4939 127.343 35.7802 127.519 35.9751 127.78C36.0574 127.893 36.1 128.176 36.0269 128.247C35.1132 129.168 35.5792 130.333 35.5548 131.371C35.4878 134.268 35.503 137.166 35.5548 140.063C35.5548 140.938 35.1406 141.937 36.0391 142.659C35.168 143.292 35.6157 144.214 35.5518 145.009C35.4848 145.854 35.5518 146.711 35.5274 147.562C35.5095 147.723 35.4349 147.871 35.3173 147.98C34.7934 148.469 35.031 148.847 35.4543 149.209C35.8228 149.532 36.2401 149.824 35.5822 150.324C35.4147 150.45 35.5396 150.967 35.5396 151.305C35.5396 154.289 35.5396 157.272 35.5396 160.254C35.5396 160.902 35.3629 161.585 36.0178 162.116C36.1792 162.248 36.1731 162.936 36.0178 163.075C35.4604 163.535 35.5426 164.107 35.5426 164.688C35.5426 169.373 35.5426 174.058 35.5426 178.747C35.5426 179.555 35.3203 180.424 36.033 181.103C36.1183 181.183 36.0117 181.441 36.0513 181.601C36.1974 182.172 35.3264 182.387 35.5579 182.916C35.7467 183.352 36.167 183.681 36.0543 184.246C36.0025 184.492 36.1548 184.861 36.0269 184.996C35.2563 185.77 35.5609 186.729 35.5518 187.613C35.5152 190.425 35.5335 193.236 35.5518 196.05C35.5518 196.698 35.3477 197.414 36.0421 197.893C36.0803 197.967 36.1002 198.049 36.1002 198.131C36.1002 198.214 36.0803 198.296 36.0421 198.37C35.5548 198.714 35.5426 199.187 35.5487 199.712C35.567 201.248 35.5487 202.785 35.5487 204.321C35.5487 204.754 35.5487 205.129 35.9355 205.451C35.9953 205.548 36.03 205.658 36.0364 205.772C36.0428 205.886 36.0207 206 35.9721 206.103C35.5305 206.465 35.6005 206.736 36.0117 207.024C35.3416 207.694 35.5731 208.561 35.5609 209.35C35.5609 209.998 35.3508 210.723 36.0604 211.194C35.9599 212.075 36.3406 213.018 35.5761 213.817C35.3142 214.088 36.0574 214.963 36.569 215.003C36.9055 215.031 37.2437 215.031 37.5802 215.003C37.903 214.976 38.1467 215.203 38.0644 215.406C37.7599 216.192 38.4786 216.635 38.6431 217.249C38.8685 218.091 39.8979 218.146 40.5436 218.601C41.3476 218.294 41.8167 219.36 42.6177 219.126C42.696 219.118 42.7751 219.127 42.8497 219.153C42.9243 219.178 42.9927 219.219 43.0501 219.274C43.7141 219.888 44.2989 220.533 45.1547 220.939C45.4509 221.087 45.7084 221.303 45.9063 221.57C46.1042 221.837 46.237 222.147 46.2937 222.475C46.4064 223.065 47.0369 223.547 47.1678 224.137C47.2653 224.589 47.7313 224.752 47.7221 225.194C47.7486 225.789 47.7415 226.385 47.7008 226.979C47.646 227.382 47.1648 227.231 46.8907 227.363C46.8206 227.397 46.7293 227.477 46.7232 227.541C46.7171 227.606 46.8267 227.713 46.8815 227.713C47.2947 227.686 47.7073 227.774 48.0739 227.968C48.4405 228.162 48.7467 228.455 48.9587 228.813C49.2632 229.286 49.781 229.299 50.1983 229.517C50.8531 229.858 51.5627 230.159 51.9343 230.804C52.3058 231.449 53.4236 231.111 53.4023 232.208C53.4023 232.546 54.0784 232.445 54.4317 232.709C54.9951 233.127 55.8479 233.173 55.8388 234.156C55.8476 234.197 55.8657 234.234 55.8917 234.266C55.9176 234.298 55.9506 234.324 55.988 234.34C56.4175 234.497 57.0479 234.439 56.8499 235.219C57.1816 235.606 57.5453 235.964 57.9372 236.288C58.3575 236.596 58.9027 236.629 59.0093 237.351C59.0763 237.788 59.7981 237.944 59.8925 238.507C59.8997 238.665 59.9561 238.818 60.0539 238.943C60.5595 239.382 60.7879 240.003 61.1534 240.525C61.6803 241.281 62.4356 241.874 63.0904 242.537C63.9249 242.568 64.7564 242.63 65.5879 242.617C65.7916 242.61 65.9946 242.646 66.1835 242.724C66.3724 242.801 66.5431 242.918 66.6843 243.066C67.1747 243.527 67.4305 244.111 67.7746 244.654C68.1188 245.198 67.9574 245.622 67.9909 246.104C68.0274 246.697 67.9909 247.297 67.9909 247.893C67.9909 248.771 67.933 248.747 67.5036 249.736C67.2118 250.416 66.6906 250.97 66.0325 251.3C65.8066 251.371 65.5951 251.482 65.4082 251.629C65.1858 251.868 64.9331 252.056 64.9422 252.461C64.9666 253.997 64.9422 255.533 64.9605 257.07C64.9706 257.275 64.9376 257.48 64.8636 257.672C64.7896 257.864 64.6763 258.037 64.531 258.182C64.2904 258.446 64.4458 258.796 64.729 259.042C65.0122 259.288 65.1006 259.657 64.799 259.896C64.2722 260.292 64.4945 260.818 64.4427 261.291C65.4234 262.197 64.7838 263.359 64.93 264.394C64.4153 264.701 64.2326 265.316 64.4762 265.706C65.3564 267.125 64.7564 268.655 64.9544 270.115C65.0092 270.514 64.726 270.705 64.5219 270.963C64.4336 271.073 64.4549 271.27 64.4458 271.439C64.4275 271.746 65.0914 271.801 64.793 272.176C64.6758 272.29 64.5834 272.427 64.5216 272.579C64.4597 272.731 64.4297 272.894 64.4336 273.058C64.4701 273.654 64.4336 274.253 64.4336 274.849C64.4336 276.809 64.4336 278.766 64.4336 280.727C64.4579 280.892 64.4373 281.06 64.374 281.215C64.3107 281.369 64.2071 281.503 64.0742 281.602C63.8854 281.728 63.9097 281.83 64.1199 281.968C64.2991 282.085 64.4273 282.267 64.4782 282.477C64.5291 282.686 64.499 282.907 64.394 283.095C63.6965 284.085 63.9554 285.172 63.9341 286.229C63.9341 286.616 64.7046 286.908 64.4001 287.271C63.5107 288.334 64.0955 289.541 63.9158 290.65C63.864 290.957 64.1138 291.08 64.2356 291.286C64.4914 291.713 64.5402 291.769 64.2356 292.14C64.026 292.391 63.9174 292.713 63.931 293.04C63.931 296.621 63.931 300.199 63.931 303.775C63.9316 303.94 63.966 304.102 64.0321 304.252C64.0981 304.402 64.1944 304.537 64.3148 304.648C64.5737 304.93 64.4975 305.262 64.2112 305.511C63.8305 305.858 63.8184 306.224 64.2112 306.559C64.3848 306.709 64.4488 306.808 64.327 306.924C63.5199 307.708 64.0864 308.694 63.9615 309.579C63.8823 310.132 64.6133 310.467 64.4762 311.158C64.3392 311.849 64.4458 312.516 64.4458 313.198V314.959C64.4458 315.573 64.4458 316.154 64.4458 316.75C64.4275 317.257 64.7716 317.201 65.1036 317.275C65.1779 317.302 65.2459 317.344 65.3032 317.399C65.3606 317.453 65.406 317.52 65.4366 317.593C65.4673 317.666 65.4825 317.745 65.4812 317.825C65.48 317.905 65.4624 317.983 65.4295 318.055C65.3265 318.191 65.2067 318.313 65.0732 318.418C64.5554 318.802 64.4153 319.309 64.4366 319.954C64.4823 321.318 64.4975 322.682 64.4366 324.043C64.3953 324.416 64.4482 324.792 64.5904 325.138C64.7326 325.484 64.9595 325.788 65.2498 326.022C65.6061 326.329 65.5239 326.922 65.9473 327.276C66.0281 327.422 66.0705 327.586 66.0705 327.753C66.0705 327.921 66.0281 328.085 65.9473 328.231C65.5148 328.581 65.597 329.153 65.2468 329.488C64.8965 329.822 65.0122 330.256 64.9422 330.652C64.9025 330.808 64.8202 330.95 64.7046 331.061C64.1473 331.657 63.4864 332.151 63.2458 333.015C63.1796 333.165 63.0778 333.297 62.9493 333.399C62.8208 333.501 62.6695 333.569 62.5087 333.598C61.662 333.598 61.5737 334.867 60.6448 334.671C60.5869 334.671 60.4042 334.916 60.4011 335.052C60.4011 335.559 60.456 336.078 59.9291 336.394C59.993 336.984 59.5971 337.337 59.2012 337.623C58.7443 337.93 58.921 338.523 58.5281 338.904C58.2235 339.212 58.2235 339.801 57.788 340.115C57.5992 340.25 57.3372 340.533 57.3707 340.686C57.5596 341.519 56.9839 341.915 56.5271 342.394C55.7931 343.166 54.9251 343.817 54.5292 344.883C54.4378 345.138 54.0997 345.301 53.7617 345.433C52.9454 345.74 52.1353 346.143 51.5657 346.88C51.4104 347.08 51.2033 347.405 51.0328 347.396C50.2104 347.359 50.0155 348.241 49.4216 348.435C49.1171 348.542 48.8521 348.742 48.5749 348.843C47.6856 349.151 46.8816 349.667 46.0288 350.051C45.4988 350.29 45.0481 350.601 44.442 350.515C44.0582 351.105 43.4674 351.062 42.8796 351.028C42.7121 351.028 42.4258 350.979 42.3953 351.046C42.0299 351.86 41.0979 351.249 40.6563 351.768C40.4065 352.075 40.0471 351.977 39.7883 352.137C39.6817 352.201 39.636 352.407 39.6055 352.561C39.5667 352.807 39.4538 353.034 39.2821 353.213C39.1105 353.392 38.8884 353.513 38.6461 353.559C38.238 353.639 38.0827 353.774 38.0736 354.174C38.0736 354.45 37.8908 354.558 37.5954 354.613C36.837 354.758 36.5233 355.268 36.5538 356.051C36.5873 356.973 36.5538 357.925 36.5538 358.862C37.4858 359.87 36.8888 361.108 37.0655 362.242C37.1142 362.549 36.9162 362.718 36.7243 362.856C36.5325 362.994 36.5386 363.065 36.7243 363.234C37.2512 363.698 37.2025 364.242 36.8431 364.792C36.7594 364.9 36.686 365.017 36.6238 365.139C37.4005 365.824 36.9497 366.727 37.0472 367.526C37.0959 367.944 37.0045 368.383 37.0685 368.801C37.1507 369.311 36.5721 369.44 36.5477 369.87C36.5233 370.3 36.636 370.678 36.2431 371.032C35.7589 371.48 36.6086 371.548 36.569 372.006C36.4898 373.195 36.4837 374.388 36.5507 375.579C36.5754 375.82 36.5445 376.063 36.4605 376.29C36.3765 376.517 36.2417 376.722 36.0665 376.888C36.5903 377.195 36.5751 377.714 36.5325 378.224C36.4563 379.192 36.837 380.246 36.0299 381.081V384.393C36.9436 385.401 36.4015 386.633 36.5325 387.773C36.5934 388.292 36.5325 388.759 36.0665 389.125C36.0009 389.232 35.9768 389.36 35.9987 389.484C36.0206 389.608 36.087 389.72 36.1853 389.797C36.3162 389.905 36.4898 390.025 36.5233 390.163C36.6512 390.778 36.3436 391.45 36.8797 392.077C37.3304 392.606 36.9223 393.386 37.0502 394.037C37.2208 394.916 36.633 395.905 37.4309 396.695C37.4675 396.732 37.3396 396.925 37.3 397.048C36.9375 398.176 36.9071 398.821 37.3426 399.623C37.5193 399.948 37.6685 400.21 37.4096 400.502C37.1934 400.744 36.9254 401.091 36.6634 401.116C35.7771 401.174 34.8787 401.291 34.0716 400.655C33.6543 400.323 32.9721 400.305 32.6127 399.942C32.1559 399.488 31.5011 399.847 31.2513 399.574C30.7793 399.058 30.1062 399.002 29.5915 398.572C29.025 398.096 28.9823 397.417 28.5803 396.91C28.2087 396.452 28.3641 395.773 28.5011 395.223C28.5712 394.947 28.9549 394.79 28.9427 394.385C28.9123 393.361 28.9427 392.338 28.9427 391.312C28.9427 391.005 28.227 390.458 27.8829 390.39C27.1763 390.258 26.36 390.756 25.7509 390C25.6534 389.877 25.5347 389.951 25.3946 390.129C24.9499 390.679 24.0362 390.089 23.6494 390.845C23.5837 390.891 23.5079 390.919 23.4287 390.927C23.3495 390.936 23.2694 390.925 23.1956 390.894C22.7662 390.363 21.9286 390.507 21.5753 389.874C21.4992 389.736 21.35 389.604 21.3439 389.466C21.3195 388.87 21.1642 388.197 21.3804 387.696C21.5967 387.195 21.9043 386.716 21.8677 386.095C21.8677 385.92 22.1479 385.687 22.3489 385.548C22.8362 385.217 22.9032 384.753 22.8606 384.221C22.8014 383.975 22.8152 383.716 22.9002 383.478C23.1712 383.066 23.6555 382.765 23.8352 382.329C24.0149 381.892 23.7469 381.198 24.0027 380.885C24.3286 380.482 24.2403 379.908 24.6727 379.613C24.9316 379.441 24.8799 379.18 24.8799 378.934C24.8799 378.421 24.7123 377.818 24.9255 377.425C25.1661 376.98 25.492 376.617 25.3854 376.076C25.3215 375.751 25.6382 375.668 25.7418 375.462C25.9824 374.967 26.4027 374.433 26.3509 373.957C26.2778 373.262 26.9966 372.98 26.9082 372.374C26.8412 371.913 27.1062 371.625 27.3255 371.262C27.5143 370.955 27.3895 370.445 27.423 370.033C27.423 369.876 27.4534 369.631 27.5478 369.585C28.3153 369.207 27.5478 368.211 28.2575 367.827C28.4859 367.704 28.4585 367.618 28.2575 367.459C27.8798 367.151 27.6971 366.724 28.157 366.429C29.095 365.815 28.9153 364.684 29.4087 363.864C29.625 363.501 29.561 362.973 29.8899 362.524C30.1336 362.189 30.0361 361.523 29.9387 361.037C29.7559 360.116 30.3041 359.458 30.6909 358.788C30.9254 358.383 31.1265 357.907 30.9407 357.646C30.2432 356.653 30.4686 355.562 30.4899 354.512C30.4899 353.897 30.2219 353.59 29.8625 353.224C29.6783 353.067 29.5403 352.862 29.4635 352.631C29.3052 351.836 28.8544 351.507 28.0595 351.538C27.9042 351.538 27.6544 351.538 27.6057 351.446C27.3255 350.948 26.6707 351.16 26.3631 350.733C26.0098 350.238 25.3154 350.813 25.0108 350.358C24.7063 349.903 24.0484 350.149 23.7469 349.661C23.6616 349.519 23.2992 349.492 23.0707 349.51C22.906 349.522 22.741 349.491 22.5913 349.42C22.4416 349.35 22.3121 349.242 22.2149 349.108C21.8829 348.73 21.5601 348.355 20.954 348.456C20.7158 348.455 20.4874 348.36 20.3175 348.192C19.8728 347.799 19.483 347.344 19.0414 346.963C18.9561 346.855 18.7277 346.929 18.4322 346.8ZM58.8631 269.46C58.8493 269.375 58.8493 269.288 58.8631 269.202C59.1098 268.443 59.9169 268.127 60.2671 267.488C60.6174 266.849 60.861 266.201 61.1991 265.58C61.3491 265.374 61.5264 265.19 61.726 265.033C62.0672 264.655 62.4281 264.295 62.8072 263.955C63.5747 263.34 63.5107 262.529 63.325 261.693C62.7737 261.368 62.9168 260.821 62.9168 260.329C62.9168 259.758 62.7646 259.128 63.3981 258.744C63.3981 257.383 63.4224 256.025 63.3981 254.664C63.3981 254.541 63.2062 254.391 63.0722 254.298C62.862 254.157 62.9686 254.114 63.0722 253.92C63.6082 252.916 63.5351 252.544 62.8377 252.003C62.3747 251.647 61.7808 251.715 61.1169 252.363C60.5747 252.891 59.8621 253.017 59.2377 253.352C58.2601 253.125 57.5596 253.785 56.786 254.169C55.4033 254.854 55.4124 254.839 54.2946 254.901C53.5028 254.94 52.5952 254.538 51.9708 255.398L49.446 255.423C48.8034 256.249 47.9018 255.828 47.11 255.899C45.4044 256.05 43.6623 255.592 41.9842 256.381C41.715 256.516 41.4077 256.55 41.1159 256.479C40.8242 256.407 40.5666 256.235 40.3882 255.991C40.3152 255.893 39.8857 255.924 39.7395 256.04C39.5121 256.278 39.2021 256.418 38.8746 256.431C37.437 256.406 36.0025 256.431 34.568 256.412C34.0442 256.412 33.5904 256.434 33.231 256.907C33.1212 256.969 32.9927 256.988 32.8698 256.961C32.7469 256.934 32.6381 256.862 32.564 256.759C32.4567 256.645 32.3383 256.542 32.2107 256.452C31.7386 257.398 31.297 256.369 30.8432 256.4C29.5784 256.478 28.3101 256.478 27.0453 256.4C26.5793 256.372 26.3174 257.051 26.0676 256.79C25.626 256.335 25.154 256.446 24.6788 256.431C24.088 256.412 23.4941 256.431 22.9032 256.431C22.2606 256.409 21.5388 256.652 21.0758 255.93L20.5398 256.409C19.8058 255.543 18.8221 256.04 17.951 255.927C17.6221 255.884 17.1439 256.022 16.9856 255.844C16.3551 255.149 15.5754 255.503 14.8536 255.42C14.4364 255.374 13.9978 255.475 13.5927 255.392C13.2881 255.331 13.0689 255.017 12.7795 254.916C12.4902 254.815 12.0364 254.94 11.8384 254.762C11.1623 254.148 9.94403 254.606 9.54506 253.533C9.52752 253.496 9.50161 253.463 9.46937 253.438C9.43713 253.412 9.39944 253.394 9.35927 253.386C8.93897 253.386 8.51563 253.386 8.09229 253.386C7.61107 253.355 7.37047 252.814 6.78266 252.851C5.50654 252.931 5.58572 252.851 5.59486 253.877C5.59486 254.815 5.54004 255.755 5.61314 256.689C5.67709 257.564 5.19893 258.56 6.0913 259.285C5.78674 259.567 5.32989 259.945 5.66796 260.308C6.00602 260.67 6.10044 261.171 6.33495 261.583C7.13291 262.981 7.22428 263.119 8.80497 264.133C9.00902 264.265 9.27399 264.416 9.35318 264.618C9.7948 265.749 10.7694 266.422 11.5004 267.307C11.8308 267.749 12.0568 268.262 12.1613 268.806C12.2391 269.197 12.3725 269.575 12.5572 269.927C12.9562 270.698 13.3947 271.494 13.2242 272.471C13.1267 273.018 13.0262 273.676 13.6689 274.06C13.6689 274.822 13.7937 275.596 13.6689 276.339C13.547 277.153 14.278 277.63 14.2353 278.435C14.144 280.892 14.1805 283.375 14.2353 285.845C14.2353 286.337 13.9917 286.598 13.7298 286.902C14.2414 287.209 14.214 287.713 14.2323 288.232C14.2506 288.752 13.9734 289.44 14.616 289.864C14.5791 289.985 14.529 290.101 14.4668 290.211C14.0343 291.166 14.2171 292.15 14.3267 293.13C14.9054 293.498 14.3633 293.713 14.2688 294.051C14.144 294.481 14.01 295.071 14.5734 295.422C14.7683 295.548 14.744 295.646 14.5338 295.79C14.2293 295.999 14.0617 296.383 14.2963 296.638C14.6374 297.007 14.7653 297.253 14.2963 297.56C14.3176 298.442 13.8546 299.385 14.68 300.165C14.7775 300.257 14.7105 300.678 14.5825 300.829C14.0587 301.443 14.0983 301.975 14.5825 302.592C14.8567 302.955 14.8567 303.032 14.5338 303.447C14.211 303.861 14.1044 304.113 14.4638 304.519C14.5474 304.602 14.6134 304.701 14.6579 304.81C14.7024 304.919 14.7244 305.037 14.7226 305.155C14.6495 305.462 14.3602 305.683 14.2536 305.978C14.077 306.464 14.7683 306.593 14.7501 307.038C14.7318 307.484 14.8719 307.904 14.4242 308.178C14.1988 308.316 14.2171 308.387 14.4242 308.55C14.9602 309.01 14.9206 309.567 14.5521 310.104C14.077 310.796 14.1562 311.478 14.4881 312.184C14.6155 312.384 14.7044 312.606 14.7501 312.839C14.7805 313.687 14.8841 314.565 14.7166 315.383C14.61 315.902 14.1348 316.341 14.2384 316.971C14.2384 317.069 14.0404 317.306 13.9338 317.3C13.3887 317.266 13.3247 317.542 13.1876 318.022C13.0354 318.556 12.4567 318.808 11.8719 318.983C11.4273 319.115 11.2872 319.84 10.7176 319.859C10.1999 319.877 9.99886 320.596 9.41409 320.397C9.05775 321.045 8.29025 320.685 7.89127 320.983C7.50141 321.284 7.02011 321.438 6.52987 321.42C6.39282 321.42 6.14917 321.573 6.14612 321.662C6.11567 322.584 6.14612 323.536 6.11567 324.474C6.11567 324.799 6.34409 324.898 6.48419 325.088C6.86185 325.616 7.50448 325.896 7.67808 326.64C7.79686 327.146 8.19888 327.583 8.47604 328.05C9.21308 327.954 9.36232 328.845 9.8679 328.971C10.5044 329.113 10.8303 329.549 11.2658 329.893C11.5704 330.148 11.7653 330.508 12.2283 330.634C12.9114 330.834 13.5475 331.172 14.0983 331.626C14.7257 331.469 15.1673 331.866 15.6668 332.127C16.1663 332.388 16.8241 332.434 17.1317 332.821C17.6099 333.405 18.3135 332.876 18.7124 333.337C19.1114 333.798 19.7084 333.801 20.1743 334.139C20.5885 334.446 21.3347 333.909 21.8159 334.419C22.2971 334.929 22.9276 334.64 23.4819 334.68C24.238 334.764 25.0009 334.764 25.757 334.68C26.6372 334.542 27.3133 335.128 28.0869 335.174C28.7722 335.217 29.3052 335.503 29.9143 335.684C30.5234 335.866 31.2544 335.728 31.9305 335.728H33.9559C34.2939 335.728 34.635 335.752 34.9701 335.728C35.0925 335.72 35.2147 335.747 35.3225 335.806C35.4302 335.866 35.5192 335.954 35.5792 336.062C35.7315 336.274 35.8046 336.284 35.9477 336.062C36.4106 335.377 37.4705 336.041 37.8939 335.221C37.9213 335.165 38.2746 335.184 38.3477 335.273C38.6705 335.681 38.8563 335.605 39.2857 335.322C39.6421 335.082 40.2847 335.113 40.7415 335.239C41.442 335.429 41.6552 334.578 42.3161 334.68C42.8918 334.769 43.5009 334.64 44.0857 334.714C44.3748 334.755 44.6696 334.71 44.934 334.585C45.1985 334.46 45.4212 334.26 45.575 334.01C45.6809 333.883 45.8167 333.785 45.97 333.725C46.1232 333.665 46.289 333.645 46.4521 333.666C47.6399 333.666 47.6186 333.592 49.382 332.781C49.8084 332.581 50.1922 332.265 50.6429 332.167C51.0449 332.074 51.4957 332.213 51.9008 332.13C52.3058 332.047 52.4764 331.454 52.9576 331.647C53.652 331.927 53.8713 330.842 54.5261 331.125C54.9464 330.818 54.7119 330.351 54.7911 329.961C54.8459 329.697 55.0286 329.58 55.3271 329.58C55.6256 329.58 55.9667 329.687 56.2682 329.395C56.5697 329.104 56.853 328.425 57.4347 328.594C58.1382 328.796 58.3819 327.921 59.0062 328.053C59.1706 328.099 59.3444 328.099 59.5088 328.053C59.8712 327.911 60.0753 327.534 60.5687 327.509C60.8945 327.494 61.123 326.895 61.6285 327.033C61.6712 327.033 61.7473 326.922 61.8052 326.861C62.0458 326.621 62.2681 326.363 62.527 326.145C62.6566 326.042 62.7589 325.909 62.8248 325.757C62.8907 325.604 62.9181 325.438 62.9047 325.272C62.8773 324.166 62.9047 323.057 62.8864 321.951C62.8864 321.644 63.0935 321.518 63.2366 321.337C63.5595 320.891 62.8955 320.903 62.8925 320.596C62.8894 320.289 62.9717 319.865 62.8255 319.607C62.5757 319.165 62.0671 319.423 61.6712 319.392C61.1656 319.355 60.657 319.392 60.1484 319.392C59.6397 319.392 58.6651 318.734 58.321 318.224C58.0499 317.819 57.7941 317.444 57.2306 317.303C57.0336 317.252 56.8506 317.157 56.6955 317.024C56.5404 316.892 56.4172 316.725 56.3352 316.538C56.1373 315.69 56.5636 314.722 55.8357 313.966C56.8012 312.949 56.189 311.708 56.2682 310.587C56.3809 308.977 56.3109 307.351 56.2895 305.735C56.2895 304.844 56.5149 303.892 55.8083 303.118C55.7453 303.006 55.7121 302.88 55.7121 302.752C55.7121 302.624 55.7453 302.498 55.8083 302.387C56.5027 301.692 56.2804 300.832 56.2895 300.024C56.3109 298.236 56.2652 296.445 56.3109 294.657C56.3322 293.947 55.9667 293.12 56.786 292.561C56.6641 291.947 57.0266 291.286 56.4814 290.641C56.2881 290.372 56.1865 290.047 56.192 289.714C56.1975 289.382 56.3097 289.06 56.5119 288.798C56.8713 288.306 56.8164 287.842 56.7738 287.372C56.7159 286.294 57.0784 285.157 56.5454 284.152C56.1982 283.501 56.1098 282.776 56.4114 282.278C56.6713 281.864 56.8038 281.382 56.7921 280.892C56.7921 280.296 56.7921 279.7 56.7921 279.104C56.7921 278.597 56.8377 278.106 56.3474 277.74C56.3076 277.634 56.2942 277.519 56.3086 277.406C56.3229 277.293 56.3645 277.185 56.4296 277.092C57.2855 276.456 56.2682 275.199 57.2763 274.594C57.4256 274.505 57.2976 273.946 57.2976 273.608C57.2976 273.009 57.2733 272.413 57.2976 271.817C57.3311 271.153 58.1169 271.021 58.3057 270.453C58.4302 270.091 58.6191 269.754 58.8631 269.46ZM54.8215 253.097C55.3119 252.575 55.9393 252.848 56.4875 252.864C57.252 252.888 57.7058 251.988 58.5707 252.289C58.72 252.341 59.0306 251.856 59.2956 251.656C59.993 251.131 60.8458 250.894 61.5829 250.427C61.9483 250.191 62.5544 250.246 63.0356 250.304C63.8123 250.396 64.2965 249.447 65.1067 249.776C65.4752 249.441 65.865 249.125 66.2 248.759C66.3574 248.58 66.4516 248.353 66.4681 248.114C66.5046 247.521 66.3554 246.885 66.5107 246.335C66.73 245.548 65.9929 245.155 65.9594 244.491C65.9442 244.236 65.6945 244.129 65.4082 244.141C64.9909 244.141 64.4945 244.264 64.1899 244.071C63.8123 243.825 63.6326 243.6 63.2549 244.071C63.0722 244.286 62.6153 244.111 62.4052 244.442C62.195 244.774 62.0336 244.495 61.8691 244.362C61.5304 244.018 61.2121 243.654 60.9159 243.272C60.9707 242.657 60.4347 242.418 60.0996 242.086C59.6397 241.631 60.1758 240.937 59.588 240.491C58.9664 240.048 58.4289 239.495 58.0012 238.86C57.795 238.426 57.546 238.014 57.258 237.631C56.9322 237.275 56.3444 237.072 56.3444 236.485C56.3444 235.689 55.5769 236.095 55.2692 235.705C54.6936 234.98 53.9444 234.393 53.3322 233.692C52.6713 232.936 51.6175 232.728 51.0206 231.898C50.7589 231.585 50.3969 231.374 49.9972 231.302C49.6622 231.207 49.3394 230.921 48.9495 230.777C48.5719 230.58 48.2612 230.274 48.0572 229.898C47.6704 229.283 46.8389 229.44 46.4369 228.841C46.3699 228.74 45.98 228.737 45.7699 228.976C45.4349 229.357 45.0603 229.704 44.7009 230.064C45.1334 230.829 45.9404 231.145 46.6592 231.311C47.2683 231.449 47.7678 231.554 48.1364 232.055C48.5049 232.555 49.2419 232.362 49.5587 232.943C49.6592 233.13 49.7323 233.155 49.5983 233.32C49.1445 233.886 48.38 234.199 47.8836 233.787C47.3871 233.376 46.6074 233.406 46.2724 232.737C46.1911 232.586 46.0597 232.47 45.9015 232.407C45.7433 232.345 45.5684 232.341 45.4075 232.396C44.6491 232.565 44.1344 232.221 43.6745 231.661C43.4997 231.5 43.277 231.402 43.041 231.382C42.7212 231.33 42.4166 231.382 42.1273 231.124C41.838 230.866 41.4055 230.798 41.107 230.555C40.6806 230.205 40.3547 230.291 40.0593 230.672C39.904 230.878 39.8461 230.881 39.6908 230.694C39.234 230.144 38.5883 230.113 38.168 230.574C37.6563 231.139 36.7578 230.463 36.4137 231.268C36.0086 231.299 35.8716 230.764 35.3934 230.838C34.8049 230.888 34.2135 230.895 33.6239 230.86H31.8513C31.1782 230.86 30.4747 230.743 29.8321 230.89C29.1316 231.047 28.9001 230.276 28.2605 230.328C27.426 230.408 26.5763 230.35 25.7296 230.346C25.0139 230.346 25.0321 230.291 23.9022 229.867C23.558 229.738 23.4027 229.403 23.1073 229.345C22.6878 229.314 22.2668 229.305 21.8464 229.32C20.4911 229.204 20.3236 229.222 19.6627 229.763C19.4647 229.922 19.2789 230.294 19.1236 230.273C17.9053 230.122 17.3998 231.099 16.6658 231.732C16.4566 231.856 16.2117 231.905 15.9714 231.87C15.4231 231.833 15.2099 232.067 15.2678 232.605C15.2678 232.663 15.1734 232.789 15.1247 232.789C14.278 232.789 14.013 233.803 13.2973 233.895C12.4902 234.003 12.3623 235.099 11.4425 235.004C11.2323 234.983 10.9704 235.447 10.7329 235.686C10.2547 236.169 9.73998 236.608 9.31054 237.139C8.88111 237.671 8.34507 237.963 8.11361 238.676C7.92782 239.253 7.2456 239.668 6.79484 240.163C6.40196 240.593 6.01821 241.032 5.63141 241.465C5.98166 242.221 5.19284 242.645 5.10147 243.309C4.95528 244.372 4.64462 244.66 3.7492 244.654C3.466 244.636 3.18222 244.681 2.9187 244.787C2.65518 244.894 2.41862 245.058 2.22638 245.269C1.79999 245.72 1.5198 246.141 1.57462 246.805C1.63553 247.567 1.57462 248.341 1.59289 249.103C1.61549 249.43 1.7618 249.736 2.00158 249.957C2.24136 250.178 2.55627 250.298 2.8812 250.292C3.55428 250.292 4.22737 250.292 4.90046 250.292C5.27811 250.925 5.89943 250.82 6.46896 250.777C7.20905 250.722 7.38265 251.447 7.86082 251.724C8.09126 251.81 8.33892 251.838 8.58263 251.807C9.08516 251.807 9.59683 251.748 9.91053 252.277C10.5775 252.237 10.9704 253.023 11.7105 252.851C12.1125 252.756 12.6973 252.664 12.9288 252.873C13.3216 253.211 13.809 253.257 14.1866 253.546C14.3815 253.693 14.5277 253.92 14.8201 253.853C15.5937 253.684 16.2059 254.212 16.8942 254.332C17.7339 254.425 18.5807 254.433 19.4221 254.357C19.8667 254.357 20.2444 254.406 20.5094 254.799C21.3835 254.799 22.3093 255.245 23.0921 254.434C23.1986 254.391 23.3142 254.376 23.428 254.39C23.5419 254.404 23.6505 254.446 23.7438 254.513C24.021 254.775 24.2129 254.95 24.4778 254.535C24.5485 254.43 24.6568 254.356 24.7801 254.33C24.9033 254.304 25.0318 254.326 25.1387 254.394C25.5012 254.867 25.955 254.901 26.4758 254.882C27.1489 254.858 27.825 254.882 28.5011 254.882C29.092 254.882 29.7194 254.993 30.2676 254.854C31.029 254.667 31.4858 255.328 32.095 255.374C32.6432 255.414 33.2797 255.607 33.7031 254.974C33.7666 254.925 33.8411 254.892 33.9202 254.878C33.9992 254.864 34.0805 254.869 34.1569 254.894C34.5376 255.066 34.8878 255.641 35.2716 254.894C36.0269 254.894 36.7944 254.931 37.5406 254.861C38.2868 254.79 39.24 255.248 39.8614 254.366C40.0441 254.535 40.2146 254.824 40.4157 254.848C40.9155 254.885 41.4173 254.885 41.9172 254.848C42.24 254.188 42.7669 254.876 42.9618 254.741C43.2857 254.493 43.6822 254.361 44.0887 254.366C45.4379 254.381 46.8024 254.48 48.1364 254.326C48.8155 254.249 49.4399 253.779 50.2104 253.844C51.048 253.914 51.8977 253.844 52.7414 253.844C52.8251 253.858 52.9105 253.858 52.9942 253.844C53.0716 253.819 53.1382 253.768 53.183 253.699C53.5271 253.14 54.0845 253.414 54.8215 253.097ZM12.7308 300.141C12.7308 299.545 12.7308 298.946 12.7308 298.349C12.7308 297.698 12.5389 296.979 13.2333 296.506C13.145 295.87 13.5044 295.154 12.8618 294.604C12.798 294.509 12.7593 294.399 12.7491 294.285C12.739 294.17 12.7579 294.055 12.8039 293.95C13.3856 293.437 13.3643 293.028 12.8039 292.497C12.5572 292.26 12.7217 291.861 13.0293 291.646C13.2364 291.504 13.2638 291.403 13.081 291.28C12.9481 291.181 12.8442 291.048 12.7804 290.894C12.7166 290.741 12.6952 290.572 12.7186 290.408C12.7369 287.95 12.7186 285.464 12.7186 282.994C12.7186 282.343 12.8953 281.636 12.2252 281.151C12.1919 281.076 12.1775 280.993 12.1833 280.911C12.1892 280.829 12.2151 280.75 12.2587 280.68C12.5968 280.373 12.7186 280.186 12.3349 279.734C12.1964 279.53 12.1356 279.283 12.1636 279.037C12.1916 278.792 12.3065 278.565 12.4871 278.398C12.6587 278.217 12.7618 277.981 12.7785 277.731C12.7952 277.481 12.7244 277.233 12.5785 277.031C12.3709 276.782 12.2406 276.478 12.2039 276.155C12.1826 275.408 12.5085 274.551 12.0333 273.943C11.479 273.218 11.8597 272.477 11.7075 271.765C11.6671 271.612 11.6056 271.466 11.5247 271.331C11.2537 270.849 10.7907 270.388 10.742 269.884C10.6996 269.319 10.5117 268.775 10.1968 268.305C10.1146 268.182 10.1755 267.952 10.0841 267.847C9.00902 266.597 7.56539 265.675 6.85576 264.102C6.03648 264.317 6.24663 263.549 5.99689 263.205C5.97584 263.181 5.94919 263.163 5.91939 263.152C5.88958 263.142 5.85759 263.139 5.82633 263.144C5.75323 263.177 5.65882 263.254 5.65273 263.319C5.6042 263.568 5.6042 263.825 5.65273 264.075C5.76846 264.446 6.10957 264.784 6.11871 265.144C6.14308 265.949 6.38064 266.827 5.64968 267.5C5.57659 267.568 5.61314 267.857 5.69232 267.973C5.87811 268.238 6.16135 268.403 6.15526 268.809C6.13292 270.769 6.13292 272.729 6.15526 274.689C6.15526 275.086 5.90552 275.27 5.73496 275.544C5.68602 275.649 5.66296 275.764 5.66774 275.88C5.67251 275.996 5.70497 276.11 5.76237 276.21C5.99464 276.44 6.13454 276.749 6.15526 277.077C6.13698 279.379 6.13698 281.68 6.15526 283.98C6.15526 284.395 5.72278 284.53 5.69232 284.801C5.66187 285.071 6.21617 285.185 6.14612 285.599C5.9847 286.555 6.54206 287.636 5.6375 288.457C5.7045 288.853 5.5309 289.252 5.84765 289.652C6.35323 290.291 6.29231 291.031 5.8842 291.713C5.70591 291.99 5.60279 292.309 5.58515 292.638C5.56751 292.968 5.63598 293.296 5.78369 293.59C6.00952 293.925 6.13725 294.317 6.15221 294.721C6.13089 295.317 6.15221 295.913 6.15221 296.512C6.1059 297.107 6.11303 297.704 6.17353 298.297C6.2984 298.967 5.69841 299.336 5.66187 299.88C5.59181 300.814 5.59181 301.753 5.66187 302.688C5.73191 303.566 5.23852 304.571 6.15221 305.29C5.9512 306.491 6.59383 307.797 5.66796 308.931C5.51263 309.124 5.59486 309.613 5.71364 309.905C5.83242 310.196 6.18267 310.338 6.16135 310.746C6.12785 311.425 6.1979 312.114 6.14003 312.789C6.08216 313.465 6.35627 314.237 5.74714 314.94C5.22938 315.536 6.46287 316 6.15526 316.716C6.1248 316.787 6.18876 316.928 6.15526 316.965C5.71973 317.343 5.604 317.711 6.15526 318.08C6.49028 319.355 6.49333 319.309 7.34306 319.346C8.3938 319.392 9.31968 319.272 9.97449 318.31C10.193 318.076 10.4561 317.889 10.7481 317.76C11.6435 317.214 12.5755 316.621 12.7978 315.441C13.4922 315.134 12.7095 314.559 12.8892 314.387C13.4983 313.8 13.1937 313.112 13.2364 312.473C13.2364 312.359 13.0567 312.193 12.9318 312.107C12.7125 311.96 12.7095 311.877 12.9318 311.736C13.2364 311.53 13.4496 311.087 13.2151 310.894C12.6486 310.424 12.7704 309.849 12.7613 309.278C12.7201 308.511 12.7201 307.743 12.7613 306.977C12.8283 306.261 12.411 305.44 13.1511 304.826C13.1271 304.698 13.068 304.58 12.9805 304.485C12.8555 304.379 12.7738 304.231 12.7513 304.068C12.7288 303.905 12.7671 303.739 12.8587 303.603C13.4404 302.426 13.4161 302.423 12.7552 301.164C12.6699 301.025 12.7308 300.826 12.7308 300.141ZM20.0799 345.918L21.1794 346.941C22.0017 346.634 22.5987 347.289 23.1834 347.599C23.7682 347.909 24.6027 348.069 24.9773 348.803C25.1266 349.111 25.422 348.954 25.6595 348.985C25.8992 348.991 26.1353 349.045 26.3539 349.144C28.0016 350.02 28.0138 349.995 29.2899 350.011C30.0178 350.011 30.7853 349.845 31.3732 350.508C31.428 350.57 31.7051 350.509 31.8239 350.422C32.0584 350.254 32.1285 350.048 32.567 350.266C33.4807 350.733 34.4888 350.607 35.6127 350.189C36.4076 349.882 37.2634 349.793 37.9791 350.214C38.287 350.407 38.6394 350.517 39.0019 350.532C39.3644 350.547 39.7246 350.467 40.0471 350.3C40.2603 350.207 40.4035 349.943 40.6867 350.011C41.5547 350.21 42.3161 349.786 42.9466 349.366C43.4187 349.058 43.842 349.058 44.3171 348.966C44.6887 348.899 44.8806 348.312 45.374 348.481C45.9679 348.68 46.1841 347.931 46.6836 347.971C46.928 347.984 47.1723 347.944 47.4006 347.855C47.6289 347.766 47.836 347.63 48.0084 347.455C48.6815 346.902 49.4856 346.502 50.1404 345.918C50.9901 345.998 51.0724 344.689 52.0043 344.868C52.1505 344.892 52.3607 344.539 52.5404 344.358C53.2561 343.636 53.9292 342.861 54.7028 342.207C55.3515 341.654 55.3363 340.671 56.1129 340.225C56.2256 340.161 56.2499 339.949 56.3169 339.808C56.8931 338.509 57.5398 337.243 58.254 336.016C58.2844 335.97 58.1413 335.786 58.0469 335.709C58.009 335.69 57.9673 335.68 57.925 335.68C57.8828 335.68 57.8411 335.69 57.8032 335.709C57.5961 335.823 57.3281 335.915 57.2124 336.099C56.8773 336.643 56.2347 336.64 55.7931 336.987C55.1078 337.528 54.1454 337.568 53.518 338.247C53.4388 338.33 53.1921 338.271 53.0246 338.247C52.4338 338.201 51.8551 338.195 51.4622 338.763C50.8531 338.665 50.3993 339.049 49.8815 339.205C49.3638 339.362 49.0318 340.026 48.3313 339.82C47.7587 339.639 47.4176 340.348 46.778 340.379C46.0778 340.433 45.4004 340.654 44.8014 341.024C44.3019 341.331 43.708 341.104 43.4308 341.371C42.9314 341.857 42.4166 341.866 41.8349 341.848C41.6705 341.848 41.4116 341.795 41.3537 341.881C41.0126 342.379 40.5314 342.41 40.0197 342.355C39.5081 342.299 38.8197 342.6 38.4025 341.952C38.2777 341.976 38.1612 342.032 38.0644 342.115C37.6411 342.554 37.1142 342.324 36.6391 342.345C36.0574 342.367 35.7497 342.96 35.0767 342.904C33.3102 342.797 31.5315 342.874 29.759 342.861C29.5245 342.861 29.1803 342.861 29.0767 342.714C28.693 342.179 28.1265 342.269 27.7001 342.388C26.9905 342.588 26.8352 341.654 26.1194 341.808C25.7616 341.908 25.3852 341.921 25.0214 341.846C24.6575 341.771 24.3167 341.609 24.0271 341.374C23.7225 341.123 22.9154 341.491 22.5926 341.242C22.4111 341.076 22.1947 340.953 21.9595 340.883C21.7242 340.812 21.4763 340.797 21.2342 340.837C20.6525 340.947 20.3601 340.391 19.9185 340.336C19.0414 340.225 18.0911 340.496 17.3449 339.801C16.9365 339.896 16.5091 339.862 16.12 339.705C15.7308 339.548 15.3985 339.275 15.1673 338.923C15.113 338.865 15.0464 338.82 14.9726 338.792C14.8988 338.764 14.8196 338.753 14.7409 338.76C13.9186 338.926 13.4648 338.145 12.7643 338.004C12.6212 337.976 12.5146 337.777 12.3714 337.74C12.2109 337.715 12.0467 337.739 11.8993 337.807C11.6526 337.906 11.7196 337.986 11.8811 338.173C12.3044 338.652 12.3866 339.334 12.9501 339.78C13.6132 340.267 14.1306 340.93 14.4455 341.694C14.5718 341.956 14.7499 342.189 14.9689 342.378C15.1878 342.568 15.443 342.711 15.7186 342.797C16.7389 343.067 16.9368 344.453 18.1003 344.428C18.1581 344.428 18.2373 344.53 18.2739 344.603C18.3041 344.679 18.3146 344.762 18.3043 344.843C18.2739 345.301 18.5388 345.402 18.9134 345.399C19.1357 345.359 19.3647 345.386 19.572 345.476C19.7793 345.566 19.9559 345.716 20.0799 345.906V345.918ZM62.1585 317.794C62.4905 317.794 62.8864 317.868 62.9108 317.389C62.9564 316.624 62.9564 315.858 62.9108 315.094C62.8651 314.448 63.1727 313.73 62.6397 313.167C61.8813 312.369 63.3128 311.908 62.926 311.173C62.8529 311.035 62.862 310.817 62.7554 310.74C62.3778 310.461 62.527 310.304 62.7554 309.991C63.0448 309.607 62.3686 309.462 62.3808 309.001C62.4448 306.703 62.4204 304.393 62.3991 302.107C62.3991 301.714 62.6306 301.52 62.8133 301.247C62.9168 301.09 62.9168 300.672 62.8133 300.592C62.2986 300.217 62.4235 299.701 62.4174 299.21C62.458 298.275 62.4499 297.339 62.393 296.405C62.2894 295.446 62.8833 294.359 61.9392 293.535C62.1218 293.374 62.2625 293.17 62.3491 292.941C62.4356 292.713 62.4653 292.466 62.4356 292.223C62.3991 290.687 62.4356 289.151 62.4113 287.615C62.4113 287.083 62.4783 286.641 62.9047 286.303C62.0915 285.759 62.5453 284.914 62.4204 284.208C62.3534 283.82 62.6427 283.621 62.8011 283.338C62.8803 283.2 62.4965 282.724 62.5575 282.659C62.9747 282.226 63.0904 281.891 62.6245 281.387C62.2986 281.034 62.3199 280.929 62.6245 280.545C62.8404 280.298 62.9558 279.978 62.9473 279.648C62.9321 278.287 62.9473 276.926 62.9473 275.562C62.9161 275.316 62.9805 275.067 63.127 274.868C63.593 274.296 63.6478 273.703 63.0691 273.113C62.9991 273.04 63.3737 272.499 63.3219 272.44C62.9503 272.133 62.9382 271.737 62.9321 271.304C62.9307 271.181 62.9604 271.06 63.0186 270.953C63.0767 270.845 63.1612 270.754 63.264 270.689C63.4712 270.536 63.4803 270.465 63.2884 270.314C62.7585 269.903 62.8255 269.485 63.3189 269.086C63.4651 268.969 63.4102 268.874 63.2305 268.72C62.8407 268.397 62.8011 268.016 63.2031 267.678C63.5077 267.417 63.4498 267.082 63.4468 266.757C63.4437 266.596 63.4074 266.438 63.3402 266.293C63.2458 266.102 63.1605 266.21 62.9778 266.339C62.2773 266.84 62.1006 267.737 61.5341 268.287C60.6905 269.104 60.2336 270.099 59.7494 271.129C58.991 272.745 58.9453 272.72 58.8875 274.6C58.8875 274.766 58.9484 275.024 58.8631 275.092C58.0377 275.749 58.4641 276.659 58.4063 277.455C58.388 277.7 58.6712 277.971 58.8174 278.232C58.1778 278.631 58.3392 279.286 58.4032 279.836C58.4824 280.484 57.9768 280.892 57.9068 281.418C57.791 282.254 57.8885 283.117 57.8702 283.965C57.8702 284.484 57.8702 284.966 58.3484 285.311C58.4306 285.369 58.4367 285.664 58.3667 285.79C58.2509 286.002 57.8794 286.22 57.9159 286.337C58.0103 286.622 58.4093 286.742 58.391 287.16C58.3575 287.925 58.3575 288.696 58.391 289.458C58.3906 289.622 58.3553 289.785 58.2875 289.934C58.2198 290.084 58.1211 290.217 57.9981 290.325C57.9425 290.386 57.901 290.459 57.8767 290.539C57.8523 290.619 57.8457 290.703 57.8574 290.785C57.869 290.868 57.8986 290.947 57.944 291.016C57.9894 291.086 58.0495 291.144 58.12 291.188C58.4093 291.434 58.5433 291.802 58.2692 292.039C57.7758 292.438 57.8763 292.93 57.8763 293.421C57.8763 297.592 57.8763 301.762 57.8763 305.932C57.8763 306.359 57.986 306.823 57.8489 307.198C57.7118 307.573 57.2063 307.898 57.8489 308.353C58.0103 308.467 57.8794 308.998 57.8794 309.339C57.8794 311.21 57.9342 313.087 57.8489 314.955C57.8215 315.57 58.4245 315.751 58.391 316.277C58.3575 316.802 58.7565 316.676 59.055 316.79C59.3507 316.941 59.6057 317.162 59.7981 317.435C59.8991 317.568 60.0333 317.671 60.1869 317.734C60.3405 317.797 60.508 317.818 60.6722 317.794C60.9737 317.754 61.3148 317.782 62.1585 317.782V317.794ZM45.9374 338.76C46.4095 338.695 46.8511 338.76 47.3414 338.453C48.045 338.001 48.8643 337.531 49.8267 337.731C50.1493 337.768 50.4751 337.699 50.7556 337.534C51.316 337.261 51.7942 336.794 52.4459 336.72C52.8327 335.964 53.6642 336.413 54.1972 336.047C54.9339 335.589 55.6989 335.178 56.4875 334.818C57.3159 334.397 58.1169 333.869 59.0397 333.632C59.1707 333.598 59.3626 333.414 59.3443 333.325C59.2682 332.471 59.8864 332.729 60.3372 332.609C60.8705 332.48 61.3721 332.243 61.8113 331.912C62.4648 331.371 63.0655 330.768 63.6052 330.111C63.9485 329.676 64.2219 329.188 64.4153 328.667C64.7199 327.899 64.2173 327.352 63.3981 327.521C62.859 327.635 62.4844 328.136 61.8296 328.065C61.3148 328.01 61.0621 328.646 60.7088 328.987C60.3555 329.328 60.0052 329.681 59.4205 329.574C59.0002 329.494 58.8448 329.755 58.8479 330.16C58.8479 330.468 58.9362 331.058 58.6164 331.039C58.0225 330.999 57.8245 331.678 57.3068 331.601C56.789 331.525 56.3931 331.967 55.985 332.065C55.3758 332.213 54.9342 332.987 54.1789 332.631C53.7099 332.962 53.2378 333.288 52.6134 333.144C52.2023 333.838 51.3434 333.429 50.8744 333.82C50.2896 334.305 49.8054 334.876 48.9465 334.698C48.5902 335.35 47.78 334.959 47.4237 335.282C46.8968 335.771 46.3668 335.666 45.8034 335.703C45.1608 335.743 44.7496 336.382 43.976 336.256C43.306 336.148 42.4532 335.9 41.8989 336.686C41.1436 336.686 40.3761 336.809 39.636 336.686C38.8289 336.563 38.3659 337.387 37.5588 337.251C36.9497 337.147 36.2431 337.064 35.7132 337.712C35.5822 337.872 34.9244 337.857 34.769 337.685C34.6062 337.493 34.3944 337.349 34.1567 337.269C33.9189 337.19 33.6642 337.177 33.4198 337.233C32.7132 337.344 31.897 336.883 31.2879 337.632C31.1603 337.614 31.0419 337.554 30.9498 337.463C30.6117 337.067 30.1488 337.181 29.7803 337.248C29.1712 337.359 28.9366 336.806 28.4646 336.711C27.5235 336.52 26.4331 337.187 25.6321 336.204H22.3672C22.1114 336.204 21.8586 336.204 21.6058 336.204C21.5418 336.204 21.4718 336.102 21.4291 336.032C21.1429 335.586 20.6982 335.724 20.2962 335.694C19.815 335.657 19.5713 335.005 18.9835 335.181C18.6089 335.294 18.3439 335.042 18.149 334.766C17.7622 334.219 17.2353 334.099 16.6262 334.151C15.9439 334.219 15.277 334.213 14.8658 333.497C14.7832 333.348 14.6533 333.231 14.497 333.165C14.3407 333.1 14.167 333.089 14.0039 333.134C13.6772 333.224 13.3304 333.2 13.0182 333.068C12.706 332.937 12.4463 332.704 12.28 332.406C11.7775 331.577 10.6659 331.604 10.1481 330.796C10.0049 330.578 9.53896 330.603 9.31359 330.409C8.82019 329.988 8.13188 329.955 7.69635 329.355C7.12377 328.569 6.27404 328.01 5.91161 327.024C5.71364 326.486 5.16238 326.409 4.62939 326.492C4.48016 326.517 4.23651 326.59 4.21823 326.683C4.09945 327.248 3.96544 327.872 4.27001 328.382C4.67508 329.067 4.91568 329.853 5.36644 330.471C5.71669 330.95 6.08216 331.534 6.88926 331.657C7.44661 331.74 7.69026 332.71 8.48517 332.677C8.54304 332.677 8.63441 332.778 8.65877 332.852C8.73492 333.076 8.7136 333.432 8.85674 333.518C9.24049 333.743 9.91358 333.623 9.71866 334.416C9.71866 334.459 9.83439 334.594 9.88617 334.588C10.9491 334.462 11.54 335.202 12.1491 335.866C12.2519 335.997 12.3881 336.097 12.5432 336.156C12.6982 336.215 12.8662 336.231 13.0293 336.201C13.1937 336.172 13.3627 336.194 13.5153 336.261C13.668 336.329 13.7976 336.44 13.8881 336.582C14.2212 336.932 14.6327 337.196 15.0881 337.353C15.4566 337.522 15.7612 337.811 16.1998 337.734C16.748 337.635 16.9307 338.425 17.5124 338.253C18.0942 338.081 18.3896 338.612 18.752 338.932C18.9317 339.095 19.0566 339.298 19.3612 339.279C19.949 339.245 20.5429 339.279 21.1337 339.279C21.6408 339.323 22.1509 339.316 22.6565 339.258C23.2657 339.135 23.4484 339.943 23.9662 339.777C24.6484 339.559 24.9377 340.327 25.5347 340.315C26.1316 340.302 26.7316 340.109 27.1275 340.748C27.7922 340.799 28.459 340.816 29.1255 340.8C29.893 340.742 30.3437 341.568 31.2087 341.365C32.0097 341.178 32.8868 341.322 33.7335 341.325C34.3122 341.325 34.8726 341.402 35.3294 340.843C35.4665 340.674 36.1579 340.677 36.2766 340.843C36.7274 341.457 36.9954 340.993 37.4248 340.861C38.0001 340.711 38.6039 340.711 39.1791 340.861C39.8705 341.024 40.1537 340.247 40.7476 340.327C41.6766 340.474 42.4989 340.146 43.3303 339.82C43.5496 339.734 43.9181 339.82 44.0187 339.678C44.3719 339.129 45.1608 339.359 45.9374 338.748V338.76ZM33.5173 359.981C33.4533 360.703 33.7792 361.517 33.0087 362.067C33.0848 362.463 32.8229 362.924 33.2188 363.256C33.5234 363.495 33.6909 363.898 33.4381 364.107C32.7802 364.654 33.0726 365.336 33.0117 365.987C32.9599 366.549 33.1579 367.139 32.5823 367.612C32.3295 367.821 32.5092 368.227 32.7955 368.463C32.8631 368.511 32.9193 368.574 32.9603 368.646C33.0012 368.718 33.0257 368.799 33.0321 368.882C33.0385 368.965 33.0266 369.049 32.9973 369.127C32.968 369.204 32.9219 369.275 32.8625 369.333C32.7163 369.52 32.4818 369.621 32.4909 369.947C32.4909 370.598 32.695 371.317 31.9945 371.791C32.0919 372.356 31.8818 372.915 32.1742 373.505C32.6645 374.497 32.6676 375.176 32.2412 376.064C32.0995 376.352 32.0137 376.665 31.9884 376.986C31.9336 377.625 32.2625 378.362 31.5589 378.851C31.5407 378.851 31.5589 378.992 31.6046 379.023C32.296 379.554 31.8391 379.914 31.5498 380.47C31.3153 380.918 31.5498 381.61 30.9925 382.028C30.9568 382.102 30.94 382.184 30.9437 382.267C30.9475 382.349 30.9715 382.43 31.0138 382.501C31.6229 382.909 31.428 383.533 31.498 384.098C31.5742 384.713 31.2452 385.167 31.0138 385.693C30.7823 386.218 31.7417 386.572 31.5011 387.257C31.3945 387.564 31.5315 388.016 31.3518 388.203C31.2127 388.355 31.1073 388.534 31.0427 388.73C30.9781 388.927 30.9558 389.134 30.9772 389.34C30.9772 391.638 31.0168 393.948 30.959 396.237C30.9437 396.852 31.2635 397.337 31.6655 397.438C32.2099 397.614 32.6915 397.946 33.0513 398.394C33.2057 398.539 33.4004 398.632 33.6091 398.661C33.8178 398.69 34.0303 398.654 34.2178 398.557C34.6168 398.372 35.1315 398.041 35.031 397.426C34.8848 396.551 35.436 395.552 34.5741 394.809C34.7477 394.467 35.1284 394.255 35.0523 393.758C35.0154 393.246 35.0154 392.733 35.0523 392.222C35.0037 391.71 35.0109 391.195 35.0736 390.685C35.2107 390.071 34.5193 389.884 34.5406 389.361C34.5619 388.765 34.5406 388.169 34.5406 387.573C34.5406 387.063 34.5406 386.553 34.5406 386.037C33.5995 385.573 34.6838 385.137 34.5619 384.667C34.4858 384.359 34.6289 383.997 34.3031 383.745C33.9772 383.493 33.9985 383.229 34.1386 382.872C34.7234 381.392 34.7051 381.284 34.0746 379.416C34.014 379.304 33.9936 379.174 34.0169 379.049C34.0402 378.924 34.1058 378.81 34.2026 378.728C34.3354 378.628 34.4387 378.493 34.5015 378.338C34.5643 378.184 34.5841 378.014 34.5589 377.849C34.5022 376.826 34.5022 375.8 34.5589 374.777C34.6472 373.741 34.102 372.602 34.9883 371.665C35.0157 371.637 34.6046 371.182 34.6259 371.161C35.3081 370.491 35.2716 369.87 34.6259 369.198C34.5804 369.092 34.563 368.976 34.5753 368.861C34.5876 368.746 34.6291 368.637 34.6959 368.543C35.0827 368.236 35.0645 367.833 35.0645 367.406C35.0645 365.022 35.0645 362.638 35.0645 360.254C35.0764 360.004 35.0631 359.754 35.0249 359.507C34.9955 359.435 34.9487 359.371 34.8886 359.321C34.8285 359.271 34.7571 359.237 34.6807 359.222C34.2817 359.228 33.831 359.04 33.5173 359.968V359.981ZM42.1334 223.449C41.704 223.809 41.0705 223.812 40.7263 224.346C40.2146 225.139 39.3223 225.4 38.5182 225.723C38.1436 225.873 37.9761 226.377 37.4736 226.269C37.27 226.226 37.0584 226.241 36.8626 226.312C36.6668 226.383 36.4945 226.508 36.365 226.672C36.2666 226.729 36.1553 226.758 36.0421 226.758C35.9289 226.758 35.8176 226.729 35.7193 226.672C35.58 226.519 35.4061 226.403 35.2125 226.333C35.0189 226.263 34.8114 226.241 34.6076 226.269C33.6939 226.291 32.7467 226.214 31.827 226.294C31.2178 226.349 30.9133 225.987 30.6087 225.603C30.4199 225.372 30.4138 224.841 30.2249 224.786C29.9116 224.727 29.617 224.593 29.3661 224.395C28.5072 223.643 27.426 223.166 26.7103 222.245C26.6414 222.193 26.5607 222.159 26.4755 222.147C26.3904 222.134 26.3036 222.144 26.223 222.174C25.6565 222.46 25.4433 223.271 24.621 223.246C24.5113 223.246 24.4352 223.824 24.2555 224.07C23.7377 224.779 23.5459 225.664 23.0098 226.355C22.8271 226.589 22.7905 226.899 22.9185 227.031C23.1956 227.317 23.3875 227.873 23.8565 227.763C24.5357 227.603 24.8677 228.26 25.422 228.291C25.9763 228.322 26.6006 228.291 27.1915 228.291H28.7143C29.5153 229.265 30.5996 228.721 31.5437 228.767C33.3924 228.859 35.2503 228.786 37.105 228.801C37.4096 228.801 37.7812 228.651 38.0187 228.995C38.4756 229.609 38.6279 228.783 38.9324 228.792C39.438 228.792 39.9497 228.752 40.4553 228.792C41.0644 228.859 41.3263 228.058 42.0207 228.251C42.4216 228.381 42.8539 228.372 43.2494 228.226C43.6448 228.081 43.9809 227.806 44.2044 227.446C44.3841 227.185 44.643 227.256 44.8836 227.25C45.2186 227.25 45.5597 227.268 45.8917 227.234C45.9709 227.234 46.0288 227.022 46.0958 226.908C45.5476 226.601 45.6907 226.048 45.6663 225.557C45.6663 225.317 45.6816 224.942 45.5476 224.859C45.0664 224.552 45.2735 223.938 44.8592 223.593C44.3384 223.166 43.8968 222.641 43.4156 222.165C43.239 221.99 42.7578 222.199 42.6298 222.5C42.5086 222.834 42.3415 223.149 42.1334 223.437V223.449ZM30.2219 375.563C29.7041 375.072 30.0727 374.442 29.9661 373.886C30.7945 373.059 30.3955 372.006 30.4686 371.044C30.5021 370.62 30.298 370.042 30.5051 369.797C31.2605 368.903 30.8767 367.886 30.9803 366.927C30.9803 366.841 31.0138 366.73 30.9803 366.678C30.8965 366.576 30.7928 366.492 30.6757 366.432C30.6544 366.432 30.5569 366.537 30.5051 366.604C30.3011 366.878 29.7224 367.05 30.3468 367.526C30.6513 367.747 30.5691 368.141 30.2676 368.377C29.8686 368.7 30.0422 369.323 29.5732 369.634C29.4422 369.72 29.4635 370.101 29.4849 370.34C29.564 371.213 29.5031 372.024 28.6717 372.549C28.5672 372.622 28.4907 372.729 28.4547 372.852C28.4187 372.975 28.4254 373.107 28.4737 373.225C28.6595 373.947 28.2331 374.476 27.959 375.053C27.7884 375.407 27.4869 375.757 27.4808 376.113C27.4903 376.358 27.4474 376.603 27.3549 376.83C27.2624 377.057 27.1225 377.261 26.9448 377.428C27.1397 378.442 26.1103 379.204 26.4149 380.279C26.5237 380.645 26.5079 381.037 26.3698 381.392C26.2318 381.748 25.9795 382.046 25.6534 382.24C25.4128 382.402 25.4189 382.651 25.422 382.906C25.422 383.244 25.5499 383.668 25.3946 383.905C25.1326 384.313 25.0565 384.894 24.7398 385.134C24.1519 385.601 24.688 386.317 24.2311 386.722C24.1084 386.831 24.0136 386.969 23.9547 387.123C23.8958 387.277 23.8747 387.443 23.8931 387.607C23.8931 388.132 23.9875 388.341 24.3286 388.341C25.9976 388.341 27.6788 388.341 29.4788 388.341C29.4788 387.42 29.497 386.578 29.4788 385.745C29.4605 384.913 29.695 384.101 29.028 383.432C29.4453 383.143 29.5001 382.872 29.0646 382.51C28.961 382.424 28.9884 382.009 29.1011 381.856C29.3052 381.585 29.5153 381.376 29.494 380.989C29.4666 380.418 29.3478 379.794 29.9722 379.413C29.9722 378.835 29.8838 378.221 30.4991 377.849V376.313C30.4899 376.039 30.3926 375.776 30.2219 375.563ZM39.3588 222.672C39.5263 222.672 39.7578 222.742 39.8522 222.672C40.2938 222.279 40.705 221.848 41.1131 221.418C41.2928 221.231 41.04 220.675 40.7568 220.644C40.4735 220.613 40.2481 220.669 40.0015 220.629C39.7548 220.589 39.6573 220.404 39.5903 220.122C39.4593 219.587 39.0908 219.467 38.7406 219.725C38.3903 219.983 38.171 220.61 37.5984 220.629C37.0837 220.644 36.8797 221.357 36.298 221.166C35.3843 222.146 34.2604 221.501 33.234 221.618C32.762 221.179 32.4056 220.57 31.6564 220.53C31.6016 220.53 31.5559 220.407 31.5011 220.349C30.5691 219.354 30.5234 219.344 29.7498 220.103C29.4888 220.317 29.2555 220.562 29.0554 220.835C29.0106 220.941 28.9901 221.057 28.9954 221.173C29.0007 221.289 29.0316 221.402 29.0859 221.504C29.5031 222.196 30.5143 222.441 30.5204 223.464C30.5204 223.544 30.7671 223.686 30.9102 223.695C31.3275 223.726 31.8239 223.578 32.1559 223.738C32.5914 223.941 32.9234 224.272 33.4807 224.239C33.9559 224.208 34.5954 223.965 34.9091 224.38C35.4939 225.154 35.6401 224.073 36.0969 224.186C36.6573 224.315 37.2665 224.217 37.836 224.217L39.3588 222.672ZM34.2757 352.042C33.9071 351.427 33.3193 351.501 32.7528 351.544C32.4483 352.419 31.5102 351.762 30.9894 352.294C31.2087 352.515 31.4188 352.748 31.6473 352.957C31.8757 353.166 32.1437 353.369 32.3904 353.572H34.9701C35.2532 353.629 35.547 353.597 35.8117 353.481C36.0764 353.364 36.2993 353.169 36.4502 352.92C36.5504 352.792 36.6794 352.689 36.8265 352.62C36.9736 352.551 37.1348 352.518 37.2969 352.524C37.5345 352.524 37.635 352.189 37.571 351.931C37.5112 351.785 37.4301 351.65 37.3304 351.529C36.6208 352.441 35.634 351.906 34.2757 352.042ZM36.8127 218.069C36.8137 217.901 36.781 217.734 36.7166 217.579C36.6523 217.424 36.5575 217.284 36.4381 217.166C36.2919 217.074 36.2218 217.089 36.0726 217.271C35.8594 217.526 35.6431 217.867 35.3599 217.959C34.9774 218.059 34.576 218.059 34.1934 217.959C34.0929 217.937 34.0655 217.532 34.0259 217.298C33.9863 217.065 34.1264 216.77 33.8371 216.622C33.6941 216.544 33.5277 216.522 33.3694 216.559C33.2111 216.596 33.0719 216.691 32.9782 216.825C32.6736 217.172 32.3234 217.495 31.9945 217.827C32.4848 218.318 32.9082 218.718 33.3041 219.157C33.4271 219.321 33.5902 219.451 33.7776 219.533C33.9649 219.614 34.1701 219.646 34.3731 219.624C34.7873 219.581 35.2411 219.713 35.6188 219.59C36.167 219.409 36.6238 219.031 36.8127 218.069ZM33.767 355.621C33.685 355.613 33.6024 355.613 33.5203 355.621C33.2158 355.673 32.7985 355.44 32.6066 355.787C32.477 356.082 32.4418 356.411 32.5061 356.727C32.6097 357.314 33.3772 357.762 33.9863 357.649C34.2551 357.589 34.4988 357.447 34.6839 357.242C34.8689 357.036 34.9859 356.778 35.0188 356.503C35.0359 356.092 35.0125 355.68 34.9487 355.274C34.9061 355.037 34.7416 355.046 34.6076 355.234C34.5284 355.4 34.3914 355.513 33.7701 355.621H33.767Z" fill="#B19B6C"/>
<path d="M47.8379 314.842C47.745 315.041 47.7011 315.261 47.7099 315.481V318.031C46.8237 318.645 47.4907 319.656 47.1617 320.35C46.8145 321.094 46.6866 321.994 45.6876 322.424C44.6156 322.882 43.4156 323.22 42.6207 324.197C42.5455 324.298 42.4415 324.373 42.3228 324.412C42.204 324.451 42.0762 324.452 41.9567 324.415C41.1405 324.126 40.6136 324.934 39.8857 324.937C39.1578 324.941 38.3629 324.956 37.6076 324.937C37.4845 324.937 37.3634 324.969 37.2564 325.03C37.1495 325.092 37.0605 325.18 36.9984 325.288C36.9214 325.387 36.8123 325.457 36.6898 325.484C36.5674 325.511 36.4396 325.493 36.3284 325.435C35.9081 324.842 35.3172 324.974 34.7416 324.937C34.0107 324.891 33.2188 325.192 32.5609 324.719C31.8604 324.209 31.1112 324.563 30.3985 324.412C30.2523 324.384 30.1305 324.249 29.9874 324.182C29.0006 323.705 28.0747 323.109 27.0392 322.725C26.826 322.649 26.7346 322.292 26.4301 322.375C25.7357 322.553 25.3793 322.068 24.9407 321.668C24.6605 321.413 24.1062 321.377 23.9509 321.091C23.7956 320.805 23.8687 320.264 23.8991 319.844C23.9387 319.312 23.8656 318.851 23.3966 318.529C24.2524 317.896 23.7743 316.974 23.887 316.181C23.9369 315.976 23.9292 315.76 23.8646 315.559C23.8001 315.358 23.6813 315.179 23.5215 315.041C23.4727 315.002 23.7712 314.568 23.89 314.307C24.0941 313.852 23.2626 313.65 23.5398 313.321C23.7975 312.999 23.9277 312.592 23.9052 312.178C23.9205 311.871 23.689 311.754 23.5641 311.548C23.3205 311.152 23.287 311.106 23.5824 310.688C23.8059 310.394 23.9328 310.036 23.9453 309.665C23.9579 309.295 23.8555 308.929 23.6524 308.62C23.4149 308.209 23.3479 307.981 23.6098 307.542C24.0423 306.854 23.9844 306.817 23.6098 306.006C23.2809 305.259 23.2321 305.176 23.6981 304.454C24.0027 303.987 23.9205 303.686 23.5489 303.397C23.4498 303.321 23.3803 303.211 23.3525 303.089C23.3247 302.966 23.3403 302.837 23.3966 302.724C23.9844 302.297 23.9296 301.701 23.8748 301.124C23.7773 300.088 24.2189 298.973 23.4362 298.051C23.6023 297.928 23.7324 297.762 23.8128 297.571C23.8933 297.38 23.921 297.17 23.893 296.964C23.8626 295.858 23.893 294.749 23.893 293.643C23.893 293.4 23.9296 293.044 23.7956 292.933C23.3174 292.549 23.558 292.346 23.8413 291.993C24.0575 291.722 23.8139 291.409 23.5854 291.126C23.2809 290.755 23.2809 290.675 23.5854 290.282C23.6983 290.164 23.784 290.022 23.8366 289.867C23.8893 289.712 23.9075 289.547 23.89 289.384C23.7408 288.42 24.225 287.378 23.5215 286.469C23.4027 286.312 23.357 285.882 23.4514 285.811C23.9448 285.446 23.8961 284.951 23.893 284.447C23.893 283.341 23.893 282.235 23.893 281.129C23.893 280.631 23.8382 280.155 24.3012 279.75C24.4778 279.596 24.3743 279.117 24.3986 278.785V277.169C24.9682 276.862 24.8798 276.173 25.2514 275.722C25.5226 275.331 25.7369 274.902 25.8879 274.45C25.9975 274.15 26.1549 273.869 26.3539 273.62C27.0422 272.794 28.0321 272.241 28.4646 271.187C28.8392 270.265 29.9417 269.89 30.1457 268.818C30.1975 268.542 30.5935 268.33 30.8341 268.09C31.6686 267.248 32.6005 266.48 33.3102 265.54C34.0198 264.6 34.9731 264.575 35.9812 264.591C36.1035 264.587 36.2249 264.613 36.3352 264.666C36.4455 264.72 36.5413 264.799 36.6147 264.898C37.1355 265.574 37.9517 265.749 38.6492 266.127C39.106 266.366 39.4776 266.621 39.6177 267.141C39.6573 267.291 39.7273 267.568 39.7761 267.565C40.5283 267.537 40.5344 268.21 40.8329 268.628C41.1314 269.046 41.7283 269.371 41.7466 270.05C41.7466 270.112 42.0146 270.222 42.1577 270.222C42.367 270.234 42.5674 270.312 42.7311 270.444C42.8948 270.576 43.0137 270.756 43.0714 270.96C43.1851 271.444 43.4551 271.876 43.8389 272.189C44.9597 273.325 44.9536 273.325 45.2034 274.382C45.245 274.535 45.3188 274.678 45.4196 274.8C45.6755 275.107 46.1384 275.415 46.1658 275.752C46.2084 276.238 46.5861 276.435 46.7414 276.803C47.1045 277.767 47.5594 278.693 48.0998 279.568C48.1455 279.636 48.2399 279.71 48.2308 279.765C48.1424 280.33 48.5353 280.994 48.0115 281.452C47.1587 282.192 48.3739 282.558 48.2551 283.175C48.1485 283.744 48.3709 284.472 48.0937 284.887C47.7617 285.381 47.917 285.501 48.1972 285.839C48.2656 285.946 48.2922 286.074 48.2719 286.2C48.2517 286.325 48.186 286.439 48.0876 286.518C47.9641 286.63 47.8471 286.749 47.7374 286.874C48.4531 287.335 48.2125 288.063 48.2338 288.718C48.2551 289.314 48.2521 289.91 48.2338 290.506C48.2186 290.988 48.3313 291.461 47.8805 291.904C47.6155 292.165 48.2947 292.42 48.2643 292.893C48.1881 294.079 48.2399 295.274 48.2399 296.463C48.2292 296.548 48.2292 296.633 48.2399 296.718C48.3739 297.28 47.5394 297.477 47.7374 298.036C47.8683 298.405 48.3739 298.598 48.2399 299.105C48.2292 299.19 48.2292 299.276 48.2399 299.36C48.2399 301.486 48.2399 303.615 48.2399 305.742C48.2128 306.063 48.1083 306.373 47.9353 306.645C47.6125 307.311 47.4693 308.052 48.0571 308.709C48.1525 308.837 48.2086 308.99 48.2186 309.149C48.2703 309.668 47.1587 309.963 47.9414 310.63C48.4988 311.103 48.1637 311.742 48.2125 312.301C48.2551 312.895 48.2551 313.492 48.2125 314.086C48.1439 314.363 48.0161 314.621 47.8379 314.842ZM25.4037 318.547C25.4676 319.023 25.2697 319.506 25.7448 319.951C26.4174 320.633 27.2587 321.121 28.1813 321.364C28.2616 321.393 28.3281 321.451 28.3671 321.527C28.626 322.031 29.2808 321.788 29.6158 322.228C29.9508 322.667 30.8127 322.062 31.1386 322.787C32.1985 322.759 33.0513 323.647 34.1843 323.429C34.8515 323.314 35.5333 323.314 36.2005 323.429C36.5903 323.487 36.9284 324.154 37.3121 323.429L39.3283 323.411C39.7852 322.698 40.5009 322.888 41.1557 322.907C42.0268 322.931 42.6572 322.421 43.309 321.985C43.7811 321.678 44.1313 321.091 44.6369 320.9C45.1425 320.71 45.6115 320.4 45.6663 319.979C45.7425 319.389 46.382 319.106 46.248 318.403C46.114 317.699 46.2176 316.866 46.2176 316.111C46.2176 315.26 46.3242 314.39 46.1871 313.564C46.0501 312.737 46.6257 312.187 46.7323 311.471C46.758 311.263 46.7248 311.052 46.6364 310.862C46.548 310.673 46.408 310.512 46.2328 310.399C46.2328 309.21 46.2328 308.021 46.2176 306.832C47.1983 306.027 46.5435 304.927 46.714 303.978C46.7584 303.774 46.7512 303.562 46.6932 303.362C46.6352 303.162 46.5282 302.98 46.382 302.832C46.0775 302.485 46.8907 302.322 46.7384 301.846C46.644 301.539 46.8145 301.167 46.4765 300.924C46.2024 300.734 46.2876 300.571 46.4917 300.38C46.8907 300.009 46.7963 299.64 46.4125 299.339C46.2145 299.182 46.181 299.096 46.376 298.97C46.5083 298.87 46.6113 298.736 46.6741 298.582C46.7368 298.428 46.7569 298.259 46.7323 298.094C46.7201 293.326 46.7201 288.56 46.7323 283.796C46.7326 283.467 46.6097 283.15 46.3881 282.908C46.0623 282.49 46.915 282.389 46.7384 281.916C46.6743 281.667 46.6743 281.406 46.7384 281.157C46.8602 280.524 45.9526 280.269 46.2024 279.571C46.2602 279.405 46.0836 279.117 45.9526 278.926C45.6481 278.465 45.6267 277.799 45.0633 277.513C44.3171 277.132 45.0907 276.137 44.3506 275.765C43.9334 274.603 43.373 273.528 42.377 272.766C42.0298 272.499 42.3557 271.749 41.8227 271.805C40.9517 271.894 41.3111 271.101 40.9852 270.831C40.8542 270.723 40.7628 270.554 40.6197 270.477C40.3456 270.333 39.9832 270.296 39.7791 270.09C39.575 269.884 39.575 269.476 39.3893 269.248C39.0847 268.852 38.6674 268.532 38.3324 268.152C37.9974 267.771 37.4492 267.571 37.6045 266.923C36.9859 266.724 36.4385 266.347 36.0299 265.838C35.9861 265.764 35.9242 265.703 35.8502 265.66C35.5457 265.528 35.8289 265.601 35.7071 265.81C35.4299 266.299 34.6046 265.869 34.5741 266.56C34.5436 267.251 33.9223 267.506 33.5386 267.909C33.2828 268.179 32.8625 268.293 32.5122 268.468C32.0005 268.72 32.1345 269.353 31.7965 269.697C31.1815 270.399 30.5179 271.056 29.8107 271.663C29.0524 272.247 29.0036 273.282 28.2239 273.832C27.5417 274.312 27.3103 275.126 26.96 275.848C26.7194 276.345 26.5976 276.969 26.223 277.31C25.693 277.789 26.2534 278.505 25.7143 278.905C25.4859 279.074 25.4585 279.212 25.693 279.452C25.8767 279.622 25.99 279.855 26.0103 280.106C26.0306 280.356 25.9565 280.606 25.8027 280.803C25.5443 281.123 25.4129 281.528 25.4341 281.94C25.4463 283.214 25.4463 284.49 25.4341 285.768C25.4621 286.01 25.4108 286.254 25.2879 286.463C25.0017 286.748 24.8951 286.927 25.2879 287.206C25.6199 287.452 25.4737 287.851 25.428 288.152C25.3824 288.453 24.9895 288.712 25.0352 288.936C25.0808 289.16 25.4737 289.369 25.4646 289.775C25.4341 290.795 25.4341 291.818 25.4646 292.847C25.4511 293.254 25.3092 293.646 25.0595 293.965C24.921 294.175 24.8619 294.428 24.8933 294.678C24.9246 294.928 25.0442 295.158 25.2301 295.326C25.5346 295.587 25.5925 295.941 25.3123 296.19C24.8555 296.623 24.7702 297.007 25.291 297.419C25.3519 297.471 25.4494 297.541 25.4494 297.603C25.4494 298.623 25.5286 299.652 25.4494 300.675C25.3702 301.698 25.9275 302.875 24.9742 303.797C24.9402 303.871 24.9257 303.953 24.9321 304.035C24.9385 304.117 24.9656 304.196 25.0108 304.264C25.5103 304.608 25.5438 305.112 25.4585 305.612C25.3062 306.488 25.891 307.484 25.0565 308.258C25.0321 308.282 25.1814 308.482 25.2362 308.608C25.5407 309.355 25.5864 309.37 25.1478 310.163C25.0413 310.35 24.9286 310.408 25.1174 310.534C25.2498 310.634 25.3531 310.767 25.4164 310.921C25.4796 311.074 25.5005 311.242 25.4768 311.407C25.3945 313.61 25.4037 315.825 25.4037 318.547Z" fill="#B19B6C"/>
<path d="M21.8555 293.237C22.1205 293.762 22.5712 293.996 21.9834 294.408C21.9303 294.467 21.8923 294.538 21.8727 294.615C21.853 294.692 21.8524 294.773 21.8707 294.85C21.9652 295.124 22.3032 295.437 22.2362 295.612C22.1266 295.892 21.7885 296.082 21.8555 296.472C21.9347 296.945 21.8159 297.394 22.1113 297.904C22.5834 298.709 22.4707 299.581 22.023 300.454C21.9225 300.645 21.822 300.678 22.023 300.832C22.1283 300.896 22.2156 300.986 22.2769 301.093C22.3382 301.201 22.3713 301.322 22.3733 301.446C22.352 303.317 22.3733 305.188 22.3428 307.06C22.3428 307.327 21.9682 307.576 21.9317 307.855C21.9103 308.021 22.2179 308.224 22.358 308.427C22.3775 308.465 22.3877 308.507 22.3877 308.55C22.3877 308.592 22.3775 308.635 22.358 308.673C21.5631 309.514 21.9164 310.562 21.8647 311.53C21.8433 311.923 21.7611 312.332 22.1205 312.7C22.5712 313.167 21.621 313.379 21.8159 313.929C21.9591 314.301 21.8433 314.771 21.8433 315.195C21.8433 316.642 21.8433 318.086 21.8433 319.533C21.8433 320.289 21.755 320.366 20.9814 320.344C20.6373 320.344 20.3114 320.344 20.3175 319.837C20.3175 318.731 20.3175 317.625 20.3175 316.522C20.3175 315.932 20.3814 315.352 19.8241 314.955C19.9855 314.768 20.2901 314.574 20.284 314.393C20.2596 313.757 20.5885 313.041 19.9215 312.501C19.8617 312.404 19.828 312.292 19.8237 312.178C19.8194 312.064 19.8448 311.951 19.8972 311.849C20.0487 311.709 20.1656 311.536 20.2385 311.342C20.3115 311.148 20.3386 310.94 20.3175 310.734C20.2901 309.886 20.3571 309.029 20.2931 308.184C20.2535 307.625 21.1428 307.318 20.7834 306.894C20.2779 306.301 20.3205 305.686 20.3114 305.035C20.3022 304.384 20.3327 303.674 20.3114 302.995C20.3114 302.688 20.5276 302.568 20.6494 302.362C20.8931 301.95 20.884 301.938 20.6494 301.499C20.5703 301.357 20.3449 301.247 20.3449 301.121C20.2869 300.275 20.3073 299.425 20.4058 298.583C20.4576 298.257 21.1063 297.916 20.756 297.551C20.3418 297.117 20.3327 296.684 20.3327 296.18C20.3327 292.779 20.3571 289.375 20.3144 285.974C20.3096 285.726 20.3644 285.48 20.4742 285.258C20.584 285.036 20.7455 284.844 20.9449 284.699C21.2037 284.469 21.4931 284.527 21.8129 284.742C22.3946 285.135 22.422 285.698 22.3611 286.303C21.6575 286.764 21.8646 287.483 21.8586 288.146C21.8494 289.765 21.8555 291.366 21.8555 293.237Z" fill="#B19B6C"/>
<path d="M54.3007 290.168C54.3007 291.615 54.316 292.807 54.3007 293.999C54.2895 294.164 54.3158 294.329 54.3775 294.482C54.4393 294.634 54.5349 294.771 54.6571 294.881C54.9982 295.216 54.7698 295.673 54.7911 296.076C54.1576 296.457 54.316 297.09 54.3129 297.661C54.3129 299.28 54.3891 300.903 54.2855 302.512C54.2063 303.809 54.8063 305.21 53.8043 306.39V310.221C54.3038 310.737 54.3434 311.373 54.3251 312.064C54.3251 312.467 54.0723 312.66 53.8439 312.888C53.7456 312.986 53.6299 313.064 53.5028 313.118C52.9607 312.522 52.114 312.11 52.2845 311.078C52.3728 310.528 52.0439 309.88 52.6683 309.431C52.6987 309.407 52.2784 308.931 52.3119 308.697C52.4368 307.735 51.8977 306.697 52.717 305.794C52.9332 305.557 52.7901 304.983 52.7901 304.565C52.7901 299.201 52.8084 293.836 52.7718 288.475C52.7718 287.861 53.1038 287.553 53.4601 287.225C53.5922 287.132 53.7553 287.095 53.9139 287.123C53.9751 287.125 54.0352 287.14 54.0901 287.167C54.145 287.194 54.1935 287.233 54.2322 287.281C54.2709 287.329 54.299 287.384 54.3145 287.444C54.33 287.504 54.3326 287.566 54.3221 287.627C54.2855 288.38 54.3007 289.151 54.3007 290.168Z" fill="#B19B6C"/>
<path d="M52.9089 265.752C52.7505 266.115 52.9089 266.449 52.6043 266.554C52.2193 266.648 51.8602 266.829 51.5536 267.082C51.3038 267.316 50.984 267.101 50.7038 266.87C50.18 266.44 50.2044 265.697 49.6683 265.251C49.2541 264.91 48.6511 264.618 48.712 263.884C48.712 263.792 48.5049 263.604 48.38 263.577C47.5455 263.482 47.2531 262.726 46.7141 262.268C47.4998 261.561 48.5993 261.039 49.4978 261.021C50.2379 261.021 50.716 260.243 51.5597 260.461C52.215 260.623 52.8992 260.623 53.5546 260.461C54.4012 260.249 54.8764 261.014 55.5982 261.076C55.6895 261.076 55.8692 261.546 55.7992 261.69C55.6473 261.986 55.4281 262.241 55.1596 262.434C54.0906 263.27 53.6033 264.465 52.9089 265.752ZM49.7384 262.299L49.382 262.148C49.3102 262.289 49.2619 262.44 49.2389 262.597C49.2541 263.082 49.7445 263.211 49.9729 263.561C50.917 263.294 50.5516 264.366 50.9505 264.563L52.7931 262.812C52.2845 262.308 51.3861 262.855 51.0328 262.071C50.9034 262.158 50.7856 262.261 50.6825 262.379C50.4937 262.652 50.2287 262.526 49.7384 262.299Z" fill="#B19B6C"/>
<path d="M21.7276 262.938C21.0088 264.108 20.6769 265.337 19.6322 266.056C19.2241 266.336 19.4221 266.818 19.1175 267.131C18.7429 267.516 18.3774 267.807 17.817 267.666C17.6647 267.629 17.4302 267.592 17.3937 267.494C17.0891 266.68 16.48 265.958 16.3307 265.147C16.215 264.532 16.078 264.041 15.5967 263.66C15.0874 263.251 14.7134 262.696 14.5247 262.068C14.482 261.942 14.3145 261.761 14.345 261.718C14.5457 261.452 14.791 261.223 15.0698 261.042C15.2709 260.938 15.5663 261.021 15.8191 261.021C17.2505 261.021 18.6881 261.11 20.1104 260.987C20.8535 260.922 21.3286 261.322 21.9378 261.54C22.5469 261.758 22.5225 262.019 22.0474 262.631C21.9804 262.698 21.9286 262.75 21.7276 262.938ZM19.0688 264.09C19.2092 263.732 19.3868 263.39 19.5987 263.07C19.8028 262.815 19.7632 262.578 19.5348 262.581C18.9835 262.581 18.347 262.317 17.8901 262.753C17.552 263.061 17.3937 262.996 17.1713 262.695C17.1348 262.646 17.0587 262.627 17.0008 262.597C16.9277 262.732 16.7693 262.904 16.7998 263.002C17.0282 263.82 17.6556 264.462 17.814 265.325C17.8597 265.577 18.0789 265.632 18.3043 265.383C18.5784 265.079 18.9378 264.84 19.0688 264.09Z" fill="#B19B6C"/>
<path d="M24.7702 272.656C24.4656 273.132 24.3621 273.577 24.0971 273.814C23.5763 274.305 23.1834 274.797 23.3753 275.556C23.491 276.047 23.2047 276.358 22.8667 276.607C22.6897 276.761 22.4667 276.85 22.2332 276.862C21.7855 276.803 21.8525 276.41 21.8647 276.081C21.8647 275.842 21.8007 275.584 22.0565 275.396C22.1723 275.313 22.3185 275.16 22.3124 275.043C22.2606 273.507 22.1997 273.15 22.6657 272.794C23.3631 272.265 23.3418 271.258 24.0758 270.831C24.8098 270.404 24.7489 269.528 25.3184 269.061C25.69 268.754 25.8758 268.191 26.4697 268.188C26.5304 268.196 26.592 268.19 26.65 268.17C26.7081 268.151 26.7612 268.119 26.8054 268.076C26.8497 268.033 26.884 267.981 26.906 267.924C26.928 267.866 26.9371 267.804 26.9326 267.743C26.9414 267.493 27.0333 267.254 27.1935 267.063C27.3538 266.872 27.573 266.742 27.8158 266.692C28.3732 266.591 28.5163 266.385 28.4554 265.884C29.0645 265.476 29.2991 264.588 30.2006 264.606L31.7691 263.091C31.9154 263.211 32.0464 263.348 32.1589 263.5C32.2503 263.657 32.5823 263.657 32.3417 264.047C31.4858 265.433 31.5071 265.433 29.6919 266.714C29.3874 266.929 28.9336 267.159 28.9701 267.666C29.0006 268.093 28.6321 268.216 28.431 268.459C28.1265 268.837 27.2128 268.631 27.3986 269.51L26.1499 270.766C25.7357 271.187 25.3062 271.593 24.9316 272.035C24.825 272.124 24.8981 272.358 24.7702 272.656Z" fill="#B19B6C"/>
<path d="M54.8216 270.225C54.8216 269.801 54.7485 269.549 54.8216 269.473C55.6134 268.738 55.5586 267.497 56.4175 266.812C56.5492 266.714 56.6574 266.588 56.7339 266.442C56.8104 266.296 56.8532 266.135 56.8591 265.97C56.9048 265.42 57.6692 265.813 57.8002 265.399C57.9312 264.984 57.8307 264.551 58.4581 264.588C58.586 264.588 58.8357 264.443 58.8449 264.351C58.9728 262.815 60.0997 263.073 61.0712 263.082C61.1839 263.082 61.3453 263.266 61.3758 263.389C61.4025 263.467 61.4123 263.55 61.4044 263.632C61.3965 263.715 61.3712 263.794 61.3301 263.866C60.5717 264.664 59.792 265.439 59.0154 266.219C57.4317 267.817 57.4317 267.817 56.32 270.195C56.049 270.775 55.6073 271.307 55.7992 272.02C55.1901 272.401 55.254 273.027 55.3241 273.599C55.385 274.112 54.8855 274.287 54.8155 274.668C54.7854 275.091 54.7783 275.516 54.7942 275.94C54.7576 276.422 54.3799 276.355 54.048 276.355C53.3079 276.355 53.2591 276.355 53.2896 275.706C53.3109 275.227 53.0673 274.677 53.5546 274.29C53.6498 274.21 53.7214 274.105 53.7617 273.987C53.802 273.869 53.8094 273.742 53.783 273.62C53.6825 272.566 53.8317 271.62 54.7881 270.969C54.8764 270.923 54.8216 270.652 54.8216 270.225Z" fill="#B19B6C"/>
<path d="M53.2987 281.986C53.2987 281.313 53.32 280.899 53.2987 280.484C53.2774 280.364 53.3039 280.241 53.3724 280.142C53.441 280.042 53.5459 279.974 53.6642 279.952C53.8207 279.915 53.9854 279.937 54.1271 280.014C55.1504 280.628 55.1169 282.309 54.1484 282.933C53.722 283.197 53.3657 282.917 53.2987 281.986Z" fill="#B19B6C"/>
<path d="M20.4606 279.046C20.8413 278.739 20.9631 278.333 21.3743 278.41C21.5991 278.486 21.8044 278.61 21.9756 278.776C22.1467 278.941 22.2794 279.142 22.3641 279.366C22.4251 279.771 22.1022 279.943 21.8799 280.164C21.4839 280.561 21.2464 280.564 20.8565 280.21C20.555 279.934 20.2078 279.673 20.4606 279.046Z" fill="#B19B6C"/>
<path d="M29.3326 248.111C29.6889 247.386 28.9092 247.189 28.9458 246.661C28.9823 246.132 29.0828 245.594 28.9214 245.143C28.7052 244.528 28.3275 244.012 28.428 243.299C28.4768 242.706 28.4829 242.109 28.4463 241.514C28.4463 240.835 28.4463 240.153 28.4463 239.474C28.425 238.568 29.3356 237.855 28.9732 236.869C28.9397 236.78 29.1102 236.589 29.2199 236.476C29.8016 235.861 30.3955 235.265 30.9833 234.66C30.9833 233.738 31.8605 233.502 32.2533 232.893C32.5762 232.39 33.0483 232.343 33.5691 232.386C33.8212 232.413 34.0753 232.413 34.3274 232.386C34.4926 232.368 34.6596 232.396 34.8104 232.466C34.9612 232.537 35.0901 232.647 35.1832 232.786C35.3447 232.979 35.5396 233.148 35.7162 233.33C35.832 233.45 36.0513 233.591 36.0208 233.698C35.9172 234.543 36.8462 234.694 37.0533 235.317C37.1294 235.542 37.2269 235.757 37.3091 235.975C37.3913 236.193 37.571 236.43 37.5436 236.636C37.4804 237.009 37.5259 237.392 37.6745 237.739C37.8232 238.087 38.0687 238.383 38.3812 238.593C38.4482 238.645 38.5517 238.709 38.5548 238.774C38.5807 239.196 38.5807 239.62 38.5548 240.043C38.5213 240.47 38.9964 240.559 39.0512 240.857C39.1228 241.278 39.1228 241.708 39.0512 242.129C38.9659 242.673 38.3994 243.051 38.5395 243.711C38.5965 244.221 38.6026 244.736 38.5578 245.247C38.5578 245.843 38.5578 246.439 38.5578 247.035C38.535 247.198 38.5528 247.364 38.6096 247.518C38.6572 247.581 38.7183 247.633 38.7883 247.67C38.8584 247.707 38.9358 247.727 39.0147 247.73C39.5385 247.705 40.0014 247.748 40.3395 248.237C40.4126 248.276 40.4942 248.296 40.5771 248.296C40.6599 248.296 40.7415 248.276 40.8146 248.237C41.2928 247.536 41.9994 247.754 42.642 247.739C43.3973 247.721 44.1648 247.757 44.908 247.69C45.1029 247.671 45.2552 247.336 45.4501 247.177C45.8125 246.869 45.4044 246.796 45.313 246.633C45.0816 246.218 45.0816 245.684 44.6034 245.389C44.2258 245.158 44.1405 244.774 44.107 244.319C44.0461 243.521 44.4907 242.627 43.7324 241.914C43.6806 241.865 44.0826 241.434 44.11 241.164C44.2075 240.575 44.2075 239.974 44.11 239.385C43.906 238.55 44.4633 237.972 44.6948 237.315C44.8501 236.875 45.179 236.519 45.1699 235.975C45.1699 235.563 45.7638 234.952 46.0836 234.964C46.7201 234.986 47.4511 234.715 47.911 235.447C49.1292 234.973 49.4734 236.58 50.5059 236.528L52.653 238.697C52.5556 239.394 53.4358 239.717 53.2622 240.494C53.0429 241.511 53.5119 242.402 54.0875 243.195C54.4743 243.736 53.8896 244.611 54.7363 244.949C54.6784 245.008 54.5931 245.06 54.5627 245.131C54.3281 245.668 54.3342 245.69 54.7363 245.69C56.0855 245.69 57.4347 245.69 58.7839 245.69C59.0885 245.69 59.2986 245.81 59.3078 246.068C59.3003 246.307 59.2109 246.536 59.055 246.716C58.8479 246.949 58.6773 247.272 58.2601 247.238C57.8428 247.204 57.3768 247.343 57.0053 247.207C56.1555 246.9 55.6895 247.791 54.9281 247.764C54.3007 247.742 53.585 247.456 53.0581 248.151C52.9515 248.286 52.5952 248.231 52.3546 248.252C51.1363 248.369 49.8754 247.923 48.7546 248.747C48.5902 248.87 48.2612 248.765 48.0084 248.765C47.247 248.765 46.4856 248.719 45.7303 248.765C44.975 248.811 44.043 248.421 43.3912 249.226L40.8756 249.263C39.8827 250.206 38.6553 249.742 37.5436 249.751C31.8909 249.803 26.2372 249.803 20.5825 249.751C19.5591 249.751 18.3896 250.292 17.5033 249.269L16.9642 249.748C16.614 248.962 15.7216 249.512 15.2282 249.039C15.0472 248.884 14.8243 248.789 14.5886 248.765C14.0313 248.697 13.4617 248.885 12.9744 248.332C12.6699 247.997 11.9907 248.479 11.6222 247.954C11.5333 247.842 11.4083 247.765 11.2689 247.736C10.7618 247.703 10.2532 247.703 9.74606 247.736C9.21003 247.776 9.0212 246.98 8.43644 247.217C7.75726 247.496 7.56539 246.473 6.87403 246.645C6.67301 246.694 6.54814 245.521 6.77961 245.3C6.83345 245.24 6.90326 245.197 6.98062 245.177C7.14791 245.189 7.31587 245.189 7.48315 245.177C8.05878 245.011 8.23847 245.791 8.79582 245.708C9.19785 245.659 9.79175 245.585 9.99581 245.803C10.5745 246.418 11.2445 246.135 11.878 246.19C11.9557 246.173 12.0276 246.135 12.0867 246.081C12.1459 246.028 12.1905 245.959 12.2161 245.883C12.3349 245.269 12.0486 244.611 12.5816 243.975C12.9501 243.536 12.6699 242.706 13.2242 242.206C13.3521 242.089 13.2242 241.711 13.2455 241.459C13.3186 240.673 13.6506 240.31 14.5369 239.477C15.0516 238.992 15.8495 238.645 15.8069 237.723C16.7602 236.952 17.3541 235.766 18.6302 235.348C18.9896 235.231 19.2058 234.734 19.5439 234.494C19.6523 234.454 19.7687 234.441 19.8833 234.456C19.9979 234.471 20.1071 234.513 20.2017 234.58C20.5063 234.838 20.8992 235.056 20.8505 235.579C20.8031 235.821 20.8362 236.073 20.9449 236.294C21.3926 236.875 21.5936 237.554 21.8829 238.205C22.0748 238.642 22.7144 238.909 22.8271 239.336C22.9916 239.975 22.8271 240.691 22.8789 241.367C22.9306 242.252 22.5743 243.21 23.3753 243.966C23.2413 245.008 23.7438 246.147 22.8819 247.085C22.7966 247.174 22.8819 247.413 22.8819 247.582C22.8575 248.052 22.9916 248.234 23.3966 248.234C25.3245 248.24 27.2646 248.237 29.3326 248.111ZM30.4747 245.935C30.6605 246.194 31.0199 246.32 30.9894 246.74C30.9589 247.161 30.8523 247.662 31.0351 247.969C31.3244 248.476 31.9488 248.194 32.4178 248.212C33.3315 248.249 34.2696 248.163 35.1863 248.243C35.4752 248.287 35.7701 248.222 36.0145 248.06C36.2589 247.899 36.4357 247.652 36.5111 247.367C36.6634 246.753 37.2756 246.344 37.1203 245.548C36.9649 244.753 36.9101 243.917 37.5619 243.204C37.7081 243.044 37.6137 242.531 37.4736 242.264C37.3335 241.997 36.9924 241.794 37.0837 241.41C37.145 241.16 37.1106 240.897 36.9875 240.672C36.8644 240.447 36.6616 240.277 36.4198 240.196C35.8948 239.997 35.4204 239.682 35.031 239.275C34.7447 238.995 33.6026 238.565 33.3315 238.51C32.5884 238.353 32.3934 239.093 31.9122 239.355C31.361 239.662 30.5935 239.732 30.5143 240.507C30.4625 241.029 29.8321 241.213 29.96 241.822C30.0205 242.326 30.0277 242.836 29.9813 243.342C30.761 243.889 30.4046 244.71 30.4747 245.935ZM21.3378 241.327C21.5631 240.605 21.088 240.098 20.8291 239.502C20.6099 239.004 20.2566 238.86 19.9459 239.152C19.327 239.683 18.8311 240.345 18.4931 241.09C18.3165 241.514 18.3165 242.083 17.8048 242.319C17.8962 242.805 17.4333 243.035 17.3175 243.385C17.1652 243.843 17.4668 244.525 17.2292 244.863C16.9246 245.309 16.7023 245.693 16.7784 246.215C16.8546 246.737 16.5135 247.318 17.0008 247.625C17.3053 247.816 17.8079 247.714 18.219 247.696C18.3409 247.692 18.4618 247.718 18.5715 247.772C18.6813 247.825 18.7766 247.905 18.8495 248.003C18.9962 248.155 19.189 248.254 19.3974 248.284C19.6059 248.313 19.8182 248.272 20.0007 248.166C20.5185 247.797 21.1307 247.416 21.3195 246.734C21.3911 246.4 21.3911 246.055 21.3195 245.72C21.2281 245.213 21.8708 245.124 21.8433 244.657C21.8141 244.146 21.8141 243.633 21.8433 243.121C21.8951 242.63 21.1185 242.451 21.35 241.336L21.3378 241.327ZM46.178 245.416C46.6744 245.723 46.7293 246.194 46.6958 246.722C46.6931 246.801 46.7089 246.879 46.7417 246.95C46.7745 247.022 46.8234 247.085 46.8846 247.134C48.182 247.671 49.2176 246.983 49.2176 245.598C49.2176 245.183 49.1932 244.765 49.181 244.35C48.5353 243.994 48.9313 243.213 48.6176 242.814C48.2551 242.368 48.313 241.914 48.1729 241.465C48.0054 240.946 47.7039 240.51 47.6582 239.898C47.6064 239.225 46.9455 238.931 46.1354 239.014C45.9922 239.029 45.7699 239.118 45.7364 239.222C45.4623 240.055 46.0805 241.066 45.2034 241.785C46.1536 242.528 45.3344 243.683 45.8339 244.525C46.0347 244.785 46.1582 245.097 46.1902 245.425L46.178 245.416ZM51.7759 240.301C51.589 240.136 51.4214 239.951 51.2764 239.748C50.5942 238.482 50.6033 238.46 49.7536 238.003C48.9861 237.591 48.1485 237.305 47.5699 236.58C47.3719 236.331 46.781 236.448 46.7323 236.715C46.6836 236.983 46.6196 237.213 46.8785 237.404C47.1125 237.626 47.3699 237.822 47.646 237.987C48.7303 238.445 49.4216 239.136 49.245 240.421C49.1597 241.035 50.0033 241.305 49.7749 241.991C49.7201 242.156 49.9241 242.424 50.0368 242.627C50.512 243.478 50.9505 244.326 50.7769 245.364C50.7282 245.699 50.7282 246.04 50.7769 246.375C50.8009 246.45 50.8435 246.517 50.9005 246.571C50.9575 246.625 51.0271 246.663 51.1028 246.682C51.5204 246.716 51.94 246.716 52.3576 246.682C52.5098 246.645 52.649 246.566 52.7596 246.455C52.8023 246.418 52.7871 246.298 52.7901 246.218C52.7901 245.542 52.7901 244.866 52.7901 244.19C52.7901 243.619 52.0348 243.296 52.2723 242.623C52.2834 242.545 52.2753 242.465 52.2487 242.391C52.2222 242.316 52.178 242.25 52.1201 242.196C51.5658 241.837 51.8307 241.296 51.7759 240.301ZM17.7987 237.757C17.3967 238.252 16.885 238.611 16.6749 239.324C16.4952 239.895 15.7856 240.298 15.3104 240.777C15.5023 241.428 14.5795 241.671 14.7561 242.313C14.8871 242.802 14.482 243.038 14.2749 243.385C14.0678 243.733 14.4668 244.246 14.0709 244.556C13.9055 244.686 13.7865 244.867 13.7316 245.072C13.6767 245.276 13.6889 245.493 13.7663 245.69C13.9467 246.208 14.1891 246.702 14.4881 247.161C14.5369 247.241 14.7927 247.207 14.9602 247.195C15 247.188 15.0378 247.172 15.0705 247.148C15.1032 247.124 15.1301 247.093 15.149 247.057C15.22 246.915 15.2575 246.758 15.2587 246.599C15.1521 245.677 15.5023 244.863 15.7186 244.003C15.8404 243.505 16.282 243.115 16.2394 242.71C16.1571 241.886 16.6962 241.342 16.9551 240.703C17.2597 239.981 17.6069 239.207 18.3287 238.731C18.5935 238.523 18.8327 238.283 19.0414 238.018C19.1297 237.92 19.2606 237.742 19.2271 237.668C19.0901 237.361 18.7916 237.511 18.5571 237.49C18.2807 237.484 18.0115 237.579 17.7987 237.757ZM35.5426 236.734C35.5564 236.649 35.5564 236.563 35.5426 236.479C35.2624 235.662 34.1782 235.216 34.4645 234.119C34.348 234.023 34.21 233.958 34.0625 233.929C33.5416 233.849 33.0513 233.929 32.765 234.436C32.6591 234.728 32.535 235.013 32.3934 235.29C32.1209 235.617 31.8268 235.925 31.5133 236.212C31.166 236.574 30.8036 236.927 30.4899 237.315C30.4588 237.391 30.4456 237.474 30.4514 237.557C30.4572 237.639 30.4819 237.719 30.5234 237.791C30.5716 237.853 30.6318 237.904 30.7004 237.942C30.7691 237.979 30.8446 238.002 30.9224 238.009C31.08 238.01 31.2348 237.967 31.3701 237.886C33.0148 237.007 33.0117 237.004 34.2848 237.001C34.7191 237.014 35.1503 236.922 35.5426 236.734Z" fill="#B19B6C"/>
<path d="M35.0249 250.796C35.6706 251.208 36.1883 251.536 36.0482 252.258C36.0055 252.595 36.0055 252.936 36.0482 253.272C36.0665 253.555 35.9721 253.804 35.7193 253.847C35.4147 253.899 34.9762 253.957 34.7508 253.794C34.2967 253.427 33.8877 253.006 33.5325 252.541C33.495 252.466 33.477 252.383 33.4802 252.299C33.4834 252.215 33.5077 252.133 33.5508 252.062C33.9751 251.566 34.4723 251.139 35.0249 250.796Z" fill="#B19B6C"/>
<path d="M51.7759 234.433C52.0665 234.555 52.3311 234.732 52.5556 234.955C52.7292 235.093 52.7871 235.198 52.6774 235.308C52.6226 235.367 52.5556 235.447 52.4916 235.447C52.0805 235.447 51.6663 235.447 51.2734 235.447C50.9688 235.465 50.8379 235.299 50.78 235.041C50.6643 234.657 50.8622 234.503 51.7759 234.433Z" fill="#B19B6C"/>
<path d="M48.8521 345.009C48.2385 345.739 47.392 346.23 46.4582 346.398C46.1335 346.41 45.8232 346.536 45.5811 346.754C45.3286 347.078 44.9954 347.328 44.6156 347.479C44.107 347.642 43.7415 348.22 43.2359 348.432C42.8034 348.613 42.2644 348.536 41.774 348.57C41.2715 349.273 40.5557 348.899 39.9101 348.957C39.8157 348.957 39.6512 348.757 39.6055 348.622C39.5834 348.543 39.5772 348.461 39.5871 348.38C39.597 348.298 39.623 348.22 39.6634 348.149C40.1598 347.448 41.0035 347.316 41.6979 346.942C41.8958 346.834 42.2369 346.978 42.4166 346.862C42.8278 346.591 43.1354 346.146 43.5618 345.94C43.8968 345.774 44.3202 345.94 44.7161 345.633C45.2643 345.206 46.1079 345.113 46.5648 344.659C47.113 344.115 47.9262 344.044 48.3556 343.43C48.7851 342.815 49.4856 342.849 49.9668 342.373C50.7495 341.599 50.7982 341.651 51.7576 342.576C50.9992 343.341 50.2348 344.112 49.4642 344.865C49.3851 344.957 49.1475 344.883 48.8521 345.009Z" fill="#B19B6C"/>
<path d="M53.2987 338.748C53.5988 338.847 53.8655 339.029 54.0693 339.273C54.4317 339.715 54.3739 339.854 54.0693 340.299C53.9256 340.495 53.7297 340.646 53.5043 340.734C53.2789 340.822 53.0334 340.844 52.7962 340.797C52.4612 340.766 52.1719 340.431 52.3028 340.161C52.5402 339.629 52.8785 339.149 53.2987 338.748Z" fill="#B19B6C"/>
</g>
<defs>
<clipPath id="clip0_107_3931">
<rect width="68" height="400.798" fill="white" transform="translate(0 0.351532)"/>
</clipPath>
</defs>
</svg>
