<svg width="56" height="56" viewBox="0 0 56 56" fill="none" xmlns="http://www.w3.org/2000/svg">
<path d="M27.8571 55.8574C43.2422 55.8574 55.7143 43.3853 55.7143 28.0002C55.7143 12.6151 43.2422 0.143066 27.8571 0.143066C12.4721 0.143066 0 12.6151 0 28.0002C0 43.3853 12.4721 55.8574 27.8571 55.8574Z" fill="url(#paint0_linear_431_157612)"/>
<path d="M34.1651 30.0756L34.8344 25.8226H30.6472V23.0639C30.6472 21.9001 31.2311 20.7651 33.1065 20.7651H35.0114V17.1443C35.0114 17.1443 33.2834 16.8569 31.6321 16.8569C28.182 16.8569 25.9292 18.8943 25.9292 22.5811V25.8226H22.0958V30.0756H25.9292V40.3574C26.6988 40.4752 27.4861 40.5355 28.2882 40.5355C29.0902 40.5355 29.8776 40.4752 30.6472 40.3574V30.0756H34.1651Z" fill="white"/>
<defs>
<linearGradient id="paint0_linear_431_157612" x1="27.8571" y1="0.143066" x2="27.8571" y2="55.6922" gradientUnits="userSpaceOnUse">
<stop stop-color="#18ACFE"/>
<stop offset="1" stop-color="#0163E0"/>
</linearGradient>
</defs>
</svg>
