<svg width="121" height="40" viewBox="0 0 121 40" fill="none" xmlns="http://www.w3.org/2000/svg">
<rect x="1.21429" y="0.5" width="119" height="39" rx="5.5" fill="white"/>
<rect x="1.21429" y="0.5" width="119" height="39" rx="5.5" stroke="black"/>
<path d="M18.5191 19.4617L8.80389 30.0059C8.80481 30.0078 8.80481 30.0106 8.80572 30.0125C9.1041 31.1574 10.1261 32 11.3397 32C11.8251 32 12.2805 31.8656 12.671 31.6305L12.702 31.6118L23.6372 25.1593L18.5191 19.4617Z" fill="#EA4335"/>
<path d="M28.3474 17.6662L28.3383 17.6597L23.6171 14.8612L18.2982 19.7013L23.6362 25.1582L28.3319 22.3878C29.155 21.9324 29.7143 21.045 29.7143 20.0223C29.7143 19.0052 29.1632 18.1225 28.3474 17.6662Z" fill="#FBBC04"/>
<path d="M8.80372 9.99325C8.74532 10.2135 8.71429 10.4449 8.71429 10.6838V29.3163C8.71429 29.5552 8.74532 29.7866 8.80463 30.0059L18.8529 19.7313L8.80372 9.99325Z" fill="#4285F4"/>
<path d="M18.5909 20L23.6187 14.8594L12.6962 8.3836C12.2993 8.14005 11.8358 8.00009 11.3403 8.00009C10.1267 8.00009 9.10288 8.84456 8.8045 9.99043C8.8045 9.99136 8.80359 9.9923 8.80359 9.99323L18.5909 20Z" fill="#34A853"/>
<path d="M44.3243 11.71C44.3243 12.71 44.0276 13.5067 43.4343 14.1C42.7676 14.8067 41.891 15.16 40.8043 15.16C39.7643 15.16 38.8843 14.8 38.1643 14.08C37.4443 13.36 37.0843 12.4733 37.0843 11.42C37.0843 10.3667 37.4443 9.48 38.1643 8.76C38.8843 8.04 39.7643 7.68 40.8043 7.68C41.331 7.68 41.8276 7.77333 42.2943 7.96C42.761 8.14667 43.1443 8.41 43.4443 8.75L42.7843 9.41C42.5643 9.14333 42.2776 8.93667 41.9243 8.79C41.5776 8.63667 41.2043 8.56 40.8043 8.56C40.0243 8.56 39.3643 8.83 38.8243 9.37C38.291 9.91667 38.0243 10.6 38.0243 11.42C38.0243 12.24 38.291 12.9233 38.8243 13.47C39.3643 14.01 40.0243 14.28 40.8043 14.28C41.5176 14.28 42.111 14.08 42.5843 13.68C43.0576 13.28 43.331 12.73 43.4043 12.03H40.8043V11.17H44.2743C44.3076 11.3567 44.3243 11.5367 44.3243 11.71ZM49.6221 7.84V8.72H46.3621V10.99H49.3021V11.85H46.3621V14.12H49.6221V15H45.4421V7.84H49.6221ZM53.302 8.72V15H52.382V8.72H50.382V7.84H55.302V8.72H53.302ZM59.3797 15H58.4597V7.84H59.3797V15ZM63.263 8.72V15H62.343V8.72H60.343V7.84H65.263V8.72H63.263ZM75.2353 11.42C75.2353 12.48 74.882 13.3667 74.1753 14.08C73.462 14.8 72.5886 15.16 71.5553 15.16C70.5153 15.16 69.642 14.8 68.9353 14.08C68.2286 13.3667 67.8753 12.48 67.8753 11.42C67.8753 10.36 68.2286 9.47333 68.9353 8.76C69.642 8.04 70.5153 7.68 71.5553 7.68C72.5953 7.68 73.4686 8.04333 74.1753 8.77C74.882 9.48333 75.2353 10.3667 75.2353 11.42ZM68.8153 11.42C68.8153 12.2467 69.0753 12.93 69.5953 13.47C70.122 14.01 70.7753 14.28 71.5553 14.28C72.3353 14.28 72.9853 14.01 73.5053 13.47C74.032 12.9367 74.2953 12.2533 74.2953 11.42C74.2953 10.5867 74.032 9.90333 73.5053 9.37C72.9853 8.83 72.3353 8.56 71.5553 8.56C70.7753 8.56 70.122 8.83 69.5953 9.37C69.0753 9.91 68.8153 10.5933 68.8153 11.42ZM77.241 15H76.321V7.84H77.441L80.921 13.41H80.961L80.921 12.03V7.84H81.841V15H80.881L77.241 9.16H77.201L77.241 10.54V15Z" fill="black"/>
<path d="M94.2324 31.4097H95.8612V20.3981H94.2324V31.4097ZM108.903 24.3646L107.036 29.1388H106.98L105.042 24.3646H103.288L106.194 31.0371L104.538 34.749H106.236L110.714 24.3646H108.903ZM99.6662 30.1588C99.1319 30.1588 98.3882 29.8902 98.3882 29.2234C98.3882 28.3742 99.3144 28.0483 100.115 28.0483C100.831 28.0483 101.168 28.2042 101.603 28.4165C101.477 29.4365 100.606 30.1588 99.6662 30.1588ZM99.8625 24.1241C98.6833 24.1241 97.4612 24.6482 96.9567 25.8101L98.4022 26.4188C98.7112 25.8101 99.2864 25.611 99.8905 25.611C100.733 25.611 101.589 26.121 101.603 27.0283V27.1411C101.308 26.971 100.677 26.7165 99.9044 26.7165C98.3463 26.7165 96.7594 27.5806 96.7594 29.1952C96.7594 30.6689 98.0373 31.6184 99.4689 31.6184C100.564 31.6184 101.168 31.1225 101.547 30.5411H101.603V31.3912H103.175V27.1692C103.175 25.2146 101.73 24.1241 99.8625 24.1241ZM89.7964 25.7053H87.4797V21.9308H89.7964C91.0141 21.9308 91.7054 22.9482 91.7054 23.8176C91.7054 24.6711 91.0141 25.7053 89.7964 25.7053ZM89.7545 20.3981H85.8518V31.4097H87.4797V27.2379H89.7545C91.5596 27.2379 93.3342 25.9184 93.3342 23.8176C93.3342 21.7168 91.5596 20.3981 89.7545 20.3981ZM68.4726 30.1606C67.3475 30.1606 66.4056 29.2102 66.4056 27.9047C66.4056 26.5852 67.3475 25.6198 68.4726 25.6198C69.5838 25.6198 70.4549 26.5852 70.4549 27.9047C70.4549 29.2102 69.5838 30.1606 68.4726 30.1606ZM70.3432 24.9812H70.2865C69.9207 24.5417 69.218 24.1444 68.3321 24.1444C66.4754 24.1444 64.7742 25.7898 64.7742 27.9047C64.7742 30.0047 66.4754 31.6369 68.3321 31.6369C69.218 31.6369 69.9207 31.2396 70.2865 30.7851H70.3432V31.3251C70.3432 32.7582 69.5838 33.5246 68.36 33.5246C67.3614 33.5246 66.7425 32.8005 66.4894 32.1901L65.0692 32.7864C65.4768 33.78 66.5601 35 68.36 35C70.2725 35 71.89 33.8646 71.89 31.0978V24.3708H70.3432V24.9812ZM73.0151 31.4097H74.6465V20.3973H73.0151V31.4097ZM77.0505 27.777C77.0086 26.3298 78.1617 25.5916 78.9909 25.5916C79.6386 25.5916 80.1868 25.9176 80.3692 26.3862L77.0505 27.777ZM82.1132 26.528C81.8042 25.6912 80.8615 24.1444 78.935 24.1444C77.0225 24.1444 75.4339 25.6621 75.4339 27.8907C75.4339 29.9906 77.0086 31.6369 79.1175 31.6369C80.8196 31.6369 81.8042 30.5869 82.2119 29.9765L80.9462 29.1247C80.5246 29.7493 79.9476 30.1606 79.1175 30.1606C78.2882 30.1606 77.6973 29.7774 77.3176 29.0261L82.2817 26.9534L82.1132 26.528ZM42.5644 25.2939V26.883H46.3327C46.2201 27.777 45.925 28.4297 45.4755 28.8834C44.9264 29.4374 44.0684 30.0479 42.5644 30.0479C40.2434 30.0479 38.4295 28.1602 38.4295 25.8189C38.4295 23.4767 40.2434 21.5899 42.5644 21.5899C43.8161 21.5899 44.73 22.0867 45.4048 22.7254L46.516 21.604C45.5732 20.6959 44.3224 20 42.5644 20C39.3862 20 36.7143 22.6117 36.7143 25.8189C36.7143 29.0261 39.3862 31.6369 42.5644 31.6369C44.2796 31.6369 45.5732 31.0688 46.5858 30.0047C47.6271 28.9547 47.9501 27.4793 47.9501 26.2866C47.9501 25.9176 47.9222 25.5775 47.8654 25.2939H42.5644ZM52.2351 30.1606C51.11 30.1606 50.1393 29.2243 50.1393 27.8907C50.1393 26.5421 51.11 25.6198 52.2351 25.6198C53.3594 25.6198 54.3301 26.5421 54.3301 27.8907C54.3301 29.2243 53.3594 30.1606 52.2351 30.1606ZM52.2351 24.1444C50.1812 24.1444 48.5079 25.7194 48.5079 27.8907C48.5079 30.0479 50.1812 31.6369 52.2351 31.6369C54.2882 31.6369 55.9615 30.0479 55.9615 27.8907C55.9615 25.7194 54.2882 24.1444 52.2351 24.1444ZM60.3643 30.1606C59.2392 30.1606 58.2685 29.2243 58.2685 27.8907C58.2685 26.5421 59.2392 25.6198 60.3643 25.6198C61.4895 25.6198 62.4593 26.5421 62.4593 27.8907C62.4593 29.2243 61.4895 30.1606 60.3643 30.1606ZM60.3643 24.1444C58.3113 24.1444 56.638 25.7194 56.638 27.8907C56.638 30.0479 58.3113 31.6369 60.3643 31.6369C62.4174 31.6369 64.0907 30.0479 64.0907 27.8907C64.0907 25.7194 62.4174 24.1444 60.3643 24.1444Z" fill="black"/>
</svg>
