<svg width="620" height="194" viewBox="0 0 620 194" fill="none" xmlns="http://www.w3.org/2000/svg">
<g clip-path="url(#clip0_169_1507)">
<path d="M582.618 181.519C588.084 179.674 592.111 174.259 597.374 172.435C597.497 172.392 597.712 172.804 598.192 173.326C597.575 174.394 596.874 175.362 596.103 176.211C592.378 179.457 588.712 182.729 584.849 185.572C581.202 188.256 579.337 186.834 578.4 181.16C577.565 176.004 576.804 170.813 576.038 165.631C576.018 164.738 576.063 163.844 576.173 162.964C579.81 167.685 579.523 173.99 581.659 179.676C583.318 174.75 584.929 170.559 586.186 166.109C590.423 151.174 592.169 135.858 589.23 119.98C585.381 99.0147 573.675 85.3539 558.234 83.6127C558.12 83.6102 558.006 83.5966 557.893 83.5719C556.765 83.2687 554.88 84.0942 555.138 81.3704C555.381 78.9342 557.136 79.8697 558.307 80.016C576.899 82.2727 590.171 100.023 592.591 125.91C594.138 142.528 591.416 158.049 586.064 172.835C585.017 175.802 583.773 178.619 582.618 181.519Z" fill="black"/>
</g>
<path d="M58.8312 65.2872C58.8312 65.2872 55.2037 8.70351 50.2904 2.20977C48.7523 0.176778 47.9544 0.427978 47.1888 3.18634C44.7432 11.997 58.8312 65.2872 58.8312 65.2872Z" fill="black"/>
<path d="M47.5443 71.9406C47.5443 71.9406 8.88532 54.1358 2.64948 58.3017C0.697226 59.6059 0.543197 60.8088 2.05067 62.9781C6.86582 69.9073 47.5443 71.9406 47.5443 71.9406Z" fill="black"/>
<path d="M52.7391 102.154C52.7391 102.154 12.0936 108.598 8.09921 117.432C6.8487 120.198 7.15046 121.634 9.27234 123.017C16.05 127.433 52.7391 102.154 52.7391 102.154Z" fill="black"/>
<path d="M80.6484 67.368C79.4964 67.368 78.5364 67.048 77.7684 66.408C77.0004 65.736 76.6164 64.824 76.6164 63.672C76.6164 62.936 76.8884 62.296 77.4324 61.752C78.0084 61.176 78.8084 60.888 79.8324 60.888C80.8564 60.888 81.6884 61.24 82.3284 61.944C83.0004 62.648 83.3364 63.48 83.3364 64.44C83.3364 64.952 83.2084 65.432 82.9524 65.88C82.6964 66.328 82.3604 66.696 81.9444 66.984C81.5604 67.24 81.1284 67.368 80.6484 67.368ZM79.4964 87.576C78.5044 87.576 77.6564 87.304 76.9524 86.76C76.2804 86.184 75.9444 85.48 75.9444 84.648C75.9444 83.624 76.2324 82.792 76.8084 82.152C77.3844 81.512 78.2004 81.192 79.2564 81.192C80.2484 81.192 81.0644 81.512 81.7044 82.152C82.3444 82.76 82.6644 83.48 82.6644 84.312C82.6644 85.208 82.3444 85.976 81.7044 86.616C81.0964 87.256 80.3604 87.576 79.4964 87.576ZM100.428 96.6C98.4125 96.6 96.5085 96.168 94.7165 95.304C92.9245 94.472 91.4685 93.272 90.3485 91.704C89.2285 90.136 88.6685 88.296 88.6685 86.184C88.6685 84.808 88.8765 83.448 89.2925 82.104C89.7405 80.728 90.3485 79.464 91.1165 78.312C91.9165 77.16 92.8605 76.232 93.9485 75.528C94.3005 75.336 94.6685 75.24 95.0525 75.24C95.5325 75.24 95.9805 75.368 96.3965 75.624C96.8445 75.848 97.1965 76.152 97.4525 76.536C97.7085 76.92 97.8365 77.32 97.8365 77.736C97.8685 78.12 97.6925 78.456 97.3085 78.744C96.4765 79.256 95.8045 79.896 95.2925 80.664C94.7805 81.4 94.4125 82.168 94.1885 82.968C93.9645 83.736 93.8525 84.456 93.8525 85.128C93.8525 86.184 94.1405 87.096 94.7165 87.864C95.3245 88.664 96.1245 89.272 97.1165 89.688C98.1405 90.136 99.2605 90.36 100.476 90.36C102.332 90.36 103.884 90.056 105.132 89.448C106.38 88.84 107.372 88.008 108.108 86.952C108.876 85.864 109.452 84.616 109.836 83.208C110.252 81.8 110.524 80.296 110.652 78.696C110.78 77.096 110.844 75.464 110.844 73.8C110.844 71.88 110.844 69.944 110.844 67.992C110.844 66.008 110.828 64.072 110.796 62.184C110.796 60.264 110.796 58.456 110.796 56.76C110.796 55.064 110.796 53.544 110.796 52.2C110.796 51.4 111.004 50.84 111.42 50.52C111.868 50.168 112.476 49.992 113.244 49.992C114.236 49.992 114.908 50.168 115.26 50.52C115.612 50.84 115.788 51.512 115.788 52.536C115.788 53.784 115.772 55.112 115.74 56.52C115.74 57.896 115.74 59.32 115.74 60.792C115.74 62.264 115.724 63.752 115.692 65.256C115.692 66.728 115.692 68.184 115.692 69.624C115.724 70.552 115.74 71.48 115.74 72.408C115.74 73.336 115.74 74.248 115.74 75.144C115.836 76.168 116.092 77.128 116.508 78.024C116.924 78.92 117.5 79.656 118.236 80.232C119.004 80.776 119.916 81.048 120.972 81.048L121.836 81.72V86.376L120.972 87C119.948 87 118.796 86.68 117.516 86.04C116.268 85.368 115.26 84.376 114.492 83.064C114.204 85.336 113.66 87.32 112.86 89.016C112.06 90.712 111.036 92.12 109.788 93.24C108.572 94.36 107.164 95.192 105.564 95.736C103.996 96.312 102.284 96.6 100.428 96.6ZM120.868 87L120.1 86.52V81.768L120.964 81.048C122.404 81.048 123.572 80.632 124.468 79.8C125.396 78.936 126.068 77.8 126.484 76.392C127.284 73.96 128.18 72.008 129.172 70.536C130.164 69.064 131.252 68.008 132.436 67.368C133.652 66.696 134.932 66.36 136.276 66.36C138.612 66.36 140.564 67.352 142.132 69.336C143.732 71.32 144.916 73.992 145.684 77.352C145.94 78.376 146.484 79.256 147.316 79.992C148.148 80.696 149.172 81.048 150.388 81.048L151.252 81.72V86.376L150.388 87C148.18 87 146.276 86.392 144.676 85.176C143.108 83.928 142.052 82.04 141.508 79.512C141.124 77.688 140.676 76.232 140.164 75.144C139.684 74.024 139.108 73.224 138.436 72.744C137.796 72.232 137.06 71.976 136.228 71.976C134.98 71.976 133.876 72.472 132.916 73.464C131.988 74.456 131.284 76.008 130.804 78.12C130.388 79.976 129.764 81.576 128.932 82.92C128.132 84.232 127.076 85.24 125.764 85.944C124.484 86.648 122.852 87 120.868 87ZM136.18 87.864C134.356 87.864 132.708 87.304 131.236 86.184C129.796 85.064 128.596 83.448 127.636 81.336L130.18 77.256C130.692 78.664 131.508 79.784 132.628 80.616C133.748 81.448 134.932 81.864 136.18 81.864C137.588 81.864 138.772 81.48 139.732 80.712C140.724 79.944 141.3 78.92 141.46 77.64L144.196 81.528C143.876 82.776 143.316 83.88 142.516 84.84C141.748 85.768 140.804 86.504 139.684 87.048C138.596 87.592 137.428 87.864 136.18 87.864ZM164.13 87.048C162.562 87.048 161.218 86.536 160.098 85.512C158.978 84.456 158.194 83.192 157.746 81.72C157.17 83.32 156.258 84.6 155.01 85.56C153.762 86.52 152.21 87 150.354 87L149.49 86.376V81.816L150.354 81.048C151.506 81.048 152.434 80.84 153.138 80.424C153.874 79.976 154.45 79.4 154.866 78.696C155.282 77.992 155.57 77.208 155.73 76.344C155.89 75.448 155.97 74.584 155.97 73.752C156.002 72.824 156.162 72.152 156.45 71.736C156.77 71.288 157.346 71.064 158.178 71.064C158.978 71.064 159.554 71.272 159.906 71.688C160.29 72.072 160.434 72.616 160.338 73.32C160.146 75.112 160.21 76.552 160.53 77.64C160.882 78.728 161.394 79.528 162.066 80.04C162.77 80.52 163.538 80.76 164.37 80.76C165.522 80.76 166.466 80.296 167.202 79.368C167.938 78.408 168.37 77.128 168.498 75.528C168.498 75.176 168.482 74.776 168.45 74.328C168.45 73.88 168.498 73.368 168.594 72.792C168.658 72.056 168.85 71.48 169.17 71.064C169.522 70.648 170.098 70.44 170.898 70.44C171.666 70.44 172.226 70.68 172.578 71.16C172.962 71.608 173.106 72.2 173.01 72.936C172.882 73.992 172.802 75 172.77 75.96C172.77 76.888 172.866 77.72 173.058 78.456C173.25 79.192 173.602 79.768 174.114 80.184C174.626 80.568 175.362 80.76 176.322 80.76C177.378 80.76 178.226 80.392 178.866 79.656C179.538 78.92 180.018 77.912 180.306 76.632C180.626 75.352 180.786 73.88 180.786 72.216C180.786 71.512 180.994 70.968 181.41 70.584C181.826 70.2 182.386 70.008 183.09 70.008C183.698 70.008 184.194 70.216 184.578 70.632C184.994 71.048 185.186 71.736 185.154 72.696C185.154 75.512 184.834 77.992 184.194 80.136C183.586 82.28 182.674 83.96 181.458 85.176C180.242 86.392 178.738 87 176.946 87C175.346 87 173.954 86.504 172.77 85.512C171.586 84.488 170.802 83.176 170.418 81.576C169.938 83.24 169.138 84.568 168.018 85.56C166.93 86.552 165.634 87.048 164.13 87.048ZM189.954 87C188.802 87 187.794 86.776 186.93 86.328C186.066 85.848 185.314 85.24 184.674 84.504C184.066 83.736 183.554 82.904 183.138 82.008C182.754 81.112 182.434 80.232 182.178 79.368C181.922 78.504 181.714 77.736 181.554 77.064L184.53 76.488C184.914 77.896 185.602 79.016 186.594 79.848C187.618 80.648 188.738 81.048 189.954 81.048L190.818 81.72V86.376L189.954 87ZM168.21 65.304C168.05 65.656 167.826 65.912 167.538 66.072C167.25 66.232 166.946 66.312 166.626 66.312C166.082 66.312 165.602 66.104 165.186 65.688C164.77 65.272 164.674 64.728 164.898 64.056C165.826 61.56 166.946 59.656 168.258 58.344C169.57 57 170.882 56.328 172.194 56.328C172.77 56.328 173.378 56.472 174.018 56.76C174.69 57.048 175.33 57.56 175.938 58.296C176.578 59.032 177.138 60.072 177.618 61.416C177.842 62.024 177.858 62.552 177.666 63C177.474 63.416 177.186 63.736 176.802 63.96C176.45 64.152 176.066 64.248 175.65 64.248C175.362 64.248 175.09 64.184 174.834 64.056C174.61 63.928 174.434 63.736 174.306 63.48C173.89 62.52 173.506 61.816 173.154 61.368C172.802 60.888 172.386 60.648 171.906 60.648C171.394 60.648 170.818 61.096 170.178 61.992C169.538 62.888 168.882 63.992 168.21 65.304ZM189.964 87L189.1 86.184V81.72L189.964 81.048C190.86 81.048 191.66 80.872 192.364 80.52C193.068 80.136 193.66 79.512 194.14 78.648C194.652 77.752 195.004 76.552 195.196 75.048C195.196 73.992 195.244 73.096 195.34 72.36C195.468 71.624 195.724 71.064 196.108 70.68C196.524 70.296 197.132 70.104 197.932 70.104C198.764 70.104 199.372 70.28 199.756 70.632C200.172 70.984 200.38 71.4 200.38 71.88C200.38 72.36 200.332 72.808 200.236 73.224C200.14 73.64 200.044 74.072 199.948 74.52C199.884 74.968 199.852 75.464 199.852 76.008C199.852 76.968 200.044 77.832 200.428 78.6C200.844 79.336 201.404 79.928 202.108 80.376C202.812 80.824 203.612 81.048 204.508 81.048L205.372 81.72V86.376L204.508 87C202.748 87 201.244 86.504 199.996 85.512C198.748 84.488 197.836 83.128 197.26 81.432C196.908 82.52 196.364 83.48 195.628 84.312C194.924 85.144 194.092 85.8 193.132 86.28C192.172 86.76 191.116 87 189.964 87ZM194.572 97.464C193.516 97.72 192.7 97.608 192.124 97.128C191.548 96.648 191.26 95.928 191.26 94.968C191.26 94.232 191.58 93.688 192.22 93.336C192.892 93.016 193.708 92.76 194.668 92.568C195.788 92.312 196.892 92.168 197.98 92.136C199.1 92.104 200.06 92.104 200.86 92.136C201.5 92.168 202.012 92.344 202.396 92.664C202.78 93.016 203.036 93.432 203.164 93.912C203.292 94.392 203.292 94.872 203.164 95.352C203.036 95.832 202.78 96.232 202.396 96.552C202.012 96.872 201.5 97.032 200.86 97.032C199.964 97.032 198.94 97.048 197.788 97.08C196.668 97.112 195.596 97.24 194.572 97.464ZM204.495 87V81.048C205.871 81.048 206.959 80.68 207.759 79.944C208.559 79.176 209.151 78.2 209.535 77.016C209.951 75.832 210.207 74.568 210.303 73.224C210.431 71.88 210.463 70.616 210.399 69.432C210.399 68.696 210.607 68.12 211.023 67.704C211.439 67.288 212.031 67.08 212.799 67.08C213.727 67.08 214.399 67.352 214.815 67.896C215.263 68.408 215.487 69.208 215.487 70.296C215.551 72.696 215.359 74.92 214.911 76.968C214.495 78.984 213.823 80.744 212.895 82.248C211.967 83.752 210.799 84.92 209.391 85.752C208.015 86.584 206.383 87 204.495 87ZM204.495 87L203.631 86.424V81.624L204.495 81.048V87ZM209.391 99.432C208.847 99.432 208.399 99.272 208.047 98.952C207.695 98.664 207.439 98.296 207.279 97.848C207.119 97.4 207.039 96.936 207.039 96.456C207.039 95.528 207.279 94.76 207.759 94.152C208.271 93.576 208.847 93.288 209.487 93.288C210.127 93.288 210.671 93.448 211.119 93.768C211.567 94.088 211.903 94.472 212.127 94.92C212.351 95.4 212.463 95.896 212.463 96.408C212.463 97.4 212.159 98.152 211.551 98.664C210.943 99.176 210.223 99.432 209.391 99.432ZM246.959 96.6C244.975 96.6 243.247 96.184 241.775 95.352C240.303 94.52 239.087 93.4 238.127 91.992C237.167 90.584 236.447 88.984 235.967 87.192C235.487 85.4 235.247 83.528 235.247 81.576C235.247 80.072 235.375 78.552 235.631 77.016C235.887 75.48 236.255 74.184 236.735 73.128C236.927 72.744 237.183 72.472 237.503 72.312C237.823 72.152 238.175 72.072 238.559 72.072C239.039 72.072 239.503 72.184 239.951 72.408C240.399 72.6 240.735 72.888 240.959 73.272C241.215 73.656 241.263 74.104 241.103 74.616C240.879 75.512 240.687 76.536 240.527 77.688C240.367 78.808 240.287 79.864 240.287 80.856C240.287 82.648 240.559 84.28 241.103 85.752C241.647 87.224 242.447 88.408 243.503 89.304C244.559 90.2 245.871 90.648 247.439 90.648C248.975 90.648 250.287 90.184 251.375 89.256C252.495 88.36 253.359 87.096 253.967 85.464C254.607 83.832 254.927 81.96 254.927 79.848C254.927 79.336 254.879 78.712 254.783 77.976C254.719 77.208 254.591 76.376 254.399 75.48C254.239 74.552 254.031 73.608 253.775 72.648C253.647 72.2 253.711 71.8 253.967 71.448C254.255 71.096 254.639 70.824 255.119 70.632C255.599 70.408 256.079 70.296 256.559 70.296C256.975 70.296 257.343 70.392 257.663 70.584C257.983 70.744 258.207 71.032 258.335 71.448C258.879 73.72 259.423 75.56 259.967 76.968C260.543 78.344 261.151 79.352 261.791 79.992C262.463 80.632 263.247 80.952 264.143 80.952C265.359 80.952 266.303 80.376 266.975 79.224C267.647 78.072 267.983 76.36 267.983 74.088C267.983 73.672 267.967 73.272 267.935 72.888C267.935 72.504 267.935 72.12 267.935 71.736C267.935 71.256 268.127 70.904 268.511 70.68C268.895 70.424 269.343 70.296 269.855 70.296C270.431 70.296 270.959 70.44 271.439 70.728C271.951 71.016 272.175 71.416 272.111 71.928C272.047 72.344 271.999 72.712 271.967 73.032C271.935 73.32 271.919 73.608 271.919 73.896C271.919 75.848 272.287 77.48 273.023 78.792C273.759 80.104 274.863 80.76 276.335 80.76C277.039 80.76 277.631 80.552 278.111 80.136C278.591 79.72 278.975 79.16 279.263 78.456C279.583 77.72 279.807 76.888 279.935 75.96C280.095 75 280.159 73.992 280.127 72.936C280.095 71.88 279.983 70.824 279.791 69.768C279.855 69.384 280.127 69.064 280.607 68.808C281.087 68.552 281.583 68.424 282.095 68.424C282.671 68.424 283.215 68.6 283.727 68.952C284.239 69.304 284.511 69.912 284.543 70.776C284.703 72.536 284.735 74.232 284.639 75.864C284.575 77.464 284.367 78.952 284.015 80.328C283.663 81.672 283.167 82.856 282.527 83.88C281.919 84.872 281.151 85.64 280.223 86.184C279.327 86.728 278.255 87 277.007 87C275.343 87 273.887 86.472 272.639 85.416C271.391 84.328 270.511 82.904 269.999 81.144C269.807 82.296 269.423 83.336 268.847 84.264C268.303 85.192 267.599 85.928 266.735 86.472C265.903 87.016 264.943 87.288 263.855 87.288C263.055 87.288 262.319 87.112 261.647 86.76C260.975 86.408 260.383 85.96 259.871 85.416C259.359 84.84 258.927 84.232 258.575 83.592C258.479 86.056 257.919 88.264 256.895 90.216C255.871 92.2 254.511 93.752 252.815 94.872C251.119 96.024 249.167 96.6 246.959 96.6ZM290.435 97.512C289.731 97.512 288.979 97.416 288.179 97.224C287.411 97.064 286.595 96.76 285.731 96.312C285.251 96.088 284.899 95.752 284.675 95.304C284.419 94.888 284.291 94.408 284.291 93.864C284.291 93.352 284.371 92.856 284.531 92.376C284.691 91.896 284.931 91.496 285.251 91.176C285.539 90.856 285.875 90.696 286.259 90.696C286.355 90.696 286.451 90.696 286.547 90.696C286.611 90.728 286.691 90.76 286.787 90.792C287.363 91.08 287.891 91.272 288.371 91.368C288.883 91.464 289.363 91.512 289.811 91.512C291.475 91.512 292.931 91.064 294.179 90.168C295.459 89.272 296.451 88.056 297.155 86.52C297.859 84.952 298.211 83.24 298.211 81.384C298.211 80.072 298.067 78.744 297.779 77.4C297.523 76.024 297.043 74.52 296.339 72.888C296.083 72.248 296.067 71.688 296.291 71.208C296.515 70.696 296.867 70.296 297.347 70.008C297.859 69.72 298.387 69.576 298.931 69.576C299.347 69.576 299.747 69.688 300.131 69.912C300.547 70.104 300.867 70.456 301.091 70.968C301.763 72.536 302.259 74.232 302.579 76.056C302.931 77.88 303.107 79.656 303.107 81.384C303.107 83.56 302.819 85.608 302.243 87.528C301.667 89.448 300.819 91.16 299.699 92.664C298.611 94.168 297.283 95.352 295.715 96.216C294.147 97.08 292.387 97.512 290.435 97.512ZM306.362 99C305.274 99.16 304.442 98.952 303.866 98.376C303.258 97.8 302.954 97.016 302.954 96.024C302.954 95.256 303.162 94.664 303.578 94.248C303.994 93.832 304.586 93.544 305.354 93.384C307.626 93 309.722 92.376 311.642 91.512C313.562 90.648 315.242 89.64 316.682 88.488C318.122 87.368 319.226 86.184 319.994 84.936C320.762 83.656 321.146 82.376 321.146 81.096C321.146 79.496 320.938 78.04 320.522 76.728C320.138 75.416 319.546 74.376 318.746 73.608C317.978 72.808 317.002 72.408 315.818 72.408C314.954 72.408 314.218 72.696 313.61 73.272C313.002 73.816 312.698 74.584 312.698 75.576C312.698 76.888 313.258 77.944 314.378 78.744C315.498 79.544 317.21 80.136 319.514 80.52C321.818 80.872 324.778 81.048 328.394 81.048V87C324.074 87 320.41 86.568 317.402 85.704C314.426 84.808 312.154 83.512 310.586 81.816C309.018 80.088 308.234 77.96 308.234 75.432C308.234 73.864 308.586 72.456 309.29 71.208C309.994 69.928 310.938 68.92 312.122 68.184C313.338 67.448 314.682 67.08 316.154 67.08C317.85 67.08 319.37 67.64 320.714 68.76C322.09 69.88 323.178 71.432 323.978 73.416C324.81 75.368 325.226 77.608 325.226 80.136C325.226 82.312 324.874 84.328 324.17 86.184C323.498 88.008 322.554 89.656 321.338 91.128C320.122 92.6 318.714 93.88 317.114 94.968C315.514 96.088 313.786 96.984 311.93 97.656C310.106 98.328 308.25 98.776 306.362 99ZM328.394 87V81.048L329.306 81.912V86.232L328.394 87ZM328.386 87L327.522 86.52V81.768L328.386 81.048C329.474 81.048 330.434 80.872 331.266 80.52C332.13 80.168 332.85 79.688 333.426 79.08C334.034 78.44 334.482 77.72 334.77 76.92C335.058 76.12 335.17 75.288 335.106 74.424C334.946 72.312 334.466 70.184 333.666 68.04C332.866 65.864 331.858 63.816 330.642 61.896C330.322 61.32 330.146 60.696 330.114 60.024C330.114 59.352 330.274 58.712 330.594 58.104C330.946 57.496 331.426 57.032 332.034 56.712L345.762 49.848C345.922 49.752 346.066 49.688 346.194 49.656C346.354 49.624 346.498 49.608 346.626 49.608C347.138 49.608 347.586 49.816 347.97 50.232C348.386 50.616 348.69 51.096 348.882 51.672C349.106 52.216 349.17 52.744 349.074 53.256C349.01 53.768 348.77 54.136 348.354 54.36L335.346 60.696C336.178 62.168 336.898 63.704 337.506 65.304C338.114 66.904 338.61 68.536 338.994 70.2C339.41 71.832 339.698 73.416 339.858 74.952C340.018 76.104 340.386 77.144 340.962 78.072C341.538 78.968 342.258 79.688 343.122 80.232C343.986 80.776 344.914 81.048 345.906 81.048L346.77 81.816V86.376L345.906 87C344.914 87 343.89 86.76 342.834 86.28C341.778 85.8 340.786 85.08 339.858 84.12C338.962 83.128 338.226 81.912 337.65 80.472C336.754 82.552 335.474 84.168 333.81 85.32C332.146 86.44 330.338 87 328.386 87ZM345.917 87L345.053 86.424V81.72L345.917 81.048C348.029 81.048 349.469 80.328 350.237 78.888C351.005 77.416 351.389 75.224 351.389 72.312C351.389 70.872 351.341 69.176 351.245 67.224C351.149 65.272 351.037 63.288 350.909 61.272C350.813 59.256 350.717 57.4 350.621 55.704C350.557 54.008 350.541 52.68 350.573 51.72C350.573 51.112 350.797 50.648 351.245 50.328C351.693 50.008 352.285 49.848 353.021 49.848C353.821 49.848 354.445 49.992 354.893 50.28C355.341 50.568 355.565 51.032 355.565 51.672C355.565 52.856 355.581 54.184 355.613 55.656C355.677 57.096 355.741 58.6 355.805 60.168C355.901 61.704 355.997 63.24 356.093 64.776C356.189 66.28 356.253 67.704 356.285 69.048C356.349 70.392 356.381 71.592 356.381 72.648C356.381 74.152 356.285 75.608 356.093 77.016C355.901 78.392 355.565 79.688 355.085 80.904C354.637 82.088 353.997 83.144 353.165 84.072C352.365 85 351.373 85.72 350.189 86.232C349.005 86.744 347.581 87 345.917 87ZM364.411 87.288C364.123 87.288 363.819 87.224 363.499 87.096C363.179 87 362.907 86.792 362.683 86.472C362.459 86.12 362.299 85.576 362.203 84.84C362.139 83.464 362.091 81.912 362.059 80.184C362.027 78.456 362.027 76.616 362.059 74.664C362.123 72.712 362.187 70.728 362.251 68.712C362.315 66.696 362.395 64.728 362.491 62.808C362.619 60.856 362.731 59.016 362.827 57.288C362.955 55.56 363.083 54.024 363.211 52.68C363.307 51.944 363.579 51.4 364.027 51.048C364.507 50.696 365.115 50.52 365.851 50.52C366.779 50.52 367.451 50.76 367.867 51.24C368.315 51.72 368.491 52.28 368.395 52.92C368.267 53.848 368.139 55.144 368.011 56.808C367.915 58.44 367.819 60.28 367.723 62.328C367.627 64.344 367.547 66.44 367.483 68.616C367.419 70.792 367.371 72.92 367.339 75C367.307 77.08 367.291 78.952 367.291 80.616C367.323 82.28 367.371 83.624 367.435 84.648C367.499 85.512 367.307 86.168 366.859 86.616C366.411 87.064 365.595 87.288 364.411 87.288ZM402.986 94.248C400.394 94.248 398.154 93.848 396.266 93.048C394.41 92.248 392.874 91.176 391.658 89.832C390.474 88.52 389.578 87.032 388.97 85.368C388.394 83.672 388.106 81.928 388.106 80.136C388.106 79.016 388.202 77.912 388.394 76.824C388.618 75.704 388.906 74.648 389.258 73.656C389.61 72.664 390.026 71.816 390.506 71.112C390.698 70.76 390.954 70.504 391.274 70.344C391.626 70.152 391.978 70.056 392.33 70.056C392.842 70.056 393.322 70.184 393.77 70.44C394.25 70.696 394.602 71.032 394.826 71.448C395.05 71.832 395.05 72.248 394.826 72.696C394.186 73.624 393.706 74.664 393.386 75.816C393.066 76.968 392.906 78.216 392.906 79.56C392.906 81.096 393.29 82.536 394.058 83.88C394.858 85.224 396.026 86.296 397.562 87.096C399.098 87.928 400.97 88.344 403.178 88.344C405.706 88.344 407.866 88.056 409.658 87.48C411.482 86.936 412.874 86.248 413.834 85.416C414.794 84.552 415.274 83.64 415.274 82.68C415.274 82.136 415.018 81.704 414.506 81.384C414.026 81.064 413.306 80.792 412.346 80.568C411.418 80.312 410.282 80.056 408.938 79.8C407.178 79.48 405.77 78.968 404.714 78.264C403.658 77.528 402.874 76.648 402.362 75.624C401.882 74.6 401.642 73.464 401.642 72.216C401.642 71.16 401.898 70.12 402.41 69.096C402.922 68.072 403.626 67.16 404.522 66.36C405.418 65.528 406.442 64.872 407.594 64.392C408.778 63.88 410.042 63.624 411.386 63.624C412.154 63.624 412.922 63.752 413.69 64.008C414.49 64.264 415.194 64.6 415.802 65.016C416.442 65.432 416.938 65.912 417.29 66.456C417.45 66.744 417.514 67.096 417.482 67.512C417.45 67.928 417.322 68.344 417.098 68.76C416.874 69.144 416.602 69.464 416.282 69.72C415.962 69.976 415.61 70.104 415.226 70.104C414.906 70.104 414.57 69.976 414.218 69.72C413.802 69.368 413.242 69.096 412.538 68.904C411.866 68.712 411.146 68.616 410.378 68.616C409.642 68.616 408.922 68.76 408.218 69.048C407.546 69.304 406.986 69.672 406.538 70.152C406.122 70.632 405.914 71.176 405.914 71.784C405.914 72.776 406.33 73.528 407.162 74.04C407.994 74.552 409.498 75.016 411.674 75.432C412.634 75.592 413.562 75.816 414.458 76.104C415.386 76.36 416.218 76.76 416.954 77.304C417.69 77.848 418.266 78.584 418.682 79.512C419.13 80.44 419.354 81.64 419.354 83.112C419.354 85.384 418.666 87.336 417.29 88.968C415.946 90.632 414.042 91.928 411.578 92.856C409.146 93.784 406.282 94.248 402.986 94.248ZM422.723 100.92C422.051 101.048 421.475 100.968 420.995 100.68C420.515 100.392 420.147 99.992 419.891 99.48C419.635 98.968 419.507 98.424 419.507 97.848C419.475 97.304 419.587 96.792 419.843 96.312C420.067 95.864 420.419 95.576 420.899 95.448C422.979 95.064 424.931 94.488 426.755 93.72C428.579 92.952 430.195 91.944 431.603 90.696C433.043 89.48 434.163 88.008 434.963 86.28C432.979 86.28 431.171 85.944 429.539 85.272C427.939 84.568 426.675 83.544 425.747 82.2C424.819 80.856 424.355 79.24 424.355 77.352C424.355 75.496 424.707 73.88 425.411 72.504C426.115 71.128 427.043 70.072 428.195 69.336C429.379 68.568 430.659 68.184 432.035 68.184C433.603 68.184 435.027 68.744 436.307 69.864C437.619 70.952 438.659 72.568 439.427 74.712C440.227 76.824 440.595 79.464 440.531 82.632C440.435 85.192 439.827 87.528 438.707 89.64C437.619 91.784 436.195 93.656 434.435 95.256C432.707 96.856 430.803 98.136 428.723 99.096C426.675 100.056 424.675 100.664 422.723 100.92ZM436.595 80.712C436.563 78.088 436.131 76.184 435.299 75C434.467 73.816 433.395 73.224 432.083 73.224C430.931 73.224 430.019 73.592 429.347 74.328C428.675 75.032 428.339 75.912 428.339 76.968C428.339 78.312 429.011 79.272 430.355 79.848C431.699 80.424 433.779 80.712 436.595 80.712ZM438.707 87L439.859 81.048H443.363V87H438.707ZM443.363 87V81.048L444.227 81.672V86.232L443.363 87ZM443.37 87L442.506 86.184V81.72L443.37 81.048C444.266 81.048 445.066 80.872 445.77 80.52C446.474 80.136 447.066 79.512 447.546 78.648C448.058 77.752 448.41 76.552 448.602 75.048C448.602 73.992 448.65 73.096 448.746 72.36C448.874 71.624 449.13 71.064 449.514 70.68C449.93 70.296 450.538 70.104 451.338 70.104C452.17 70.104 452.778 70.28 453.162 70.632C453.578 70.984 453.786 71.4 453.786 71.88C453.786 72.36 453.738 72.808 453.642 73.224C453.546 73.64 453.45 74.072 453.354 74.52C453.29 74.968 453.258 75.464 453.258 76.008C453.258 76.968 453.45 77.832 453.834 78.6C454.25 79.336 454.81 79.928 455.514 80.376C456.218 80.824 457.018 81.048 457.914 81.048L458.778 81.72V86.376L457.914 87C456.154 87 454.65 86.504 453.402 85.512C452.154 84.488 451.242 83.128 450.666 81.432C450.314 82.52 449.77 83.48 449.034 84.312C448.33 85.144 447.498 85.8 446.538 86.28C445.578 86.76 444.522 87 443.37 87ZM448.986 64.776C447.93 65.032 447.114 64.92 446.538 64.44C445.962 63.96 445.674 63.24 445.674 62.28C445.674 61.544 445.994 61.016 446.634 60.696C447.306 60.344 448.122 60.072 449.082 59.88C450.202 59.624 451.306 59.48 452.394 59.448C453.514 59.416 454.474 59.416 455.274 59.448C455.914 59.48 456.426 59.672 456.81 60.024C457.194 60.344 457.45 60.744 457.578 61.224C457.706 61.704 457.706 62.184 457.578 62.664C457.45 63.144 457.194 63.544 456.81 63.864C456.426 64.184 455.914 64.344 455.274 64.344C454.378 64.344 453.354 64.36 452.202 64.392C451.082 64.424 450.01 64.552 448.986 64.776ZM489.533 87C488.125 87 486.829 86.68 485.645 86.04C484.461 85.4 483.437 84.536 482.573 83.448C481.741 82.36 481.085 81.144 480.605 79.8C480.157 78.424 479.949 77.016 479.981 75.576L483.437 74.472C483.469 75.752 483.741 76.888 484.253 77.88C484.797 78.872 485.517 79.656 486.413 80.232C487.341 80.776 488.381 81.048 489.533 81.048L490.397 81.816V86.376L489.533 87ZM457.901 87L457.037 86.376V81.816L457.901 81.048C460.205 81.048 462.397 80.76 464.477 80.184C466.557 79.608 468.525 78.872 470.381 77.976C472.269 77.08 474.045 76.168 475.709 75.24C477.373 74.28 478.941 73.432 480.413 72.696C479.229 72.504 478.045 72.2 476.861 71.784C475.677 71.368 474.525 70.952 473.405 70.536C472.285 70.12 471.229 69.768 470.237 69.48C469.277 69.16 468.445 69 467.741 69C466.877 69 466.253 69.224 465.869 69.672C465.517 70.088 465.341 70.616 465.341 71.256C465.341 71.48 465.357 71.72 465.389 71.976C465.453 72.232 465.517 72.488 465.581 72.744C465.709 73.128 465.645 73.496 465.389 73.848C465.165 74.168 464.829 74.44 464.381 74.664C463.965 74.856 463.517 74.952 463.037 74.952C462.557 74.952 462.109 74.824 461.693 74.568C461.309 74.312 461.069 73.896 460.973 73.32C460.877 72.808 460.797 72.312 460.733 71.832C460.669 71.32 460.637 70.84 460.637 70.392C460.637 69.144 460.845 68.024 461.261 67.032C461.677 66.04 462.333 65.24 463.229 64.632C464.157 64.024 465.341 63.72 466.781 63.72C467.709 63.72 468.717 63.88 469.805 64.2C470.925 64.488 472.125 64.872 473.405 65.352C474.685 65.8 476.013 66.264 477.389 66.744C478.797 67.192 480.221 67.592 481.661 67.944C483.133 68.264 484.573 68.44 485.981 68.472C486.333 68.504 486.621 68.696 486.845 69.048C487.101 69.4 487.277 69.832 487.373 70.344C487.501 70.856 487.549 71.4 487.517 71.976C487.485 72.552 487.373 73.08 487.181 73.56C487.021 74.04 486.749 74.392 486.365 74.616C484.317 75.64 482.397 76.728 480.605 77.88C478.845 79 477.133 80.104 475.469 81.192C473.805 82.28 472.093 83.272 470.333 84.168C468.573 85.032 466.685 85.72 464.669 86.232C462.653 86.744 460.397 87 457.901 87ZM505.622 87.864C503.35 87.864 501.302 87.128 499.478 85.656C497.686 84.184 496.31 82.152 495.35 79.56L498.134 75.24C498.774 77.256 499.702 78.872 500.918 80.088C502.134 81.272 503.478 81.864 504.95 81.864C506.518 81.864 507.766 81.448 508.694 80.616C509.654 79.752 510.134 78.616 510.134 77.208C510.134 76.216 509.926 75.352 509.51 74.616C509.126 73.848 508.598 73.24 507.926 72.792C507.286 72.344 506.566 72.12 505.766 72.12C504.966 72.12 504.198 72.344 503.462 72.792C502.758 73.208 502.038 73.944 501.302 75C500.598 76.056 499.83 77.512 498.998 79.368C497.91 81.832 496.55 83.72 494.918 85.032C493.318 86.344 491.494 87 489.446 87L488.678 86.52V81.768L489.542 81.048C490.438 81.048 491.222 80.904 491.894 80.616C492.598 80.328 493.254 79.784 493.862 78.984C494.502 78.184 495.158 77.048 495.83 75.576C496.886 73.272 497.926 71.464 498.95 70.152C499.974 68.808 501.046 67.864 502.166 67.32C503.286 66.776 504.502 66.504 505.814 66.504C507.446 66.504 508.918 66.984 510.23 67.944C511.542 68.872 512.582 70.152 513.35 71.784C514.118 73.416 514.502 75.272 514.502 77.352C514.502 79.432 514.118 81.256 513.35 82.824C512.614 84.392 511.574 85.624 510.23 86.52C508.918 87.416 507.382 87.864 505.622 87.864Z" fill="black"/>
<defs>
<clipPath id="clip0_169_1507">
<rect width="87.0501" height="66.8318" fill="white" transform="matrix(-0.676367 -0.736565 0.487054 -0.873372 586.949 193.487)"/>
</clipPath>
</defs>
</svg>
