<svg width="24" height="24" viewBox="0 0 24 24" fill="none" xmlns="http://www.w3.org/2000/svg">
<path d="M23.1585 10.9746V8.08777C23.695 7.6292 24 6.96859 24 6.25955C24 5.25917 23.3704 4.35262 22.4344 4.00453L13.7775 0.78168C12.6054 0.345055 11.2993 0.347326 10.1294 0.786977L1.56035 4.00605C0.627317 4.35641 0 5.26219 0 6.25879C0 7.25614 0.628074 8.16117 1.56035 8.51078L4.7658 9.71471L4.76958 12.1354C4.70072 12.846 4.19448 18.1839 7.17821 21.5096C8.38971 22.8589 10 23.5437 11.9607 23.5437C13.9228 23.5437 15.5308 22.8589 16.7423 21.5096C19.7798 18.1241 19.2002 12.6197 19.1487 12.1006L19.1517 9.73514L21.9364 8.69844V10.9746C21.524 11.2735 21.2614 11.8562 21.2614 12.4987C21.2614 13.3485 21.2614 14.227 22.5456 14.227C23.8305 14.227 23.8305 13.3477 23.8305 12.4987C23.832 11.857 23.5717 11.2735 23.1585 10.9746ZM15.6224 20.5032C14.6947 21.5354 13.4968 22.0363 11.9614 22.0363C10.4245 22.0363 9.22891 21.5339 8.30193 20.5032C6.66969 18.6894 6.27771 16.5622 6.21793 14.4798C7.60575 15.3757 9.80401 15.8358 11.9591 15.8358C14.118 15.8358 16.3186 15.3742 17.7049 14.4722C17.6451 16.5562 17.2561 18.6871 15.6224 20.5032ZM6.64018 12.249V10.4192L10.1294 11.7306C11.2985 12.171 12.6061 12.1718 13.7783 11.7367L17.2804 10.4328V12.249C17.2804 12.8347 15.2092 13.9561 11.9607 13.9561C8.71207 13.9561 6.64018 12.8347 6.64018 12.249ZM20.0734 7.10782L12.849 9.79719C12.277 10.0113 11.636 10.0098 11.0632 9.79492L3.90844 7.10707C3.84487 7.08361 3.76466 7.05561 3.67613 7.0261C3.26599 6.88989 2.5017 6.63412 2.5017 6.25879C2.5017 5.87665 3.23042 5.63677 3.66553 5.49375C3.75861 5.46348 3.84109 5.43548 3.90844 5.41051L11.0624 2.72266C11.3507 2.61369 11.6519 2.55996 11.9591 2.55996C12.2649 2.55996 12.563 2.61369 12.849 2.71963L20.0749 5.40975C20.1339 5.4317 20.2051 5.45667 20.2845 5.48316C20.678 5.61785 21.4968 5.89481 21.4968 6.25879C21.4968 6.40635 21.2569 6.67044 20.0734 7.10782Z" fill="black"/>
</svg>
