<svg width="111" height="114" viewBox="0 0 111 114" fill="none" xmlns="http://www.w3.org/2000/svg">
<g clip-path="url(#clip0_17_104)">
<path d="M95.4225 107.116C95.8821 105.118 96.8945 103.29 98.3438 101.841C99.7932 100.391 101.621 99.3794 103.618 98.9205L110.5 97.3387L103.618 95.7608C101.62 95.3016 99.7923 94.2891 98.343 92.8392C96.8936 91.3892 95.8815 89.5604 95.4225 87.5619L93.8639 80.6737L92.2828 87.5619C91.8229 89.5618 90.8091 91.3917 89.3576 92.8418C87.9061 94.2918 86.0755 95.3035 84.0758 95.7608L77.1902 97.3387L84.0758 98.9205C86.0723 99.38 87.8993 100.392 89.3479 101.841C90.7966 103.291 91.8084 105.118 92.2677 107.116L93.8639 114L95.4225 107.116Z" fill="black"/>
<path d="M55.9838 72.6444C56.9417 68.4679 59.0561 64.6458 62.0849 61.6159C65.1137 58.5859 68.9344 56.4707 73.1093 55.5124L104.864 52.2057L73.113 48.9029C68.9375 47.9452 65.116 45.8302 62.0865 42.8002C59.057 39.7702 56.942 35.9478 55.9838 31.7709L52.6821 0L49.3805 31.7709C48.4215 35.9474 46.3062 39.7694 43.2768 42.7993C40.2474 45.8291 36.4264 47.9444 32.2513 48.9029L0.5 52.2057L32.255 55.5124C36.4301 56.4703 40.2509 58.5854 43.2798 61.6154C46.3087 64.6454 48.423 68.4677 49.3805 72.6444L52.6821 104.411L55.9838 72.6444Z" fill="black"/>
</g>
<defs>
<clipPath id="clip0_17_104">
<rect width="110" height="114" fill="white" transform="translate(0.5)"/>
</clipPath>
</defs>
</svg>
