<svg width="56" height="56" viewBox="0 0 56 56" fill="none" xmlns="http://www.w3.org/2000/svg">
<g clip-path="url(#clip0_431_157608)">
<path d="M14.2001 55.8019C10.8698 55.6505 9.06066 55.0963 7.85734 54.6269C6.26291 54.0061 5.12616 53.2672 3.9295 52.0722C2.73284 50.8772 1.99221 49.7404 1.37474 48.146C0.9054 46.9427 0.351175 45.1335 0.199721 41.8032C0.0332868 38.2032 0 37.1231 0 28.0025C0 18.8819 0.0366154 17.8034 0.198056 14.2001C0.349511 10.8698 0.907065 9.06399 1.37308 7.85734C1.99388 6.26291 2.73451 5.12616 3.92784 3.92784C5.12283 2.73284 6.25958 1.99055 7.85568 1.37308C9.059 0.903736 10.8681 0.349511 14.1985 0.198056C17.8001 0.0332868 18.8819 0 27.9992 0C37.1197 0 38.1982 0.0366154 41.8015 0.198056C45.1319 0.349511 46.9377 0.907065 48.1443 1.37308C49.7388 1.99055 50.8755 2.73284 52.0722 3.92784C53.2688 5.12283 54.0061 6.26124 54.6269 7.85568C55.0963 9.059 55.6505 10.8681 55.8019 14.1985C55.9667 17.8018 56 18.8803 56 28.0008C56 37.1181 55.9667 38.1999 55.8019 41.8032C55.6505 45.1335 55.0929 46.9427 54.6269 48.146C54.0061 49.7404 53.2672 50.8772 52.0722 52.0722C50.8772 53.2672 49.7388 54.0061 48.1443 54.6269C46.941 55.0963 45.1319 55.6505 41.8015 55.8019C38.2016 55.9667 37.1197 56 27.9992 56C18.8819 56 17.8001 55.9684 14.2001 55.8019Z" fill="url(#paint0_radial_431_157608)"/>
<path d="M14.2001 55.8019C10.8698 55.6505 9.06066 55.0963 7.85734 54.6269C6.26291 54.0061 5.12616 53.2672 3.9295 52.0722C2.73284 50.8772 1.99221 49.7404 1.37474 48.146C0.9054 46.9427 0.351175 45.1335 0.199721 41.8032C0.0332868 38.2032 0 37.1231 0 28.0025C0 18.8819 0.0366154 17.8034 0.198056 14.2001C0.349511 10.8698 0.907064 9.06399 1.37308 7.85734C1.99388 6.26291 2.73451 5.12616 3.92784 3.92784C5.12283 2.73284 6.25958 1.99055 7.85568 1.37308C9.05899 0.903736 10.8681 0.349511 14.1985 0.198056C17.8001 0.0332868 18.8819 0 27.9992 0C37.1197 0 38.1982 0.0366154 41.8015 0.198056C45.1319 0.349511 46.9377 0.907064 48.1443 1.37308C49.7388 1.99055 50.8755 2.73284 52.0722 3.92784C53.2688 5.12283 54.0061 6.26124 54.6269 7.85568C55.0963 9.05899 55.6505 10.8681 55.8019 14.1985C55.9667 17.8018 56 18.8803 56 28.0008C56 37.1181 55.9667 38.1999 55.8019 41.8032C55.6505 45.1335 55.0929 46.9427 54.6269 48.146C54.0061 49.7404 53.2672 50.8772 52.0722 52.0722C50.8772 53.2672 49.7388 54.0061 48.1443 54.6269C46.941 55.0963 45.1319 55.6505 41.8015 55.8019C38.2016 55.9667 37.1197 56 27.9992 56C18.8819 56 17.8001 55.9684 14.2001 55.8019Z" fill="url(#paint1_radial_431_157608)"/>
<path d="M24.6673 28.5C24.6673 26.9353 25.9355 25.6664 27.5003 25.6664C29.0652 25.6664 30.334 26.9353 30.334 28.5C30.334 30.0647 29.0652 31.3336 27.5003 31.3336C25.9355 31.3336 24.6673 30.0647 24.6673 28.5ZM23.1355 28.5C23.1355 30.9106 25.0896 32.8646 27.5003 32.8646C29.911 32.8646 31.8652 30.9106 31.8652 28.5C31.8652 26.0894 29.911 24.1354 27.5003 24.1354C25.0896 24.1354 23.1356 26.0893 23.1356 28.5M31.018 23.9623C31.0179 24.164 31.0777 24.3613 31.1897 24.529C31.3017 24.6968 31.4609 24.8276 31.6473 24.9049C31.8337 24.9822 32.0387 25.0025 32.2366 24.9632C32.4345 24.9239 32.6163 24.8268 32.759 24.6842C32.9017 24.5416 32.999 24.3599 33.0384 24.1621C33.0778 23.9642 33.0577 23.7592 32.9806 23.5727C32.9034 23.3863 32.7728 23.227 32.6051 23.1148C32.4374 23.0027 32.2402 22.9428 32.0384 22.9427H32.038C31.7676 22.9428 31.5083 23.0503 31.317 23.2414C31.1258 23.4326 31.0182 23.6919 31.018 23.9623ZM24.0662 35.4189C23.2375 35.3811 22.787 35.2431 22.4877 35.1265C22.0908 34.972 21.8076 34.788 21.5099 34.4907C21.2122 34.1934 21.0279 33.9105 20.8741 33.5136C20.7574 33.2144 20.6193 32.7639 20.5817 31.9352C20.5405 31.0392 20.5322 30.77 20.5322 28.5001C20.5322 26.2302 20.5411 25.9618 20.5817 25.0651C20.6194 24.2364 20.7585 23.7867 20.8741 23.4866C21.0286 23.0898 21.2126 22.8066 21.5099 22.5089C21.8072 22.2112 22.0901 22.0269 22.4877 21.8731C22.7869 21.7564 23.2375 21.6184 24.0662 21.5807C24.9622 21.5395 25.2314 21.5313 27.5003 21.5313C29.7693 21.5313 30.0387 21.5401 30.9355 21.5809C31.7642 21.6186 32.2139 21.7577 32.514 21.8733C32.9109 22.0271 33.1941 22.2118 33.4918 22.5091C33.7895 22.8064 33.9731 23.0899 34.1276 23.4868C34.2443 23.786 34.3824 24.2365 34.42 25.0653C34.4612 25.962 34.4695 26.2304 34.4695 28.5003C34.4695 30.7702 34.4612 31.0386 34.42 31.9353C34.3823 32.764 34.2436 33.2144 34.1276 33.5138C33.9731 33.9106 33.7891 34.1938 33.4918 34.4908C33.1945 34.7878 32.9109 34.9721 32.514 35.1266C32.2148 35.2433 31.7642 35.3813 30.9355 35.419C30.0395 35.4602 29.7703 35.4684 27.5003 35.4684C25.2303 35.4684 24.9619 35.4602 24.0662 35.419M23.9958 20.0515C23.0909 20.0927 22.4726 20.2362 21.9325 20.4463C21.3736 20.6633 20.8999 20.9544 20.4268 21.4267C19.9537 21.899 19.6633 22.3729 19.4463 22.9324C19.2362 23.4728 19.0927 24.0907 19.0515 24.9956C19.0096 25.9019 19 26.1917 19 28.5C19 30.8083 19.0096 31.0981 19.0515 32.0044C19.0927 32.9093 19.2362 33.5272 19.4463 34.0676C19.6633 34.6265 19.9537 35.1012 20.4268 35.5733C20.8998 36.0454 21.373 36.3361 21.9325 36.5537C22.4736 36.7638 23.0909 36.9073 23.9958 36.9485C24.9026 36.9897 25.1919 37 27.5003 37C29.8088 37 30.0985 36.9904 31.0049 36.9485C31.9098 36.9073 32.5278 36.7638 33.0681 36.5537C33.627 36.3361 34.1008 36.0456 34.5739 35.5733C35.047 35.101 35.3368 34.6265 35.5544 34.0676C35.7645 33.5272 35.9087 32.9093 35.9492 32.0044C35.9904 31.0974 36 30.8083 36 28.5C36 26.1917 35.9904 25.9019 35.9492 24.9956C35.908 24.0907 35.7645 23.4724 35.5544 22.9324C35.3368 22.3735 35.0463 21.8998 34.5739 21.4267C34.1016 20.9536 33.627 20.6633 33.0688 20.4463C32.5278 20.2362 31.9098 20.092 31.0055 20.0515C30.0991 20.0101 29.8094 20 27.5014 20C25.1933 20 24.903 20.0096 23.9962 20.0515" fill="white"/>
</g>
<defs>
<radialGradient id="paint0_radial_431_157608" cx="0" cy="0" r="1" gradientUnits="userSpaceOnUse" gradientTransform="translate(3.62426 54.7732) scale(71.0992)">
<stop offset="0.09" stop-color="#FA8F21"/>
<stop offset="0.78" stop-color="#D82D7E"/>
</radialGradient>
<radialGradient id="paint1_radial_431_157608" cx="0" cy="0" r="1" gradientUnits="userSpaceOnUse" gradientTransform="translate(38.7892 52.9751) scale(62.568)">
<stop offset="0.64" stop-color="#8C3AAA" stop-opacity="0"/>
<stop offset="1" stop-color="#8C3AAA"/>
</radialGradient>
<clipPath id="clip0_431_157608">
<rect width="56" height="56" rx="28" fill="white"/>
</clipPath>
</defs>
</svg>
