<svg width="67" height="190" viewBox="0 0 67 190" fill="none" xmlns="http://www.w3.org/2000/svg">
<path d="M32.8627 176.346C32.9407 176.047 33.051 175.821 32.8197 175.675C32.5884 175.53 32.6207 175.199 32.5265 174.962C32.3517 174.523 33.1505 174.353 32.7605 173.963C32.4593 173.664 32.6018 173.325 32.54 173.004C32.5051 172.884 32.4277 172.78 32.3221 172.713C32.2468 172.662 31.7842 173.351 31.846 173.44C31.9536 173.605 32.1876 173.685 32.1338 173.949C31.9778 174.725 32.4808 175.605 31.7304 176.297C31.6255 176.394 31.7304 176.704 31.7115 176.909C31.5717 177.824 32.0827 178.837 31.3081 179.669C31.2845 179.731 31.2769 179.797 31.2858 179.863C31.2947 179.928 31.32 179.99 31.3592 180.043C31.5618 180.186 31.7062 180.396 31.766 180.637C31.8258 180.877 31.7969 181.131 31.6846 181.352C30.9826 182.871 31.378 184.449 31.3269 185.995C31.3108 186.533 30.9584 186.843 30.8966 187.285C30.8347 187.726 30.9396 188.267 30.8562 188.739C30.8132 188.965 30.485 189.323 30.3183 189.31C29.6674 189.256 29.2236 189.778 28.6318 189.808C28.0401 189.837 27.5183 189.775 26.9642 189.824C26.3348 189.878 25.9394 189.083 25.259 189.396C25.0492 189.126 24.6699 188.884 24.6565 188.618C24.5946 187.228 24.6565 185.833 24.6188 184.444C24.6188 183.999 25.1567 183.854 25.068 183.366C25.0115 183.062 24.877 182.65 25.1863 182.389C25.4956 182.128 25.423 181.993 25.1648 181.783C25.1214 181.734 25.0891 181.677 25.07 181.615C25.051 181.552 25.0457 181.487 25.0545 181.422C25.1164 181.037 25.5925 180.822 25.4768 180.345C25.4069 180.011 25.3181 179.537 25.4768 179.324C26.0766 178.586 25.8265 177.762 25.8588 176.971C25.8776 176.486 26.437 176.244 26.3079 175.678C26.203 175.215 26.2864 174.709 26.2864 174.221C27.0315 173.553 26.6065 172.67 26.6899 171.886C26.7329 171.466 27.2278 171.308 27.1417 170.809C27.0718 170.44 26.9938 170.001 27.4107 169.676C27.755 169.406 27.3166 168.868 27.712 168.555C27.8229 168.48 27.903 168.367 27.9379 168.238C27.9167 167.751 27.9266 167.263 27.9675 166.778C28.0347 166.412 28.4489 166.172 28.379 165.701C28.2875 165.221 28.2875 164.729 28.379 164.249C28.4839 163.824 28.8094 163.458 29.0299 163.062C29.1013 162.954 29.1532 162.835 29.1832 162.709C29.2854 162.065 28.9143 161.322 29.5894 160.8C28.9896 160.485 29.4656 160.202 29.5894 159.884C29.8583 159.276 30.1273 158.686 30.0359 157.97C30.0346 157.802 29.9974 157.637 29.9269 157.485C29.8563 157.333 29.7541 157.198 29.627 157.089C29.4495 156.978 29.3107 156.815 29.2297 156.622C29.1488 156.429 29.1297 156.216 29.1752 156.012C29.2246 155.81 29.21 155.598 29.1333 155.405C29.0567 155.212 28.9218 155.047 28.7475 154.935C28.5431 154.784 28.2741 154.609 28.3467 154.275C28.5 153.577 27.946 153.27 27.5398 152.947C27.1238 152.641 26.6566 152.411 26.16 152.269C25.8453 152.169 25.4687 152.269 25.1245 152.242C24.9389 152.223 24.6726 152.164 24.5865 152.034C24.2557 151.445 23.4676 151.517 23.1314 151.003C22.7952 150.489 22.0878 150.658 21.8188 150.122C21.609 149.708 21.1276 149.778 20.8021 149.546C20.2857 149.18 19.5326 149.099 19.4788 148.232C19.4788 148.119 18.9785 148.092 18.8064 147.925C17.752 146.837 16.695 145.733 15.6002 144.656C15.3474 144.408 15.5249 143.996 15.1699 143.775C14.8821 143.6 14.6858 143.28 14.4195 143.056C14.1532 142.833 14.1935 142.588 14.1882 142.313C14.1882 141.774 13.5077 141.43 13.7739 140.816C13.4755 140.441 13.1472 140.09 12.7922 139.768C11.9127 139.081 11.5442 138.074 11.017 137.159C10.8935 137.001 10.8374 136.8 10.861 136.601C11.0089 136.009 10.6673 135.575 10.436 135.101C10.2047 134.627 9.89809 134.202 10.0003 133.601C10.0891 133.063 9.97609 132.487 10.0299 131.935C10.0837 131.382 9.37629 131.092 9.56995 130.426C9.72057 129.915 9.60222 129.322 9.60222 128.765C9.04276 128.14 9.19877 127.375 9.18532 126.643C8.59896 126.104 8.77917 125.391 8.76841 124.726C8.75766 124.06 8.80338 123.333 8.76841 122.639C8.72269 121.987 9.03738 121.254 8.39993 120.702C8.3273 120.64 8.36496 120.433 8.36496 120.307C8.36496 119.819 8.36496 119.332 8.36496 118.844C8.36496 118.357 8.54517 117.721 7.95344 117.347C7.95344 116.86 7.95344 116.372 7.95344 115.885C7.95344 115.462 7.39129 115.303 7.51771 114.808C7.56497 114.463 7.57039 114.114 7.53384 113.768C7.55811 113.351 7.55271 112.932 7.51771 112.516C7.48543 112.29 7.21646 112.093 7.18956 111.87C7.17342 111.727 7.4397 111.571 7.52308 111.393C7.57957 111.28 7.52308 111.124 7.53653 110.981C7.59571 110.486 6.96094 110.257 7.09542 109.688C7.20301 109.225 7.11694 108.719 7.11694 108.232C6.51176 107.693 6.71887 106.977 6.7108 106.317C6.70942 106.215 6.68261 106.115 6.63282 106.026C6.58302 105.937 6.51182 105.862 6.42569 105.808C6.34021 105.747 6.28015 105.656 6.25686 105.553C6.23356 105.451 6.24865 105.343 6.29927 105.251C6.80494 104.728 6.90714 104.235 6.39072 103.654C6.29934 103.476 6.26283 103.276 6.28582 103.077C6.28582 102.59 6.32886 102.097 6.28582 101.615C6.1621 100.559 6.6839 99.415 5.87968 98.4482C5.87968 97.8908 5.89582 97.3334 5.87968 96.7786C5.86587 96.58 5.78853 96.3912 5.65912 96.24C5.36326 95.9088 5.41436 95.6395 5.72099 95.3729C6.02761 95.1063 5.82858 94.7212 5.89044 94.3981C5.42512 94.075 5.43319 93.5902 5.46816 93.1109C4.94366 92.8147 5.2207 92.1899 4.98939 91.8587C4.74582 91.5383 4.62038 91.1435 4.63435 90.7411C4.67471 89.9769 4.67471 89.211 4.63435 88.4468C4.54559 87.4558 5.00284 86.3813 4.23089 85.4846V84.025C3.47509 83.201 3.84896 82.1938 3.84627 81.2729C3.84627 80.7343 3.47509 80.4246 3.41323 79.983C3.37283 79.4975 3.36744 79.0097 3.39709 78.5234C3.39709 78.036 3.39709 77.5486 3.39709 77.0612C3.41054 76.6815 3.18998 76.6115 2.88336 76.6141C2.57673 76.6168 2.34542 76.6599 2.13024 76.4068C1.85811 76.0904 1.56325 75.7942 1.24802 75.5208C1.10662 75.4247 0.993743 75.2922 0.921313 75.1372C0.848883 74.9822 0.81958 74.8105 0.836496 74.6402C0.849944 74.5164 0.836496 74.3117 0.753115 74.2686C0.293177 73.9993 0.53525 73.3153 0.0242073 73.0999C0.0242073 72.0604 0.0242073 71.0183 0 69.9761C0 69.7203 0.166761 69.6207 0.285108 69.4645C0.481456 69.1952 0.868772 69.0767 0.847255 68.6566C0.847255 68.4169 0.995188 68.2284 1.21843 68.2984C1.82899 68.4896 2.15983 67.8649 2.71659 67.8299C2.96136 67.8137 3.1846 67.364 3.58806 67.4529C4.74463 67.706 5.59457 66.9143 6.54672 66.5077C6.99859 66.3111 7.30791 65.7698 7.86468 65.6567C7.78667 64.8084 8.7711 65.0346 9.03201 64.5068C9.1127 64.3399 9.36284 64.1056 9.4785 64.1325C10.2585 64.3264 10.5302 63.5482 11.0493 63.3704C11.5573 63.1881 11.9994 62.8581 12.3188 62.4225C12.763 61.9195 13.3249 61.5346 13.9542 61.3023C14.5566 61.033 14.9305 60.6102 15.3824 60.2251C15.4012 59.4172 15.9795 59.4819 16.5147 59.5276C16.9397 59.5627 17.1414 59.4361 17.1468 58.9675C17.1468 58.814 17.3808 58.6525 17.5207 58.507C17.8435 58.1677 18.3706 58.1893 18.6934 57.7826C18.9509 57.3813 19.3507 57.0926 19.8123 56.9748C20.2131 56.8886 20.4605 56.2342 20.8882 56.0296C21.4271 55.767 21.913 55.4073 22.3218 54.9686C22.9888 55.0278 23.1986 54.395 23.6317 54.1014C24.3794 54.2576 24.4547 53.1805 25.1648 53.2666C25.5683 52.8977 25.9556 52.5099 26.3832 52.1733C26.5796 52.0198 27.0503 51.974 27.0557 51.8663C27.0718 51.4166 27.4672 51.1931 27.5694 50.8161C27.6716 50.4391 27.1095 50.3287 27.1498 49.9436C27.1955 49.5181 26.5635 49.3511 26.7248 48.8664C26.4559 48.6429 26.1869 48.449 26.6388 48.1124C26.7517 48.0262 26.7221 47.7354 26.7329 47.5388C26.7786 46.809 26.5877 46.0658 27.1256 45.3845C27.2951 45.1744 27.1256 44.7086 27.1633 44.3639C27.1766 44.301 27.2052 44.2423 27.2464 44.193C27.2877 44.1437 27.3404 44.1053 27.4 44.0811C27.6689 44.0461 27.9379 44.1027 27.9917 43.7014C28.0006 43.5989 27.98 43.496 27.9323 43.4049C27.8847 43.3137 27.8119 43.2381 27.7227 43.1871C27.5533 43.0632 27.5452 43.0013 27.7039 42.8801C27.8626 42.7589 27.9971 42.4708 28.1504 42.4654C28.7125 42.4412 28.9573 42.0022 29.3096 41.7087C29.4439 41.604 29.5474 41.4648 29.6089 41.306C29.6705 41.1471 29.6879 40.9745 29.6593 40.8066C29.6216 40.3892 29.6109 39.9718 30.0412 39.7132C29.8825 39.4439 29.6055 39.2608 29.6405 38.8542C29.6996 38.1621 29.6405 37.462 29.6647 36.7672C29.6496 36.5034 29.5559 36.2501 29.3957 36.0401C29.2616 35.8076 29.1941 35.5425 29.2008 35.2741C29.2074 35.0056 29.2879 34.7442 29.4334 34.5186C29.775 33.98 29.6243 33.4818 29.6216 32.9567C29.0837 32.6336 29.2532 32.1139 29.2505 31.648C29.2505 30.3958 29.2505 29.1436 29.2505 27.8779C29.2505 27.1131 29.2747 26.3456 29.2505 25.5809C29.2209 24.8565 28.5727 24.2344 28.8416 23.4562C28.6022 23.1546 28.266 22.8529 28.8416 22.5486C28.8416 21.0191 28.8416 19.4931 28.8416 17.9707C28.1127 17.4591 28.4893 16.7023 28.4355 16.0534C28.3898 15.3584 28.3898 14.6613 28.4355 13.9664C28.4355 13.7967 28.6641 13.6486 28.7287 13.4682C28.7932 13.2877 28.8551 12.9834 28.7771 12.9296C28.3709 12.6307 28.4167 12.224 28.4193 11.812C28.4193 11.1173 28.4651 10.4171 28.4193 9.72503C28.336 8.66402 28.6883 7.5707 28.0401 6.53932C27.8518 6.2431 27.9675 5.71529 28.024 5.30597C28.0804 4.89664 27.5613 4.80239 27.599 4.43346C27.6197 4.30573 27.6605 4.18211 27.72 4.06723C27.7469 4.00798 27.8276 3.97567 27.8626 3.91643C28.0643 3.58251 28.1315 3.51788 27.8491 3.21896C27.3865 2.72077 27.6259 2.17142 27.6501 1.65977C27.6501 1.45242 27.9836 1.14812 28.2149 1.09157C28.6076 0.994622 29.1348 1.20736 29.4307 1.01886C29.7965 0.787268 30.0977 0.569143 30.5334 0.639158C30.9288 0.703788 31.4345 0.421033 31.6927 0.81689C31.8514 1.06464 31.7707 1.48204 31.76 1.82404C31.76 2.06101 31.8917 2.18489 32.0074 2.36262C32.3113 2.80156 32.349 3.25397 31.9052 3.63098C31.7465 3.76562 31.7304 3.82217 31.9052 3.93528C32.1742 4.09954 32.1473 4.37691 32.1742 4.65428C32.2683 5.30866 31.8245 6.04921 32.4835 6.61203C32.583 6.6982 32.4431 6.7736 32.3947 6.91094C32.0209 7.95579 32.0881 8.63709 32.5238 10.0051C32.6395 10.374 32.7282 10.813 32.3302 11.1334C32.2774 11.1791 32.2271 11.2277 32.1795 11.2788C33.0725 12.0275 32.1795 13.1639 32.7524 13.9448C32.9972 14.2707 32.8305 14.338 32.6798 14.5561C32.3194 15.0812 32.7498 15.5148 32.9138 15.9753C32.7187 16.1162 32.5873 16.3288 32.5485 16.5666C32.5097 16.8043 32.5666 17.0478 32.7067 17.2436C32.8412 17.4779 33.0187 17.6502 33.0053 17.9599C32.9659 18.5877 32.9659 19.2172 33.0053 19.845C33.0591 20.4967 32.7013 21.248 33.4114 21.7623C33.3334 22.282 33.64 22.8745 33.1075 23.308C33.0591 23.3484 32.9918 23.4212 32.9999 23.4669C33.1694 24.3906 32.626 25.3924 33.3146 26.2622C33.3469 26.3026 33.2635 26.4668 33.1989 26.5476C32.8089 27.0377 33.0241 27.6059 33.0107 28.1337C32.9972 28.6615 32.8089 29.2109 33.3576 29.666C33.5594 29.8303 33.398 30.175 33.1532 30.3608C33.1006 30.4058 33.0512 30.4544 33.0053 30.5062C33.64 30.9559 33.3738 31.6211 33.406 32.2081C33.4383 32.7952 33.406 33.3176 33.4303 33.8723C33.4303 33.9235 33.5513 34.0204 33.5674 34.0124C33.6616 33.9558 33.8122 33.8804 33.8176 33.805C33.8552 33.2072 33.6992 32.577 34.2291 32.0815C34.2802 32.0331 34.1054 31.7395 34.0354 31.5591C33.9951 31.4622 33.9171 31.2898 33.9225 31.2898C34.5707 30.9909 33.9816 30.2127 34.4954 29.8357C34.9284 29.5098 34.369 28.6885 35.079 28.4192C34.8585 27.8187 35.3991 27.4255 35.4798 26.9192C35.5632 26.4372 35.5632 25.9444 35.4798 25.4624C35.4257 25.0983 35.4454 24.727 35.5379 24.3708C35.6303 24.0145 35.7935 23.6805 36.0177 23.3888C36.3701 22.8718 36.4212 22.581 35.9532 22.1986C35.9165 22.1425 35.8946 22.078 35.8894 22.0112C35.8843 21.9443 35.896 21.8773 35.9236 21.8162C36.5019 21.3395 36.4051 20.669 36.3002 20.1035C36.1953 19.538 36.9484 19.3872 36.7709 18.8028C36.6507 18.4014 36.662 17.972 36.8031 17.5775C36.9215 17.2867 37.2577 17.0713 37.1636 16.6862C37.0694 16.3011 37.5105 16.1315 37.5778 15.8137C37.645 15.4959 37.4648 15.1243 37.7983 14.855C37.9013 14.7722 37.9702 14.6543 37.992 14.5238C38.0431 13.9852 38.0646 13.4466 38.0969 12.908C38.6187 12.566 38.3013 12.0167 38.4304 11.5831C38.5783 11.0849 39.0248 10.6729 38.8339 10.0832C39.3449 9.7735 39.3234 9.26185 39.2373 8.79597C39.1351 8.25739 39.8559 8.07697 39.6919 7.49799C39.6133 7.30318 39.601 7.08789 39.657 6.8854C39.7129 6.68291 39.8338 6.5045 40.0012 6.37774C40.1115 6.29696 40.1142 5.98727 40.0765 5.80146C39.9689 5.27634 40.3751 4.93704 40.4773 4.50348C40.5795 4.06992 40.3562 3.46671 40.5418 3.06816C40.7274 2.66961 40.9883 2.26029 40.9345 1.75941C40.9345 1.68939 41.1147 1.5359 41.2196 1.53051C41.6258 1.50358 42.0588 1.60322 42.3224 1.16158C42.9168 1.11311 43.5435 0.892291 44.0169 1.48473C44.5387 1.4578 44.7539 1.68939 44.6813 2.21989C44.6288 2.49478 44.6288 2.77712 44.6813 3.052C44.9206 3.98106 44.1433 4.68929 44.1756 5.56448C43.4144 6.13 44.0142 6.48007 44.38 6.86785C44.5737 7.07251 44.4984 7.05366 44.38 7.46298C44.2079 8.08774 43.6215 8.58323 43.8152 9.32917C43.8216 9.42767 43.8074 9.52643 43.7736 9.61915C43.7398 9.71188 43.6871 9.79654 43.6188 9.86775C43.3283 10.1855 43.323 10.4683 43.6457 10.7322C43.9147 10.9449 43.6834 11.0392 43.5785 11.1792C43.3445 11.4943 43.2934 11.8901 43.0405 12.2187C42.8307 12.4879 43.1159 12.9807 42.7178 13.3362C42.3977 13.627 42.5376 14.1441 42.6129 14.5184C42.7393 15.1351 42.0238 15.4394 42.1691 16.021C42.2982 16.5327 41.9754 16.8989 41.7656 17.3136C41.4967 17.8522 41.2277 18.3746 41.3299 19.0156C41.4052 19.4356 41.3541 19.845 40.9318 20.0927C41.0986 20.3216 41.5182 20.4805 41.0421 20.8467C40.8646 20.9814 40.8431 21.3099 40.7301 21.5415C40.6736 21.66 40.4988 21.7731 40.5149 21.862C40.6871 22.8341 39.8775 23.65 40.0899 24.6141C40.2191 25.1985 39.5144 25.5001 39.6488 26.1167C39.751 26.5826 39.8344 27.1939 39.6273 27.5494C39.3562 27.9318 39.2234 28.3953 39.2508 28.8635C38.7585 29.1786 38.7935 29.6714 38.8392 30.1507C38.8715 30.4604 38.6563 30.6328 38.5461 30.867C38.4209 31.1057 38.3613 31.3734 38.3736 31.6427C38.3859 31.9119 38.4696 32.1731 38.616 32.3993C38.7397 32.5824 38.8339 32.6686 38.616 32.8544C38.5173 32.9411 38.447 33.0556 38.4143 33.1829C38.3147 33.6327 38.6214 34.1443 38.1749 34.5482C37.8118 34.8768 38.0269 35.3292 38.0054 35.725C38.0054 35.9674 37.7956 36.0697 37.7365 36.2448C37.4675 37.0526 36.9296 37.7043 36.6606 38.5149C36.5664 38.8057 36.3028 39.04 36.3136 39.417C36.3405 40.3191 36.3136 41.2267 36.3136 42.1315C36.9269 42.7805 37.5374 43.4321 38.1534 44.0811C38.3443 44.2831 38.5622 44.4608 38.7343 44.679C38.807 44.7705 38.772 44.9482 38.8204 45.0587C38.9925 45.4976 38.3632 45.8073 38.5353 46.0766C38.7292 46.348 38.8242 46.6779 38.8043 47.011C38.772 47.4742 38.2394 47.7381 38.3658 48.3036C38.4399 48.7855 38.4399 49.2759 38.3658 49.7578C38.2502 51.0127 38.2502 51.1258 39.2454 51.6132C39.5789 51.7775 39.7484 52.0575 40.0254 52.2433C39.9286 52.7523 40.3455 52.9623 40.6171 53.2505C40.8224 53.5209 41.1221 53.7037 41.4563 53.7621C41.7253 53.8025 41.9485 54.2145 42.2148 54.43C42.8361 54.9335 43.2019 55.7764 44.0976 55.9111C44.1595 56.8159 45.2326 56.7001 45.5581 57.3572C45.6442 57.5349 45.8271 57.7799 45.9911 57.7853C47.4355 57.8311 47.9439 59.1506 48.8987 59.8562C49.087 59.9962 49.4124 59.9693 49.676 59.9854C50.0768 60.0043 50.5529 59.8831 50.4829 60.5725C50.4829 60.6452 50.6443 60.7798 50.7519 60.8175C51.4405 61.0626 52.0968 61.3373 52.5997 61.9082C52.643 61.9564 52.6955 61.9954 52.7543 62.0227C52.813 62.05 52.8766 62.0651 52.9413 62.0671C53.6837 61.9943 54.071 62.3363 54.227 63.0446C54.2727 63.2573 54.4449 63.3408 54.6842 63.3381C54.9236 63.3354 55.2087 63.2627 55.4508 63.5051C55.9188 63.9736 56.3034 64.5634 57.035 64.7142C57.1211 64.733 57.0781 65.1504 57.1991 65.2528C57.5326 65.5032 58.0921 65.5032 58.0625 66.128C58.1088 66.1707 58.163 66.2038 58.2221 66.2256C58.2811 66.2473 58.3439 66.2571 58.4068 66.2545C58.8775 66.1657 59.1868 66.3811 59.4827 66.715C59.8942 67.197 60.3192 67.2536 60.9163 66.9116C61.6102 66.5157 63.1353 66.5184 63.8292 66.9466C64.2596 67.2159 64.8325 66.8281 65.1257 67.3586L65.9864 68.2204C66.5754 68.4896 66.1074 69.1709 66.4409 69.486C66.9412 69.9573 66.6695 70.5174 66.7449 71.0371C66.0133 71.3414 66.6211 72.2409 66.0375 72.6367C65.9218 72.7148 65.9352 73.003 65.9137 73.1968C65.8922 73.3907 65.9433 73.7354 65.7335 73.7354C65.1472 73.7354 64.9266 74.2094 64.577 74.4948C63.9395 75.0038 63.8534 75.1384 63.8185 75.3996C63.7351 75.9921 64.0363 76.6249 63.5764 77.1796C63.181 77.659 63.4876 78.2568 63.4123 78.7792C63.3451 79.2343 62.8313 79.509 62.9712 80.0718C63.026 80.4853 63.0324 80.9037 62.99 81.3186C62.99 81.8061 62.9685 82.2935 62.99 82.7809C63.0005 82.9157 62.9786 83.051 62.9262 83.1756C62.8738 83.3002 62.7924 83.4105 62.6888 83.4972C62.4602 83.7207 62.5166 83.9792 62.7426 84.2054C62.8187 84.2822 62.8783 84.3739 62.9174 84.4747C62.2773 85.0349 62.6726 85.7754 62.5677 86.4244C62.4736 87.0061 62.8098 87.6793 62.1912 88.1506C62.1535 88.1802 62.1508 88.2744 62.1508 88.3391C62.1508 88.8265 62.3069 89.3947 62.1078 89.7798C61.8819 90.216 61.6882 90.5876 61.7232 91.0885C61.7581 91.5894 61.6533 92.0795 61.7528 92.5454C61.8738 93.1055 61.3493 93.3802 61.3197 93.8407C61.2901 94.3012 61.4704 94.9044 61.2579 95.2706C61.0454 95.6368 60.8248 95.96 60.9082 96.3774C60.9916 96.7948 60.7119 97.1018 60.5424 97.4357C61.196 97.915 60.2734 98.2786 60.4456 98.7956C60.5748 99.3395 60.5803 99.9055 60.4617 100.452C60.381 100.955 59.9023 101.346 60.0475 101.957C60.1166 102.189 60.1175 102.435 60.0503 102.667C59.983 102.899 59.8504 103.107 59.6683 103.266C59.5284 103.392 59.6683 103.804 59.6414 104.074C59.4988 105.051 60.0045 106.115 59.2675 107.017C59.4531 107.211 59.8054 107.461 59.6252 107.677C59.1007 108.269 59.211 108.948 59.2433 109.61C59.2648 110.063 58.7053 110.205 58.7968 110.687C58.8493 111.102 58.8493 111.522 58.7968 111.937C58.7968 112.045 58.6166 112.134 58.5493 112.247C58.2804 112.702 58.2293 113.143 58.6811 113.523C58.8775 113.687 58.8748 113.997 58.778 114.062C58.388 114.363 58.3664 114.743 58.3906 115.168C58.3983 115.698 58.2734 116.221 58.0275 116.69C57.7908 117.21 57.9442 117.921 57.9845 118.545C58.0221 119.08 57.877 119.612 57.573 120.053C57.2245 120.546 57.0668 121.149 57.1292 121.75C57.1884 122.229 57.1292 122.722 57.1453 123.21C57.1606 123.344 57.1442 123.48 57.0975 123.608C57.0508 123.735 56.9751 123.849 56.8764 123.942C56.5294 124.279 57.2233 124.397 57.0969 124.507C56.4594 125.076 56.715 125.805 56.7446 126.449C56.7741 127.093 56.4218 127.588 56.3196 128.159C56.2066 128.805 56.4487 129.519 55.8919 130.079C55.822 130.149 55.9242 130.367 55.8758 130.486C55.7171 130.865 56.4137 130.962 56.1636 131.294C55.9887 131.528 55.8274 131.716 55.8946 132.018C55.9114 132.152 55.8957 132.287 55.8489 132.413C55.8021 132.539 55.7255 132.652 55.6256 132.742C55.4078 133.012 55.4374 133.055 55.6687 133.44C55.7655 133.601 55.9 133.658 55.7225 133.898C55.196 134.595 54.9616 135.47 55.0689 136.337C55.0985 136.607 55.0474 136.898 55.0689 137.172C55.1765 138.187 55.0393 139.095 54.0818 139.69C53.9683 139.768 53.8816 139.879 53.8334 140.008C53.7853 140.138 53.7781 140.278 53.8128 140.412C53.8564 140.647 53.8367 140.889 53.7559 141.114C53.6751 141.339 53.536 141.538 53.3528 141.691C52.5298 142.437 51.7821 143.266 50.9778 144.034C50.647 144.352 50.4076 144.745 49.8347 144.825C49.5039 144.871 49.2376 145.364 48.9444 145.666C48.7024 145.905 48.7427 146.258 48.5383 146.552C48.2693 146.931 48.2209 147.421 47.5915 147.263C47.3414 147.203 47.2203 147.395 47.0778 147.532C46.8457 147.79 46.5968 148.033 46.3327 148.259C46.0672 148.443 45.7799 148.595 45.4774 148.709C44.9869 148.912 44.5402 149.208 44.1621 149.581C43.7829 149.95 43.5381 150.642 42.9276 150.569C42.317 150.497 42.0077 151.156 41.4267 151.025C41.295 150.997 41.1577 151.017 41.0394 151.081C40.6467 151.323 40.4853 151.999 39.9017 151.835C39.318 151.671 39.1459 152.463 38.6106 152.271C38.3605 152.735 37.7365 152.595 37.4487 152.993C37.3518 153.125 37.2658 153.093 37.1501 152.928C37.0344 152.764 36.8811 152.659 36.709 152.896C36.5369 153.133 36.2383 153.214 36.2894 153.559C36.3889 154.21 36.0635 154.601 35.4825 154.773C34.9015 154.945 34.5599 155.325 34.6352 155.961C34.724 156.693 34.6003 157.326 33.944 157.765C33.8837 157.8 33.8343 157.851 33.8014 157.913C33.6885 158.182 33.8364 157.803 33.9521 158.056C34.0032 158.174 34.1914 158.258 34.2022 158.368C34.2399 158.777 34.1242 159.241 34.2721 159.593C34.3985 159.887 34.724 160.108 34.6272 160.487C34.5061 160.959 35.1248 161.104 35.0602 161.565C35.001 161.974 35.0602 162.402 35.0414 162.817C35.0226 163.231 35.2297 163.425 35.3884 163.724C35.5017 163.898 35.5465 164.108 35.5142 164.313C35.4819 164.518 35.3748 164.703 35.2135 164.834C35.0064 164.99 34.9741 165.308 35.0629 165.372C35.6008 165.787 35.4152 166.361 35.4744 166.888C35.5228 167.338 36.0124 167.629 35.8994 168.181C35.8527 168.596 35.8463 169.014 35.8806 169.431C35.8806 169.794 36.4373 169.902 36.2921 170.298C36.0877 170.858 36.7574 171.087 36.7278 171.59C36.6982 172.094 36.5664 172.576 37.0909 172.896C37.1044 173.308 37.1098 173.72 37.1367 174.13C37.1367 174.326 37.1367 174.636 37.2496 174.695C37.8656 175.026 37.2496 175.826 37.8279 176.139C38.0108 176.236 37.9866 176.314 37.8279 176.443C37.7015 176.54 37.4514 176.677 37.7445 176.876C38.2529 177.224 37.6961 177.983 38.3174 178.331C38.4465 178.406 38.3901 178.842 38.3927 179.112C38.3927 179.739 38.3793 180.366 38.3927 180.997C38.4116 181.508 38.1023 181.511 37.7311 181.511C37.134 181.511 36.7063 182.098 36.0204 181.944C35.4825 181.829 34.9123 181.928 34.3582 181.92C34.0909 181.903 33.8405 181.784 33.6587 181.587C33.477 181.39 33.3778 181.13 33.3818 180.862C33.3818 180.375 33.3818 179.887 33.3818 179.4C33.3818 178.993 32.8439 178.813 32.9488 178.323C33.0021 177.912 32.9921 177.496 32.9192 177.089C32.895 176.844 32.3813 176.774 32.8627 176.346ZM21.9103 144.71C22.2569 144.68 22.6056 144.685 22.9512 144.726C23.2551 144.788 23.5214 145.03 23.8253 145.116C24.3445 145.262 24.9335 144.898 25.4176 145.302C25.9556 145.76 26.6119 145.429 27.1928 145.555C27.3704 145.596 27.5075 145.843 27.6824 145.876C28.0804 145.943 28.5404 145.833 28.89 145.989C29.315 146.177 29.6754 146.452 30.1892 146.39C30.6057 146.364 31.0234 146.364 31.4399 146.39C31.9267 146.39 32.4162 146.358 32.8977 146.39C33.3791 146.422 33.4894 145.876 33.9736 145.94C34.5895 146.027 35.235 145.884 35.8564 145.981C36.5826 146.097 37.0156 145.326 37.7795 145.515C38.3937 145.648 39.0293 145.648 39.6435 145.515C40.141 145.418 40.5579 144.976 41.1335 145.1C41.3328 144.775 41.6301 144.522 41.9825 144.376C42.3349 144.231 42.7242 144.202 43.0943 144.292C43.4574 143.781 44.1379 144.039 44.5253 143.754C44.9126 143.468 45.6011 143.484 45.8567 142.9C46.0369 142.491 46.6636 142.733 46.8572 142.305C47.4086 142.329 47.7125 141.669 48.3177 141.766C48.4148 141.77 48.5114 141.752 48.6007 141.714C48.69 141.676 48.7698 141.618 48.8342 141.546C49.1408 141.155 49.5953 141.034 49.9853 140.794C50.3753 140.555 50.6847 140.124 51.0316 139.784C51.4571 139.364 51.9364 139.001 52.4572 138.707C53.0758 138.357 53.6891 137.767 53.4174 136.841C53.3982 136.739 53.4115 136.634 53.4554 136.54C53.4994 136.446 53.5717 136.369 53.6622 136.319C53.958 136.087 53.6406 136.009 53.56 135.874C53.3636 135.535 53.3367 135.365 53.56 135.166C54.0656 134.741 54.3669 134.258 54.2485 133.564C54.1867 133.16 54.2485 132.74 54.1786 132.336C54.149 132.136 54.0145 132.153 53.8908 132.312C53.6541 132.616 53.3717 132.761 53.0355 132.43C52.8882 132.3 52.712 132.208 52.5217 132.161C52.2567 132.094 52.0271 131.928 51.8797 131.697C51.7323 131.467 51.6782 131.188 51.7283 130.919C51.73 130.855 51.7177 130.79 51.6922 130.731C51.6666 130.671 51.6285 130.618 51.5803 130.575C51.4694 130.492 51.386 130.378 51.3409 130.247C51.2957 130.117 51.2911 129.976 51.3275 129.842C51.4216 129.425 51.0074 129.271 50.9106 128.967C50.8138 128.663 51.0935 128.496 51.2414 128.272C51.3894 128.049 50.7869 127.962 51.0209 127.699C51.2549 127.435 51.3867 127.313 51.0424 127.101C50.8676 126.993 50.8783 126.918 51.0558 126.796C51.1634 126.726 51.3087 126.597 51.3087 126.495C51.3087 124.828 51.3087 123.164 51.2898 121.497C50.9671 121.265 50.8434 121.023 51.2576 120.759C51.2791 119.795 51.2845 118.828 51.3302 117.864C51.3463 117.482 51.0612 117.247 50.9832 116.965C50.846 116.48 50.7143 115.887 51.1607 115.43C51.462 115.133 51.2549 114.775 51.3221 114.452C50.7385 114.075 50.9106 113.485 50.9079 112.955C50.9079 111.423 50.8891 109.89 50.9079 108.361C50.9079 107.968 50.7411 107.553 51.0532 107.171C51.5131 106.616 51.5454 105.824 52.086 105.302C52.3872 105.016 52.6724 104.709 52.9736 104.421C53.2061 104.185 53.3721 103.891 53.4551 103.57C53.568 103.217 53.993 102.945 54.305 102.679C54.4395 102.574 54.5433 102.434 54.6053 102.275C54.6673 102.116 54.6853 101.943 54.6573 101.774C54.6304 101.567 54.6304 101.357 54.6573 101.149C54.7134 100.845 54.6788 100.531 54.5578 100.246C54.4368 99.9607 54.2348 99.7177 53.9769 99.5469C53.8155 99.4204 53.6917 99.2426 53.5304 99.1107C53.3315 98.9762 53.1736 98.7894 53.0739 98.5708C52.9743 98.3523 52.9368 98.1105 52.9655 97.8719C52.9817 97.7238 52.7208 97.565 52.6562 97.3845C52.4088 96.7086 51.9892 96.0919 52.1344 95.2948C52.2082 94.6846 52.2441 94.0703 52.242 93.4556C52.7019 93.1863 52.4222 92.6666 52.5997 92.3569C52.8041 91.996 53.0731 91.7025 52.9817 91.2582C52.9279 90.9889 53.1457 90.9027 53.2748 90.7519C53.4524 90.5472 53.7966 90.3399 53.7913 90.1433C53.7671 89.4647 54.5659 89.3704 54.6466 88.8184C54.738 88.199 55.3217 87.989 55.6364 87.5554C55.9511 87.1219 56.0721 86.621 56.4998 86.2332C57.5757 85.2557 58.5789 84.1812 59.6171 83.1525C59.9453 82.8294 60.2439 82.5035 60.7576 82.3743C60.9568 82.3078 61.1257 82.1722 61.2337 81.9919C61.3417 81.8116 61.3818 81.5986 61.3466 81.3914C61.3063 81.079 61.1664 80.675 61.5107 80.4273C61.9841 80.0907 61.2175 79.8672 61.4246 79.7029C61.587 79.5711 61.7035 79.3911 61.7571 79.1888C61.8108 78.9865 61.7989 78.7724 61.7232 78.5773C61.5564 77.9956 62.2746 77.8313 62.1885 77.2793C62.1132 76.808 62.1482 76.7165 61.6506 76.633C60.9578 76.6034 60.2653 76.6945 59.6037 76.9023C59.4939 76.9694 59.374 77.0185 59.2487 77.0477C58.9017 77.0666 58.5493 77.0262 58.2051 77.0612C57.8608 77.0962 57.4762 76.8673 57.2341 77.2066C56.992 77.5459 56.4621 77.3924 56.2012 77.7775C56.0183 78.0468 55.9538 77.9956 55.1415 77.8933C54.9371 77.8663 54.6331 77.799 54.5336 77.8933C54.0333 78.4157 53.4093 78.2703 52.8122 78.2999C52.6213 78.2999 52.3388 78.3134 52.2554 78.4292C51.9354 78.8708 51.4701 78.7766 51.115 78.6985C50.5394 78.5557 50.4022 79.3044 49.8132 79.1751C49.3936 79.0835 48.8315 78.9247 48.4388 79.3205C47.9734 79.7945 47.3817 79.4013 46.8895 79.614C46.8283 79.6487 46.7773 79.6988 46.7416 79.7595C46.5883 79.9695 46.4376 79.9507 46.2978 79.7595C46.1579 79.5683 45.8351 79.4902 45.7598 79.579C45.3375 80.2415 44.3881 79.711 43.9873 80.3869C43.9268 80.4174 43.8601 80.4333 43.7923 80.4333C43.7246 80.4333 43.6578 80.4174 43.5973 80.3869C43.1347 79.7002 42.7501 80.0772 42.2525 80.368C41.9458 80.5458 41.502 80.368 41.1416 80.7289C40.7355 81.1328 40.4853 80.4596 40.1115 80.3977C39.6677 80.3304 39.5117 80.9901 39.0356 80.8151C38.9738 80.7854 38.9203 80.741 38.8796 80.6858C38.4439 80.1472 37.8467 80.5108 37.333 80.4165C37.021 80.9309 36.5261 80.8339 36.042 80.8285L34.3878 80.7962C33.8498 80.1418 33.1129 80.4704 32.4593 80.4192C31.7062 80.36 30.9477 80.3734 30.1919 80.3546C29.9229 79.9614 29.6916 80.0261 29.4522 80.3708C29.3149 80.2274 29.1463 80.1178 28.9597 80.0505C28.773 79.9832 28.5734 79.9601 28.3763 79.983C28.0298 80.0072 27.6819 80.0072 27.3354 79.983C26.8509 79.942 26.3636 79.9483 25.8803 80.0018C25.2724 80.1203 24.9496 79.5171 24.3794 79.5521C23.5483 79.6006 22.7145 79.5521 21.8807 79.5521C21.2163 78.7685 20.3234 79.2828 19.546 79.1562C19.1964 79.097 19.0942 78.65 18.6746 78.7146C18.3283 78.7456 17.9799 78.7456 17.6337 78.7146C17.0365 78.7146 16.3964 78.8573 15.9311 78.2972C15.5169 78.3161 15.0946 78.3538 14.8364 77.9202C14.287 77.8758 13.7353 77.8677 13.1849 77.896C12.6039 77.9606 12.2973 77.3305 11.684 77.4355C11.2537 77.5109 10.7615 77.6051 10.3392 77.1958C9.96802 76.843 9.27946 77.2685 8.99435 76.9992C8.57207 76.6088 8.13634 76.668 7.68447 76.5872C7.65106 76.5763 7.62085 76.5573 7.59647 76.5319C7.57209 76.5066 7.55428 76.4756 7.5446 76.4418C7.50203 76.1746 7.4957 75.9028 7.52577 75.6339C7.56881 75.4239 7.79474 75.3646 8.01799 75.3862C8.67696 75.4212 9.38436 75.2246 9.94112 75.7955C9.98685 75.844 10.2101 75.7955 10.3042 75.712C10.5006 75.5343 10.6162 75.3215 10.9121 75.6366C11.1811 75.9059 11.6168 75.9059 11.9396 76.1914C12.144 76.3637 12.6093 76.2183 12.9563 76.2237C13.4942 76.2237 13.9972 76.1887 14.4786 76.6088C14.718 76.8161 15.2022 76.6545 15.5949 76.9346C15.9257 77.1662 16.5147 77.0289 16.9908 77.0585C17.2598 77.0773 17.6579 76.9965 17.7735 77.142C18.1635 77.6213 18.6531 77.457 19.1184 77.4705C19.5326 77.4705 19.8876 77.4947 20.2373 77.834C20.3795 77.9297 20.5495 77.9752 20.7204 77.9635C20.8913 77.9518 21.0535 77.8835 21.1814 77.7694C21.4181 77.5324 21.5041 77.5997 21.7973 77.729C22.3783 77.9848 22.8893 78.4749 23.6424 78.3322C24.1954 78.2707 24.7531 78.2643 25.3074 78.3134C25.8453 78.3134 26.4101 78.3403 26.9588 78.3538C27.2735 79.0431 28.1988 78.413 28.5511 79.0808C28.5861 79.1482 28.9627 79.1347 29.0891 79.0405C29.2761 78.845 29.5317 78.7301 29.8019 78.72C30.9826 78.7415 32.1688 78.6742 33.3442 78.755C33.8391 78.79 34.2345 79.2774 34.845 79.167C35.383 79.0701 35.9559 79.167 36.51 79.1401C37.064 79.1132 37.7607 79.369 38.226 78.7388C38.2717 78.6769 38.495 78.7065 38.6214 78.755C39.7322 79.202 39.7295 79.2263 41.0421 78.8116C41.2345 78.757 41.4338 78.7307 41.6338 78.7335C42.1207 78.7335 42.6075 78.7335 43.0943 78.7335C43.5812 78.7335 43.9981 78.8143 44.423 78.3969C44.8884 77.9391 45.1439 78.9354 45.6684 78.7415C45.8486 78.6715 46.0665 78.6904 46.2386 78.6096C46.4107 78.5288 46.4914 78.3403 46.7443 78.3053C47.3306 78.2326 47.9439 78.5369 48.5168 78.036C49.0171 77.6078 49.9047 78.2083 50.3619 77.4732C51.0666 77.6401 51.6637 77.3089 52.2743 77.0558C53.0005 77.3251 53.5465 76.7407 54.1759 76.5899C54.886 76.4176 55.5611 76.1483 56.3088 76.221C56.7419 76.2641 57.0458 76.0379 57.4143 75.8547C57.7828 75.6716 58.2911 75.7766 58.7 75.4158C58.8963 75.2435 59.3697 75.3862 59.7167 75.3862C60.0636 75.3862 60.4133 75.3862 60.7603 75.3862C60.8935 75.3859 61.0253 75.3589 61.148 75.3069C61.2707 75.2549 61.3818 75.1789 61.4747 75.0833C61.5677 74.9877 61.6406 74.8745 61.6893 74.7504C61.738 74.6262 61.7614 74.4935 61.7581 74.3602C61.7797 73.9724 61.7958 73.7193 62.2961 73.695C62.522 73.695 62.7453 73.3126 62.9578 73.3234C63.1953 73.3434 63.4341 73.3024 63.6515 73.2044C63.8689 73.1064 64.0578 72.9546 64.2004 72.7633C64.4694 72.4455 64.7841 72.1682 65.1122 71.8369C65.1122 71.1799 65.0826 70.4905 65.1257 69.7984C65.1288 69.6296 65.0931 69.4624 65.0213 69.3097C64.9494 69.157 64.8434 69.0229 64.7114 68.9178C64.3727 68.6052 63.988 68.3464 63.571 68.1503C63.1568 67.9134 62.9335 67.7545 62.5301 68.1315C62.2611 68.4008 61.7689 68.3496 61.5241 68.7051C61.2913 68.6656 61.0525 68.6818 60.8271 68.7525C60.6018 68.8232 60.3964 68.9463 60.2277 69.1117C60.1605 69.1709 59.9372 69.1306 59.8485 69.0578C59.636 68.8855 59.3105 68.6835 59.3105 68.4654C59.2675 68.0426 59.1465 67.7491 58.7188 67.8864C58.1405 68.0722 57.963 67.2617 57.425 67.4529C57.1561 67.1593 56.7284 66.9951 56.7634 66.4807C56.7634 66.3946 56.5939 66.2114 56.5213 66.2114C55.9995 66.2788 55.8247 65.8264 55.5315 65.5678C55.1684 65.2447 54.8402 64.8838 54.496 64.5391C53.8209 64.6199 53.6622 63.7905 53.1726 63.7313C52.5836 63.6559 52.4464 63.0365 52.0322 62.953C51.4943 62.848 51.1769 62.2529 50.5663 62.436C50.5184 62.4509 50.468 62.4557 50.4182 62.4501C50.3683 62.4444 50.3202 62.4284 50.277 62.403C50.2337 62.3777 50.1961 62.3436 50.1668 62.3029C50.1374 62.2622 50.1168 62.2158 50.1064 62.1667C50.0633 62.0455 50.1064 61.8786 50.0418 61.7789C49.6626 61.1865 48.8261 61.208 48.4468 60.5967C48.3745 60.4833 48.2605 60.403 48.1295 60.3732C47.8521 60.3476 47.573 60.3476 47.2956 60.3732C47.0882 60.3807 46.8844 60.3173 46.7178 60.1935C46.5511 60.0697 46.4314 59.8928 46.3785 59.6919C46.1794 58.9918 45.8405 58.6551 45.1035 58.6902C45.0385 58.6914 44.9738 58.6797 44.9133 58.6557C44.8528 58.6316 44.7977 58.5957 44.7512 58.5501C44.3962 58.13 43.912 57.9227 43.4574 57.6453C43.0029 57.3679 42.6505 56.8832 42.2632 56.49C41.6742 55.9003 41.0609 55.3294 40.5042 54.71C40.2621 54.4407 39.7268 54.6777 39.6972 54.2576C39.6677 53.8375 39.5036 53.719 39.0921 53.6463C38.8957 53.6059 38.7935 53.1212 38.6294 52.8519C38.2609 52.2406 37.5536 52.0737 37.0156 51.6913C36.9346 51.6275 36.8417 51.5805 36.7423 51.5532C36.643 51.5258 36.5392 51.5185 36.437 51.5318C36.3348 51.5451 36.2363 51.5787 36.1472 51.6306C36.0581 51.6825 35.9803 51.7516 35.9182 51.834C35.5901 52.3322 35.0118 52.3726 34.603 52.7092C34.1941 53.0458 33.4625 52.5853 33.1425 53.2478C33.1075 53.3232 32.7578 53.2855 32.6045 53.0835C32.4512 52.8815 32.3355 52.8008 32.1634 53.0404C32.1303 53.1005 32.0843 53.1525 32.0286 53.1926C31.973 53.2328 31.9091 53.26 31.8417 53.2724C31.7742 53.2847 31.7049 53.2819 31.6386 53.2642C31.5724 53.2464 31.511 53.2141 31.4587 53.1697C30.8992 52.7011 30.1865 52.5342 29.5759 52.1545C29.3836 52.0156 29.1459 51.9546 28.9106 51.9835C28.6752 52.0125 28.4594 52.1293 28.3064 52.3107C27.8599 52.7496 27.4995 53.3878 26.9615 53.5898C26.2595 53.8591 25.9583 54.5781 25.3665 54.772C24.7748 54.9659 24.4601 55.6687 23.8926 55.728C23.2067 55.8007 23.1233 56.7728 22.3648 56.6005C21.913 57.0179 21.5257 57.5995 20.9904 57.8123C20.2938 58.0816 19.9145 58.6525 19.4492 59.1129C18.9839 59.5734 18.3249 59.5492 17.9753 60.1255C17.7305 60.524 17.2786 60.691 16.8536 60.9064C16.3399 61.1757 15.7347 61.3534 15.3743 61.8974C15.1538 62.2286 14.7826 62.3714 14.3953 62.5356C13.938 62.7295 13.6637 63.2816 13.0827 63.4108C12.9374 63.4431 12.9401 63.9629 12.7653 64.0652C12.5905 64.1675 12.2838 64.1783 12.0579 64.3749C11.7701 64.6253 11.2914 64.5849 11.0493 64.9512C10.3715 64.7761 10.6028 65.5705 10.3392 65.6594C9.86312 65.8183 9.56995 66.1737 9.17994 66.4053C8.72269 66.6746 8.2251 66.8766 7.89695 67.3182C7.73557 67.5337 7.52039 67.4367 7.32674 67.4583C7.25787 67.4515 7.1885 67.4515 7.11963 67.4583C6.9959 67.4986 6.77535 67.5687 6.78073 67.6064C6.85335 68.2796 6.03568 68.1638 5.94961 68.4816C5.81513 68.9663 5.68064 69.1656 5.1696 69.1386C4.33579 69.0928 3.50199 69.1198 2.66818 69.1386C2.43439 69.1507 2.21187 69.2429 2.03799 69.3998C1.86411 69.5567 1.74947 69.7688 1.71334 70.0004C1.7147 70.3356 1.60812 70.6623 1.4094 70.9321C1.28536 71.0945 1.22365 71.2961 1.23549 71.5002C1.24734 71.7043 1.33196 71.8974 1.47395 72.0443C1.54389 72.1278 1.64878 72.2866 1.6192 72.3297C1.49278 72.5236 1.15926 72.6475 1.52237 72.9329C1.88548 73.2184 1.54658 73.6466 1.71872 73.8862C1.97181 74.2786 2.30314 74.6143 2.69193 74.8724C3.08072 75.1305 3.51858 75.3055 3.97806 75.3862C4.35193 75.44 4.65318 75.4212 4.62628 75.9248C4.60476 76.3422 4.71235 76.7865 4.59938 77.1716C4.43262 77.7505 5.10774 77.9471 5.05125 78.4669C5.01715 79.0228 5.01266 79.5801 5.0378 80.1365C5.0378 80.6239 5.15884 81.1517 5.01091 81.5879C4.78497 82.2558 5.48967 82.5251 5.47622 83.096C5.46278 83.6669 5.20725 84.3589 5.87161 84.8006C5.80706 85.2665 6.07065 85.8023 5.71292 86.1901C5.35519 86.5779 5.39015 86.8849 5.77478 87.2107C6.22127 87.5931 6.58169 87.954 5.94154 88.5356C5.75057 88.7107 5.75326 89.2035 5.98458 89.4862C6.0848 89.5757 6.16455 89.6858 6.2184 89.8089C6.27224 89.9321 6.29891 90.0654 6.29658 90.1999C6.25624 90.6765 6.23741 91.1343 6.68659 91.5113C6.82376 91.6271 6.81838 92.2007 6.68659 92.2949C6.1621 92.6639 6.62742 92.9035 6.68659 93.2348C6.74674 93.9971 6.75842 94.7626 6.72155 95.5264C6.72155 95.8657 6.62204 96.3343 6.79956 96.5201C7.14115 96.8756 7.06853 97.2526 7.1546 97.6457C7.21915 97.9662 7.75978 98.2463 7.1546 98.564C7.28908 98.7121 7.52039 98.8522 7.53384 99.011C7.5836 99.5656 7.5836 100.123 7.53384 100.678C7.48274 101.249 8.13096 101.55 7.98571 102.183C7.86737 102.722 7.95882 103.29 7.9642 103.848C7.9642 104.33 7.98302 104.812 7.99109 105.296C8.52903 105.611 8.36227 106.131 8.37572 106.597C8.38917 106.944 8.37572 107.292 8.37572 107.642C8.37572 108.059 8.39455 108.477 8.37572 108.894C8.34385 109.062 8.3603 109.236 8.42314 109.395C8.48599 109.554 8.59266 109.693 8.73076 109.793C8.54248 110.1 8.28158 110.41 8.78186 110.677L8.798 112.758C9.5027 113.273 9.15304 114.024 9.20683 114.673C9.2418 115.229 9.2418 115.787 9.20683 116.343C9.19339 116.612 9.40856 116.682 9.51077 116.849C9.57532 116.954 9.65333 117.118 9.61836 117.21C9.53767 117.436 9.25525 117.681 9.30366 117.843C9.37091 118.069 9.66677 118.214 9.63719 118.54C9.6076 118.866 9.67484 119.243 9.62105 119.582C9.55381 120 10.0514 120.099 10.046 120.455C10.0406 120.81 10.1563 121.16 9.77705 121.389C9.59953 121.502 9.59415 121.572 9.74747 121.691C9.90078 121.809 10.0299 122.003 10.1966 122.124C10.549 122.394 10.2746 122.515 10.1321 122.727C10.0503 122.876 10.0052 123.041 10.0005 123.21C9.99583 123.379 10.0317 123.547 10.1052 123.7C10.1724 123.877 10.4038 124.009 10.4387 124.184C10.5651 124.828 10.1859 125.571 10.8314 126.112C10.7104 126.258 10.5113 126.382 10.4764 126.557C10.4304 126.788 10.4387 127.026 10.5008 127.253C10.5629 127.481 10.677 127.69 10.8341 127.866C11.0869 128.191 10.6512 128.843 11.0412 129.212C11.4796 129.637 11.1999 130.125 11.286 130.577C11.2994 130.642 11.286 130.75 11.329 130.763C11.5065 130.836 11.7782 130.989 11.8669 130.922C12.2331 130.606 12.5815 130.27 12.9105 129.915C12.7545 129.43 13.3624 129.269 13.3624 128.838C13.4047 128.423 13.3984 128.004 13.3436 127.591C13.2037 127.028 13.7444 126.759 13.7766 126.298C13.8224 125.639 13.5937 124.92 14.1962 124.384C14.1962 123.756 14.1962 123.129 14.1962 122.499C14.179 122.333 14.1995 122.166 14.2564 122.01C14.3132 121.853 14.4049 121.712 14.5244 121.596C14.7422 121.389 14.6427 121.101 14.4033 120.896C14.1639 120.692 14.0806 120.401 14.3038 120.199C14.4257 120.081 14.5179 119.936 14.5731 119.775C14.6282 119.615 14.6447 119.443 14.6212 119.275C14.6212 118.37 14.6212 117.466 14.6212 116.561C15.0596 116.229 15.0731 115.766 15.0435 115.274C15.0139 114.781 15.0435 114.299 15.0435 113.811C15.0435 113.394 15.0435 112.976 15.0435 112.559C15.0716 112.434 15.1169 112.314 15.178 112.201C15.5922 111.032 15.5384 110.933 15.0596 109.764C14.8444 109.225 14.5432 108.73 14.5755 108.065C14.597 107.612 14.2285 107.106 13.9488 106.68C13.7228 106.338 13.3275 106.112 13.0908 105.776C12.8541 105.439 12.889 104.968 12.4856 104.782C11.9934 104.54 12.2516 103.842 11.7513 103.621C11.7593 103.28 11.7386 102.939 11.6894 102.601C11.5657 102.062 11.9315 101.717 12.1278 101.313C12.3807 100.791 12.5582 100.223 12.9536 99.7758C12.7303 99.0218 13.3032 98.661 13.7067 98.2059C13.777 98.0927 13.8029 97.9574 13.7793 97.8262C13.7447 97.657 13.7624 97.4813 13.8302 97.3225C13.898 97.1637 14.0125 97.0294 14.1586 96.9375C14.7422 96.5713 14.5297 95.9761 14.6427 95.4618C14.7557 94.9475 15.2291 94.5516 15.03 93.9618C15.0112 93.9026 14.9359 93.8649 14.8875 93.8137C14.7476 93.6683 14.5997 93.5444 14.6185 93.2967C14.6454 92.812 14.6185 92.3246 14.6185 91.8371C14.6355 91.7368 14.6288 91.6339 14.5989 91.5366C14.569 91.4393 14.5167 91.3504 14.4464 91.277C14.0859 90.9512 13.5588 90.6442 13.4566 90.2376C13.3006 89.6344 12.8594 89.3543 12.5259 88.945C12.3279 88.766 12.1781 88.54 12.0902 88.2879C11.9697 87.8504 11.762 87.4419 11.4796 87.0869C11.1353 86.6491 10.7418 86.2524 10.3069 85.9047C9.02394 84.8706 8.56938 83.5376 8.78724 81.9407C8.78724 81.8438 8.93249 81.7603 9.01049 81.6714C9.06159 81.7226 9.14228 81.7657 9.15304 81.8222C9.15807 82.0901 9.2626 82.3464 9.44622 82.5412C9.91154 82.9586 10.5221 83.3491 10.7319 83.8877C11.0009 84.5905 11.6222 84.9083 11.9369 85.4819C12.2058 85.9531 12.577 86.3463 12.803 86.7933C13.0391 87.2625 13.3478 87.6915 13.7175 88.0644C14.1075 88.4602 14.5244 88.8372 14.8848 89.2546C15.0004 89.3839 14.952 89.6478 15.0515 89.8067C15.5381 90.5696 15.9541 91.3755 16.2942 92.2142C16.4287 92.5642 16.8321 92.8281 16.2727 93.1297V95.6449C16.2727 95.995 16.2727 96.3424 16.2727 96.6898C16.2727 97.1099 15.6998 97.2876 15.8289 97.7669C15.5303 97.977 15.5384 98.3809 15.3582 98.6071C14.9855 99.0707 14.6423 99.5573 14.3307 100.064C14.0833 100.463 13.6959 100.718 13.7444 101.3C13.7793 101.736 13.2064 102.035 13.3301 102.59C13.3843 103.06 13.3915 103.535 13.3517 104.006C13.8708 104.526 14.3065 105.102 14.8686 105.487C15.3797 105.838 15.4523 106.387 15.7051 106.834C16.001 107.331 16.2582 107.851 16.4744 108.388C16.5651 108.558 16.6337 108.739 16.6788 108.926C16.7111 109.271 16.6788 109.624 16.6923 109.971C16.7057 110.319 16.5927 110.642 16.9128 110.924C17.3405 111.304 16.6439 111.366 16.6654 111.713C16.7326 112.683 16.6412 113.663 16.7057 114.633C16.7275 114.869 16.6844 115.106 16.581 115.319C16.4777 115.532 16.318 115.713 16.1194 115.842C15.7724 116.111 16.0925 116.221 16.1705 116.442C16.3793 117.023 16.384 117.657 16.1839 118.241C16.0258 118.524 15.9132 118.83 15.8504 119.149C15.7616 120.277 16.1005 121.421 15.4819 122.544C15.1188 123.207 15.8181 124.195 15.0408 124.863C15.0408 125.765 15.0408 126.67 15.0273 127.572C14.9864 127.987 14.9927 128.405 15.0462 128.819C15.1807 129.379 14.5997 129.659 14.6266 130.111C14.6642 130.763 14.3926 131.189 13.8062 131.326C13.4793 131.425 13.198 131.637 13.0128 131.924C12.8299 132.167 12.5899 132.362 12.314 132.49C12.0382 132.618 11.7349 132.676 11.4312 132.659C11.3828 132.659 11.3048 132.745 11.294 132.804C11.2833 132.864 11.3667 132.942 11.4097 132.942C12.0418 132.961 12.1521 133.321 12.1171 133.876C12.0741 134.641 12.1171 135.408 12.1171 136.173C12.1171 136.37 12.0472 136.607 12.2785 136.731C12.924 137.078 12.9428 137.864 13.4404 138.346C14.2473 139.154 15.2398 139.819 15.6756 140.958C15.7011 141.024 15.7403 141.083 15.7903 141.132C15.8404 141.181 15.9003 141.22 15.966 141.244C16.617 141.368 16.9828 141.869 17.4131 142.289C17.8435 142.709 18.2335 143.245 18.9812 143.056C19.0538 143.037 19.1641 143.258 19.2824 143.326C19.6859 143.525 20.0894 143.864 20.5089 143.848C21.0872 143.848 21.367 144.168 21.9103 144.71ZM58.6354 86.2386C58.2992 86.4756 58.5305 87.2807 57.7747 87.1003L56.5966 88.2798C56.4003 88.4764 56.0587 88.6514 56.0318 88.8749C55.935 89.4835 55.4804 89.7825 55.1227 90.1729C55.3002 90.7115 54.4798 90.9027 54.6708 91.4494C53.9634 91.7187 54.4018 92.435 54.106 92.8901C53.7509 93.4286 53.802 93.461 53.837 94.5058C53.8429 94.6087 53.8237 94.7115 53.781 94.8054C53.7384 94.8992 53.6736 94.9812 53.5922 95.0444C53.5391 95.0856 53.495 95.1374 53.4629 95.1964C53.4307 95.2555 53.4111 95.3206 53.4053 95.3876C53.3995 95.4547 53.4076 95.5222 53.4291 95.5859C53.4506 95.6497 53.4851 95.7083 53.5304 95.758C54.1087 96.6359 54.3749 97.7238 55.3002 98.3701C55.3523 98.4094 55.396 98.4587 55.4288 98.5151C55.4616 98.5715 55.4828 98.6339 55.4912 98.6987C55.5154 99.1161 55.5073 99.5335 55.4912 99.9509C55.4912 100.43 56.0856 100.683 55.9269 101.246C55.8354 101.567 56.0533 102.054 55.8812 102.259C55.5796 102.627 55.433 103.098 55.4723 103.573C55.4723 103.726 55.1657 103.842 55.0904 104.033C55.0151 104.225 55.0904 104.572 54.9075 104.558C54.0683 104.453 54.2862 105.296 53.9258 105.636C53.6864 105.854 53.7913 106.443 53.1861 106.314C53.0382 106.602 52.9575 106.969 52.7288 107.16C52.515 107.329 52.3485 107.551 52.2453 107.804C52.1421 108.057 52.1058 108.332 52.1398 108.603C52.1963 109.575 52.1398 110.55 52.1586 111.525C52.1297 111.726 52.1778 111.931 52.2931 112.099C52.5262 112.35 52.653 112.683 52.647 113.026C52.6409 113.369 52.5026 113.697 52.2608 113.941C52.1523 114.074 52.0904 114.24 52.0845 114.412C52.0787 114.584 52.1293 114.753 52.2285 114.894C52.7665 115.432 52.476 116.063 52.5728 116.644C52.6293 116.973 52.285 117.107 52.2339 117.331C52.1936 117.509 52.5379 117.746 52.5567 117.969C52.6051 118.591 52.5567 119.221 52.5782 119.854C52.5997 120.487 52.3442 121.112 52.9844 121.559C52.2823 122.003 52.589 122.445 52.9844 122.884V125.598C52.4061 126.137 52.5863 126.853 52.5701 127.513C52.554 128.173 52.6159 128.91 52.554 129.6C52.4733 130.523 53.1377 130.906 53.716 131.358C53.7785 131.379 53.8453 131.384 53.9101 131.372C53.975 131.36 54.0359 131.332 54.0871 131.291C54.3561 131.022 54.7488 130.801 54.6654 130.276C54.6036 129.869 54.7138 129.433 54.6385 129.029C54.5471 128.541 55.1765 128.396 55.0716 127.952C55.5611 127.235 55.7601 126.519 55.1173 125.768C55.0474 125.684 55.0205 125.442 55.0796 125.385C55.6687 124.831 55.4427 124.12 55.4938 123.46C55.4938 123.336 55.5423 123.153 55.6256 123.107C56.2174 122.781 55.6767 122.076 56.1797 121.637C56.5859 121.281 56.2739 120.589 56.3142 120.048C56.3599 119.429 56.3465 118.804 56.3572 118.182C56.9866 117.721 56.6773 117.045 56.7311 116.461C56.7849 115.877 56.6047 115.233 57.1399 114.738C57.1857 114.697 57.0377 114.371 56.9167 114.234C56.7069 113.994 56.6101 113.695 56.8602 113.531C57.2448 113.262 57.105 112.793 57.4197 112.484C57.7801 112.128 57.503 111.565 57.5757 111.1C57.6268 110.774 57.3981 110.375 57.7397 110.13C58.2212 109.785 57.5542 109.629 57.6456 109.387C57.7128 109.209 57.9468 109.077 57.9737 108.902C58.0383 108.559 58.0383 108.206 57.9737 107.863C57.8715 107.378 58.3557 107.168 58.396 106.785C58.4283 106.46 58.5063 106.083 58.1432 105.851C58.0583 105.794 57.9972 105.707 57.9714 105.608C57.9457 105.509 57.957 105.404 58.0033 105.312C58.6246 104.836 58.4391 104.168 58.3853 103.592C58.3073 102.789 58.5382 101.987 59.0308 101.348C59.2998 100.98 58.9878 100.931 58.8856 100.74C58.8291 100.629 58.7753 100.419 58.8318 100.36C59.4961 99.6627 59.1922 98.8064 59.2298 98.0174C59.2487 97.5919 59.2298 97.2095 59.6414 96.9213C59.6725 96.8615 59.6887 96.795 59.6887 96.7275C59.6887 96.66 59.6725 96.5935 59.6414 96.5336C59.1196 96.2077 59.5472 95.9465 59.6037 95.6072C59.7133 95.1664 59.8553 94.7344 60.0287 94.3146C60.1847 93.8057 60.0663 93.2105 60.0663 92.6558V91.1935C60.7441 90.5122 60.4052 89.6505 60.4859 88.8615C60.4994 88.7322 60.5021 88.5545 60.5828 88.4899C61.1449 88.0428 60.8921 87.7008 60.5021 87.3104C60.4517 87.2214 60.4365 87.1167 60.4594 87.017C60.4823 86.9173 60.5417 86.8298 60.6258 86.7718C60.8948 86.5994 60.9082 86.3409 60.9082 86.0501C60.9082 85.6569 60.7576 85.2072 61.2148 84.9245C61.2393 84.9052 61.2572 84.8787 61.2661 84.8488C61.2749 84.8189 61.2743 84.787 61.2643 84.7574C61.2542 84.7279 61.2353 84.7022 61.2101 84.6839C61.1848 84.6655 61.1545 84.6555 61.1234 84.6552C60.7979 84.6363 60.4321 84.4774 60.1443 84.7602C59.7113 85.1426 59.2756 85.5869 58.6354 86.2386ZM39.4337 147.214C39.3648 147.207 39.2954 147.207 39.2266 147.214C38.8876 147.279 38.7989 146.802 38.581 146.848C38.3632 146.894 38.2394 147.238 37.9032 147.219C37.4191 147.19 36.9296 147.219 36.4454 147.219C35.894 147.219 35.3157 147.147 34.8101 147.303C34.5223 147.392 34.2721 147.675 33.9063 147.642C33.5405 147.61 33.0698 147.564 32.8089 148C32.5158 147.909 32.3571 147.58 31.959 147.618C31.3404 147.68 30.711 147.618 30.0762 147.642C29.9747 147.647 29.8738 147.625 29.7839 147.578C29.694 147.53 29.6185 147.46 29.5652 147.373C29.4387 147.198 29.3796 147.193 29.2612 147.373C28.9734 147.817 28.4812 147.728 28.1504 147.591C27.8599 147.473 27.6474 147.217 27.2574 147.217C26.5339 147.217 25.7458 147.454 25.1379 146.813C24.7224 146.783 24.3054 146.783 23.8899 146.813C23.4246 146.877 23.282 146.309 22.814 146.36C22.4375 146.404 22.0232 146.506 21.6521 146.156C21.3266 145.849 20.7752 145.846 20.5089 145.404C20.4343 145.288 20.3241 145.199 20.1946 145.15C20.0652 145.102 19.9235 145.096 19.7908 145.135C19.4815 145.189 19.312 144.974 19.078 144.839C18.9075 144.72 18.7015 144.664 18.4944 144.679C18.2873 144.694 18.0917 144.78 17.9403 144.922L19.3981 146.385C19.8903 146.875 20.4525 147.316 20.8532 147.874C21.254 148.431 22.0017 148.534 22.4939 149.013C22.9028 149.414 23.5349 149.578 23.9276 150.063C23.9894 150.141 24.1965 150.093 24.2987 150.152C24.4709 150.249 24.6403 150.516 24.7721 150.494C25.5521 150.362 26.0928 151.197 26.8755 150.981C26.9981 151.145 27.1635 151.271 27.3534 151.346C27.5433 151.421 27.7503 151.442 27.9513 151.407C28.1173 151.367 28.2908 151.37 28.4549 151.418C28.619 151.465 28.7681 151.554 28.8874 151.676C29.1967 152.002 29.6727 151.797 30.0708 151.805C31.3915 151.83 32.7121 151.805 34.0301 151.824C34.5303 151.824 34.9015 151.628 35.3346 151.439C35.7676 151.251 36.4104 151.372 36.9645 151.348C37.0156 151.348 37.0721 151.259 37.1124 151.205C37.3653 150.86 37.7365 151.027 38.0619 150.973C38.3874 150.92 38.5245 150.435 38.928 150.564C39.5924 150.788 40.1303 150.357 40.6117 150.104C41.2949 149.745 42.0346 149.471 42.664 148.999C42.9195 148.808 43.2692 148.843 43.5328 148.566C44.0868 147.992 44.5817 147.365 45.394 147.039C45.8674 146.851 46.2198 146.312 46.5802 145.892C46.9863 145.423 47.5754 145.224 48.0192 144.844C48.8637 144.125 49.6115 143.293 50.3861 142.496C50.4157 142.466 50.3296 142.297 50.2651 142.227C50.2409 142.192 50.136 142.227 50.066 142.227L48.7024 142.965C48.2209 143.562 47.648 143.993 46.8384 143.996C46.5694 144.44 45.9051 144.233 45.6845 144.734C45.1304 144.51 44.9556 145.38 44.4069 145.176C44.1944 145.687 43.5731 145.507 43.2261 145.889C42.9572 146.199 42.2605 145.792 41.9781 146.355C41.3864 146.404 40.9775 147.061 40.289 146.845C40.1975 146.789 40.0012 147.079 39.4337 147.214ZM29.6297 184.594C29.8476 184.373 30.208 184.193 29.74 183.84C29.6856 183.763 29.6528 183.672 29.6448 183.577C29.6367 183.483 29.6538 183.388 29.6943 183.302C29.82 183.188 29.9179 183.048 29.9804 182.89C30.0429 182.733 30.0683 182.563 30.0547 182.394C30.0237 181.839 30.0237 181.283 30.0547 180.727C30.0843 180.205 29.8261 179.604 30.4043 179.198C30.3557 179.099 30.2922 179.008 30.2161 178.928C29.9014 178.643 30.1058 178.277 30.0466 177.954C30.6787 177.507 30.4366 176.839 30.4581 176.249C30.4823 175.484 30.407 174.714 30.4797 173.957C30.5523 173.201 30.095 172.285 30.8804 171.625C30.8804 170.86 30.8804 170.095 30.8804 169.328C30.8804 169.264 30.8643 169.164 30.8992 169.134C31.6066 168.526 31.257 167.718 31.2812 166.999C31.3296 165.609 31.2812 164.217 31.2973 162.828C31.2973 162.429 31.1736 161.982 31.6201 161.702C31.6049 161.603 31.5631 161.51 31.4991 161.433C31.2704 161.217 31.1601 160.894 31.3942 160.735C31.9778 160.331 31.413 159.453 32.1204 159.144C32.0182 159.071 31.924 158.958 31.8111 158.936C31.6981 158.915 31.456 158.952 31.4453 159.004C31.3296 159.515 30.8643 159.863 30.8616 160.442C30.8589 161.021 31.0741 161.694 30.6868 162.235C30.2994 162.776 30.5523 163.431 30.4608 164.023C30.4608 164.085 30.4393 164.174 30.3963 164.201C29.8772 164.535 30.052 165.06 30.052 165.518C30.052 165.976 29.5436 166.25 29.584 166.81C29.6216 167.284 29.046 167.694 29.194 168.305C29.2543 168.537 29.2516 168.781 29.1864 169.011C29.1211 169.242 28.9956 169.451 28.8228 169.616C28.6076 169.851 28.8228 170.343 28.5296 170.745C28.2902 171.068 28.4086 171.658 28.3763 172.129C28.3575 172.398 28.4624 172.816 28.3225 172.937C27.7631 173.376 27.9567 173.952 27.9729 174.469C27.9971 175.131 27.8868 175.686 27.3112 176.085C27.0422 176.273 27.2655 176.389 27.3757 176.529C27.5127 176.728 27.5954 176.959 27.6157 177.199C27.636 177.439 27.5931 177.681 27.4914 177.9C27.3462 178.261 27.1068 178.56 27.1095 178.998C27.1122 179.437 27.2682 179.933 26.8405 180.345C26.5231 180.652 26.7517 181.134 26.7168 181.535C26.6603 182.192 26.8997 182.911 26.2945 183.447C26.2945 184.212 26.2945 184.977 26.2945 185.742C26.2995 185.807 26.2804 185.872 26.2407 185.925C26.1034 186.026 25.9965 186.163 25.9316 186.322C25.8666 186.48 25.8461 186.652 25.8722 186.821C25.9018 187.225 25.8722 187.629 25.8722 188.168C26.3375 188.168 26.741 188.168 27.1444 188.168C27.4887 188.168 27.8357 188.122 28.0616 188.477C28.1423 188.607 28.2472 188.566 28.3548 188.402C28.535 188.133 28.8174 188.168 29.0918 188.171C29.3661 188.173 29.6297 188.171 29.6297 187.75C29.619 186.819 29.6297 185.917 29.6297 184.594ZM37.766 20.2435C37.6768 20.4143 37.6081 20.5951 37.5616 20.7821C37.4298 21.8377 37.8306 22.9364 37.1636 23.957C37.0022 24.1967 37.0775 24.6491 37.1636 24.9803C37.2765 25.4705 36.7574 25.6616 36.7359 26.0575C36.6865 26.4719 36.691 26.8911 36.7493 27.3043C36.8758 27.8429 36.3701 28.1418 36.3217 28.5942C36.2867 28.9362 36.4185 29.3348 36.2867 29.6202C36.1549 29.9057 35.8241 30.1049 35.8779 30.4927C35.1624 30.8697 35.7568 31.8553 35.071 32.2404C35.1113 32.5636 34.9499 32.9298 35.2835 33.1937C35.5309 33.3903 35.617 33.7081 35.3857 33.8885C35.2235 34.0198 35.1077 34.1998 35.0554 34.402C35.0031 34.6041 35.0171 34.8178 35.0952 35.0114C35.2619 35.5931 34.4604 35.7547 34.6487 36.3067C34.837 36.8588 34.4577 37.3219 34.2372 37.7986C33.8203 38.7061 33.8229 38.7061 33.8203 39.2904C33.8203 39.6378 33.8203 39.9852 33.8203 40.3326C33.8203 40.575 33.9521 40.6854 34.1941 40.7096C34.4362 40.7338 34.6675 40.6073 34.6379 40.4215C34.5088 39.5597 34.8854 38.865 35.3077 38.1917C35.4238 38.0309 35.4876 37.8382 35.4906 37.6397C35.4906 37.2223 35.5201 36.8022 35.4906 36.3902C35.4616 36.2207 35.485 36.0463 35.5575 35.8904C35.6301 35.7345 35.7484 35.6045 35.8967 35.5177C36.3997 35.208 36.2652 34.5052 36.752 34.2009C36.752 33.7835 36.7359 33.3661 36.752 32.9513C36.7682 32.5366 36.6929 32.1839 37.021 31.8015C37.2335 31.5564 37.1447 31.0259 37.1528 30.622C37.1528 30.0834 37.177 29.5933 37.5401 29.1032C37.7338 28.8339 37.6343 28.3842 37.8898 27.9991C38.113 27.6571 37.9839 27.0727 37.9893 26.5934C37.9615 26.1905 38.0874 25.7921 38.3416 25.4785C38.6563 25.0827 38.1937 24.431 38.651 23.9436C39.1082 23.4562 38.7774 22.888 38.8096 22.3575C38.8365 21.9293 38.8365 21.5496 39.2427 21.2803C39.1943 20.6663 39.9286 20.257 39.6704 19.5757C39.5601 19.2848 39.8667 19.099 39.9528 18.8674C40.0873 18.5012 39.977 18.0596 40.0953 17.6745C40.2325 17.2463 40.6333 16.9016 40.4961 16.3819C40.2271 15.3451 41.0905 14.4618 40.9237 13.4197C40.9103 13.3281 41.0824 13.215 41.147 13.0992C41.2761 12.8046 41.4272 12.5202 41.5989 12.2483C41.892 11.8659 41.6419 11.4404 41.7576 11.0607C41.849 10.7564 42.1018 10.4898 42.1476 10.1882C42.2229 9.64962 42.0803 9.11104 42.5591 8.6721C42.6214 8.55115 42.6513 8.41603 42.6456 8.28004C42.6399 8.14405 42.599 8.01188 42.5268 7.89654C42.0965 7.46837 42.0776 7.18831 42.4811 6.69551C42.6909 6.44237 42.4811 5.88763 42.6048 5.50793C42.7285 5.12823 43.0728 4.88857 43.011 4.43077C42.9491 3.97298 43.6323 3.69022 43.4171 3.14625C43.3687 3.02777 43.366 2.83388 43.2853 2.79348C42.9975 2.65076 42.6209 2.67769 42.4327 2.34108C42.3439 2.40032 42.1798 2.45687 42.1772 2.52419C42.1247 2.93724 42.1247 3.35527 42.1772 3.76832C42.2874 4.3069 41.5182 4.4954 41.7387 5.06091C41.9162 5.51601 41.2008 5.68297 41.3299 6.13807C41.459 6.59318 40.9856 6.849 40.9291 7.21524C40.8726 7.58147 40.9453 8.02311 40.5337 8.31394C40.4638 8.36242 40.4504 8.59939 40.5042 8.69903C40.5983 8.87407 40.8915 9.02756 40.8727 9.15682C40.8404 9.3938 40.4719 9.47458 40.4826 9.81658C40.5042 10.3552 40.5472 10.8695 40.1034 11.3381C39.9313 11.5212 40.1034 12.0086 40.0657 12.3506C40.02 12.7357 39.595 12.9484 39.6327 13.4278C39.6704 13.9071 39.9017 14.548 39.3072 14.9493C39.2963 15.4756 39.1328 15.9874 38.8365 16.4223C38.4839 16.9122 38.3266 17.5162 38.3954 18.1161C38.4223 18.3693 38.5461 18.7032 38.2771 18.889C37.8145 19.2148 38.0243 19.6538 37.766 20.2435ZM31.7142 22.5406C31.7142 22.0532 31.6308 21.5469 31.7357 21.0837C31.8648 20.5182 31.3162 20.257 31.3027 19.7911C31.2866 19.2337 31.3027 18.6789 31.3027 18.1215C31.3027 17.6341 31.2166 17.1278 31.3242 16.6646C31.4695 16.0426 30.8939 15.6575 30.9154 15.1647C30.953 14.3057 30.5469 13.3766 31.2193 12.5849C31.2462 12.5499 31.1279 12.3964 31.0848 12.2968C30.8159 11.6747 30.8159 11.672 31.1333 11.0203C31.1628 10.9611 31.2301 10.9207 31.2785 10.8722C30.6034 10.269 30.9907 9.4692 30.875 8.76097C30.8562 8.65056 30.6948 8.5563 30.6061 8.46475C30.5288 8.39602 30.478 8.30246 30.4623 8.2002C30.4466 8.09795 30.467 7.99342 30.52 7.90462C30.6383 7.67842 30.9235 7.56262 30.9073 7.22601C30.8804 6.67127 30.9073 6.11384 30.9073 5.55641C30.9073 4.93165 30.9073 4.3042 30.9073 3.67137C30.9073 3.13279 30.251 2.80695 30.4635 2.16604C30.5442 1.92367 30.2322 1.82673 29.6378 1.85097C29.3823 1.85097 29.2505 1.97753 29.2424 2.20374C29.2636 2.62025 29.2564 3.03772 29.2209 3.45325C29.1187 3.99183 29.5087 4.31767 29.6485 4.74584C29.7292 4.9882 29.541 5.13631 29.3796 5.25211C29.2182 5.3679 29.1994 5.44061 29.3796 5.56179C29.4898 5.63181 29.6485 5.75299 29.6485 5.8607C29.7158 6.34309 29.7158 6.83249 29.6485 7.31487C29.5194 7.88308 30.0923 8.12275 30.087 8.61016C30.087 9.37495 30.1031 10.1397 30.087 10.9045C30.0547 12.1917 30.0063 12.251 30.3559 12.7438C30.4142 12.8044 30.4582 12.8772 30.4846 12.9571C30.5111 13.0369 30.5193 13.1217 30.5087 13.2051C30.4982 13.2885 30.469 13.3686 30.4235 13.4392C30.378 13.5099 30.3172 13.5695 30.2457 13.6136C30.1945 13.6594 30.1139 13.7051 30.1031 13.7617C30.0251 14.2249 30.3398 14.8389 29.9283 15.1297C29.3903 15.4959 30.5227 15.9833 29.7534 16.2069C29.8924 16.4025 30.0037 16.6163 30.0843 16.8424C30.1126 17.119 30.1126 17.3978 30.0843 17.6745C30.118 18.0906 30.1126 18.5089 30.0681 18.924C29.9659 19.4626 30.3963 19.7803 30.4877 20.2166C30.5523 20.537 30.598 20.9221 30.2188 21.143C30.0332 21.2561 30.0466 21.3153 30.2188 21.4472C30.5281 21.6842 30.6545 21.9858 30.3129 22.2982C29.9713 22.6106 29.9336 23.1761 30.1542 23.4023C30.5711 23.8305 30.477 24.2775 30.4877 24.7488C30.4877 25.1608 30.4393 25.5566 30.8481 25.8663C30.8854 25.9533 30.8999 26.0484 30.8905 26.1425C30.8811 26.2367 30.848 26.327 30.7943 26.4049C30.2564 26.8573 30.563 27.439 30.4904 27.9587C31.187 28.4757 30.8885 29.2244 30.8966 29.8734C30.9261 32.4478 30.8697 35.0222 30.9288 37.5939C30.9477 38.4422 30.5146 39.3982 31.3242 40.136C31.3242 40.6234 31.2973 41.1109 31.3242 41.5956C31.3538 41.9914 31.1252 42.4492 31.4883 42.7724C31.9455 43.179 31.7384 43.6907 31.7088 44.135C31.6685 44.722 32.0101 44.9994 32.3678 45.3118C32.6368 44.9186 33.4706 44.6655 32.7094 44.0138C32.505 43.8388 32.5695 43.6395 32.5695 43.4456C32.5695 42.3307 32.5534 41.2186 32.5695 40.1064C32.579 39.9685 32.5576 39.8302 32.5069 39.7016C32.4561 39.573 32.3774 39.4574 32.2764 39.3632C32.0074 39.0696 32.6529 38.935 32.4942 38.803C32.1096 38.4799 32.15 38.0948 32.1392 37.6828C32.1392 37.2196 32.2979 36.6999 31.7788 36.3686C31.7788 36.3686 31.8111 36.2771 31.8245 36.2259C32.2091 34.8256 32.193 34.8337 31.7492 33.3957C31.6631 33.1264 31.5663 32.7063 31.8729 32.4182C32.2979 32.0223 32.3329 31.5187 31.9536 31.1606C31.5071 30.7378 32.037 30.0026 31.3834 29.7118C31.3597 29.6895 31.3412 29.6622 31.3291 29.632C31.317 29.6018 31.3117 29.5693 31.3135 29.5367C31.3171 29.4053 31.3416 29.2753 31.3861 29.1517C31.8406 28.1095 31.8487 28.1176 31.3484 26.728C31.2462 26.4426 31.1628 26.0333 31.4399 25.7613C31.5409 25.6717 31.62 25.56 31.6708 25.4348C31.7217 25.3096 31.743 25.1744 31.7331 25.0396C31.6981 24.3583 31.7142 23.6608 31.7142 22.5486V22.5406ZM28.379 49.2704C28.6238 49.5154 28.8739 49.7578 29.1133 50.0082C29.202 50.1025 30.2241 51.1554 30.2752 51.1419C30.6895 51.0369 30.8589 51.5162 31.1494 51.5432C31.9101 51.6268 32.6776 51.6268 33.4383 51.5432C33.8849 51.4574 34.2965 51.242 34.6218 50.9238C34.9876 50.5818 35.4287 50.8969 35.7703 50.6545C36.674 49.9974 36.9107 48.888 37.5401 48.0478C37.5819 47.3552 37.5765 46.6607 37.524 45.9689C37.489 45.6996 37.0371 45.503 37.1313 45.0991C36.6122 44.8136 36.6364 44.1862 36.2813 43.7526C35.894 43.2894 35.3104 43.311 34.9365 42.9097C34.8893 42.8611 34.8314 42.824 34.7675 42.8015C34.7036 42.779 34.6353 42.7717 34.5681 42.78C34.5009 42.7884 34.4365 42.8122 34.38 42.8497C34.3235 42.8871 34.2765 42.9372 34.2425 42.9959C34.2004 43.1278 34.2041 43.27 34.2529 43.3996C34.3018 43.5291 34.3929 43.6384 34.5115 43.7095C34.6218 43.793 34.7025 43.9788 34.8101 43.9923C35.8187 44.1027 35.972 44.7678 35.9048 45.608C35.8685 45.8851 35.8685 46.1657 35.9048 46.4428C35.9989 46.9625 35.5955 47.3153 35.5175 47.7381C35.4395 48.1609 35.079 48.3655 35.0091 48.8153C34.9485 49.0502 34.8006 49.2532 34.5957 49.3827C34.3908 49.5123 34.1443 49.5588 33.9063 49.5127C33.2797 49.4638 32.6502 49.4638 32.0235 49.5127C31.8547 49.5297 31.6843 49.5041 31.5278 49.4383C31.3714 49.3724 31.2339 49.2684 31.1279 49.1357C30.8589 48.8206 30.5388 48.546 30.251 48.2444C29.9175 47.8997 29.9821 47.5011 30.1434 47.116C30.5012 46.1681 30.6814 45.6026 30.3075 45.0263C30.0036 44.5497 30.1139 44.1161 30.0385 43.6637C29.9982 43.3944 30.1999 42.9851 29.8906 42.9205C29.5813 42.8559 29.2989 43.2409 29.2343 43.521C29.1945 43.7857 29.0642 44.0283 28.8658 44.2077C28.5485 44.477 28.2902 44.7678 28.3602 45.2579C28.4193 45.6673 28.3118 46.1035 28.3871 46.5074C28.4893 47.046 28.0697 47.3638 27.9675 47.8C27.8653 48.2363 27.9729 48.6079 28.379 49.2784V49.2704ZM33.8014 165.792V164.341C33.8014 163.854 33.7073 163.342 33.8256 162.887C33.9763 162.308 33.1398 162.162 33.3711 161.589C33.441 161.422 33.4329 161.05 33.2178 161.05C32.8547 161.064 32.973 161.435 32.9703 161.672C32.9703 162.922 32.9703 164.174 32.9703 165.426C32.9703 165.695 32.8842 166.083 33.0268 166.234C33.6965 166.886 33.2635 167.677 33.3792 168.388C33.4246 168.795 33.447 169.204 33.4464 169.614C33.9843 169.94 33.7503 170.467 33.8068 170.925C33.9601 172.185 33.484 173.481 34.1861 174.733C34.5276 175.341 33.9924 176.184 34.455 176.914C34.9177 177.644 34.5465 178.53 34.6379 179.338C34.65 179.477 34.65 179.616 34.6379 179.755C34.6425 179.929 34.7005 180.097 34.804 180.236C34.9076 180.375 35.0515 180.479 35.2162 180.533C35.4321 180.633 35.667 180.685 35.9048 180.685C36.1425 180.685 36.3775 180.633 36.5933 180.533C36.8302 180.392 37.0179 180.182 37.1313 179.93C37.168 179.834 37.1703 179.727 37.138 179.629C37.1057 179.531 37.0406 179.447 36.9538 179.392C36.4857 179.033 36.9995 178.263 36.3647 177.97C36.3459 177.63 36.3217 177.288 36.3136 176.949C36.3136 176.462 36.3136 175.977 36.3136 175.49C36.3136 175.293 36.3136 174.978 36.2141 174.924C35.5847 174.596 36.1657 173.847 35.6493 173.462C35.2162 173.136 35.7784 172.317 35.0656 172.048C35.2861 171.448 34.7966 171.052 34.6541 170.551C34.4739 169.845 34.9903 169.029 34.3152 168.396C34.2668 167.653 34.221 166.907 34.1645 166.164C34.1592 166.105 34.0596 166.059 33.8014 165.801V165.792ZM32.7578 153.472C32.072 153.472 31.3834 153.445 30.7002 153.486C30.5039 153.486 30.4312 153.755 30.4716 153.973C30.5012 154.092 30.598 154.286 30.6679 154.288C31.491 154.313 32.314 154.305 33.1371 154.307C33.3791 153.954 33.8014 153.927 34.1403 153.75C34.1618 153.75 34.1645 153.647 34.1403 153.612C34.1161 153.577 34.0489 153.48 33.9951 153.478C33.7261 153.472 33.4491 153.48 32.7578 153.48V153.472ZM30.875 156.187L31.9025 157.213C31.9938 157.12 32.0918 157.035 32.1957 156.957C32.2974 156.878 32.4199 156.832 32.548 156.822C32.817 156.855 32.9219 156.658 33.0402 156.51C33.1586 156.362 33.4545 156.335 33.2635 156.079C33.1425 155.915 32.9945 155.683 32.8278 155.654C32.1795 155.549 31.5098 155.382 30.8804 156.195L30.875 156.187ZM34.2183 46.3647C34.2183 46.0954 34.2183 45.81 34.2183 45.5326C34.2183 45.4814 34.1107 45.3845 34.0839 45.3953C33.9843 45.4303 33.8149 45.4922 33.8149 45.5595C33.7853 45.8288 33.8149 46.1116 33.7987 46.389C33.8002 46.5221 33.7752 46.6542 33.7253 46.7777C33.6754 46.9011 33.6015 47.0134 33.5079 47.1081C33.4144 47.2028 33.303 47.2779 33.1803 47.3292C33.0575 47.3805 32.9258 47.4069 32.7928 47.4069C32.5238 47.4069 32.236 47.3907 31.9644 47.4069C31.8917 47.4069 31.7626 47.6061 31.7842 47.6573C32.0289 48.2174 32.9138 48.449 33.3361 48.0639C33.6453 47.7867 33.9364 47.4899 34.2076 47.1753C34.2775 47.0972 34.2183 46.9033 34.2183 46.3647Z" fill="black"/>
<path d="M42.2497 72.7682C42.906 73.0941 43.0835 72.2296 43.6296 72.4316C43.8985 72.1327 43.8151 71.6534 44.2078 71.4029C44.2912 71.3491 44.2482 71.0528 44.1056 70.8482C43.7076 70.2746 43.7049 70.2288 44.1298 69.8572C44.3244 69.7177 44.4761 69.5265 44.5678 69.3052C44.6596 69.084 44.6877 68.8414 44.6489 68.605C44.5898 68.2388 44.7807 67.991 44.9798 67.6921C45.1444 67.4165 45.2891 67.1294 45.4128 66.8331C45.5554 66.5368 45.7544 66.2595 45.8566 65.9767C45.9777 65.6401 45.9373 65.3304 46.4295 65.3439C46.6366 65.3439 46.7631 65.1635 46.7388 64.913C46.7066 64.5764 47.0078 64.4552 47.2015 64.2748C47.6372 63.8466 48.2774 64.3475 48.74 63.9705C49.2026 63.5935 49.6814 63.5423 50.1763 63.9705C50.3027 64.0836 50.5501 64.0728 50.7438 64.0944C50.8438 64.0844 50.9448 64.0951 51.0405 64.1256C51.1363 64.1562 51.2248 64.206 51.3006 64.2721C51.7766 64.7784 52.2877 65.2523 52.7611 65.7613C52.899 65.9043 52.9795 66.0931 52.987 66.2918C52.9709 66.6661 53.1565 66.9058 53.3367 67.202C53.5169 67.4982 53.6056 67.7783 53.7805 68.0637C53.9553 68.3492 53.7563 68.7558 53.8504 69.0736C53.9957 69.5717 54.4341 69.9838 54.2673 70.5816C54.2673 70.6166 54.4717 70.7755 54.582 70.7755C55.3136 70.7755 56.0129 70.8213 56.7338 70.4039C57.304 70.0699 57.7801 70.6139 57.5972 71.2737C57.5111 71.5887 57.0323 72.0277 56.7445 72.0358C56.3276 72.0358 55.908 72.0358 55.4911 72.0358C55.4411 72.0265 55.3897 72.0289 55.3408 72.0427C55.2919 72.0566 55.2468 72.0815 55.2091 72.1157C55.1713 72.1498 55.142 72.1921 55.1233 72.2395C55.1045 72.2868 55.097 72.3378 55.1011 72.3885C55.1011 72.6174 55.0393 72.8275 54.8321 72.8598C54.5632 72.9029 54.1759 72.9567 54.0252 72.814C53.5922 72.367 53.2936 72.3643 52.8256 72.7898C52.632 72.9675 52.1317 72.7628 51.8385 72.8921C51.1736 73.204 50.4413 73.3447 49.7083 73.3014C49.243 73.2691 48.9821 73.8723 48.4172 73.7269C48.0044 73.6706 47.5863 73.6643 47.1719 73.7081C46.6851 73.7081 46.1955 73.7404 45.7114 73.7081C45.0874 73.6569 44.7081 74.3409 44.0007 74.1658C43.4117 74.0177 42.7554 74.1335 42.1179 74.1335H40.4503C39.8231 74.1708 39.1939 74.1645 38.5675 74.1147C38.0726 74.0447 37.9328 74.6075 37.4917 74.559C37.1474 74.524 36.7977 74.559 36.4507 74.559C36.0485 74.5877 35.6479 74.4837 35.3103 74.2628C35.0801 74.118 34.81 74.0501 34.5388 74.069C34.2676 74.0879 34.0094 74.1925 33.8014 74.3678C33.5513 74.5806 33.2904 74.4998 33.0429 74.5698C32.5534 74.7125 32.236 74.2736 31.8029 74.2601C31.534 74.7287 31.0364 74.4378 30.684 74.5806C30.2295 74.761 30.0358 74.0043 29.6808 74.3274C29.3715 74.5967 29.0541 74.5725 28.7259 74.5536C28.2714 74.524 27.7765 74.7287 27.3811 74.2386C27.2654 74.0931 26.8674 74.1847 26.6038 74.1389C25.7511 73.9989 24.8097 74.5078 24.0324 73.7888C24.0109 73.77 23.8199 73.8858 23.7634 73.972C23.5483 74.2412 23.2551 74.1093 22.9969 74.1416C22.9269 74.1416 22.8059 74.1632 22.7952 74.1416C22.5074 73.4441 21.7193 73.972 21.3642 73.5734C21.0092 73.1749 20.6138 73.3445 20.2238 73.3337C19.8607 73.9316 19.6025 73.5222 19.3389 73.2368C19.2623 73.1242 19.1585 73.0328 19.0372 72.9711C18.9159 72.9094 18.7809 72.8795 18.6449 72.884C18.2307 72.9163 17.8085 72.8625 17.3942 72.9002C16.98 72.9379 16.781 72.7224 16.4959 72.5286C16.3668 72.4424 16.2027 72.946 15.8638 72.8975C15.6594 72.8679 15.2963 72.9594 15.2613 72.8813C14.9547 72.1973 14.1693 72.7278 13.825 72.2943C13.4377 71.8069 12.7115 72.3454 12.3618 71.7261C12.2865 71.5941 11.8239 71.578 11.5899 71.6561C11.017 71.8526 10.8099 71.0986 10.2988 71.2225C9.78777 71.3464 9.5457 70.9694 9.27673 70.6839C9.19222 70.5767 9.08137 70.4933 8.95502 70.4419C8.82867 70.3904 8.69114 70.3727 8.55589 70.3904C8.28279 70.4374 8.00311 70.4301 7.73284 70.3689C7.6606 70.3076 7.60497 70.2291 7.57112 70.1406C7.53726 70.0521 7.52628 69.9565 7.53918 69.8626C7.77588 69.456 8.03947 69.0305 8.64196 69.1382C8.84925 69.1335 9.05665 69.1398 9.26328 69.157C9.4408 69.2136 9.5726 69.4263 9.75012 69.4829C10.0056 69.5529 10.2881 69.499 10.557 69.5771C10.7345 69.631 10.861 69.8464 11.0358 69.9299C11.2106 70.0134 11.4796 69.973 11.5737 70.0942C12.0256 70.6139 12.6039 70.3365 13.1257 70.3823C13.1956 70.3823 13.357 70.1857 13.3462 70.0915C13.3042 69.8546 13.331 69.6107 13.4235 69.3887C13.516 69.1667 13.6703 68.976 13.868 68.8393C13.9274 68.8023 13.9779 68.7526 14.016 68.6939C14.328 68.1283 14.5055 67.4821 14.9116 66.9812C15.3274 66.5098 15.7673 66.0604 16.2296 65.6347L17.7036 64.1375C18.0214 63.8674 18.3131 63.5681 18.575 63.2434C18.844 62.861 19.3281 62.9526 19.589 62.6564C19.8499 62.3601 20.2184 62.4302 20.5439 62.4409C20.7117 62.451 20.8796 62.4245 21.0362 62.3631C21.1927 62.3017 21.334 62.207 21.4503 62.0855C21.6655 61.8889 21.956 62.0101 22.1496 62.2524C22.276 62.4113 22.5154 62.5621 22.5181 62.7183C22.5181 63.1896 22.7333 63.3269 23.1529 63.2569C23.5967 63.6985 24.0297 64.1509 24.4977 64.5737C24.5724 64.646 24.6237 64.739 24.6453 64.8407C24.6669 64.9424 24.6576 65.0482 24.6188 65.1446C24.4439 65.7478 24.9335 66.1464 25.0303 66.6499C25.081 67.134 25.0874 67.6216 25.0491 68.1068C25.0491 68.6642 25.0814 69.2244 25.0491 69.7764C25.0142 70.2019 25.2966 70.3931 25.5386 70.622C26.012 71.0663 26.1115 71.5403 25.657 72.0438C25.5306 72.1839 25.4526 72.2781 25.5871 72.3401C25.9768 72.5644 26.3959 72.733 26.8324 72.8409C27.4471 72.8913 28.0645 72.8984 28.6802 72.8625C28.9492 72.2727 28.769 71.7153 28.8066 71.1767C28.8416 70.692 28.8066 70.2019 28.8066 69.7145C28.789 69.6144 28.7929 69.5118 28.8179 69.4134C28.843 69.315 28.8886 69.223 28.9519 69.1436C29.167 68.9147 29.2208 68.228 29.2208 67.5278C29.2208 67.1993 29.0998 66.8304 29.4495 66.5799C29.939 66.2299 30.1918 65.7721 30.0466 65.1608C29.9497 64.7488 30.2564 64.5495 30.4554 64.2802C30.5253 64.1913 30.4231 63.9732 30.4904 63.8843C30.9342 63.3027 31.7061 62.9714 31.8137 62.1312C31.8137 62.0855 31.9294 62.0074 31.9643 62.0181C32.4431 62.1689 32.6018 61.4796 33.0402 61.5981C33.4786 61.7165 33.7664 61.2318 34.1161 61.2022C35.0144 61.1268 35.9236 61.2022 36.8246 61.1672C37.3168 61.151 37.4567 61.2991 37.6181 61.8054C37.7795 62.3117 38.3255 62.6429 38.7531 62.993C39.0947 63.2623 39.0974 63.7416 39.3583 63.9867C39.7429 64.3556 39.4982 64.7945 39.6596 65.1284C39.8209 65.4624 40.1975 65.7451 40.4665 66.0467C40.2809 66.6957 40.6709 67.0862 41.1039 67.4497C41.2868 67.6005 41.2788 67.7917 41.3057 67.9883C41.381 68.5107 41.1039 69.0843 41.5423 69.561C41.9189 69.973 41.6338 70.4873 41.7172 70.9478C42.3654 71.4083 42.091 72.0761 42.2497 72.7682ZM36.9295 67.8618C36.639 67.509 36.6605 66.9489 36.1979 66.7146C35.625 66.4291 36.0876 65.8017 35.7622 65.4408C35.676 65.332 35.5766 65.2343 35.4663 65.15C35.0602 64.8807 35.0091 64.5037 35.0521 64.0728C35.0736 63.8251 34.9284 63.712 34.6971 63.6851C34.4317 63.6804 34.168 63.6434 33.9117 63.5746C32.7013 63.098 32.7228 63.098 32.123 64.2129C31.9038 64.5307 31.7325 64.8791 31.6147 65.2469C30.7916 65.694 30.8078 66.4695 30.8938 67.2262C30.9342 67.6409 30.6679 67.8321 30.4742 68.0987C30.4124 68.1876 30.4231 68.4515 30.4742 68.4892C31.0445 68.8231 30.5038 69.0978 30.4742 69.4102C30.3989 70.4416 30.4393 71.4837 30.4473 72.5205C30.4473 72.7763 31.0122 73.2826 31.2865 73.288C31.7707 73.288 32.2548 73.288 32.739 73.288C33.3899 72.4801 34.2829 73.0187 35.0548 72.8813C35.3992 72.8526 35.7453 72.8481 36.0903 72.8679C36.2867 72.8679 36.483 72.9217 36.6552 72.7224C36.9241 72.4074 37.2657 72.1516 37.5132 71.823C37.5645 71.7329 37.5818 71.6275 37.5621 71.5257C37.5423 71.4239 37.4868 71.3326 37.4056 71.2683C37.3181 71.2168 37.2452 71.1437 37.1939 71.0561C37.1425 70.9684 37.1145 70.869 37.1124 70.7674C37.1596 69.7951 37.0982 68.8205 36.9295 67.8618ZM19.199 70.1588C18.7821 70.3635 18.8897 70.8913 18.6073 71.1498C18.2791 71.4487 18.5132 71.5807 18.7014 71.7449C18.8467 71.8742 18.9381 72.0546 19.2017 72.0465C20.1001 72.025 20.9984 72.0465 21.8914 72.0465C22.3729 72.0465 22.8113 72.0169 23.1932 72.4451C23.3546 72.6282 23.6828 72.3993 23.8818 72.1758C24.0808 71.9523 24.3095 71.823 23.9437 71.586C23.7258 71.4433 23.7877 71.2252 23.7877 71.0286C23.7877 69.8545 23.715 68.6723 23.8119 67.5063C23.871 66.7873 23.0937 66.3456 23.3358 65.5916C23.3761 65.4678 23.0211 65.1392 22.7978 65.0288C22.5436 64.9378 22.2699 64.9155 22.0044 64.9642C21.7919 64.9857 21.7166 65.1635 21.6924 65.4004C21.6535 65.5937 21.5454 65.7661 21.3884 65.8852C20.7241 66.386 20.3717 67.1077 20.0651 67.8321C19.9849 68.0784 19.8355 68.2962 19.6348 68.4596C19.1425 68.7908 19.1694 69.254 19.199 70.1588ZM46.5317 72.4559C47.0831 72.7009 47.2364 71.8526 47.8228 72.0142C48.272 72.1381 48.7857 72.0438 49.2725 72.0358C49.6491 72.0358 49.832 71.6561 49.5415 71.3221C49.2107 70.9397 49.0843 70.6435 49.5254 70.3069C49.6894 70.1803 49.7002 70.1103 49.5254 70.0053C48.9525 69.6875 49.5738 68.8904 48.9471 68.5646C48.8422 68.508 48.8556 68.193 48.8449 67.9991C48.8314 67.6517 48.8449 67.3043 48.8449 66.9569C48.8449 66.6876 48.3069 66.2541 48.0003 66.1895C47.6937 66.1248 47.3978 66.2837 47.1934 66.7442C47.0589 67.035 46.7604 67.2047 46.7442 67.6113C46.7442 67.8806 46.2439 68.0691 46.3596 68.4811C46.1856 68.5937 46.0518 68.7586 45.9773 68.9522C45.9029 69.1457 45.8917 69.358 45.9454 69.5583C46.0691 70.3365 45.6764 70.9613 45.3402 71.5995C45.2384 71.7658 45.1648 71.9478 45.1223 72.1381C45.1223 72.235 45.238 72.437 45.3214 72.4478C45.7243 72.4749 46.1285 72.4776 46.5317 72.4559ZM40.2728 72.0384C40.4346 71.8223 40.5292 71.5634 40.545 71.2938C40.5608 71.0242 40.497 70.7559 40.3616 70.5223C40.1266 70.1942 40.0247 69.789 40.0765 69.3886C40.094 69.2192 40.0656 69.0482 39.9941 68.8937C39.9226 68.7392 39.8107 68.6069 39.6703 68.5107C39.8774 67.9722 39.0006 67.7864 39.2319 67.2397C39.4632 66.693 38.5998 66.5315 38.7989 65.9498C38.9979 65.3681 38.6671 64.9157 38.2152 64.5333C37.9708 64.3031 37.7526 64.0466 37.5643 63.7685C37.1958 63.3709 36.7451 63.0584 36.2436 62.8529C36.1785 62.8487 36.1137 62.8647 36.0581 62.8987C35.8698 62.9903 35.8644 63.0872 36.0231 63.1896C36.2921 63.3592 36.2625 63.6393 36.3485 63.887C36.405 64.0486 36.8031 64.0728 37.0183 64.2048C37.1017 64.2559 37.1178 64.4337 37.142 64.5602C37.1877 64.8295 37.0344 65.1204 37.3168 65.3196C37.6692 65.5647 37.4513 65.9713 37.5858 66.246C37.801 66.5864 38.0546 66.9008 38.3416 67.1831C38.3771 67.2377 38.3966 67.3011 38.3981 67.3663C38.4304 67.7702 38.4573 68.1741 38.4868 68.5781C39.0248 68.912 38.7827 69.4452 38.8069 69.8976C38.8567 70.5196 38.8567 71.1445 38.8069 71.7665C38.7531 72.2835 39.0759 72.5259 39.3798 72.7763C39.4631 72.8171 39.5539 72.8401 39.6465 72.8438C39.7392 72.8475 39.8315 72.8319 39.9178 72.7978C40.1598 72.7063 40.0334 72.4424 40.2674 72.0384H40.2728ZM15.6594 71.2036C15.9371 71.2198 16.2155 71.2198 16.4932 71.2036C16.8213 71.1686 17.1844 71.3545 17.5368 71.0205C17.5689 70.6268 17.5635 70.231 17.5207 69.8383C17.4292 69.3536 18.0102 69.0978 17.9214 68.7612C17.7493 68.1176 18.4782 67.8241 18.3706 67.2558C18.8682 66.9542 18.7498 66.2622 19.2044 65.9336C19.1856 65.2685 19.8311 65.0827 20.1323 64.6464C20.2104 64.536 20.3341 64.4552 20.4228 64.3475C20.6004 64.1348 20.4228 64.4687 20.3368 64.2048C20.3206 64.159 20.213 64.0998 20.1754 64.1159C19.7531 64.2694 19.3281 64.4256 18.922 64.6168C18.8413 64.6572 18.801 64.8457 18.7929 64.9696C18.766 65.36 18.9193 65.8636 18.2227 65.7774C17.7466 66.2352 17.2329 66.6122 16.9827 67.3151C16.8133 67.789 16.2565 68.1391 15.8423 68.508C15.3797 68.9147 15.3501 69.5852 14.831 69.9865C14.1639 70.525 14.1989 70.6489 14.3253 70.6866C14.5781 70.7647 14.8632 70.7432 15.1188 70.797C15.2317 70.8186 15.3312 70.9236 15.654 71.2036H15.6594ZM51.3302 65.9821C51.0297 65.8661 50.7443 65.7142 50.4802 65.5297C50.1655 65.2604 49.8293 65.3951 49.5039 65.3681C49.4393 65.3681 49.364 65.527 49.2914 65.6132C49.7943 65.8367 49.5281 66.5476 50.0283 66.7684C49.9181 67.2397 50.4829 67.4309 50.4829 67.8294C50.4863 68.2307 50.6235 68.6194 50.8729 68.9335C51.0693 69.2163 50.9106 69.7414 50.9106 70.1588C50.9106 70.2288 50.9106 70.2988 50.9106 70.3689C50.9294 70.6381 51.4055 71.1767 51.6933 71.1983C52.0397 71.2252 52.3877 71.2252 52.7342 71.1983C52.7945 71.177 52.8488 71.1414 52.8924 71.0945C52.9359 71.0476 52.9675 70.9908 52.9843 70.929C53.0437 70.7268 53.0437 70.5118 52.9843 70.3096C52.7732 69.9043 52.6211 69.4708 52.5325 69.0224C52.4733 68.6104 52.0564 68.2388 52.164 67.7298C51.7229 67.3689 51.8304 66.6984 51.3248 65.9821H51.3302Z" fill="black"/>
<path d="M45.4828 128.837C45.7249 129.6 44.8695 129.756 45.0417 130.343C45.1169 130.536 45.1315 130.747 45.0834 130.949C45.0354 131.151 44.927 131.333 44.7727 131.471C44.4338 131.77 44.9018 132.457 44.3128 132.731C44.2886 133.345 44.224 133.965 44.2509 134.576C44.2807 134.813 44.2485 135.053 44.1575 135.274C44.0665 135.494 43.9198 135.687 43.7318 135.834C43.5865 135.949 43.4036 136.168 43.4225 136.316C43.5354 137.169 42.8092 137.476 42.4004 137.988C41.8624 137.829 41.6661 138.605 41.1308 138.443C41.0154 138.614 40.8505 138.746 40.6582 138.82C40.4659 138.895 40.2554 138.909 40.055 138.86C39.786 138.817 39.7268 139.092 39.552 139.157C39.1835 139.294 38.8392 139.617 38.5191 139.652C38.0242 139.703 37.6558 139.935 37.2281 140.088C36.8569 140.218 36.4024 140.088 35.9881 140.121C35.4663 140.158 34.8638 139.895 34.4765 140.49C34.1914 140.366 34.0247 140.059 33.6239 140.099C33.0026 140.158 32.3732 140.115 31.7411 140.115C30.6867 140.115 30.6652 140.14 29.1294 139.378C28.7475 139.189 28.3225 139.485 27.9863 139.108C27.6501 138.731 27.2628 138.276 26.593 138.424C26.4693 138.451 26.3025 138.155 26.1223 138.082C25.7162 137.913 26.1035 137.18 25.4849 137.196C25.0626 137.196 24.8797 136.86 24.6968 136.609C24.4574 136.286 23.9571 136.504 23.8415 136.173C23.7642 135.838 23.7478 135.493 23.7931 135.152C23.8096 134.95 23.7832 134.747 23.7155 134.555C23.6478 134.364 23.5404 134.19 23.4004 134.043C23.1825 133.787 23.5402 133.219 23.0776 132.936C22.9135 132.839 22.935 132.756 23.1072 132.64C23.5402 132.341 23.2766 131.875 23.3762 131.498C23.4945 131.019 22.8839 130.876 22.9404 130.421C22.9808 130.09 23.0426 129.6 22.8624 129.435C22.4132 129.021 22.5934 128.549 22.5316 128.089C22.4482 127.44 22.8006 126.702 22.1523 126.161C22.1523 125.749 22.2707 125.251 22.0851 124.944C21.7704 124.429 22.8651 124.246 22.2572 123.745C21.878 123.433 22.3621 122.795 21.8269 122.453C21.6816 122.358 21.7085 121.952 21.7058 121.688C21.7058 120.856 21.7058 120.021 21.7058 119.186C21.1087 118.491 21.3078 117.651 21.2916 116.854C21.2755 116.057 21.3562 115.316 21.2674 114.562C21.1921 113.905 21.4987 113.399 21.722 112.863C21.8699 112.505 22.2357 112.236 22.1228 111.786C22.1071 111.682 22.1246 111.576 22.173 111.482C22.2213 111.389 22.2978 111.313 22.3917 111.266C22.9297 110.87 23.169 110.116 23.9706 110.041C24.1777 110.022 24.1427 109.696 24.2395 109.572C24.7466 108.971 25.1568 108.294 25.4553 107.566C25.5006 107.437 25.515 107.299 25.4972 107.164C25.4795 107.028 25.4301 106.898 25.3531 106.785C24.7721 105.913 24.4843 104.852 23.5859 104.173C23.2847 103.947 22.8543 103.713 22.97 103.188C22.6797 103.058 22.4008 102.904 22.1362 102.727C21.9345 102.574 21.6547 102.412 21.722 102.075C21.8457 101.437 21.453 100.934 21.3266 100.363C21.2083 99.8241 21.3266 99.2559 21.2943 98.7012C21.2974 98.3677 21.4131 98.045 21.6225 97.7856C21.7392 97.6158 21.7902 97.4093 21.766 97.2046C21.7417 97 21.6438 96.8111 21.4907 96.6734C21.4368 96.6333 21.3916 96.5826 21.3578 96.5245C21.3241 96.4663 21.3026 96.4019 21.2945 96.3351C21.2865 96.2684 21.2921 96.2006 21.311 96.1361C21.3299 96.0716 21.3618 96.0116 21.4046 95.9598C21.5339 95.8125 21.6367 95.644 21.7085 95.4616C21.8269 94.923 21.4396 94.2552 21.8726 93.8782C22.4105 93.4042 22.4912 92.6906 23.0184 92.2436C23.4219 91.9016 23.8253 91.5327 23.9248 90.951C23.9557 90.8533 24.0091 90.7641 24.0805 90.6907C24.152 90.6173 24.2396 90.5617 24.3364 90.5282C25.1056 90.4205 25.3907 89.7203 25.9502 89.3406C26.3267 89.0713 27.0072 89.0552 27.0583 88.5866C27.139 87.8515 27.5479 87.9134 28.0347 87.9188C28.266 87.9188 28.3897 87.7841 28.3978 87.531C28.3978 87.4098 28.4677 87.189 28.5215 87.1836C29.2128 87.1136 29.5356 86.5454 29.9605 86.128C30.0467 86.0238 30.1568 85.9419 30.2813 85.8894C30.4059 85.8369 30.5413 85.8153 30.676 85.8264C30.867 85.8452 31.0794 85.9045 31.2489 85.6971C31.4183 85.4898 31.6631 85.3201 31.8272 85.0993C32.4593 84.2672 33.441 83.971 34.2856 83.4836C34.3447 83.4485 34.3851 83.3435 34.4362 83.3435C35.4081 83.3328 36.379 83.3328 37.3491 83.3435C37.4002 83.3435 37.4944 83.4297 37.4944 83.4755C37.4944 84.3076 38.1372 84.0868 38.6187 84.2241C38.7857 84.2715 38.9339 84.3693 39.0432 84.5043C39.1525 84.6393 39.2175 84.8048 39.2292 84.9781C39.2349 85.1161 39.2789 85.2497 39.3564 85.3639C39.4339 85.4781 39.5417 85.5683 39.6676 85.6244C40.2056 85.9772 40.8188 86.1011 41.0125 86.9278C41.147 87.5256 42.1395 87.7141 42.161 88.5301C42.4999 88.8748 42.8173 89.2437 43.1777 89.5641C43.4978 89.8334 43.3714 90.3289 43.756 90.5874C44.4472 91.0506 44.805 91.7858 45.0578 92.5398C45.1678 92.7849 45.3303 93.0028 45.5339 93.178C45.9293 93.6304 46.5291 93.9536 46.3542 94.7318C46.3273 94.853 46.5506 95.1008 46.7147 95.1842C47.2015 95.4374 47.0751 96.0298 47.4355 96.361C47.7959 96.6923 47.5404 97.1474 47.5781 97.5459C47.6238 98.0656 47.4597 98.6231 47.9734 99.027C47.9301 99.0822 47.8794 99.1311 47.8228 99.1724C47.3091 99.474 47.8228 100.12 47.3925 100.465C47.2607 100.567 47.2741 100.837 47.1611 100.985C47.0026 101.157 46.8834 101.362 46.8119 101.585C46.7404 101.809 46.7182 102.045 46.7469 102.277C46.8572 102.902 46.0234 103.301 46.3273 103.985C46.3273 104.012 46.2493 104.084 46.2063 104.138C45.7921 104.655 45.0928 104.959 45.0282 105.735C44.536 106.225 44.0438 106.715 43.557 107.211C43.3445 107.424 43.288 107.561 43.5838 107.906C43.6927 108.035 43.7708 108.188 43.8123 108.352C43.8537 108.516 43.8575 108.688 43.8232 108.853C43.7587 109.508 44.0626 109.882 44.6544 110.065C45.6092 110.359 46.2924 111.105 47.1611 111.557C47.6991 111.826 47.8309 112.535 47.9681 113.076C48.1267 113.703 47.9842 114.35 48.3742 115.004C48.7642 115.658 48.1994 116.426 47.8659 117.04C47.6399 117.455 47.4651 117.673 47.8416 118.079C48.1375 118.394 48.0595 118.804 47.8551 119.2C47.1611 120.546 47.1074 120.559 47.188 121.623C47.2226 122.289 47.0648 122.951 46.7335 123.53C46.5129 123.947 46.2171 124.319 46.3327 124.825C46.4645 125.401 46.1014 125.832 45.9427 126.33C45.8028 126.772 45.9858 127.308 45.8862 127.774C45.8136 128.043 45.3644 128.229 45.4828 128.837ZM22.9539 96.054C22.9297 96.2479 23.0346 96.4688 22.8086 96.6196C22.6381 96.7403 22.5209 96.9225 22.4818 97.1279C22.4427 97.3333 22.4846 97.5459 22.5988 97.721C22.8547 98.035 22.9834 98.4339 22.9592 98.8385C22.9592 99.4579 22.9861 100.077 23.0023 100.697C23.5402 101.152 23.5402 101.884 23.9006 102.409C24.2449 102.891 24.4198 103.468 24.9012 103.89C25.3343 104.27 25.5414 104.908 25.9771 105.301C26.5312 105.808 26.827 106.333 26.7275 107.092C26.6858 107.509 26.6858 107.928 26.7275 108.344C26.7437 108.598 26.5365 108.689 26.4585 108.862C26.2568 109.279 26.1143 109.704 25.7243 110.025C25.2401 110.418 24.8824 110.981 24.3794 111.317C23.8146 111.694 23.9329 112.483 23.36 112.785C22.7441 113.108 23.1906 113.83 22.779 114.22C22.7135 114.298 22.6691 114.39 22.6499 114.49C23.1879 114.837 22.9646 115.37 22.9646 115.836C22.9646 116.359 23.1637 116.946 22.5908 117.358C22.534 117.443 22.5132 117.548 22.5328 117.648C22.5524 117.749 22.6109 117.838 22.6957 117.896C23.1018 118.12 22.8705 118.68 23.2713 118.928C23.3304 119.003 23.3686 119.092 23.3818 119.187C23.395 119.281 23.3829 119.378 23.3466 119.466C22.8086 120.145 22.8301 120.791 23.325 121.475C23.4461 121.642 23.4326 123.401 23.4004 123.81C23.3762 124.144 23.3197 124.497 23.6693 124.742C23.9383 124.938 23.8092 125.259 23.7984 125.514C23.7823 125.902 24.3579 125.983 24.2207 126.384C24.1227 126.607 24.0057 126.82 23.8711 127.022C24.3149 127.292 24.2261 127.723 24.2261 128.127C24.2261 128.531 24.3149 128.988 24.2073 129.373C24.0459 129.95 24.7613 130.149 24.6511 130.669C24.6302 130.802 24.6408 130.938 24.6819 131.066C24.723 131.194 24.7935 131.311 24.8878 131.407C25.2051 131.824 25.1863 132.255 24.7909 132.686C24.5462 132.955 24.5381 133.063 24.8205 133.372C25.1621 133.747 25.068 134.126 25.0142 134.517C24.9846 134.711 24.4762 134.786 24.8528 135.112C25.2294 135.438 25.4956 135.874 25.8991 136.119C26.3536 136.388 26.8297 136.604 27.2036 137.013C27.3569 137.186 27.7039 137.175 27.8922 137.331C28.2983 137.673 28.9358 137.646 29.2101 138.203C29.3527 138.494 29.662 138.448 29.9363 138.451C30.2107 138.454 30.5469 138.387 30.7432 138.519C31.0248 138.758 31.3823 138.89 31.7519 138.89C32.1214 138.89 32.4789 138.758 32.7605 138.519C32.9057 138.427 33.0759 138.382 33.2474 138.391C33.419 138.4 33.5834 138.463 33.718 138.57C33.8075 138.67 33.9176 138.749 34.0406 138.803C34.1636 138.856 34.2967 138.882 34.4308 138.879C34.8447 138.82 35.2649 138.82 35.6788 138.879C36.1791 138.992 36.3351 138.422 36.7547 138.44C37.0237 138.454 37.3142 138.416 37.5885 138.44C37.9839 138.489 38.0485 137.902 38.46 138.015C39.2454 137.417 40.3804 137.579 41.0851 136.803C42.126 136.879 42.0453 135.828 42.508 135.33C42.6855 135.139 42.6129 134.668 42.5752 134.334C42.5295 133.881 43.062 133.736 43.0298 133.257C42.9948 132.68 42.7608 131.991 43.4171 131.552C43.4171 131.135 43.5112 130.69 43.4009 130.305C43.2315 129.726 44.033 129.592 43.8636 129.004C43.8014 128.808 43.7923 128.599 43.8372 128.398C43.8821 128.197 43.9793 128.011 44.1191 127.86C44.3343 127.615 44.1917 127.076 44.2697 126.683C44.302 126.505 44.5199 126.371 44.5871 126.193C44.6735 125.876 44.8205 125.579 45.0201 125.318C45.273 125.049 44.8937 124.494 45.3322 124.203C45.3886 124.165 45.472 124.109 45.4747 124.058C45.4935 123.643 45.5984 123.199 45.4747 122.822C45.2972 122.237 46.1283 122.086 45.9212 121.524C45.819 121.241 46.0126 121.033 46.1902 120.802C46.4591 120.463 45.7437 120.374 45.9024 119.994C45.9535 119.876 45.8513 119.671 45.9212 119.587C46.5102 118.882 46.2951 118.044 46.3246 117.247C46.3381 116.838 46.3381 116.485 46.6743 116.127C47.0589 115.718 46.3515 115.481 46.322 115.09C46.3141 114.989 46.3352 114.887 46.3828 114.797C46.4304 114.707 46.5026 114.632 46.5909 114.581C46.7658 114.455 46.7658 114.401 46.5909 114.274C46.5026 114.224 46.4304 114.149 46.3828 114.059C46.3352 113.969 46.3141 113.867 46.322 113.765C46.36 113.599 46.3518 113.425 46.2983 113.262C46.2447 113.1 46.1478 112.955 46.018 112.844C45.5432 112.431 45.0941 111.988 44.6732 111.519C44.5779 111.423 44.4599 111.353 44.3302 111.314C44.2005 111.275 44.0631 111.27 43.9308 111.299C43.444 111.339 43.3929 111.07 43.3687 110.666C43.3687 110.512 43.1212 110.318 42.9437 110.232C42.4461 109.99 42.6398 109.37 42.239 109.037C42.0588 108.886 42.2013 108.385 42.1341 108.054C42.0265 107.529 42.4596 107.189 42.5268 106.761C42.594 106.333 43.1454 106.163 42.976 105.684L43.8125 104.776C43.6376 104.095 44.2993 104.302 44.5468 104.071C44.7431 103.89 45.039 103.656 45.0336 103.454C45.0336 103.039 45.472 102.932 45.4774 102.582C45.4481 102.235 45.4553 101.887 45.4989 101.542C45.5715 101.241 45.94 101.084 45.9131 100.667C45.8593 99.8349 45.897 98.9974 45.897 98.1626C45.897 97.7452 46.0395 97.2443 45.8593 96.9319C45.6522 96.5684 45.4048 96.2722 45.4828 95.8305C45.55 95.4374 45.0659 95.362 45.0336 94.9634C45.0013 94.5649 44.4957 94.1986 44.6463 93.6735C44.2966 93.1807 43.9604 92.6906 43.3337 92.4886C43.1364 92.4412 42.9576 92.3364 42.8197 92.1873C42.6819 92.0383 42.5912 91.8517 42.5591 91.6511C42.4676 91.0264 41.6258 90.8729 41.6365 90.1431C41.6365 89.9492 41.26 89.7607 41.0824 89.548C40.8296 89.2491 40.5203 89.0471 40.4261 88.5597C40.332 88.0723 39.5601 87.8999 39.6031 87.2402C39.2104 86.847 38.8715 86.3623 38.4089 86.0849C37.8858 85.7976 37.4022 85.4437 36.9699 85.032C36.3889 84.4342 35.7999 84.3884 34.9876 84.8381C34.646 85.0266 34.2264 85.0374 33.9709 85.4198C33.5486 86.0553 32.817 86.2896 32.1903 86.645C31.7411 86.8982 31.1413 86.987 30.8454 87.364C30.2725 88.075 29.3365 88.2689 28.7851 88.9798C28.7184 89.0538 28.6342 89.1098 28.5402 89.1428C28.4462 89.1757 28.3455 89.1845 28.2472 89.1683C27.9002 89.1683 27.607 89.1279 27.5317 89.6422C27.4914 89.925 27.1363 90.162 26.9239 90.4205C26.2326 90.3424 26.0632 91.021 25.6301 91.3199C25.3396 91.5165 25.5494 91.9635 25.1944 92.1897C24.8673 92.4487 24.5672 92.7401 24.2987 93.0595C24.0055 93.3558 23.7097 93.6493 23.4138 93.9455C23.6371 94.608 22.9081 95.02 22.9539 96.054Z" fill="black"/>
<path d="M51.4271 85.0908C51.3249 85.3332 51.376 85.5621 51.3141 85.5971C50.9107 85.8287 50.994 86.3269 50.7304 86.615C50.4023 86.9759 50.0204 87.2882 49.7084 87.6599C49.4394 87.9884 49.0951 87.9103 48.7643 87.9049C48.3635 87.9049 48.5168 87.4633 48.3823 87.3367C47.9332 86.9058 47.9923 86.1895 47.4033 85.8341C47.1953 85.7175 47.0168 85.5546 46.8815 85.3581C46.7463 85.1615 46.6579 84.9365 46.6233 84.7003C46.6044 84.5738 46.0853 84.5657 45.9643 84.388C45.7303 84.0325 45.9401 83.3593 46.3032 83.1277C47.1666 82.5729 48.0919 82.2202 49.1139 82.5891C49.3426 82.6699 49.399 82.8449 49.7299 82.6564C50.3216 82.3144 50.5556 82.3871 51.4002 82.7776C51.54 82.8422 51.5562 82.8234 51.7095 82.7372C52.2824 82.4168 52.5164 82.4841 52.8553 82.9634C52.9559 83.1353 53.0069 83.3318 53.0026 83.531C52.9983 83.7302 52.939 83.9243 52.8311 84.0918C52.5513 84.4011 52.254 84.6942 51.9408 84.9696C51.8601 85.0423 51.6718 84.9858 51.4271 85.0908ZM48.1994 83.7444C48.151 83.7901 48.0542 83.8655 48.0623 83.8844C48.2329 84.277 48.4316 84.6568 48.6567 85.0208C49.0144 85.5594 49.2968 85.5432 49.7864 85.08C50.0311 84.8511 50.2866 84.6357 50.5368 84.4122C50.3835 84.2587 50.2678 84.1671 50.1898 84.0621C50.0123 83.8548 49.8993 83.712 49.5954 83.9867C49.2404 84.2883 49.1892 84.2345 48.1941 83.7336L48.1994 83.7444Z" fill="black"/>
<path d="M29.7346 83.0013C30.1085 82.8882 30.399 82.8371 30.4635 83.2248C30.5523 83.75 30.4017 84.2643 29.9256 84.434C29.4227 84.6137 28.9808 84.932 28.6507 85.3522C28.215 85.8908 27.4 85.8908 27.0369 86.5156C26.9078 86.7472 26.6603 86.6798 26.4747 86.6475C26.0524 86.5721 25.883 86.898 25.614 87.0946C25.345 87.2911 25.614 87.854 25.1595 87.9024C24.8474 87.9294 24.6914 88.134 24.4628 88.2444C24.1185 88.4114 23.6209 88.3575 23.7635 88.9715C23.2713 89.3027 23.0696 89.9787 22.3272 90.0487C22.0932 90.0675 21.8377 90.4957 21.7086 90.7892C21.6306 90.9696 21.6144 91.2093 21.4396 91.2928C20.8102 91.5863 20.9501 92.3915 20.4229 92.7524C20.197 92.9058 20.041 93.159 19.8231 93.3232C19.7623 93.3545 19.6955 93.3722 19.6272 93.3749C19.5589 93.3777 19.4908 93.3656 19.4277 93.3394C19.3144 93.2772 19.2303 93.1726 19.1937 93.0486C18.9893 92.343 19.4815 91.7775 19.5756 91.1393C19.6456 90.6653 19.6805 90.3476 20.2481 90.4014C20.2938 90.4014 20.3368 90.2883 20.396 90.2668C20.8909 90.0675 20.665 89.2812 21.1599 89.2058C21.6548 89.1304 21.8296 88.7722 22.1255 88.5191C22.3362 88.3542 22.4865 88.1241 22.5531 87.8647C22.6284 87.5712 22.9351 87.1403 23.1637 87.1269C23.7474 87.0892 23.9061 86.5129 24.3176 86.3755C24.7611 86.2344 25.155 85.969 25.4526 85.6108C25.5188 85.5358 25.6028 85.4787 25.6968 85.4448C25.7908 85.4109 25.8919 85.4013 25.9906 85.4169C26.1234 85.4424 26.2605 85.434 26.3893 85.3926C26.5181 85.3512 26.6344 85.2781 26.7275 85.1799C27.0476 84.8217 27.3677 84.302 27.7685 84.2158C28.2418 84.1108 28.4274 83.7769 28.7556 83.5642C29.0488 83.3783 29.3446 83.2572 29.7346 83.0013Z" fill="black"/>
<path d="M18.4702 82.3742C18.6258 82.3765 18.7789 82.4135 18.9185 82.4824C19.058 82.5514 19.1805 82.6505 19.2771 82.7727C19.339 82.8528 19.4291 82.9064 19.529 82.9224C19.629 82.9384 19.7312 82.9157 19.815 82.8589C20.2158 82.4146 20.5735 82.2961 20.9877 82.8239C21.0101 82.8475 21.0373 82.8659 21.0675 82.878C21.0977 82.8901 21.1301 82.8955 21.1626 82.8939C21.9695 82.8293 22.3998 83.1363 22.5827 83.9711C22.7038 84.5231 22.615 84.9217 22.0448 84.9782C21.9061 84.9903 21.7666 84.9903 21.6279 84.9782C21.2755 84.9567 20.9581 84.9782 20.7134 85.3014C20.318 85.8399 19.6052 86.1281 19.538 86.9036C19.1318 87.0975 18.7311 87.3076 18.3142 87.4745C18.2308 87.5068 18.0775 87.3937 17.9672 87.3291C17.5799 87.1083 17.6149 86.5886 17.3539 86.3489C17.093 86.1092 17.2114 85.6703 16.9317 85.4683C16.582 85.2152 16.6627 84.8678 16.6627 84.5312C16.6627 84.2807 16.5336 84.1407 16.2996 84.1515C15.8746 84.173 15.7186 83.8149 15.4927 83.5806C15.4529 83.4964 15.4323 83.4044 15.4323 83.3113C15.4323 83.2182 15.4529 83.1262 15.4927 83.042C15.7321 82.4873 16.3695 82.4711 16.8053 82.1857C17.241 81.9002 17.8731 81.9406 18.4702 82.3742ZM18.1555 83.7206C18.0882 83.893 17.9161 84.1057 17.9672 84.2296C18.1158 84.6415 18.3262 85.0283 18.5912 85.3768C18.7499 85.568 18.4782 85.3902 18.7122 85.2421C18.8736 85.1425 18.9543 84.9351 19.2072 84.9728C19.5972 85.0213 19.6375 84.7358 19.6079 84.4612C19.6095 84.4113 19.5995 84.3618 19.5787 84.3165C19.5578 84.2713 19.5267 84.2315 19.4878 84.2004C19.4488 84.1693 19.4032 84.1477 19.3545 84.1373C19.3058 84.127 19.2553 84.1281 19.2072 84.1407C18.8709 84.2053 18.7822 83.8741 18.1555 83.7341V83.7206Z" fill="black"/>
<path d="M54.5578 87.3883C53.8073 87.9969 53.6863 88.9098 52.9977 89.3837C52.9655 89.4053 52.9789 89.5184 52.9977 89.583C53.1 90.0435 52.8928 90.3586 52.5593 90.6602C52.2258 90.9618 51.8869 91.3468 51.5265 91.7212C51.3023 91.4577 51.0982 91.1777 50.9159 90.8837C50.6039 90.2832 51.4028 89.9681 51.349 89.3999C51.3355 89.2652 51.5883 89.0713 51.7551 88.9609C52.1586 88.6916 52.1962 88.3066 52.1639 87.8838C52.1548 87.8336 52.1578 87.7819 52.1726 87.733C52.1874 87.6842 52.2137 87.6396 52.2492 87.603C52.2847 87.5664 52.3285 87.5388 52.3768 87.5225C52.4251 87.5062 52.4766 87.5018 52.527 87.5095C53.0166 87.5229 53.5169 87.5741 53.455 86.8362C53.7697 86.637 53.7643 86.2707 53.9149 85.988C54.0656 85.7052 54.3883 85.4952 54.625 85.2447C55.1791 84.6657 55.8434 84.1837 56.1043 83.3597C56.139 83.261 56.1958 83.1715 56.2704 83.0982C56.345 83.0249 56.4354 82.9697 56.5347 82.9369C56.6931 82.9419 56.848 82.8905 56.9721 82.7919C57.0962 82.6933 57.1814 82.5539 57.2125 82.3983C57.3101 82.1485 57.4568 81.9209 57.6439 81.7289C57.8311 81.5369 58.0548 81.3846 58.3018 81.2808C58.8398 81.1219 59.0065 80.6318 59.4234 80.4729C59.7399 80.3858 60.0756 80.3999 60.3837 80.5133C60.6015 80.5779 60.5504 81.5716 60.3272 81.5904C59.8107 81.6308 59.6198 81.8597 59.6225 82.3256C59.1383 82.6649 58.9258 83.3839 58.1808 83.3516C57.5568 84.1352 56.5508 84.6065 56.2765 85.6756L54.5578 87.3883Z" fill="black"/>
<path d="M37.6558 56.0588C37.0587 55.6225 36.8489 54.8873 36.1066 54.9035C36.0731 54.8952 36.0421 54.8788 36.0163 54.8558C35.9905 54.8328 35.9707 54.8039 35.9586 54.7715C35.8173 54.3173 35.8173 53.8308 35.9586 53.3766C36.0001 53.3281 36.0532 53.291 36.113 53.2689C36.1728 53.2467 36.2372 53.2402 36.3002 53.2501C36.7418 53.5433 37.2555 53.7091 37.7849 53.7294C37.8791 53.7294 37.9248 54.2249 38.0889 54.3999C38.8043 55.1593 39.5548 55.8864 40.2917 56.6243C40.4881 56.8208 40.6871 57.0147 40.8808 57.214C41.4644 57.8091 41.4456 58.2454 40.8162 58.9348C40.7705 58.9859 40.7194 59.0344 40.6575 59.0964C40.3159 58.749 40.0281 58.3154 39.6247 58.0784C39.1701 57.8091 39.4122 57.0821 38.8581 57.0013C38.304 56.9205 38.148 56.4277 37.6558 56.0588Z" fill="black"/>
<path d="M50.0715 95.8439C49.8267 95.4023 49.4717 95.1465 49.7003 94.7883C49.8671 94.5325 50.0634 94.1851 50.4722 94.1743C50.7224 94.1743 51.3141 94.6779 51.3195 94.9418C51.3195 95.4965 51.3195 96.054 51.3195 96.6114C51.3195 97.0961 50.9456 97.3115 50.596 97.4947C50.4857 97.5539 50.1064 97.395 50.093 97.3008C50.0554 96.8161 50.0482 96.3295 50.0715 95.8439Z" fill="black"/>
<path d="M18.887 97.4113C18.8198 96.8243 18.8144 96.3772 18.3787 96.0164C18.2012 95.8683 18.4594 95.4482 18.7095 95.4266C19.5675 95.3512 20.0544 95.7713 20.0328 96.5361C20.0086 97.0639 19.7155 97.3413 18.887 97.4113Z" fill="black"/>
<path d="M44.1271 60.6584C43.105 60.4753 42.438 60.1064 42.1717 59.7428C42.0265 59.5463 42.1986 59.0992 42.4407 59.0965C42.8388 59.0965 43.2772 58.9861 43.5381 59.4332C44.3315 59.452 44.2643 60.0121 44.1271 60.6584Z" fill="black"/>
</svg>
