<svg width="110" height="306" viewBox="0 0 110 306" fill="none" xmlns="http://www.w3.org/2000/svg">
<path d="M102.919 198.002C103.258 198.556 103.607 199.047 103.487 199.225C102.937 199.949 102.657 200.843 102.694 201.753C102.747 207.018 102.726 212.284 102.694 217.549C102.694 218.374 102.694 219.158 103.493 219.638C102.267 220.511 102.778 221.801 102.72 222.94C102.663 224.078 102.856 225.128 102.663 226.173C102.47 227.218 103.837 227.562 103.566 228.696C103.326 229.715 103.514 230.843 103.514 231.924V234.755C103.514 235.701 103.581 236.651 103.514 237.592C103.446 238.532 104.28 238.918 104.755 239.514C105.308 240.203 105.387 240.559 104.672 241.165C104.253 241.488 103.925 241.914 103.719 242.402C103.513 242.89 103.437 243.423 103.498 243.949C103.623 245.829 103.498 247.725 103.55 249.616C103.55 250.248 103.174 251.042 103.816 251.507C104.536 252.03 104.234 252.954 104.922 253.513C106.393 254.704 106.388 256.156 105.256 257.634C105.434 258.533 104.614 258.982 104.312 259.672C103.754 260.946 103.268 262.283 102.121 263.229C100.722 264.394 99.6579 265.909 97.8893 266.708C96.8458 267.183 96.5641 268.599 96.3241 269.643C96.2064 270.412 95.8397 271.12 95.2806 271.66C94.7589 272.119 94.0597 272.542 93.9137 273.107C93.7922 273.743 93.4704 274.323 92.9954 274.762C93.3867 275.807 91.7641 276.183 92.1293 277.238C91.4049 277.969 90.7961 278.805 90.3241 279.72C89.7554 280.869 88.5033 281.678 87.5537 282.629C87.0737 283.11 86.6042 283.977 86.119 283.982C85.0755 283.982 84.6842 284.666 84.1886 285.225C83.6929 285.784 82.7747 285.701 82.159 286.296C81.6895 286.756 80.5938 286.552 80.8182 287.738C80.8182 287.811 80.6408 288.009 80.5469 288.009C79.2895 288.009 78.8095 289.091 78.0165 289.738C76.1956 289.451 74.9904 290.908 73.4252 291.347C73.0548 291.452 72.4078 291.29 72.2983 291.483C71.7766 292.397 70.4461 291.911 70.0183 292.893C69.0865 292.867 68.1539 292.904 67.227 293.003C66.241 293.17 65.5001 294.163 64.3053 293.834C64.0132 293.755 63.8201 294.356 63.8619 294.784C63.9453 295.678 63.8619 296.43 62.6358 296.231C61.8741 296.994 61.1489 297.798 60.3402 298.509C59.3854 299.35 58.8011 300.253 58.9837 301.611C59.1871 303.105 58.6811 304.171 56.9698 304.375C56.6515 304.411 56.3333 304.897 56.1194 305.205C55.5976 306.02 54.7889 305.926 53.9855 305.957C53.659 305.991 53.3292 305.946 53.024 305.825C52.7188 305.704 52.4473 305.511 52.2325 305.263C51.3299 304.265 50.3386 303.34 49.2951 302.296V300.807C49.2951 300.285 49.3212 299.726 49.2951 299.183C49.3179 298.532 49.2405 297.882 49.0655 297.255C48.8829 296.795 48.356 296.461 47.9595 296.095C47.4377 295.641 47.8447 294.795 47.1195 294.398C46.6656 294.152 46.3577 293.64 45.9508 293.29C45.7734 293.134 45.4291 292.94 45.283 293.003C44.2134 293.369 43.6604 292.319 42.7839 292.146C41.9074 291.974 41.3126 291.269 40.2796 291.274C39.4016 291.166 38.5912 290.747 37.9944 290.094C37.2327 289.331 36.0744 290.266 35.4744 289.273C35.1092 288.673 34.264 289.044 33.7736 288.443C33.2831 287.842 32.3284 288.03 31.8379 287.278C31.4727 286.73 30.8571 286.348 30.4397 285.826C29.4538 284.617 28.1264 283.734 26.6311 283.293C25.7598 283.021 25.4676 282.248 24.7998 281.835C24.132 281.422 23.0624 281.736 23.4067 280.451C22.7441 279.777 22.0502 279.135 21.4294 278.429C20.9337 277.855 20.1981 277.51 20.1198 276.528C20.0416 275.546 18.6746 276.178 18.3094 275.342C18.1633 275.003 17.8555 274.778 17.6938 274.381C17.1879 273.236 16.5636 272.147 15.8312 271.132C15.2311 270.142 14.5319 269.217 13.7443 268.369C13.2342 267.955 12.8989 267.364 12.8051 266.713C12.7425 266.191 11.9599 265.71 11.4486 265.276C10.7756 264.702 10.3687 263.783 9.22084 263.777C8.83476 263.777 8.45389 263.072 8.07303 262.691C7.78608 262.404 7.2226 262.069 7.26434 261.839C7.53564 260.34 5.8348 260.116 5.51132 258.878C5.0835 257.222 4.78611 257.311 4.79133 256.355C4.86458 255.685 4.86458 255.008 4.79133 254.338C4.48873 253.022 5.3548 252.374 6.11131 251.627C6.48174 251.267 6.78957 250.849 7.4313 250.875C7.83825 250.875 8.07825 250.577 8.06781 250.071C8.03129 248.723 8.02607 247.37 8.06781 246.022C8.06781 245.5 7.7026 245.349 7.47304 245.051C7.37846 244.959 7.30565 244.846 7.25992 244.722C7.21418 244.598 7.19667 244.466 7.20867 244.334C7.22067 244.202 7.26187 244.075 7.32927 243.962C7.39667 243.848 7.48857 243.751 7.59825 243.677C7.79838 243.502 7.94661 243.276 8.02668 243.023C8.10675 242.769 8.11557 242.499 8.05216 242.241C7.87999 240.543 8.49563 238.757 7.62956 237.153C7.36347 236.657 6.98261 236.108 7.42608 235.784C8.39129 235.037 7.94781 234.071 8.04694 233.173C8.14175 232.782 8.12178 232.371 7.98943 231.992C7.85708 231.612 7.61798 231.278 7.30086 231.031C7.20349 230.862 7.16994 230.663 7.20633 230.472C7.24271 230.28 7.34661 230.108 7.49912 229.986C7.68597 229.809 7.8603 229.618 8.02085 229.417C6.64348 228.55 7.52521 227.798 7.96868 226.805C8.31824 226.016 7.99999 224.945 8.05216 224C8.07847 223.674 8.0317 223.346 7.91525 223.041C7.7988 222.735 7.61563 222.46 7.37912 222.234C6.98782 221.822 7.21217 221.258 7.68173 220.876C8.31824 220.354 8.03129 219.628 8.0052 219.001C8.0052 218.505 7.20695 218.369 7.21739 217.716C7.24869 215.689 7.21739 213.668 7.25391 211.641C7.25391 211.443 7.59825 211.255 7.77564 211.056C8.29737 210.481 8.07303 209.761 7.96346 209.16C7.87999 208.721 7.18087 208.517 7.21217 207.854C7.28 206.381 7.27478 204.908 7.30086 203.435C7.91651 202.866 8.4852 202.291 7.62434 201.476C7.52521 201.382 7.37912 201.298 7.34782 201.189C7.17565 200.551 6.93043 199.679 7.4313 199.329C8.67824 198.452 7.04522 198.117 7.19652 197.449C7.34782 196.78 7.09217 196.132 7.77042 195.647C8.29216 195.27 8.07825 194.602 7.99999 194.147C7.86434 193.291 7.01913 192.695 7.18608 191.64C7.28446 190.563 7.29668 189.48 7.2226 188.402V182.718C8.65215 180.822 7.87999 178.628 8.0052 176.57C8.0939 175.165 8.30781 173.687 7.25391 172.428C7.15522 172.251 7.10342 172.051 7.10342 171.848C7.10342 171.645 7.15522 171.446 7.25391 171.268C8.3652 170.166 8.01564 168.803 8.02085 167.523C8.05216 163.611 8.02085 159.688 8.02085 155.775C8.02085 154.856 8.20868 153.879 7.22782 153.263C7.16521 153.221 7.22782 153.007 7.22782 152.871C7.12869 152.046 8.64172 151.628 7.95303 150.834C7.69122 150.544 7.49137 150.203 7.36576 149.833C7.24015 149.463 7.19144 149.071 7.2226 148.682C7.2226 147.062 7.3113 145.438 7.2226 143.824C7.14434 142.69 7.79651 141.384 6.60696 140.434C6.64013 140.236 6.73301 140.054 6.87304 139.911C7.50434 139.389 7.21739 138.668 7.23826 138.036C7.26956 136.856 6.66435 135.915 5.46958 135.947C4.27482 135.978 3.66961 134.965 2.61571 134.797C1.9218 134.693 0.763558 132.066 0.753123 131.178C0.753123 129.825 0.753123 128.477 0.753123 127.124C0.738594 126.348 0.956671 125.586 1.3792 124.935C1.67492 124.31 2.181 123.809 2.80875 123.52C3.85221 123.029 4.66612 121.953 5.41741 121.007C5.8974 120.37 6.77913 120.72 7.08174 120.156C7.38434 119.592 7.35304 118.887 7.9739 118.505C7.69738 117.46 9.1478 117.069 8.87128 116.04L10.833 114.018C11.4434 113.381 12.226 112.859 12.226 111.814C13.4051 111.004 13.9216 109.432 15.5547 109.087C16.1181 108.967 16.5512 108.251 17.0364 107.802C18.0103 106.897 18.9842 105.991 19.9581 105.086C21.3407 105.264 21.4868 103.174 22.932 103.467C23.5163 102.944 24.038 102.072 24.7059 101.931C25.3737 101.79 25.8224 101.053 26.3702 101.09C27.2884 101.153 27.565 100.045 28.4571 100.197C28.838 100.249 29.1041 99.8467 29.0519 99.3661C28.9997 98.8856 29.3441 98.7759 29.7249 98.5826C30.8414 98.0132 32.0049 97.5744 33.0275 96.7335C34.2373 95.8161 35.5796 95.0887 37.0083 94.5761C37.7805 94.2732 39.0065 94.8686 38.8605 93.2702C38.8605 93.171 39.2622 92.9412 39.4918 92.9255C40.1634 92.9518 40.836 92.9361 41.5056 92.8785C41.97 92.7792 42.3456 92.1942 42.7995 92.142C43.5404 92.0531 43.7282 91.6562 43.6291 91.0972C43.3161 89.3421 45.0534 87.9631 44.4482 86.1662C45.2934 85.5028 45.0325 84.0298 46.0812 83.6276C47.7716 82.9798 48.7942 81.6008 50.036 80.4464C49.9734 79.9659 48.9195 79.7204 49.8116 78.9786C49.9249 78.9083 50.0183 78.8103 50.0831 78.6937C50.1479 78.5772 50.182 78.446 50.182 78.3126C50.182 78.1792 50.1479 78.048 50.0831 77.9315C50.0183 77.8149 49.9249 77.7169 49.8116 77.6466C49.3254 77.2952 48.944 76.8176 48.7087 76.2654C48.4734 75.7132 48.3929 75.1071 48.476 74.5125C48.5986 73.4364 48.5986 72.3499 48.476 71.2739C48.3456 70.156 47.4325 69.2419 47.6569 67.9569C47.7561 66.8814 47.7561 65.799 47.6569 64.7235C47.6569 64.4728 47.6569 64.0654 47.5003 64.0027C46.243 63.4072 47.3751 61.9133 46.3838 61.1872C45.6586 60.6649 46.0238 60.0328 46.5873 59.5418C46.6775 59.4521 46.7612 59.3561 46.8377 59.2545C45.476 58.2516 46.1751 56.7942 46.0708 55.5301C45.9664 54.266 46.0708 53.1012 46.0343 51.8736C45.9978 50.6461 44.9386 49.8678 45.1943 48.5567C45.4446 47.5183 45.3884 46.4295 45.0325 45.4225C44.7039 44.7174 44.5108 44.4353 45.1473 43.9286C45.2192 43.8214 45.2634 43.698 45.2762 43.5695C45.2889 43.441 45.2698 43.3114 45.2204 43.1921C44.2239 42.3981 44.4169 41.3012 44.4482 40.2669C44.4429 40.0681 44.3876 39.8738 44.2872 39.7021C44.1869 39.5304 44.0449 39.3869 43.8743 39.2849C43.4882 38.9558 43.4934 38.3551 43.6708 38.2402C44.4273 37.6603 44.4534 36.9238 44.443 36.0985C44.4842 35.7713 44.4485 35.439 44.3389 35.1279C44.2294 34.8169 44.0488 34.5358 43.8117 34.3068C43.5926 34.1136 43.6343 33.5755 43.6291 33.1942C43.6291 31.7055 43.7334 30.2116 43.5873 28.7385C43.4413 27.2655 42.5961 25.8447 42.7734 24.2097C43.0294 22.6017 43.0223 20.9628 42.7526 19.357C42.4395 17.978 41.9178 16.6826 42.0013 15.2148C42.0848 13.7469 42.0013 12.2478 42.0013 10.7591C42.0013 9.27036 42.0326 7.79209 42.0013 6.30861C41.97 5.2639 42.3769 4.11994 41.2187 3.39387C42.1682 3.04389 41.6152 1.48205 42.7004 1.39847C43.3995 1.34101 44.1404 -0.132028 44.8604 1.35146C45.6691 1.35146 46.6917 1.05372 47.229 1.43504C47.8446 1.91286 48.5997 2.17527 49.3786 2.182C50.1403 2.182 51.1316 1.75367 51.6116 2.53721C51.9142 3.05956 51.7472 3.84309 51.7107 4.50648C51.6794 4.98705 52.029 5.19077 52.2325 5.51463C52.6603 6.24592 52.7072 6.32428 52.2325 6.87275C51.7577 7.42122 51.3768 7.9488 52.0551 8.54951C52.5142 8.96217 52.4255 9.47408 52.5768 9.97031C52.8481 10.9785 50.8446 11.5374 52.1385 12.7336C53.0151 13.5589 52.4412 14.7655 52.5298 15.7893C52.6185 16.8132 52.5298 17.9519 52.5298 19.0279C52.6022 20.1051 52.5883 21.1864 52.4881 22.2613C52.3681 23.024 53.5785 23.212 53.0829 23.8284C52.3055 24.8209 52.2429 25.7036 53.0829 26.6021C53.3177 26.8476 53.3177 26.9677 52.989 27.1924C52.4985 27.5319 52.2585 28.1169 52.629 28.54C52.8701 28.7696 53.0606 29.0471 53.1882 29.3548C53.3158 29.6624 53.3777 29.9934 53.3698 30.3265C53.3281 32.8912 53.3385 35.4612 53.3698 38.026C53.3698 38.9244 53.062 39.9378 54.0794 40.5646L53.4064 41.4213C54.5803 42.3041 54.1159 43.5786 54.1629 44.7121C54.2098 45.8456 54.1629 47.1411 54.1629 48.3686C54.1629 50.6618 54.1629 52.9601 54.1629 55.2533C54.1629 55.3473 54.382 55.5406 54.4289 55.5197C54.6168 55.4413 54.9142 55.3159 54.9507 55.1749C55.055 54.4123 54.7576 53.6078 55.5715 52.9758C56.0307 52.6206 55.8376 52.0408 55.3994 51.6124C55.2713 51.4614 55.1802 51.2825 55.1333 51.0901C55.9994 50.5677 55.6968 49.685 55.7907 48.9119C55.9315 47.7836 55.2689 46.4516 56.5524 45.5897C56.5733 44.4823 56.5733 43.3854 56.5733 42.3406C58.0967 41.0557 57.335 39.3162 57.3089 37.8171C57.3089 36.6574 58.3002 36.0306 58.2324 34.9128C58.175 33.9151 57.7106 32.745 58.8167 31.9301C59.015 31.7786 58.8167 31.6115 58.6289 31.3451C58.4099 31.0564 58.268 30.7166 58.2167 30.3578C59.495 29.543 58.4202 27.6886 59.7558 26.8894C59.928 26.7849 59.9489 26.1424 59.5576 25.8447C58.9837 25.3746 58.7541 24.9097 59.2863 24.1679C60.1993 22.9038 60.9245 21.4882 60.5958 19.8689C60.1784 17.8265 61.7854 16.1289 61.4306 14.123C62.3749 13.3395 62.281 12.2635 62.2288 11.2187C62.1923 10.3882 62.2288 9.65168 62.9958 9.07709C63.091 8.9066 63.1222 8.7077 63.084 8.51618C63.0457 8.32467 62.9404 8.15311 62.7871 8.03238C62.208 7.56226 61.9158 7.02946 62.5471 6.36607C62.7245 6.17802 63.0688 5.90639 63.0219 5.77058C62.5732 4.355 64.0653 3.44088 63.9088 2.04619C63.7523 0.651504 63.9506 0.609716 65.474 0.604492C67.227 0.604492 68.9853 0.604492 70.7383 0.604492C71.6252 0.604492 73.9417 1.88426 74.3383 2.62078C74.3973 2.742 74.428 2.87508 74.428 3.00994C74.428 3.14479 74.3973 3.27787 74.3383 3.39909C74.0133 3.80076 73.6556 4.17466 73.2687 4.51693C73.1182 4.64207 72.9944 4.7963 72.9048 4.97042C72.8151 5.14453 72.7615 5.33495 72.747 5.5303C72.7 6.29294 73.1174 7.17572 72.3922 7.79732C71.7609 8.31967 72.1835 9.09798 71.9226 9.63601C71.5261 10.4509 71.0879 11.1561 71.1087 12.1538C71.1296 13.1515 71.5783 14.332 70.6705 15.1834C69.9192 15.8938 70.8635 17.1057 69.8305 17.6803C69.3714 17.9362 69.5435 18.3907 69.5383 18.772C69.5383 20.1197 69.4601 21.4778 69.5383 22.8202C69.5542 23.1516 69.4807 23.4812 69.3255 23.7744C69.1704 24.0676 68.9394 24.3135 68.6566 24.4866C67.7749 25.2179 67.5349 25.9021 68.5262 26.764C68.7088 26.926 68.6514 27.4953 68.5262 27.8087C68.4009 28.1221 67.9523 28.4199 67.9053 28.7594C67.7644 29.8041 67.754 30.8488 67.6914 31.8935C66.6792 32.5622 67.1018 33.5912 67.0914 34.474C67.081 35.3568 66.001 35.597 66.2253 36.5634C66.3221 37.3679 66.3325 38.1804 66.2566 38.9871C64.8114 40.1311 65.3384 41.7713 65.5366 43.0928C65.7349 44.4144 64.5245 45.1823 64.6184 46.4202C64.6487 47.4864 64.6243 48.5534 64.5453 49.617C63.4027 50.3797 63.7106 51.5968 63.8932 52.5475C64.1123 53.6757 62.8862 54.0571 62.9958 55.0652C63.0897 55.9532 63.1993 56.8778 62.2915 57.6247C61.9158 57.9329 62.2602 58.612 62.7401 58.962C62.8401 59.0499 62.9326 59.146 63.0167 59.2493C61.7541 60.0433 62.1662 60.9051 62.9175 61.7775C61.7802 62.5453 62.4219 63.7363 62.1819 64.7183C62.0254 65.3399 61.008 65.8832 62.1819 66.4996C62.1297 67.1368 62.5158 67.8629 61.9523 68.3905C61.7562 68.5648 61.6035 68.7827 61.5066 69.0267C61.4096 69.2707 61.3711 69.534 61.3941 69.7956C61.4358 71.1381 61.3941 72.491 61.3941 73.8386C60.0063 74.4237 61.1697 76.2154 59.9645 76.8892C59.7124 78.048 59.7 79.2461 59.928 80.4099C59.928 80.5457 60.3506 80.6606 60.5906 80.7024C61.6341 80.8957 62.041 81.815 62.6775 82.4418C63.1993 82.9642 63.0428 83.9619 63.8201 84.385C63.6532 85.9155 64.561 87.0281 65.2445 88.2556C65.4694 88.5838 65.5708 88.9811 65.5307 89.3771C65.4906 89.7731 65.3115 90.1419 65.0253 90.4182C64.4149 90.9771 64.6706 91.6562 64.6549 92.2882C64.6549 92.4763 64.9106 92.7531 65.114 92.8419C65.378 92.8895 65.6483 92.8895 65.9123 92.8419C66.3152 92.8132 66.7197 92.8132 67.1227 92.8419C68.307 93.0038 68.5888 94.8843 70.0966 94.4455C71.4061 94.0694 72.1835 95.3283 73.3157 95.4902C73.6391 95.5373 73.9261 96.0126 74.1713 96.3156C74.3198 96.5388 74.5325 96.7117 74.7812 96.8115C75.0299 96.9113 75.3029 96.9332 75.5643 96.8745C75.8255 96.8083 76.1011 96.8297 76.3489 96.9353C76.5968 97.041 76.8032 97.2252 76.9365 97.4595C77.5313 98.4102 78.8721 98.2901 79.4512 99.1885C80.0304 100.087 81.3764 99.9564 82.0234 100.87C82.1903 101.111 82.8321 100.97 83.0668 101.2C84.3451 102.401 85.5659 103.66 86.8024 104.903C88.5868 105.143 89.2494 106.815 90.4546 107.776C90.7353 107.954 90.9676 108.199 91.1306 108.489C91.2936 108.779 91.3822 109.105 91.3885 109.437C91.4605 109.696 91.5976 109.931 91.7867 110.122C91.9758 110.312 92.2106 110.45 92.4685 110.524C93.7519 110.586 94.2215 111.636 94.9832 112.31C95.5623 112.832 95.3171 113.877 96.1362 114.258C96.9554 114.64 96.9136 115.554 97.2684 116.217C97.807 117.291 98.5113 118.273 99.3553 119.127C100.247 120.025 101.114 120.72 102.486 120.448C104.093 120.124 105.319 121.906 107.02 121.3C107.218 121.232 107.599 121.759 107.927 121.963C108.658 122.418 108.319 123.431 109.028 123.974C109.315 124.188 109.221 124.956 109.232 125.473C109.232 126.69 109.263 127.902 109.232 129.13C109.232 129.762 109.482 130.462 108.846 130.995C108.209 131.528 108.46 132.473 107.713 132.964C107.154 133.346 106.671 133.83 106.289 134.39C105.851 135.017 104.834 134.829 104.667 135.262C104.427 136.148 104.336 137.068 104.395 137.984C104.364 140.005 104.312 142.037 104.421 144.054C104.468 144.91 104.014 145.448 103.701 146.101C104.698 146.874 104.531 147.548 103.701 148.384C103.564 148.609 103.486 148.866 103.474 149.13C103.462 149.394 103.517 149.657 103.634 149.893C104.573 150.755 104.4 151.805 104.395 152.84C104.39 153.874 104.667 154.929 103.634 155.796C103.511 156.03 103.45 156.291 103.456 156.555C103.461 156.819 103.533 157.077 103.665 157.306C104.567 158.037 104.4 158.956 104.395 159.865C104.395 160.638 104.63 161.505 103.754 162.033C103.73 162.073 103.716 162.117 103.712 162.163C103.707 162.209 103.713 162.256 103.727 162.299C104.599 162.822 104.338 163.684 104.416 164.457C104.463 164.786 104.415 165.123 104.28 165.427C104.144 165.73 103.925 165.99 103.649 166.175C103.9 166.457 104.171 166.745 104.395 167.032C103.263 167.763 103.623 168.902 103.597 169.931C103.597 170.876 103.597 171.822 103.597 172.767V177.631C103.597 178.44 103.66 179.255 103.597 180.059C103.514 180.958 104.046 182.003 103.274 182.739C102.319 183.648 104.061 183.909 103.634 184.661C103.519 184.865 103.733 185.314 103.597 185.445C102.496 186.526 102.851 187.89 102.804 189.18C102.773 189.995 102.773 190.747 103.54 191.327C103.743 191.483 103.727 192.053 103.388 192.398C103.049 192.742 102.773 192.852 102.788 193.369C102.747 194.868 102.715 196.336 102.919 198.002ZM27.0537 263.036C27.8363 263.955 29.0571 264.08 30.0223 264.655C31.4153 264.315 32.5423 265.115 33.6431 265.673C34.1713 266.032 34.7854 266.243 35.4222 266.285C37.1753 266.253 38.9283 266.285 40.6813 266.285C41.9908 267.658 43.676 266.958 45.1995 267.068C45.9537 267.171 46.6805 267.422 47.3386 267.805C48.0847 268.155 49.0081 268.045 49.8429 268.646C50.2012 268.824 50.5977 268.913 50.9979 268.903C51.398 268.893 51.7896 268.785 52.1385 268.588C52.4368 268.336 52.7824 268.146 53.1552 268.029C53.5279 267.912 53.9202 267.872 54.309 267.909C55.1959 267.987 56.0046 267.862 56.9176 268.494C57.4312 268.801 58.018 268.962 58.6159 268.962C59.2137 268.962 59.8005 268.801 60.3141 268.494C61.2323 267.836 62.0567 268.04 62.9228 267.925C63.4445 267.857 64.1436 267.977 64.4201 267.69C65.3384 266.718 66.434 267.256 67.441 267.11C68.1714 265.987 69.3088 266.332 70.3418 266.306C71.2809 266.306 72.2252 266.306 73.1696 266.306C73.8948 265.162 75.053 265.595 76.0704 265.496C76.3107 265.424 76.5366 265.311 76.7382 265.162C77.8495 264.587 79.0025 264.08 80.0617 263.422C80.7034 263.02 81.4808 262.968 82.086 262.377C82.4251 262.038 83.3694 262.262 84.0373 262.299C84.872 262.341 85.1694 261.176 86.1242 261.453C86.6346 261.619 87.186 261.608 87.6894 261.421C88.4146 261.051 88.0181 260.231 88.0911 259.598C88.0733 259.33 88.0821 259.061 88.1172 258.794C88.2268 258.571 88.3944 258.381 88.6024 258.246C88.7294 258.193 88.8719 258.193 88.9989 258.246C90.2667 258.643 91.0024 256.893 92.3067 257.431C92.8258 257.036 93.3223 256.612 93.7937 256.161C93.9279 256.016 94.0976 255.908 94.2861 255.849C94.4745 255.789 94.6753 255.78 94.8684 255.822C96.0841 255.989 96.8615 254.396 98.1762 255.002C98.6093 254.234 99.5171 254.312 100.143 253.884C99.9344 252.975 100.999 252.604 101.03 251.826C101.082 250.614 100.994 249.397 101.061 248.169C101.129 246.942 100.576 245.714 101.854 244.858C100.842 244.283 101.119 243.291 100.973 242.382C100.915 242.026 100.618 242 100.451 242.241C99.8145 243.04 99.2353 243.045 98.4736 242.309C97.9519 241.823 97.8632 241.912 97.1223 242.345C96.8354 242.517 96.6475 243.003 96.2562 242.476C95.771 241.818 94.7536 242.11 94.2841 241.337C94.0128 240.888 93.4337 240.621 93.1832 240.167C92.7867 239.446 91.9415 239.812 91.4928 239.321C91.0441 238.83 90.5433 238.501 90.512 237.686C90.4754 236.557 91.0598 235.257 89.8024 234.327C89.6146 234.191 89.6198 233.596 89.985 233.256C90.1539 233.154 90.2953 233.012 90.3971 232.843C90.4989 232.673 90.558 232.482 90.5694 232.285C90.5415 227.409 90.5415 222.55 90.5694 217.706C90.5694 217.183 90.1415 217.063 89.9902 216.724C89.8389 216.384 89.6981 215.773 89.8337 215.679C90.6111 215.099 90.5641 214.331 90.5641 213.522C90.5641 209.865 90.5641 206.209 90.5641 202.589C90.4829 201.803 90.701 201.016 91.1746 200.384C91.44 200.001 91.5822 199.545 91.5822 199.078C91.5822 198.612 91.44 198.156 91.1746 197.773C90.0685 196.54 90.8146 195.203 90.5746 193.949C91.8476 192.774 91.2685 191.227 91.3728 189.828C91.4302 189.023 91.2424 188.177 91.4146 187.409C91.6337 186.432 90.538 186.129 90.5641 185.32C90.5641 184.656 90.5067 184.035 91.1433 183.517C91.6128 183.131 91.4772 182.593 91.0389 182.149C90.8911 182.001 90.7771 181.823 90.705 181.627C91.9415 180.54 91.1746 179.104 91.3833 177.845C90.6841 176.993 89.9641 176.137 91.352 175.264C91.5293 174.366 90.992 173.295 91.6702 172.579C92.458 171.738 92.1032 170.824 92.1919 169.941C92.2493 169.273 92.1919 168.589 92.1919 167.915C92.1599 167.528 92.2552 167.141 92.4632 166.813C93.4545 165.34 93.7989 163.412 95.3693 162.373C96.251 161.793 96.1623 160.805 96.731 160.064C97.2997 159.322 97.3936 158.392 98.2127 157.859C99.1205 157.269 99.4805 156.292 99.9501 155.389C101.547 155.634 100.821 153.649 101.881 153.378C101.881 152.855 102.121 152.03 101.881 151.811C100.576 150.714 101.307 149.303 101.114 148.05C100.999 147.318 101.964 147.162 101.948 146.362C101.875 143.124 101.948 139.88 101.912 136.641C101.927 136.542 101.917 136.441 101.883 136.347C101.85 136.253 101.794 136.168 101.72 136.101C101.647 136.033 101.558 135.985 101.461 135.96C101.364 135.935 101.263 135.934 101.166 135.957C100.67 136.025 100.487 135.628 100.164 135.435C99.5223 135.022 99.204 135.038 98.7866 135.435C98.3693 135.832 98.0353 136.203 97.644 136.579C96.8719 137.31 94.6649 138.355 93.5328 138.344C92.7711 138.344 92.3328 138.997 91.8215 139.076C90.6737 139.258 89.8546 140.543 88.5502 140.016C87.6946 141.322 86.3642 140.653 85.232 140.799C84.0999 140.946 82.8008 140.423 81.7521 141.175C80.7034 141.928 79.4356 141.437 78.2878 141.619C78.1678 141.619 77.9904 141.656 77.9382 141.734C77.4165 142.586 76.5817 142.445 75.7939 142.424C74.8913 142.398 73.9574 142.648 73.2165 141.729C72.9942 141.589 72.7397 141.509 72.4774 141.496C72.2151 141.483 71.954 141.538 71.7192 141.656C70.7122 142.638 69.5331 142.408 68.3696 142.424C66.8879 142.424 65.4062 142.455 63.9245 142.424C63.7254 142.427 63.5306 142.482 63.3588 142.582C63.187 142.683 63.044 142.826 62.9436 142.998C62.7036 143.291 62.5836 143.291 62.3541 142.951C62.2246 142.717 62.01 142.541 61.7546 142.46C61.4991 142.379 61.2225 142.4 60.9819 142.518C58.7176 143.437 58.728 143.427 56.2863 142.581C55.9681 142.466 55.3942 142.445 55.2429 142.638C55.0061 142.862 54.719 143.026 54.4058 143.116C54.0926 143.206 53.7623 143.22 53.4429 143.155C51.6899 143.129 49.9368 143.155 48.1838 143.155C47.2656 143.155 46.2795 143.369 45.6743 142.372C45.043 142.455 44.276 142.011 43.7908 142.628C43.1491 143.437 42.3404 143.087 41.5787 143.15C40.9787 142.147 40.0135 142.366 39.0744 142.366H32.6101C32.0884 142.366 31.3319 142.534 31.0449 142.257C29.9075 141.092 28.5302 141.703 27.2676 141.572C26.4672 141.437 25.6492 141.446 24.8519 141.598C23.7407 141.907 23.3128 140.512 22.3476 140.763C21.3824 141.013 20.9598 139.88 20.2607 139.99C19.2172 140.152 18.5807 139.41 17.7616 139.107C16.812 138.757 15.9981 137.994 14.8503 138.308C14.2712 138.47 13.8956 137.874 13.473 137.785C12.466 137.561 11.8191 136.547 10.666 136.683C9.95648 136.767 9.62257 136.887 9.62257 137.529C9.62257 140.096 9.62257 142.661 9.62257 145.224C9.62257 145.605 9.46605 146.039 9.90953 146.321C10.6086 146.77 10.1913 147.094 9.8104 147.48C9.72662 147.575 9.66716 147.689 9.63716 147.811C9.60716 147.934 9.60753 148.063 9.63823 148.185C10.2793 149.262 10.8207 150.395 11.2556 151.57C11.5895 152.531 13.0191 152.829 12.8991 154.145C12.8991 154.255 13.2956 154.501 13.5147 154.516C14.4121 154.569 15.5129 154.266 15.346 155.812C15.8705 156.428 16.4503 156.994 17.0781 157.504C17.9233 158.074 17.5999 159.228 18.4712 159.803C19.0252 160.158 19.482 160.645 19.8 161.222C20.118 161.798 20.2871 162.445 20.292 163.104C20.3494 163.997 21.4555 164.786 21.6955 165.716C21.9355 166.645 21.7685 167.863 21.7476 168.939C21.7476 169.748 21.6537 170.563 22.4937 171.065C22.5953 172.266 22.5953 173.473 22.4937 174.674C22.3007 175.964 23.4537 176.716 23.4015 177.991C23.2502 181.647 23.3337 185.278 23.3598 188.924C23.3754 189.182 23.3371 189.441 23.2472 189.684C23.1574 189.927 23.0181 190.148 22.8381 190.334C22.2589 190.971 23.3598 191.008 23.3598 191.489C23.4694 192.894 22.9111 194.424 24.1424 195.631C24.2467 195.735 24.1424 196.2 24.0224 196.357C22.8746 197.621 23.365 199.063 23.5007 200.468C24.4241 201.053 23.5685 201.392 23.412 201.92C23.2137 202.599 22.9998 203.539 23.8867 204.093C24.1998 204.292 24.1476 204.427 23.8293 204.678C23.2189 205.159 23.0572 205.723 23.7041 206.329C24.1476 206.736 24.3719 207.259 23.9911 207.703C22.885 208.993 23.3337 210.408 23.5111 211.819C24.6119 212.649 24.1424 213.328 23.3702 214.091C23.1981 214.263 23.2554 214.796 23.5893 215.172C24.3876 216.065 24.4398 216.995 23.5424 217.93C23.4487 218.024 23.3775 218.138 23.3341 218.263C23.2907 218.389 23.2763 218.522 23.2918 218.654C23.3074 218.785 23.3526 218.912 23.424 219.024C23.4954 219.135 23.5912 219.229 23.7041 219.299C24.8989 220.296 23.4954 220.866 23.3389 221.623C23.1511 222.543 25.0398 223.19 23.6467 224.345C23.125 224.804 23.1615 225.107 23.6467 225.672C24.0172 226.116 24.4398 226.716 24.0693 227.035C23.3754 227.672 23.3389 228.372 23.3285 229.187C23.3237 230.216 23.5748 231.23 24.0589 232.138C24.4919 233.005 24.1006 234.254 24.1633 235.33C24.2206 236.296 22.9267 236.761 23.3285 237.837C23.4902 238.266 23.1563 238.568 22.8694 238.851C21.9094 239.801 21.0746 240.94 19.9685 241.656C19.1608 242.272 18.3157 242.837 17.4381 243.348C16.4677 243.818 15.5495 244.79 14.2608 244.45C13.0973 244.147 12.5078 245.427 11.433 245.495C11.1356 245.495 10.6869 245.991 10.6086 246.325C10.4731 247.1 10.4033 247.885 10.4 248.671C10.3739 249.073 10.4365 249.486 10.4 249.883C10.3605 250.148 10.4065 250.419 10.5312 250.657C10.656 250.895 10.853 251.086 11.0939 251.204C12.0017 251.727 11.8556 252.818 12.5025 253.482C13.0243 254.004 12.9251 254.913 13.6399 255.446C14.7721 256.287 15.4503 257.885 17.292 257.431C17.7042 257.953 18.299 258.387 18.4659 258.961C18.6329 259.536 18.8051 259.917 19.4572 259.86C19.7824 259.796 20.1188 259.824 20.4291 259.94C20.7395 260.056 21.0116 260.256 21.2155 260.518C21.7269 261.105 22.4403 261.478 23.2137 261.563C24.5646 261.843 25.8613 262.341 27.0537 263.036ZM5.2035 123.692L3.17918 125.719C3.17918 127.286 3.27309 128.937 3.14266 130.54C3.0644 131.585 3.81047 131.914 4.29047 132.504C5.54263 132.227 6.46609 133.58 7.54086 133.356C9.10606 133.021 10.1495 134.771 11.6625 134.228C12.1582 135.012 12.9095 135.137 13.7495 135.038C14.4747 134.954 14.6364 136.082 15.4347 135.847C16.3216 135.612 16.8903 136.218 17.5216 136.657C18.7112 136.135 19.3894 137.555 20.4172 137.446C22.1546 137.253 23.5476 138.84 25.3424 138.287C25.4154 138.287 25.5719 138.407 25.645 138.501C26.3441 139.452 27.3563 138.971 28.2536 139.086C29.151 139.201 29.6675 140.131 30.7527 139.937C31.8239 139.824 32.9033 139.81 33.977 139.896H37.2118C38.4196 139.981 39.6323 139.967 40.8378 139.854C42.0274 139.65 42.7787 140.549 43.7491 140.663C45.2099 140.831 46.7177 140.606 48.189 140.737C49.4516 140.846 50.7977 140.125 52.0133 141.296C52.4203 141.693 52.8272 140.533 53.5785 140.674C54.3805 140.769 55.1903 140.778 55.9941 140.7C56.8915 140.674 57.7524 140.846 58.5663 140.026C59.3802 139.206 59.808 140.737 60.575 140.695C60.8284 140.7 61.075 140.613 61.2689 140.449C61.4316 140.24 61.6467 140.078 61.8922 139.979C62.1377 139.88 62.4051 139.848 62.6671 139.885C63.3341 139.992 64.014 139.992 64.681 139.885C65.3645 139.708 65.7662 141.452 66.5175 140.105C67.1644 140.042 67.8114 139.932 68.4635 139.927C70.347 139.927 72.267 139.708 74.1087 139.979C75.9504 140.251 77.286 138.908 78.9817 138.971C79.7643 137.952 80.4634 138.156 81.246 139.029C81.4073 139.14 81.6049 139.186 81.7986 139.156C81.9924 139.127 82.1678 139.026 82.2895 138.872C82.4449 138.657 82.6556 138.489 82.8991 138.385C83.1426 138.281 83.4098 138.245 83.6721 138.282C84.4807 138.339 85.2894 138.282 86.0981 138.282C86.552 137.341 87.7468 137.634 88.3624 136.882C88.7381 136.422 89.3172 136.563 89.7189 137.033C89.864 137.253 90.0894 137.408 90.3469 137.463C90.6044 137.519 90.8734 137.471 91.0963 137.331C91.4302 137.148 91.6911 136.809 92.0354 136.678C93.9241 136.119 93.9293 136.156 95.5258 134.531C95.6197 134.437 95.7188 134.254 95.8075 134.259C96.7467 134.259 97.6858 134.348 98.2962 133.424C99.2405 133.424 100.242 133.622 101.114 133.366C102.079 133.089 102.893 132.321 104.025 132.598C104.406 132.687 105.068 132.64 105.068 132.248C105.037 130.942 106.383 130.619 106.722 129.684C106.813 129.179 107.046 128.711 107.395 128.336C107.593 128.169 107.505 127.97 107.197 127.767C106.986 127.601 106.833 127.373 106.76 127.115C106.687 126.856 106.698 126.582 106.79 126.33C106.941 125.52 105.96 125.285 105.976 124.638C105.976 123.593 105.324 123.687 104.646 123.697C104.385 123.697 104.02 123.755 103.884 123.609C102.84 122.564 102.016 122.721 100.78 123.509C100.498 123.686 100.175 123.784 99.843 123.794C99.5111 123.803 99.1826 123.724 98.8914 123.565C98.6001 123.405 98.3566 123.171 98.186 122.885C98.0153 122.6 97.9237 122.275 97.9206 121.942C97.9206 121.549 97.8302 121.162 97.6565 120.809C97.4828 120.457 97.2304 120.149 96.9188 119.91C96.6947 119.77 96.5134 119.57 96.3947 119.333C96.276 119.097 96.2245 118.832 96.2458 118.568C96.3053 118.31 96.2945 118.042 96.2147 117.79C96.1348 117.538 95.9888 117.313 95.7919 117.137C95.0823 116.515 94.4458 115.815 93.778 115.146C93.2588 114.527 92.6785 113.962 92.0459 113.459C91.185 112.895 91.5554 111.725 90.6581 111.156C89.9185 110.573 89.2418 109.915 88.6389 109.192C87.2407 109.474 87.5955 107.682 86.9642 107.598C85.6912 107.442 85.1694 106.512 84.4755 105.786C83.7816 105.06 82.5973 104.981 81.8669 104.12C81.3451 103.451 80.8234 102.704 79.686 102.552C79.0391 102.469 78.5486 101.179 77.9069 101.1C76.7695 100.954 76.5087 99.8362 75.7 99.5333C73.9313 98.9169 72.4705 97.3603 70.3679 97.752C70.2731 97.78 70.1731 97.7859 70.0757 97.7692C69.9782 97.7524 69.8859 97.7136 69.8058 97.6556C69.7257 97.5976 69.6599 97.522 69.6136 97.4346C69.5672 97.3472 69.5415 97.2503 69.5383 97.1513C69.4757 96.5872 69.4548 96.1066 68.6879 96.1066C67.6079 96.138 66.5279 96.1589 65.4532 96.1066C64.5714 96.0544 63.7367 96.2006 62.8132 95.6208C62.0306 95.1298 61.681 96.6969 60.8045 96.9476C59.1298 97.4282 57.7733 98.9326 55.8168 98.546C55.295 98.452 55.1385 98.8699 54.8202 99.0684C54.503 99.3011 54.1188 99.4244 53.7255 99.4197C53.3322 99.415 52.951 99.2825 52.6394 99.0423C52.3264 98.8176 52.1177 98.4677 51.6325 98.5199C51.2359 98.5669 50.8238 98.4938 50.422 98.5199C49.5664 98.6087 49.5247 98.102 49.2168 97.4177C48.6116 96.0648 47.0569 95.8193 45.7838 95.25C43.6447 94.3045 43.6969 94.2523 41.61 95.25C40.6709 94.8895 40.3683 96.091 39.5231 96.0857C38.7613 96.0857 38.3805 97.167 37.4779 96.9737C37.0761 97.7834 36.1474 97.6685 35.5057 98.0811C33.8988 99.1258 31.9788 99.6482 30.7632 101.257C30.6644 101.431 30.5138 101.57 30.3323 101.654C30.1508 101.739 29.9476 101.764 29.751 101.727C28.8119 101.508 28.3058 102.124 27.7058 102.673C27.1058 103.221 26.7145 103.848 25.9215 104.203C24.7841 104.725 23.4172 104.992 22.6972 106.131C21.9772 107.269 20.4277 107.348 19.5668 108.382C18.7059 109.416 17.6781 110.534 16.2329 111.025C15.9483 111.097 15.6991 111.269 15.5313 111.51C15.3635 111.751 15.2884 112.044 15.3199 112.336C15.3451 112.432 15.3483 112.532 15.3294 112.629C15.3106 112.726 15.27 112.818 15.2108 112.897C15.1517 112.977 15.0754 113.042 14.9877 113.087C14.9 113.133 14.8031 113.158 14.7042 113.162C14.4552 113.146 14.2095 113.225 14.016 113.383C13.8226 113.541 13.6958 113.766 13.6608 114.013C13.2702 115.379 12.4863 116.6 11.4069 117.523C10.8658 117.93 10.3891 118.416 9.993 118.965C9.52344 119.691 8.88693 120.532 8.94954 121.31C9.01736 122.491 7.99477 123.123 7.95303 124.183C7.95303 124.601 7.18087 124.648 6.61218 124.277C6.21131 123.946 5.72078 123.742 5.2035 123.692ZM20.9807 208.35C21.0798 207.598 20.9807 206.903 21.4711 206.104C21.8231 205.619 21.9884 205.024 21.9366 204.427C21.8848 203.83 21.6195 203.272 21.1894 202.855C20.7563 202.437 20.9181 201.91 21.3563 201.481C21.4913 201.333 21.5864 201.154 21.6329 200.959C20.5894 200.139 20.8711 199.444 21.7215 198.666C21.831 198.502 21.8741 198.303 21.8421 198.109C21.8102 197.915 21.7055 197.741 21.5494 197.621C21.3389 197.461 21.1741 197.248 21.0716 197.005C20.969 196.761 20.9323 196.494 20.965 196.232C20.9963 192.183 20.965 188.135 20.9963 184.087C20.9963 183.136 21.0276 182.264 20.2033 181.553C20.0207 181.397 20.1042 180.801 20.5007 180.509C20.7929 180.289 20.9076 180.117 20.6416 179.636C19.9372 178.367 19.9372 178.268 20.6416 177.202C21.1007 176.497 21.1059 176.037 20.5163 175.51C20.4172 175.421 20.245 175.322 20.2398 175.223C20.1277 174.291 20.1277 173.349 20.2398 172.417C20.4903 171.226 19.3216 170.605 19.3633 169.508C19.4207 167.821 19.8433 165.998 17.9912 164.807C17.7094 164.624 17.819 163.825 17.772 163.313C17.652 162.002 17.1355 161.297 15.7425 160.179C15.2573 159.787 14.5999 159.442 14.5321 158.674C14.4815 158.283 14.3147 157.916 14.0533 157.621C13.7919 157.325 13.4479 157.116 13.066 157.018C12.706 156.883 12.1582 156.904 12.1373 156.496C12.0434 155.086 10.7547 154.663 10.0504 153.759C9.63823 154.025 9.47649 154.589 9.68518 154.804C10.8904 156.036 10.3478 157.551 10.4417 158.951C10.4417 159.134 10.0713 159.317 9.94605 159.541C9.5704 160.205 9.5704 160.22 9.94605 160.915C10.0713 161.14 10.4313 161.317 10.4313 161.516C10.533 163.404 10.533 165.296 10.4313 167.183C10.2695 169.1 11.2034 171.185 9.67475 172.929C9.62856 173.049 9.61343 173.178 9.63077 173.305C9.6481 173.432 9.69734 173.553 9.77388 173.655C10.593 174.209 10.4678 175.019 10.4678 175.813C10.4678 180.806 10.4678 185.8 10.4678 190.794C10.4678 191.316 10.5669 192.001 10.2904 192.319C10.0701 192.547 9.89719 192.816 9.78165 193.111C9.66612 193.406 9.61027 193.721 9.61736 194.038C9.57973 194.429 9.62435 194.825 9.74835 195.198C9.87234 195.571 10.073 195.914 10.3373 196.205C10.5232 196.484 10.6094 196.817 10.5819 197.151C10.5544 197.485 10.4149 197.8 10.186 198.044C9.20519 198.937 9.83127 200.06 9.63301 201.058C10.9113 201.915 10.3687 203.231 10.426 204.37C10.4939 205.718 10.3373 207.076 10.4678 208.413C10.5982 209.75 9.89387 210.915 9.71127 212.143C9.41388 214.122 9.62779 216.18 9.63301 218.202C9.63301 218.458 9.59649 218.85 9.73735 218.954C10.8539 219.748 10.4208 220.908 10.4156 221.916C10.4156 223.452 10.8226 225.086 9.65388 226.455C9.55997 226.565 9.67996 226.977 9.83127 227.155C10.0387 227.318 10.2038 227.528 10.3128 227.768C10.4218 228.008 10.4714 228.271 10.4573 228.534C10.3947 229.338 10.4573 230.148 10.4573 230.958C10.3841 231.765 10.3945 232.577 10.4886 233.381C10.7026 234.353 9.63823 234.672 9.64344 235.471C9.64344 236.129 9.64344 236.709 10.1652 237.299C10.4193 237.604 10.5546 237.99 10.5459 238.387C10.5373 238.783 10.3853 239.163 10.1182 239.456C9.98257 239.639 9.85735 239.838 9.72692 240.026C10.8121 240.548 10.2017 241.718 10.593 242.502C10.8226 242.951 11.3391 242.847 11.6678 242.721C11.9965 242.596 12.2417 242.053 12.5704 241.995C13.353 241.865 14.2399 242.11 14.9442 241.838C15.6486 241.567 16.0921 240.559 16.7651 240.423C17.4381 240.287 17.8086 239.707 18.4242 239.493C19.5877 239.091 19.4051 238.892 20.2033 237.738C20.8555 236.792 20.8085 235.821 21.0276 234.818C21.2729 233.716 21.9563 232.729 21.805 231.496C21.7893 231.301 21.7306 231.111 21.6332 230.942C21.5358 230.772 21.402 230.626 21.2416 230.514C20.9024 230.268 20.9129 230.169 21.2416 229.918C21.8468 229.459 22.0763 228.874 21.4398 228.262C21.2883 228.139 21.1661 227.984 21.0821 227.808C20.9982 227.632 20.9546 227.439 20.9546 227.244C20.9807 224.815 20.9546 222.381 20.9963 219.957C20.9963 219.544 21.6694 218.844 21.5911 218.776C20.6207 217.915 20.9285 217.298 21.6746 216.441C21.8555 216.16 21.9388 215.827 21.9114 215.494C21.8841 215.16 21.7476 214.845 21.5233 214.598C21.3254 214.425 21.1704 214.209 21.0708 213.966C20.9712 213.723 20.9296 213.46 20.9494 213.198C21.012 211.86 20.9807 210.539 20.9807 208.35ZM66.7053 278.445C65.354 278.445 63.9558 278.675 62.6723 278.382C61.1854 278.043 60.3506 279.5 58.9419 279.296C57.5987 279.183 56.249 279.169 54.9037 279.255C54.7733 279.255 54.5855 279.255 54.5281 279.307C53.4846 280.597 52.0499 279.908 50.7873 280.054C49.7438 280.174 48.7003 280.122 47.8864 279.255C46.3212 279.396 45.0273 277.86 43.3682 278.445C42.0587 277.082 40.3683 277.834 38.85 277.63C38.3283 277.562 37.6813 277.912 37.3526 277.379C36.8779 276.606 35.8761 276.998 35.3388 276.277C34.9892 275.807 34.1701 277.322 33.664 276.152L30.951 275.865C30.398 274.585 28.911 275.703 28.1649 274.736C27.5076 273.89 25.9371 274.956 25.4206 273.582C24.4659 273.686 23.5633 273.634 22.9215 272.772C21.7529 272.919 21.4346 271.795 20.7042 271.289C20.6067 271.209 20.4854 271.165 20.3598 271.163C20.1062 271.151 19.8539 271.207 19.6294 271.325C19.5382 271.411 19.4684 271.518 19.4258 271.636C19.3832 271.754 19.369 271.88 19.3842 272.004C19.8735 273.334 20.6544 274.537 21.6694 275.525C22.1076 275.912 22.6085 275.901 23.0572 276.105C23.6833 276.392 23.2867 277.296 23.9076 277.771C25.0293 278.638 25.7702 280.007 27.3093 280.326C28.0815 281.522 29.8449 281.95 29.918 283.71C29.918 283.851 30.3406 284.123 30.5284 284.092C32.6153 283.784 33.831 286.181 35.9283 285.732C36.5127 286.254 37.0135 287.017 37.7022 287.299C39.0065 287.853 40.337 288.297 41.2656 289.43C41.3909 289.587 41.5605 289.702 41.7523 289.761C41.944 289.82 42.149 289.819 42.3404 289.759C43.483 289.472 44.3282 290.13 45.2465 290.579C46.1647 291.029 46.9943 291.493 48.1473 291.441C51.3768 291.305 54.6168 291.394 57.8567 291.394C58.3785 291.394 59.2289 291.582 59.4219 291.326C60.1576 290.25 60.6637 291.326 61.2428 291.326C61.9836 291.326 62.2549 292.282 62.8393 291.984C63.288 291.749 63.6062 291.337 64.2166 291.379C65.0201 291.441 65.834 291.379 66.6427 291.379C67.1644 290.501 68.3331 290.778 68.9227 290.02C69.0091 289.929 69.1163 289.859 69.2352 289.817C69.3541 289.775 69.4813 289.763 69.6061 289.78C70.7748 290.151 71.3905 288.819 72.5174 288.908C73.5609 288.991 74.2548 287.968 75.2356 287.706C75.4704 287.644 75.6895 287.325 75.8878 287.351C76.3468 287.418 76.8154 287.356 77.2411 287.171C77.6669 286.987 78.0329 286.687 78.2982 286.306C78.8199 285.695 79.4669 285.183 79.9938 284.572C80.1735 284.38 80.3986 284.236 80.6485 284.154C80.8983 284.072 81.1648 284.054 81.4234 284.102C81.614 284.124 81.8071 284.102 81.9879 284.037C82.1687 283.973 82.3325 283.868 82.4669 283.731C83.3799 282.817 84.1781 281.793 85.5346 281.381C85.8553 281.272 86.1301 281.058 86.3147 280.774C86.4992 280.489 86.5828 280.151 86.552 279.814C86.552 279.641 86.8546 279.265 87.0007 279.291C88.8789 279.401 88.8737 277.661 89.4476 276.648C89.9694 275.739 90.6476 274.982 91.1641 274.12C91.6806 273.258 92.1293 272.093 92.6771 271.116C93.0476 270.463 92.9798 269.549 93.7989 269.147C93.616 268.982 93.4082 268.846 93.1832 268.745C92.5519 268.588 92.265 269.126 91.8633 269.455C91.4615 269.784 91.2685 270.343 90.6215 270.369C90.0998 270.369 89.4476 270.061 89.1294 270.62C88.7224 271.336 87.8094 270.892 87.4494 271.472C86.7816 272.516 85.2477 271.346 84.6529 272.6C84.5851 272.741 84.1729 272.798 83.9381 272.772C82.6547 272.621 81.5747 272.924 80.8077 274.042C80.6954 274.205 80.5325 274.328 80.344 274.39C80.1556 274.452 79.9519 274.451 79.7643 274.386C78.3243 274 77.38 275.186 76.1591 275.473C75.2513 276.747 73.6078 275.41 72.5331 276.57C71.907 277.238 70.5192 276.632 69.7261 277.615C69.507 277.881 68.6827 277.615 68.1609 277.672C67.7957 277.677 67.4566 277.886 66.7053 278.445ZM94.6232 171.101C94.6232 171.623 94.811 172.292 94.5763 172.668C94.2528 173.222 93.7154 173.593 93.7937 174.382C93.8876 175.317 93.7937 176.267 93.7937 177.213C93.7937 178.289 93.6319 179.401 93.8406 180.436C94.0493 181.47 92.9798 182.003 92.985 182.943C92.985 184.155 93.0215 185.372 92.985 186.599C92.996 186.858 93.059 187.111 93.1702 187.344C93.2814 187.578 93.4384 187.786 93.6319 187.957C93.7152 188.059 93.7757 188.178 93.8092 188.305C93.8428 188.433 93.8486 188.566 93.8263 188.695C93.8041 188.825 93.7542 188.949 93.6802 189.057C93.6061 189.166 93.5096 189.258 93.3971 189.326C93.2853 189.395 93.1898 189.488 93.1172 189.598C93.0446 189.708 92.9968 189.832 92.977 189.962C92.9571 190.092 92.9657 190.225 93.0023 190.352C93.0388 190.478 93.1023 190.595 93.1884 190.695C93.5432 191.107 93.9293 191.457 93.8093 192.063C93.4911 193.698 94.6076 195.563 93.0319 197.005C93.0962 197.106 93.1753 197.198 93.2667 197.276C93.6035 197.505 93.8381 197.856 93.9209 198.255C94.0037 198.653 93.9281 199.069 93.7102 199.413C93.2205 200.023 92.9651 200.788 92.9902 201.57C92.9902 212.895 92.9902 224.212 92.9902 235.523C92.9902 236.432 93.4337 236.933 93.8563 237.613C94.498 238.657 95.6719 238.584 96.4649 239.279C97.1171 239.864 98.004 239.509 98.7762 239.503C99.5484 239.498 100.378 239.833 101.129 239.143C101.129 237.451 101.129 235.706 101.129 233.967C101.155 233.577 101.102 233.187 100.975 232.818C100.848 232.45 100.648 232.11 100.388 231.82C99.7258 231.041 101.228 230.618 101.119 229.782C101.119 229.652 101.161 229.459 101.093 229.396C100.835 229.195 100.628 228.936 100.488 228.64C100.349 228.344 100.281 228.02 100.289 227.693C100.336 223.378 100.347 219.064 100.289 214.749C100.289 213.992 101.161 213.49 100.962 213.145C100.574 212.635 100.345 212.02 100.305 211.38C100.333 205.045 100.333 198.709 100.305 192.371C100.279 192.045 100.327 191.717 100.444 191.412C100.562 191.106 100.746 190.831 100.983 190.606C101.062 190.441 101.098 190.259 101.089 190.077C101.08 189.895 101.025 189.717 100.931 189.561C100.607 189.133 100.201 188.793 100.321 188.187C100.639 186.552 99.5275 184.688 101.082 183.23C100.924 183.041 100.749 182.867 100.561 182.708C100.399 182.587 100.288 182.411 100.249 182.213C100.21 182.015 100.247 181.809 100.352 181.637C100.804 181.169 101.084 180.561 101.145 179.913C101.348 177.056 100.394 174.089 101.901 171.341C101.956 171.216 101.984 171.081 101.984 170.944C101.984 170.808 101.956 170.673 101.901 170.547C101.489 169.68 100.388 168.86 101.823 167.936C101.819 167.835 101.78 167.739 101.714 167.664C100.947 167.037 100.874 166.457 101.62 165.684C102.141 165.162 102.141 164.901 101.62 164.352C100.879 163.558 101.051 163.031 101.74 162.357C102.188 161.913 100.649 161.579 101.562 160.936C102.23 160.461 101.886 159.709 101.922 159.077C101.922 158.643 101.025 158.33 100.649 158.627C100.441 158.794 100.3 159.076 100.07 159.181C99.3084 159.52 99.7258 160.409 99.2249 160.868C98.6301 161.391 98.0979 162.023 97.5032 162.571C96.9084 163.12 97.1745 164.138 96.3658 164.53C96.431 165.119 96.332 165.715 96.0797 166.252C95.8274 166.789 95.4316 167.245 94.9362 167.57C94.5084 167.878 94.6806 168.296 94.6597 168.672C94.6076 169.195 94.6232 169.738 94.6232 171.085V171.101ZM29.0728 266.692C28.3632 265.83 27.5963 265.209 26.3389 265.454C25.2485 265.663 24.1946 265.517 23.5476 264.409C23.125 263.683 22.405 263.887 21.7529 263.85C21.2311 263.814 20.6103 264.133 20.2764 263.542C19.572 262.299 17.9442 262.383 17.146 261.265C16.2903 260.037 14.9025 259.588 13.6295 259.019C12.8625 258.679 12.2104 258.251 12.0904 257.452C11.9547 256.517 11.0469 256.276 10.6921 255.592C10.3373 254.908 10.2434 254.129 9.5391 253.633C9.33894 253.478 9.09304 253.394 8.83998 253.394C8.58691 253.394 8.34101 253.478 8.14085 253.633C7.746 253.888 7.44443 254.264 7.28163 254.704C7.11883 255.145 7.1036 255.627 7.23826 256.078C7.38434 256.663 8.28172 256.987 8.01042 257.77C7.68173 258.726 8.86084 259.045 8.83476 259.86C8.85089 260.198 8.97301 260.522 9.18375 260.786C9.3945 261.051 9.68314 261.242 10.0087 261.333C10.9777 261.603 11.901 262.017 12.7478 262.56C13.7443 263.197 14.4747 264.247 15.3564 265.078C16.3999 266.039 17.146 267.523 18.9772 267.115C19.0607 267.115 19.3424 267.507 19.3529 267.732C19.3842 268.337 19.5355 268.698 20.2503 268.724C20.965 268.75 23.2294 269.831 23.6833 270.187C24.0398 270.56 24.4581 270.87 24.9198 271.101C25.5145 271.289 26.198 270.991 26.751 271.597C27.3041 272.203 28.2849 271.952 28.6867 272.757C29.631 272.396 29.9284 273.665 30.7736 273.571C31.0993 273.519 31.433 273.545 31.7462 273.649C32.0595 273.753 32.3433 273.93 32.5736 274.167C33.424 274.961 33.8779 273.728 34.5666 273.582C34.7962 273.535 35.1927 273.582 35.2866 273.733C35.8501 274.585 36.69 274.329 37.4622 274.381C38.1092 274.423 38.9909 274.271 39.3509 274.632C39.8726 275.154 40.6865 274.94 41.0517 275.447C41.7456 276.424 42.0274 275.347 42.5074 275.28C42.6639 275.28 42.8517 275.739 43.076 275.802C43.6969 275.959 44.6413 275.802 44.9178 276.152C45.6065 277.139 46.2899 275.901 46.6551 276.246C46.8972 276.467 47.1847 276.633 47.4974 276.731C47.8101 276.83 48.1406 276.858 48.4655 276.815C49.676 276.815 50.8968 276.883 52.1177 276.815C52.9055 276.753 53.3385 277.165 53.8029 277.635C54.2933 276.821 55.0707 276.758 55.8898 276.836C56.2135 276.868 56.5401 276.832 56.8497 276.733C57.1592 276.633 57.4451 276.471 57.6898 276.256C58.1593 275.891 58.5089 277.056 59.255 276.862C59.7454 276.742 60.2984 276.862 60.6897 276.403C61.2584 275.739 61.8584 275.922 62.3384 276.528C62.5836 276.847 62.7193 276.899 62.9228 276.585C63.072 276.364 63.2835 276.192 63.5305 276.09C63.7775 275.989 64.0489 275.963 64.3106 276.016C64.8323 276.063 65.6201 276.236 65.8758 275.969C66.1205 275.65 66.4547 275.411 66.8357 275.282C67.2166 275.154 67.6271 275.142 68.0149 275.248C69.1053 275.556 69.5801 274.313 70.5192 274.418C71.8026 274.564 72.8826 274.261 73.6496 273.148C73.9156 272.751 74.3174 272.793 74.693 272.788C75.6061 272.788 76.5921 273.007 77.1973 272.004C78.1417 272.004 79.0808 272.004 80.0199 271.968C80.2547 271.968 80.6043 271.874 80.7034 271.707C81.1521 270.928 82.1225 271.242 82.7277 270.625C83.3125 270.154 83.982 269.8 84.6999 269.581C85.3833 269.314 86.3068 269.69 86.8181 268.828C89.2911 267.935 91.5137 266.483 93.9137 265.449C94.4823 265.203 95.2389 264.733 95.3589 264.232C95.5362 263.495 95.5571 262.962 96.4858 263.036C97.5658 263.114 98.531 263.072 99.3292 262.038C100.226 260.856 101.28 259.802 102.46 258.904C103.68 258 103.503 256.851 103.503 255.67C103.503 255.148 102.757 254.657 102.392 254.96C101.014 256.109 99.0423 256.282 97.884 257.749C97.4875 258.272 96.9658 258.172 96.4441 258.188C95.9164 258.139 95.3842 258.195 94.8789 258.355C94.2893 258.643 94.7015 259.327 94.5919 259.828C94.5169 260.216 94.3278 260.572 94.0488 260.852C93.7699 261.131 93.414 261.32 93.0267 261.395C92.4058 261.536 91.6963 261.249 91.2163 261.918C90.8198 262.471 89.8598 262.001 89.5572 262.78C88.545 262.921 87.872 264.012 86.7555 263.824C85.2581 263.579 84.1729 264.984 82.7016 264.785C82.2477 265.726 80.8756 265.219 80.4582 266.217C79.5086 265.867 79.1852 267.261 78.3973 267.042C77.3069 266.75 76.7174 267.622 75.9087 267.925C74.1348 268.593 74.1713 268.677 72.9922 268.698C71.9487 268.698 70.8635 268.761 69.794 268.787C68.9592 270.286 67.2949 268.954 66.194 269.899C65.0932 270.845 63.5854 269.983 62.3541 270.364C61.1228 270.746 59.9906 271.346 58.6237 271.148C57.8178 271.09 57.0088 271.09 56.2028 271.148H53.4429C52.6389 271.072 51.829 271.082 51.0273 271.179C49.9525 271.425 49.3942 270.416 48.5177 270.359C47.3125 270.275 46.0395 270.108 44.8969 270.396C43.41 270.761 42.5595 269.178 41.1613 269.487C40.9004 269.549 40.53 269.116 40.2117 268.907C40.1091 268.826 39.9915 268.767 39.8657 268.733C39.74 268.699 39.6087 268.69 39.4795 268.707C39.3503 268.724 39.2258 268.766 39.1132 268.832C39.0007 268.898 38.9023 268.985 38.8239 269.09C38.6703 269.217 38.493 269.313 38.3022 269.372C37.7805 268.505 36.9092 268.734 36.1318 268.719C35.46 268.661 34.7845 268.661 34.1127 268.719C33.304 268.844 33.1057 267.721 32.4275 267.909C31.2014 268.254 30.5753 266.901 29.0728 266.682V266.692ZM54.1629 76.2937C54.1629 75.4841 54.3507 74.6065 54.1003 73.8857C53.902 73.332 53.3281 72.9611 53.3177 72.1828C53.3177 70.7829 53.782 69.268 52.5716 68.0405C52.3629 67.8316 52.5298 67.2779 52.9107 66.9958C53.1831 66.7964 53.3729 66.5037 53.4441 66.1735C53.5153 65.8432 53.4628 65.4983 53.2968 65.2041C52.3003 64.0393 52.5768 62.7386 52.5455 61.4536C52.467 60.7838 52.467 60.1071 52.5455 59.4373C52.7438 58.4971 51.8046 58.0844 51.7264 57.3479C51.6505 57.0269 51.6516 56.6925 51.7296 56.372C51.8075 56.0515 51.9602 55.7541 52.1751 55.504C52.6968 54.9189 52.6968 54.7414 52.2272 54.1772C52.049 53.99 51.9109 53.7684 51.8212 53.5259C51.7315 53.2834 51.6921 53.0251 51.7055 52.7668C51.7525 51.9572 51.7055 51.1475 51.7055 50.3379C51.7055 49.5282 51.7055 48.729 51.7055 47.9194C50.7768 47.397 51.1368 46.8068 51.6116 46.2061C50.8499 45.6837 51.0899 45.3285 51.6116 44.7383C51.7498 44.5143 51.8294 44.259 51.8431 43.9961C51.8568 43.7332 51.8041 43.471 51.6899 43.2339C50.7194 42.2309 50.9333 41.0504 50.9281 39.8908C50.9281 36.9238 50.9281 33.9569 50.9281 31.0108C50.9281 30.4884 51.1577 29.7049 50.8864 29.4437C50.1299 28.6863 50.062 27.8766 50.109 26.9103C50.156 25.9439 50.109 25.0194 50.109 24.0791C50.109 21.9218 50.109 19.7645 50.109 17.6071C50.1019 17.4095 50.0451 17.2168 49.9439 17.047C49.8427 16.8772 49.7003 16.7356 49.5299 16.6356C49.2534 16.3953 49.2742 16.2908 49.5925 16.0453C50.1977 15.5647 50.2238 15.0842 49.7647 14.3685C49.0655 13.282 49.076 13.1828 49.7177 11.9239C50.2394 10.9053 50.4377 9.69869 49.8534 8.97262C49.1282 8.07417 49.4099 7.22795 49.2847 6.36084C49.2116 5.83849 49.3108 5.02884 49.0447 4.8878C48.3873 4.54305 47.7247 4.02069 47.0569 3.88488C46.0042 3.75751 44.9384 3.78921 43.8952 3.9789C43.5247 4.02069 43.5769 4.29754 43.8952 4.53782C44.0613 4.64173 44.1971 4.78778 44.2887 4.96115C44.3804 5.13453 44.4246 5.32908 44.4169 5.52507C44.3856 7.54659 44.3543 9.57332 44.4169 11.5896C44.4639 12.9895 43.9682 14.4991 45.1786 15.7319C45.3925 15.9408 45.1786 16.4841 44.8291 16.7766C44.3491 17.1422 44.1352 17.7743 44.563 18.1191C45.3456 18.7511 45.1786 19.5242 45.2099 20.3025C45.2465 21.2062 44.9595 22.183 45.9351 22.8568C46.0656 22.9508 45.9769 23.6874 45.763 23.9015C44.9543 24.6903 45.0065 25.5208 45.4917 26.3932C45.6743 26.7222 46.0604 26.9155 46.0134 27.3961C45.956 28.3363 46.0134 29.2818 46.0134 30.222C46.0963 31.2971 46.0823 32.3775 45.9717 33.4502C45.8256 34.5053 47.1821 34.7769 46.9317 35.9105C46.6812 37.044 46.8795 38.3237 46.8795 39.5669C46.8795 40.9146 46.9786 42.2675 46.8482 43.6047C46.7282 44.8479 47.3334 45.8247 47.6464 46.9217C47.7909 47.7094 47.8103 48.5151 47.7038 49.3089C47.6395 49.6346 47.6697 49.9721 47.7908 50.2812C47.9119 50.5904 48.1189 50.8584 48.3873 51.0535C48.0534 51.6438 47.5003 52.2497 48.4812 52.7668C48.7003 53.9317 48.0273 55.2794 48.8047 56.2562C49.796 57.5151 49.1855 58.8262 49.3264 60.1007C49.4826 61.3145 49.4826 62.5434 49.3264 63.7572C49.1281 64.9377 50.3125 65.5436 50.2029 66.6615C50.129 67.8792 50.129 69.1003 50.2029 70.318C50.208 70.4439 50.2384 70.5675 50.2921 70.6815C50.3459 70.7955 50.422 70.8974 50.516 70.9814C51.1838 71.5037 51.0377 72.188 50.9751 72.8096C50.8446 73.7133 51.5959 74.2304 51.7472 74.899C51.9843 75.9549 51.9843 77.0504 51.7472 78.1063C51.429 79.4487 52.7907 80.1957 52.629 81.4232C52.5142 82.4679 52.7385 83.6014 52.5716 84.6514C52.3629 85.9625 53.5107 86.7408 53.6516 87.8691C53.6516 87.9631 54.1107 88.0833 54.3403 88.0519C54.5698 88.0206 54.9663 87.8325 54.9715 87.7019C55.0185 85.2834 55.0237 82.8649 55.0342 80.4412C53.735 79.5532 54.262 78.2525 54.1629 76.2937ZM68.7296 11.4904C68.7793 10.9552 68.7793 10.4166 68.7296 9.88151C68.5731 9.06664 69.2514 8.73756 69.5227 8.17341C69.7209 7.71897 69.4131 7.02946 69.6427 6.60635C69.9505 6.04221 70.6079 5.67656 71.0096 5.14376C71.0911 5.0402 71.1496 4.92038 71.1811 4.79233C71.2126 4.66429 71.2164 4.53098 71.1921 4.40136C71.1679 4.27173 71.1163 4.1488 71.0407 4.0408C70.9652 3.9328 70.8674 3.84224 70.754 3.77519C70.3627 3.45655 70.1331 2.92375 69.4705 2.96554C68.667 3.02299 67.8531 2.96554 67.0497 2.96554C66.9505 2.95165 66.8494 2.96045 66.7541 2.99129C66.6588 3.02213 66.5717 3.07419 66.4994 3.14357C66.4271 3.21295 66.3715 3.29784 66.3366 3.39186C66.3018 3.48588 66.2887 3.58658 66.2984 3.68639C66.2984 4.33411 66.4288 4.97138 65.8079 5.51985C65.0097 6.21981 66.0636 7.75553 64.681 8.27266C64.5994 9.49071 64.6134 10.7133 64.7227 11.9291C64.9262 13.2194 63.6793 13.9559 63.8254 15.2461C63.9714 16.5363 64.0497 17.7691 63.1367 18.9966C62.6149 19.7122 63.5175 21.1226 62.3854 21.8957C62.2934 22.9534 62.2585 24.0153 62.281 25.0768C62.3541 26.1738 61.8323 27.0304 61.5245 28.002C61.1749 29.1042 61.4515 30.3996 61.4358 31.6115C61.4309 31.6748 61.4119 31.7363 61.3804 31.7914C61.3488 31.8465 61.3053 31.8939 61.2532 31.9301C60.3663 32.4525 60.5332 33.377 60.6741 34.0979C60.8671 35.0695 59.8184 35.3881 59.8237 36.1873C59.8237 37.2634 59.8237 38.3446 59.8237 39.4207C59.8237 40.6325 59.7454 41.8549 59.8237 43.0772C59.9176 44.1846 58.5872 44.8375 58.9993 45.9762C59.4115 47.115 58.2011 47.5433 58.1802 48.4731C58.1593 49.4029 58.1802 50.3431 58.0863 51.2729C58.0863 51.4766 57.695 51.6281 57.5646 51.8475C57.4845 51.9512 57.4266 52.0702 57.3945 52.1972C57.3623 52.3242 57.3566 52.4565 57.3776 52.5858C57.3986 52.7151 57.446 52.8387 57.5168 52.9489C57.5875 53.0592 57.6802 53.1536 57.7889 53.2265C58.2533 53.6183 58.4515 54.2242 58.0133 54.5742C57.6971 54.8266 57.4702 55.174 57.3659 55.5651C57.2617 55.9563 57.2856 56.3706 57.4341 56.7472C57.7524 57.8755 56.3176 58.1941 56.5472 59.2649C56.6631 59.714 56.6575 60.1858 56.531 60.632C56.4045 61.0782 56.1615 61.4826 55.8272 61.8036C55.4098 62.2476 55.9524 63.2505 55.2324 63.9766C54.5124 64.7027 55.0289 65.7578 54.9715 66.6719C54.9194 67.4764 55.0029 68.2912 54.9715 69.0957C54.9412 69.3583 54.9841 69.6243 55.0956 69.864C55.207 70.1037 55.3826 70.3079 55.6028 70.4538C56.4324 71.0597 56.6463 71.8537 56.6463 72.8723C56.6046 74.8729 56.7037 76.8787 56.7611 78.8794C56.7611 78.9682 56.9541 79.1353 57.0324 79.1196C57.1107 79.104 57.3193 78.9316 57.3089 78.8585C57.0846 77.6153 58.0967 76.7325 58.2428 75.599C58.3889 74.4655 57.7211 73.1439 59.0306 72.2872C58.9541 72.1873 58.8704 72.093 58.7802 72.0052C57.9559 71.3261 58.2898 70.8194 58.7802 70.0046C59.1976 69.2942 59.0776 68.2181 59.0411 67.3092C59.0045 66.2279 60.4758 65.622 59.8706 64.4101C60.1524 62.3677 59.1663 60.1582 60.6845 58.2777C60.6845 57.3322 60.8671 56.345 60.6376 55.4622C60.3454 54.3339 61.6393 53.9578 61.5141 52.9497C61.3889 51.9415 61.6132 51.0483 61.4619 50.129C61.2845 49.0842 62.0828 48.4731 62.281 47.6269C62.5732 46.3941 61.7019 44.9106 63.1001 43.9234C63.1878 42.7057 63.1773 41.4829 63.0688 40.2669C62.8654 38.9767 64.1801 38.2402 63.961 36.9499C63.7888 35.9522 63.7053 34.8135 64.7279 34.0613C64.1227 32.745 65.5627 31.9719 65.5784 30.76C65.5784 29.1042 64.9732 27.2968 66.3453 25.8395C66.3766 24.4186 66.1992 23.024 67.0966 21.6606C67.467 21.1017 67.2792 20.0622 67.1279 19.2787C66.9192 18.234 67.7905 17.628 67.9366 16.7766C68.0332 15.9733 68.0332 15.1614 67.9366 14.3581C67.8531 13.5484 69.0948 13.2455 68.7296 11.4904ZM47.2812 92.9098C47.8964 93.435 48.4622 94.0155 48.9716 94.644C49.4934 95.3753 50.4377 95.1664 50.9438 95.7671C51.4499 96.3678 52.1751 96.1171 52.8064 96.138C54.1524 96.1798 55.4985 96.138 56.8446 96.138C58.0446 96.138 60.0271 94.947 60.6271 93.9023C60.815 93.5784 60.8358 93.1083 61.0863 92.8941C61.9523 92.1524 62.4688 91.3584 62.281 90.1257C62.1844 89.1862 62.1844 88.2392 62.281 87.2997C62.281 86.8139 61.968 86.6154 61.7593 86.302C61.3263 85.6804 61.3523 84.8499 60.6323 84.3275C59.9124 83.8052 59.2967 83.0112 58.5872 82.3948C58.4679 82.3358 58.3367 82.3052 58.2037 82.3052C58.0707 82.3052 57.9395 82.3358 57.8202 82.3948C57.6152 82.5466 57.4754 82.7706 57.4289 83.0216C57.2307 83.8835 58.5193 84.1813 58.2585 85.1111C58.2272 85.2103 58.608 85.5707 58.7802 85.5655C59.6932 85.5185 59.9489 85.9782 59.8237 86.7878C60.9663 87.5087 60.8671 88.7362 60.5645 89.666C60.2463 90.7107 59.9384 92.0166 58.8689 92.5546C57.888 93.0456 56.9907 93.7769 55.7072 93.7404C54.4237 93.7038 53.422 92.4501 52.0551 92.7845C51.7055 92.2621 50.9073 92.0479 50.9281 91.2174C50.9281 90.5435 50.9699 89.8697 50.9281 89.1959C50.876 88.4385 51.0168 87.7333 50.4064 86.9602C49.9316 86.3386 50.182 85.1999 50.0255 84.3066C49.9629 83.9462 49.6134 83.8992 49.5038 84.1865C49.1699 84.9439 48.1629 84.4895 47.8656 85.0536C47.6208 85.6328 47.3438 86.1978 47.036 86.746C46.723 87.2161 46.8221 88.0415 46.9108 88.684C47.0256 89.4936 46.0708 89.6503 46.0604 90.3712C46.058 90.5698 46.1079 90.7656 46.205 90.9389C46.302 91.1121 46.4429 91.2568 46.6134 91.3584C47.0204 91.7136 46.8273 92.1263 47.2812 92.9098ZM51.3559 296.252C52.3994 295.772 52.7229 297.224 53.8394 297.135C56.1768 296.942 56.1924 297.135 59.5784 295.448C59.688 295.395 59.8445 295.448 59.9802 295.448C60.0762 295.444 60.1704 295.421 60.2573 295.38C60.3442 295.339 60.422 295.281 60.4862 295.209C60.5503 295.138 60.5996 295.054 60.6309 294.963C60.6623 294.872 60.6752 294.776 60.6689 294.68C60.7106 294.11 60.4602 293.834 59.6567 293.834C57.5141 293.834 55.3715 293.834 53.229 293.834C52.3026 293.819 51.376 293.854 50.4533 293.938C50.0881 293.98 50.0777 294.283 50.3751 294.46C50.8342 294.8 51.0325 295.265 51.3559 296.252ZM56.5733 301.517C56.5733 301.382 56.5733 301.246 56.5733 301.11C56.5315 299.329 56.255 299.099 54.9246 299.971C54.2098 300.441 53.7246 300.4 53.2498 299.794C53.0046 299.475 52.7281 299.402 52.6916 299.757C52.502 300.526 52.4665 301.325 52.5872 302.108C52.7281 302.656 53.349 303.152 53.8655 303.508C54.1316 303.696 54.5698 303.508 54.9089 303.21C55.6176 302.821 56.1964 302.233 56.5733 301.517ZM58.1906 90.0734C58.243 89.5611 58.243 89.0448 58.1906 88.5325C58.1658 88.441 58.1224 88.3557 58.0634 88.2816C58.0043 88.2075 57.9307 88.1464 57.8471 88.1018C57.7636 88.0573 57.6718 88.0304 57.5774 88.0227C57.4831 88.015 57.3881 88.0267 57.2985 88.0571C57.0741 88.1146 56.7246 88.2452 56.6933 88.3914C56.5834 88.8886 56.5586 89.4008 56.6202 89.9063C56.7141 90.5801 57.2985 90.5018 58.2063 90.0734H58.1906Z" fill="black"/>
<path d="M38.177 208.152C38.5161 207.734 38.7613 207.52 38.7665 207.306C38.8031 205.822 38.8031 204.339 38.7665 202.855C38.7665 201.93 38.6674 201.011 38.61 200.087C37.2744 199.355 39.0118 198.896 38.777 198.264C38.7102 198.023 38.6193 197.791 38.5057 197.569C38.3488 197.361 38.1743 197.167 37.984 196.989C39.497 195.699 38.5631 193.97 38.73 192.455C38.8239 191.604 39.0639 190.653 38.177 189.843C37.7961 189.493 38.8448 189.023 38.8083 188.276C38.6987 185.988 38.777 183.69 38.7665 181.397C38.6946 180.602 38.9404 179.811 39.45 179.198C39.6759 178.865 39.7656 178.459 39.7005 178.062C39.6354 177.665 39.4206 177.309 39.1005 177.066C38.7718 176.831 38.7874 176.737 39.0274 176.476C39.6326 175.823 40.5926 175.379 40.4674 174.246C41.3022 173.749 41.2239 172.94 41.2343 172.13C41.2847 171.879 41.4191 171.652 41.6152 171.488C42.2674 170.809 42.9456 170.15 43.6134 169.482C43.4517 168.327 44.4639 167.915 45.0482 167.246C45.6526 166.52 46.3253 165.853 47.0569 165.256C48.4499 164.211 48.7003 162.279 50.1142 161.249C50.0099 160.377 50.4064 160.1 51.2568 160.09C51.5542 160.09 51.8725 159.62 52.1333 159.322C52.7177 158.648 52.6551 157.421 53.5785 157.128C54.4302 156.828 55.1977 156.329 55.8168 155.671C56.1542 155.361 56.6005 155.197 57.0581 155.216C57.5156 155.234 57.9472 155.434 58.2585 155.77C59.1611 156.773 60.4393 157.045 61.5141 157.697C61.7802 157.859 63.8567 159.197 63.8671 159.291C63.9923 160.335 65.2132 160.591 65.4636 161.464C65.9488 163.12 67.3731 163.898 68.4636 164.995C69.8201 164.66 69.2775 166.039 69.8096 166.468C70.3418 166.896 70.2322 167.387 70.4357 167.831C70.587 168.16 71.3644 168.155 71.74 168.448C72.3557 168.933 72.9818 169.461 72.7835 170.438C72.689 170.894 72.7295 171.367 72.9 171.801C73.0705 172.234 73.3637 172.608 73.7435 172.877C74.6357 173.624 74.6252 175.061 75.7522 175.682C75.8617 175.74 76.0078 175.881 75.9974 175.969C75.82 177.651 77.0721 178.78 77.5626 180.185C77.813 180.921 78.0843 182.06 77.2182 182.797C76.7956 183.167 77.0774 183.319 77.2652 183.674C77.5874 184.247 77.7631 184.89 77.7768 185.547C77.7904 186.205 77.6416 186.855 77.3434 187.44C76.9156 188.266 76.613 188.694 77.3434 189.451C77.8234 189.948 77.7243 190.052 77.3069 190.81C77.1921 191.013 76.9052 191.332 76.9104 191.363C78.0999 192.283 77.5156 193.588 77.6043 194.722C77.693 195.855 77.5208 196.895 77.6617 197.955C77.7608 198.718 76.6861 199.078 77.0356 199.522C77.4488 200.028 77.6623 200.667 77.6356 201.319C77.6043 203.074 77.6356 204.83 77.6043 206.579C77.6043 206.783 77.3121 207.003 77.1243 207.18C76.5191 207.739 76.9469 208.449 76.8165 209.082C77.9382 209.808 77.6147 210.952 77.62 211.981C77.62 214.545 77.646 217.11 77.62 219.67C77.62 220.824 77.9382 222.083 76.8217 222.976C76.9313 223.603 76.5243 224.345 77.1765 224.851C77.6721 225.238 77.4843 225.823 77.6669 226.267C78.0008 227.071 76.0495 227.693 77.5521 228.477C77.6233 229.274 77.6424 230.075 77.6095 230.874C77.4791 232.269 78.2408 233.841 76.853 235.006C76.7643 236.077 76.7643 237.153 76.853 238.224C77.0356 239.389 76.2843 240.172 76.0495 241.144C75.8356 242.032 75.9974 243.019 75.9974 243.959C74.9017 245.171 74.5261 246.884 72.747 247.663C71.0461 248.41 69.1262 248.948 67.8583 250.499C67.5557 250.87 67.1749 250.833 66.7836 250.833H63.5488C61.9836 252.322 60.0063 251.418 58.222 251.617C57.1473 251.706 56.0671 251.706 54.9924 251.617C54.1055 251.57 53.5629 250.483 52.4881 250.802C51.7838 251.011 51.6168 249.862 50.8081 249.987C50.1367 250.046 49.4618 250.054 48.789 250.013C48.5974 250.048 48.4005 250.039 48.2127 249.988C48.0249 249.936 47.851 249.843 47.7038 249.715C47.2499 249.251 46.7125 248.869 46.2117 248.446C45.0013 249.057 44.3543 247.365 43.3265 247.673C42.1995 248.013 41.8709 246.414 40.8222 246.827C40.243 246.263 39.6952 245.667 39.09 245.14C38.7144 244.816 38.7718 244.44 38.7718 244.053C38.7718 241.76 38.7718 239.462 38.7718 237.174C38.7736 236.975 38.7235 236.78 38.6264 236.606C38.5294 236.433 38.3889 236.288 38.2187 236.186C37.8848 235.941 37.89 235.847 38.2187 235.591C38.8239 235.131 39.0431 234.546 38.4118 233.935C38.1457 233.669 37.8535 233.46 38.3179 233.068C39.1892 232.326 38.6883 231.302 38.7144 230.42C38.7144 229.814 37.6709 229.511 37.9579 228.738C38.13 228.273 38.6205 227.902 38.7144 227.442C38.8396 226.821 38.9335 226.084 38.2239 225.645C38.0512 225.535 37.9283 225.361 37.8816 225.161C37.8348 224.961 37.8678 224.751 37.9735 224.575C39.2309 223.128 39.017 221.811 37.9735 220.323C37.8067 220.028 37.7482 219.685 37.8083 219.352C37.8683 219.018 38.0431 218.717 38.3022 218.5C38.6987 218.191 38.6726 217.93 38.3022 217.638C38.0452 217.418 37.8721 217.115 37.8122 216.782C37.7523 216.449 37.8093 216.105 37.9735 215.809C39.5387 213.72 38.3857 211.396 38.6935 209.217C38.777 208.972 38.2448 208.643 38.177 208.152ZM75.22 198.629V186.093C75.2887 185.439 75.1017 184.783 74.6983 184.264C74.2078 183.653 75.6582 183.157 75.22 182.316C75.6948 180.916 74.0513 179.981 74.4061 178.607C73.7017 177.824 72.987 177.04 72.2878 176.251C71.4531 175.301 72.6165 173.828 71.4322 172.961C71.3179 172.895 71.2295 172.791 71.1818 172.668C70.8374 170.939 69.8148 169.659 68.5731 168.489C67.3314 167.319 66.0792 166.029 64.8584 164.775C64.4149 164.321 63.8619 163.981 63.8462 163.161C63.8462 162.258 62.4949 162.905 62.3593 162.252C61.9367 160.205 59.975 159.489 58.8898 158.027C58.5402 157.562 57.1628 157.603 56.7194 158.027C56.2093 158.467 55.7364 158.95 55.3055 159.468C55.0185 159.855 55.0133 160.482 54.6846 160.805C54.2762 161.086 53.82 161.29 53.3385 161.406C52.856 161.524 52.3984 161.728 51.9872 162.007C51.6586 162.331 51.5959 162.905 51.382 163.36C51.1589 163.943 50.8664 164.497 50.5107 165.01C49.916 165.737 49.1908 166.353 48.5334 167.032C47.9751 167.601 47.0517 168.139 46.9682 168.782C46.8221 169.921 45.9247 170.281 45.403 170.976C44.9856 171.498 44.4221 171.906 43.9943 172.423C43.5665 172.94 43.6447 173.953 42.8621 174.376C43.0917 175.175 42.2569 175.494 42.09 176.074C41.8865 176.795 42.2987 177.688 41.4222 178.236C41.2239 178.357 41.4222 178.539 41.6256 178.806C42.3248 179.725 42.1943 180.806 41.85 181.778C41.6987 182.222 41.1978 182.525 41.2291 183.141C41.2865 184.217 41.2709 185.299 41.2291 186.38C41.1926 187.566 41.1039 188.751 41.0361 189.937C39.4709 190.94 41.2291 191.698 41.2343 192.58C41.2343 192.716 41.2813 192.941 41.2343 192.972C40.1439 193.578 41.0048 194.09 41.1874 194.759C41.3548 195.688 41.3706 196.639 41.2343 197.574C41.13 199.105 41.7561 200.776 40.4361 202.092C40.603 202.97 39.9926 203.994 40.8639 204.736C41.323 205.127 41.0204 205.321 40.7804 205.608C40.5343 205.914 40.3915 206.29 40.3728 206.683C40.354 207.075 40.4602 207.463 40.6761 207.791C40.8483 208.12 41.297 208.251 41.2604 208.768C41.203 209.573 41.2604 210.387 41.2604 211.197C41.2604 212.409 41.3022 213.626 41.2604 214.854C41.2187 216.081 41.7039 217.277 40.4935 218.15C41.7926 219.011 41.1196 220.338 41.2604 221.467C41.323 221.989 41.2239 222.548 41.2604 223.081C41.3283 223.697 40.9526 224.026 40.6343 224.454C40.5403 224.611 40.4867 224.788 40.4785 224.971C40.4703 225.153 40.5077 225.335 40.5874 225.499C41.5213 226.33 41.4587 227.024 40.5248 227.787C40.4525 227.894 40.4083 228.018 40.3965 228.147C40.3846 228.275 40.4054 228.405 40.457 228.524C41.5004 229.459 41.2396 230.697 41.2448 231.851C41.2448 235.628 41.2448 239.399 41.2448 243.176C41.3064 243.269 41.3726 243.36 41.443 243.447C42.8569 244.79 43.9682 246.722 46.4308 246.059C46.881 246.517 47.4533 246.836 48.0795 246.978C48.6012 247.13 49.0395 247.835 49.8012 247.684C50.7768 247.485 51.502 248.206 52.3107 248.394C53.2185 248.582 53.9698 249.005 54.7994 249.245C55.7274 249.422 56.6792 249.435 57.6115 249.282C58.7437 249.177 60.048 249.778 60.9663 248.582C61.162 248.689 61.3383 248.829 61.488 248.995C61.7854 249.407 62.4115 249.439 62.5315 249.271C63.2254 248.399 64.0967 248.493 65.0619 248.467C65.6879 248.467 66.4236 248.812 66.9505 248.185C67.5505 247.459 68.6462 247.663 69.2148 246.775C70.0183 245.547 71.3748 244.973 72.6896 244.476C73.0809 244.325 73.5348 244.241 73.5087 243.844C73.3991 242.277 74.667 241.029 74.4113 239.315C74.1087 237.341 74.3487 235.283 74.333 233.261C74.2837 232.87 74.3202 232.473 74.4401 232.098C74.5599 231.723 74.7602 231.378 75.0269 231.088C75.2109 230.813 75.2998 230.484 75.28 230.153C75.2603 229.822 75.1329 229.507 74.9174 229.255C74.7235 229.081 74.5702 228.866 74.4683 228.626C74.3664 228.386 74.3185 228.126 74.3278 227.865C74.38 226.789 74.2965 225.708 74.3539 224.632C74.4113 223.556 73.8948 222.182 75.1522 221.326C74.86 219.691 75.8669 217.857 74.3696 216.374C74.1765 216.186 74.2913 215.611 74.6826 215.329C75.1678 214.979 75.4078 214.363 75.0113 213.986C74.3748 213.375 74.6043 213.125 75.0113 212.482C75.2409 212.15 75.3332 211.741 75.2691 211.342C75.2049 210.943 74.9892 210.584 74.6669 210.34C74.3487 210.1 74.2913 209.949 74.5991 209.761C75.3191 209.327 75.1626 208.627 75.1626 207.969C75.1991 205.101 75.2043 202.27 75.2043 198.629H75.22Z" fill="black"/>
<path d="M35.5475 229.009C35.6466 230.169 35.2188 231.047 36.1109 231.621C36.1913 231.678 36.2598 231.75 36.3122 231.833C36.3647 231.917 36.4002 232.009 36.4167 232.107C36.4332 232.204 36.4303 232.303 36.4083 232.399C36.3863 232.495 36.3455 232.586 36.2883 232.666C35.5266 233.246 35.5318 233.993 35.5422 234.813C35.5422 237.236 35.464 239.665 35.584 242.089C35.6414 243.228 34.9788 243.755 34.3266 244.393C33.6692 243.745 32.944 243.196 33.0901 242.058C33.1945 240.982 33.1945 239.9 33.0901 238.824C33.0171 237.78 33.6118 236.474 32.8397 235.732C31.7075 234.64 33.7475 234.348 33.1579 233.397C32.7927 232.812 33.3144 231.893 32.5423 231.208C32.0205 230.759 33.111 230.566 33.1057 230.054C33.1057 228.576 33.1371 227.087 33.1057 225.609C33.0618 225.281 33.1014 224.948 33.2209 224.64C33.3404 224.333 33.536 224.06 33.7892 223.848C33.8692 223.749 33.9223 223.63 33.9433 223.504C33.9643 223.378 33.9526 223.248 33.9092 223.128C32.4797 221.508 33.3353 219.57 33.1266 217.784C33.0499 217.393 33.0765 216.989 33.2036 216.611C33.3308 216.234 33.5543 215.896 33.8518 215.632C33.9868 215.405 34.0611 215.148 34.0675 214.884C34.0739 214.621 34.0122 214.36 33.8883 214.127C32.8449 213.281 33.1318 212.21 33.1318 211.176C33.1318 210.142 32.8553 209.055 33.8779 208.298C32.6988 207.567 33.1423 206.386 33.1371 205.378C33.1005 200.677 33.231 195.939 33.064 191.227C33.0014 189.53 33.7475 188.281 34.1962 186.746C34.9109 187.461 35.4535 188.067 36.064 188.595C36.4553 188.929 36.4918 189.535 36.3301 189.639C35.4275 190.324 35.537 191.233 35.5422 192.168C35.5422 195.944 35.5422 199.721 35.5422 203.492C35.5119 203.754 35.5515 204.019 35.6569 204.26C35.7623 204.502 35.9298 204.711 36.1422 204.866C36.4031 205.054 36.2518 205.169 36.0379 205.451C35.2501 206.496 35.3544 207.629 35.9596 208.721C36.5648 209.813 36.6535 210.946 35.9074 211.996C35.6518 212.351 35.3857 212.832 35.584 213.041C36.9196 214.399 36.1422 216.076 36.3718 217.585C36.3935 217.783 36.3553 217.982 36.2622 218.157C36.1691 218.332 36.0255 218.475 35.8501 218.567C35.5214 218.813 35.5318 218.912 35.8501 219.163C36.4553 219.628 36.6744 220.208 36.0379 220.819C35.7718 221.085 35.5161 221.294 35.944 221.691C36.2463 221.95 36.4388 222.314 36.4824 222.71C36.526 223.106 36.4174 223.504 36.1788 223.822C35.537 224.548 35.8344 224.804 36.304 225.327C36.4186 225.488 36.4648 225.689 36.4326 225.885C36.4003 226.08 36.2922 226.255 36.1318 226.371C35.2188 226.977 35.6466 227.85 35.5475 229.009Z" fill="black"/>
<path d="M87.1363 221.509C86.8024 221.921 86.552 222.135 86.552 222.35C86.5155 224.094 86.552 225.844 86.5155 227.573C86.5155 228.299 86.9068 228.743 87.1885 229.323C87.3086 229.523 87.3881 229.744 87.4224 229.975C87.4567 230.206 87.4451 230.441 87.3884 230.667C87.3317 230.893 87.2309 231.106 87.0918 231.293C86.9528 231.48 86.7782 231.638 86.5781 231.757C86.265 231.95 85.7798 232.279 85.5816 232.18C85.0496 231.82 84.5549 231.407 84.1051 230.947C84.3503 229.694 83.4999 228.283 84.6842 227.14C84.8877 226.941 84.9555 226.21 84.8146 226.095C83.6981 225.285 84.1468 224.141 84.1259 223.133C84.1259 222.25 83.8651 221.336 84.7312 220.521C85.0807 220.203 84.9085 219.268 84.9085 218.615C84.9085 210.41 84.9085 202.204 84.9085 193.996C84.8704 193.672 84.9086 193.344 85.02 193.037C85.1315 192.73 85.3131 192.454 85.5503 192.231C85.9833 191.844 86.4111 191.489 86.9276 191.734C87.1729 191.849 87.3242 192.387 87.3294 192.737C87.3607 195.83 87.3294 198.927 87.3294 202.019C87.3294 202.813 87.2094 203.618 88.0285 204.166C88.1042 204.27 88.1525 204.39 88.1689 204.517C88.1853 204.644 88.1693 204.773 88.1224 204.892C86.7242 206.365 87.5537 208.178 87.3346 209.823C87.2459 210.461 87.4285 211.391 87.0685 211.699C86.1346 212.508 87.1937 212.707 87.2981 213.193C87.3877 213.871 87.4069 214.558 87.3555 215.24V219.278C87.3756 220.028 87.302 220.777 87.1363 221.509Z" fill="black"/>
<path d="M26.8345 156.704C26.444 155.513 25.7196 154.46 24.7476 153.67C24.2419 152.836 23.8057 151.963 23.4432 151.058C23.5476 150.838 23.7302 150.462 23.8606 150.468C24.1239 150.491 24.3887 150.447 24.6305 150.34C24.8722 150.233 25.083 150.067 25.2432 149.856C25.7649 149.292 26.0362 150.953 26.6675 150.044C26.8707 149.775 27.1656 149.589 27.4965 149.523C27.8273 149.456 28.171 149.514 28.4623 149.684C29.6205 150.703 30.9353 150.363 32.2136 150.447C32.6779 150.478 32.897 150.154 33.2309 149.966C34.144 149.444 34.1753 149.475 34.5979 149.877C35.0205 150.279 35.5631 150.823 36.0274 151.309C36.1267 151.39 36.2089 151.491 36.2692 151.605C36.3296 151.718 36.3669 151.843 36.379 151.971C36.3911 152.099 36.3778 152.228 36.3399 152.351C36.3019 152.474 36.2401 152.589 36.1579 152.688C35.4274 153.596 34.2901 154.155 33.9353 155.404C33.6275 156.49 32.4796 156.924 31.8901 157.791C31.6136 158.198 31.5875 158.783 31.2797 159.144C30.9236 159.523 30.7097 160.014 30.6744 160.533C30.6327 160.993 29.6832 161.176 29.3649 160.815C28.9527 160.335 28.3997 160.027 28.2327 159.248C28.0658 158.47 27.4554 157.686 26.8345 156.704ZM31.4883 154.093C31.5823 153.999 31.6814 153.91 31.7701 153.811C31.9383 153.628 32.0968 153.436 32.2449 153.236C32.2449 153.236 32.0727 152.98 31.9736 152.975C30.6536 152.928 29.3336 152.876 28.0136 152.902C27.7371 152.902 27.1788 153.168 27.7684 153.602C28.2588 153.962 28.1127 154.829 28.3475 154.918C29.3336 155.294 28.5771 156.96 29.8397 156.908C31.4049 156.84 30.2936 155.414 30.7997 154.782C30.8988 154.646 31.0084 154.573 31.5301 154.072L31.4883 154.093Z" fill="black"/>
<path d="M85.9259 155.493C86.1659 156.767 84.4598 157.102 84.8825 158.162C84.2512 158.841 83.6825 159.478 82.5503 159.374C81.1521 159.243 81.0425 159.374 80.9173 157.958C80.8442 157.159 80.2912 156.851 79.9156 156.339C79.5399 155.827 78.4234 156.47 78.4599 155.409C78.4912 154.589 77.7973 154.323 77.3904 153.842C76.9834 153.362 76.446 152.902 76.0443 152.374C75.9858 152.256 75.9585 152.125 75.9649 151.994C75.9713 151.862 76.0112 151.734 76.0808 151.622C76.6913 150.912 77.3643 150.259 77.9538 149.648C78.4756 149.7 78.4756 150.745 79.206 150.102C79.4833 149.844 79.8365 149.683 80.2129 149.642C82.6234 149.606 85.0442 149.71 87.4546 149.585C88.592 149.528 89.1241 150.196 89.7711 150.833C89.1346 151.622 88.0598 152.113 88.065 153.351C88.065 153.445 87.8668 153.638 87.7989 153.623C86.312 153.257 86.7868 154.845 85.9259 155.493ZM80.4634 152.035H80.0512C79.9156 152.035 79.7173 151.977 79.6651 152.035C79.5347 152.186 79.3521 152.479 79.4147 152.557C80.1086 153.602 81.6738 154.035 81.6895 155.634C81.6895 155.728 82.1434 155.942 82.2112 155.89C82.7329 155.451 83.1399 154.923 83.6512 154.5C84.2772 153.978 83.959 152.933 84.7677 152.552C84.6685 152.369 84.5746 152.03 84.4703 152.03C83.406 152.035 82.3416 152.035 80.4634 152.035Z" fill="black"/>
<path d="M36.3561 174.732C35.3126 174.068 35.2813 173.112 35.7561 172.595C36.4396 171.854 36.0744 171.587 35.6048 171.101C35.537 170.988 35.4982 170.859 35.4918 170.727C35.4854 170.595 35.5117 170.463 35.5683 170.344C35.8017 170.022 36.0693 169.726 36.3665 169.461C36.8883 168.876 37.7752 168.354 37.8952 167.696C38.0674 166.755 38.7613 166.411 39.21 165.799C39.6587 165.188 40.483 164.891 40.4621 163.877C40.4621 163.496 41.1143 163.094 41.5056 162.718C42.0148 162.092 42.5943 161.528 43.2325 161.036C43.9212 160.607 43.2325 159.307 44.469 159.327C45.3977 159.327 45.6481 158.345 46.2951 157.922C47.0829 157.4 46.7699 155.802 48.2412 155.974C48.9038 155.311 49.582 154.658 50.229 153.973C50.7924 153.383 51.4916 153.764 52.1176 153.686C52.3941 153.655 52.7228 154.443 52.5611 154.668C52.3498 154.99 52.1144 155.296 51.8568 155.582C50.255 157.207 48.6272 158.816 47.0203 160.435C45.8934 161.574 44.4116 162.556 43.7595 163.924C43.0186 165.449 41.7039 166.285 40.7543 167.513C40.29 168.113 40.436 169.08 39.6221 169.461C39.6748 169.723 39.6472 169.995 39.5429 170.241C39.4387 170.487 39.2626 170.696 39.0378 170.84C38.6654 171.11 38.3666 171.469 38.1688 171.884C37.971 172.299 37.8805 172.758 37.9056 173.217C37.9004 173.729 37.1648 174.23 36.3561 174.732Z" fill="black"/>
<path d="M92.8024 156.705C94.0494 155.457 95.0928 154.407 96.1467 153.367C96.8876 152.631 97.1589 152.657 98.0928 153.498C98.2911 153.675 98.4737 153.874 98.6458 154.046C97.8267 155.206 96.3294 155.812 96.0789 157.441C96.0111 157.906 95.312 157.551 95.0355 157.75C93.7936 158.689 92.8363 159.955 92.2703 161.406C92.072 162.08 91.4251 162.545 91.4407 163.067C91.4877 164.551 89.2234 164.838 89.7868 166.431C90.2512 167.758 88.926 168.521 88.8581 169.732C88.8008 170.777 87.9451 171.822 88.1486 173.039C88.2634 173.702 87.6269 173.901 87.3347 174.314C87.0425 174.726 86.813 174.491 86.4686 174.267C85.5243 173.603 85.6025 172.699 85.8425 171.785C85.9364 171.441 86.4582 171.19 86.4999 170.856C86.6303 169.811 86.6251 168.766 86.6721 167.685C87.6112 167.241 87.1051 165.872 88.0912 165.439C88.1486 165.413 88.1695 165.188 88.1434 165.073C87.7521 163.104 89.1868 161.74 89.7712 160.09C89.8547 159.855 90.006 159.432 90.079 159.437C91.4251 159.635 91.2112 158.324 91.7485 157.744C92.0198 157.473 92.3172 157.196 92.8024 156.705Z" fill="black"/>
<path d="M88.1485 182.024C88.3259 183.549 88.0859 184.515 87.0529 185.132C86.8296 185.252 86.5719 185.293 86.3224 185.246C86.228 185.236 86.1366 185.207 86.0539 185.16C85.9713 185.113 85.8991 185.05 85.8418 184.974C85.7846 184.898 85.7436 184.811 85.7212 184.719C85.6989 184.627 85.6958 184.53 85.712 184.437C85.7485 183.392 85.7485 182.347 85.712 181.271C85.712 180.801 85.8894 180.462 86.2807 180.436C86.6578 180.443 87.023 180.569 87.3242 180.796C87.7221 181.107 88.0108 181.537 88.1485 182.024Z" fill="black"/>
<path d="M33.7265 180.608C33.0483 179.255 33.1161 178.999 34.1074 178.2C34.6291 177.777 35.0465 177.876 35.7509 178.581C36.4552 179.286 36.5491 179.704 36.1317 180.221C35.3335 181.219 35.0726 181.287 33.7265 180.608Z" fill="black"/>
<path d="M54.9715 131.794C54.1576 132.097 53.9281 132.635 53.2864 132.619C51.5472 132.577 49.796 132.577 48.0325 132.619C47.4325 132.619 47.0986 132.301 46.6499 132.024C46.3281 131.794 45.9361 131.683 45.5417 131.712C45.1473 131.741 44.7752 131.906 44.4899 132.18C44.1613 132.499 43.9682 132.557 43.6134 132.18C42.9717 131.512 42.1839 131.658 41.4378 131.966C39.5857 132.666 38.5631 132.933 37.3787 132.295C36.8498 131.925 36.2129 131.741 35.5683 131.773C34.5249 131.914 33.2884 131.251 32.4797 132.066C31.4362 133.152 31.0449 130.906 30.1736 131.757C29.0154 131.622 27.7528 132.139 26.6989 131.381C25.645 130.624 24.3354 131.266 23.2502 130.901C22.4207 130.624 21.7372 129.908 20.7407 130.138C19.9685 129.182 18.8833 129.24 17.8503 129.355C17.0416 129.443 16.9112 128.446 16.1599 128.508C15.4921 128.561 14.8138 128.508 14.1408 128.508C13.5773 127.521 12.1947 127.819 11.5791 126.837C11.3391 126.461 11.146 126.058 11.3025 125.761C11.5903 125.313 11.9561 124.92 12.3825 124.601C12.4347 124.554 12.7425 124.805 12.9356 124.909C14.1721 125.578 15.3773 126.32 16.8955 126.085C17.7199 125.959 18.0172 127.129 18.9824 126.931C19.7598 126.774 20.1407 126.748 20.1616 126.22C20.1616 125.818 20.1616 125.411 20.1616 125.009C20.1616 124.486 19.9424 123.635 20.1981 123.441C21.2416 122.674 20.7198 121.472 21.2102 120.589C21.3302 120.365 21.732 120.213 21.732 120.01C21.7998 119.205 21.4763 118.218 21.8363 117.628C22.452 116.625 23.4746 115.867 24.3302 115.016C24.8572 114.412 25.4447 113.865 26.0832 113.381C26.7667 112.937 26.4276 112.133 26.918 111.683C27.0925 111.477 27.2864 111.288 27.4971 111.119C28.0626 110.86 28.613 110.568 29.1458 110.247C29.653 109.804 30.1354 109.333 30.591 108.836C30.8514 108.595 31.1719 108.428 31.5189 108.352C31.8659 108.277 32.2267 108.297 32.5636 108.409C32.9006 108.521 33.2012 108.722 33.4343 108.99C33.6673 109.258 33.8241 109.584 33.8883 109.933C34.0031 110.753 34.0031 111.5 34.7649 112.023C35.0779 112.237 35.5579 112.665 35.5057 112.89C35.1457 114.389 36.257 115.052 37.024 115.946C37.0761 116.003 36.3979 116.677 36.4553 116.745C37.7961 118.39 36.977 120.307 37.1387 122.078C37.1909 122.564 37.5196 122.742 37.7126 123.065C38.0779 123.692 38.0726 123.713 37.6553 124.434C37.4831 124.726 37.0709 124.847 37.5144 125.317C38.417 126.267 38.1352 127.145 37.3109 128.09C36.7892 128.67 37.217 129.276 38.0518 129.386C38.4431 129.438 38.9857 129.266 39.21 129.475C39.7317 129.955 40.1387 130.373 40.6709 129.532C42.3735 129.289 44.102 129.289 45.8047 129.532C46.9838 129.715 46.9473 129.731 47.2395 129.438C47.8134 128.874 47.8969 128.336 47.2864 127.761C47.1873 127.667 47.0151 127.573 47.0099 127.474C46.9525 126.429 47.1508 125.27 46.8064 124.34C46.509 123.509 45.9508 122.809 46.0499 121.817C46.1491 120.824 46.0499 119.931 46.0499 118.986V115.329C47.0673 114.577 46.869 113.465 46.8377 112.43C46.8377 111.939 47.156 111.746 47.3856 111.438C47.7664 110.915 48.5177 110.691 48.4812 109.871C48.4342 108.795 49.5925 109.437 49.9003 108.915C50.2081 108.392 50.0986 107.609 50.7716 107.254C50.8133 106.052 51.7577 105.457 52.4985 104.741C52.7749 104.483 53.1331 104.329 53.5107 104.308C54.4029 104.308 55.4202 103.963 56.0515 104.981C57.3402 104.804 57.3037 105.974 57.7002 106.658C58.2219 107.541 58.5193 108.544 59.4219 109.181C60.3245 109.818 60.9871 110.748 60.5906 111.908C60.1941 113.068 61.8949 113.339 61.4254 114.415C62.2341 114.901 62.3123 115.669 62.2341 116.505C62.1812 116.83 62.2062 117.164 62.3068 117.478C62.4075 117.792 62.581 118.078 62.8132 118.312C62.9659 118.521 63.0632 118.765 63.0961 119.022C63.1289 119.278 63.0962 119.539 63.001 119.78C61.9106 121.19 62.2862 122.789 62.2445 124.33C62.2028 125.87 62.2445 127.532 62.2445 129.031C63.1001 129.621 63.9193 129.313 64.6914 129.37C65.3645 129.422 66.1053 129.203 66.7001 129.417C68.0566 129.908 68.787 128.451 70.0131 128.55C71.0825 128.617 72.1555 128.598 73.2218 128.493C73.5713 128.461 73.6078 128.132 73.3522 127.944C73.1236 127.805 72.944 127.598 72.8384 127.352C72.7327 127.105 72.7062 126.832 72.7626 126.57C72.8238 126.31 72.8042 126.037 72.7063 125.787C72.6084 125.538 72.437 125.325 72.2148 125.176C71.831 124.916 71.5252 124.557 71.3303 124.136C71.1354 123.715 71.0588 123.25 71.1087 122.789C71.1609 121.921 71.5157 120.908 70.5244 120.177C70.4298 120.02 70.3763 119.843 70.369 119.66C70.3617 119.477 70.4008 119.296 70.4827 119.132C71.4531 118.427 71.0826 117.44 71.14 116.52C71.2131 115.476 71.0096 114.316 71.3748 113.386C71.7818 112.341 72.4183 111.406 72.8252 110.346C72.9393 109.957 73.1822 109.618 73.5141 109.386C73.846 109.153 74.247 109.04 74.6513 109.066C74.785 109.077 74.9193 109.077 75.053 109.066C75.8594 109.111 76.6675 109.111 77.4739 109.066C78.3504 108.977 78.6425 110.21 79.5608 109.897C80.1399 110.451 80.7556 110.973 81.2877 111.568C81.7466 112.017 82.3241 112.325 82.952 112.456C83.5834 112.665 82.9521 114.091 84.2825 113.982C85.2529 113.903 84.6059 115.115 85.1955 115.47C85.9103 115.899 85.7798 116.646 85.6859 117.272C85.6013 117.849 85.6349 118.437 85.7847 119C85.9345 119.563 86.1974 120.09 86.5572 120.548C87.4598 121.713 87.1572 123.259 88.0963 124.392C88.4355 124.794 87.799 125.766 88.6598 126.079C89.2389 126.294 89.5885 125.588 90.0111 125.494C91.7028 125.182 93.4352 125.159 95.1345 125.426C95.1994 125.446 95.2583 125.482 95.3057 125.53C95.3531 125.578 95.3876 125.638 95.4058 125.703C95.4839 126.235 95.4698 126.775 95.3641 127.302C95.2962 127.526 94.6858 127.751 94.3728 127.688C93.2354 127.464 92.6563 128.832 91.4615 128.566C90.5641 128.373 89.5781 128.602 88.6442 128.514C87.4233 128.393 86.6981 129.778 85.3259 129.396C84.3242 129.114 83.1868 129.339 82.1068 129.339C81.2564 131.01 79.1956 129.339 78.2408 130.734C78.0582 131 77.886 130.932 77.6617 130.613C77.3173 130.122 76.733 129.908 76.3156 130.29C76.0913 130.527 75.8172 130.711 75.5132 130.829C75.2092 130.948 74.8827 130.997 74.5574 130.974C73.6183 130.916 72.6739 130.943 71.7296 130.974C71.0774 130.974 70.1644 130.822 69.8253 131.178C69.1001 131.872 68.7818 131.543 68.3435 131.005C67.1905 132.384 65.6305 131.663 64.248 131.757C62.7715 131.857 61.2845 131.757 59.8028 131.757L54.9715 131.794ZM58.6237 129.365C59.8132 126.826 59.7976 126.826 59.8445 125.029C59.8445 124.387 59.7141 123.462 60.0689 123.144C61.9262 121.41 59.1402 120.01 59.8341 118.443C59.2706 117.868 58.7437 117.252 58.1332 116.74C57.5228 116.228 56.3281 116.337 56.4689 115.068C56.4689 114.985 56.2863 114.791 56.1976 114.797C55.0289 114.88 53.7298 114.384 52.7229 115.099C52.1844 115.458 51.5483 115.64 50.902 115.622C50.6673 115.622 50.2864 115.773 50.2447 115.925C49.9629 117.032 49.2534 117.931 48.7995 118.954C48.7473 119.069 48.5334 119.148 48.5334 119.242C48.5334 120.182 48.5334 121.122 48.4968 122.057C48.4655 122.888 49.5716 123.175 49.3525 124.147C49.2636 124.945 49.2636 125.751 49.3525 126.55C50.3647 127.124 50.0881 128.117 50.229 129.015C50.229 129.167 50.6568 129.381 50.8551 129.355C51.5803 129.261 52.2898 130.833 53.0098 129.355L58.6237 129.365ZM30.6953 117.617C30.398 118.025 29.8397 118.223 29.8658 118.887C29.8658 119.378 30.1319 119.989 29.5684 120.354C28.2797 121.201 28.1075 122.444 28.2536 123.828C28.2954 124.215 28.358 124.805 28.1493 124.962C27.3823 125.547 27.3771 126.314 27.471 127.103C27.5649 127.892 27.1006 128.707 27.8571 129.365C28.9006 129.365 29.9806 129.297 31.0397 129.365C32.6831 129.496 33.4501 129.412 34.1179 128.738C34.4003 128.485 34.6063 128.157 34.7127 127.793C34.8066 127.266 34.8066 126.726 34.7127 126.2C34.5718 125.4 35.5892 125.27 35.5527 124.523C35.4953 123.327 35.5527 122.12 35.5527 120.919C34.4049 120.041 34.8222 118.782 34.744 117.643C33.7788 117.079 34.0449 115.742 33.1005 115.094C32.5788 114.744 32.511 115.094 32.224 115.251C31.431 115.69 31.6866 116.693 30.6953 117.617ZM76.8217 116.808C76.1643 116.186 75.6582 115.376 74.5104 115.57C73.8948 115.669 73.5504 115.831 73.5765 116.505C73.6419 117.035 73.6419 117.572 73.5765 118.103C73.5087 118.448 73.1383 118.714 72.9922 119.059C72.7261 119.665 73.613 119.728 73.6078 120.245C73.6078 121.185 73.4044 122.177 73.66 123.039C73.9157 123.901 74.6669 124.753 75.1156 125.651C75.2365 126.025 75.2704 126.422 75.2148 126.811C75.2148 127.443 75.4391 127.855 76.1174 127.751C77.1608 127.615 78.2043 128.085 79.2478 127.432C79.1823 126.641 79.1928 125.845 79.2791 125.056C79.4617 124.115 78.4808 123.729 78.4599 122.966C78.4605 122.193 78.2035 121.441 77.7295 120.83C77.3487 120.307 77.7295 119.263 77.5939 118.495C77.5417 118.171 77.0878 117.91 76.8217 116.808ZM81.6738 126.529C82.4564 127.354 83.4477 126.795 84.3346 126.91C84.5068 126.91 84.8564 126.633 84.8877 126.471C84.9346 125.265 84.9294 124.053 84.8877 122.841C84.8877 122.047 83.7346 121.718 84.0112 120.788C83.1764 120.266 83.1973 119.472 83.2807 118.672C83.4216 117.393 83.1503 116.296 82.0182 115.564C81.4182 115.178 81.9399 113.997 81.1416 114.029C80.2182 114.076 79.9364 113.015 79.0547 113.146C78.173 113.276 77.3852 113.198 77.6095 111.955C77.0408 111.297 75.5643 111.312 75.1991 112.012C75.1516 112.136 75.1308 112.268 75.138 112.401C75.1452 112.533 75.1802 112.662 75.2409 112.78C75.3452 112.968 75.6426 113.062 75.8722 113.156C76.1017 113.25 76.5087 113.229 76.5713 113.376C76.926 114.211 78.1365 113.611 78.4286 114.551C78.6478 115.261 79.206 115.956 79.1695 116.64C79.1173 117.57 80.0773 118.03 79.9834 118.73C79.8477 119.775 80.5469 120.407 80.8599 121.216C81.2251 122.162 81.966 122.966 81.679 124.121C81.5695 124.617 81.6738 125.181 81.6738 126.529ZM22.5981 125.719C22.9007 126.126 23.4902 126.33 23.4172 126.999C23.367 127.395 23.3882 127.796 23.4798 128.184C23.532 128.357 23.8815 128.487 24.1163 128.545C24.5546 128.655 25.0241 128.404 24.998 128.023C24.8259 125.625 25.1754 123.41 26.6102 121.389C26.9232 120.939 26.5006 120.14 27.0745 119.56C27.4971 119.137 27.5963 118.411 27.9823 117.941C28.1131 117.793 28.2057 117.615 28.2521 117.423C28.2984 117.231 28.2972 117.03 28.2484 116.839C28.0345 115.794 28.9006 115.47 29.3806 114.875C30.7058 115.089 30.518 113.799 31.0501 113.219C31.3214 112.921 31.6084 112.592 31.0919 112.383C30.9095 112.297 30.704 112.274 30.5069 112.316C30.3099 112.359 30.1322 112.465 30.0014 112.618C28.7336 114.097 27.0328 115.188 26.2554 117.126C25.9789 117.816 25.2119 118.343 24.5806 118.85C23.7511 119.524 24.7163 120.71 23.7511 121.352C23.0728 121.801 23.6363 122.642 23.3807 123.206C23.125 123.771 22.3737 124.11 22.5981 125.719ZM57.8046 113.182C58.2689 112.791 58.4567 112.2 58.0237 111.83C56.8915 110.868 56.4063 109.547 55.7802 108.298C55.6958 108.064 55.5928 107.837 55.4724 107.619C54.622 106.444 53.7403 106.392 52.9681 107.515C52.6916 107.917 52.6551 108.486 52.3681 108.868C51.9664 109.39 51.0586 109.818 51.0325 110.315C50.9646 111.615 49.7803 111.965 49.3212 112.869C49.2447 113.125 49.2652 113.4 49.3786 113.642C49.5142 113.997 49.796 114.05 49.9003 113.767C50.2394 113.01 51.0586 113.308 51.5907 112.932C52.582 112.232 53.422 112.174 55.1229 112.378C55.9002 112.451 56.7559 112.028 57.8046 113.162V113.182Z" fill="black"/>
<path d="M71.7609 101.215C73.1227 101.858 74.0931 102.855 75.4809 102.631C76.0026 103.43 77.1244 103.263 77.7557 103.952C78.4756 104.746 79.2582 105.477 80.02 106.235C77.8235 106.909 77.6096 106.757 75.7157 106.057C74.6722 105.681 73.8166 104.589 72.5122 105.06C71.8392 104.239 70.5453 104.412 69.961 103.456C69.4758 102.667 68.7245 102.646 67.874 102.599C67.0236 102.552 66.4393 101.502 65.3906 101.811C64.1906 102.161 63.9454 101.288 63.6167 100.405C63.3245 99.5853 63.2097 99.6114 63.6167 99.2614C64.0236 98.9115 64.2271 98.3108 64.7436 99.0421C64.8592 99.202 65.0228 99.3207 65.2105 99.3809C65.3983 99.441 65.6003 99.4394 65.7871 99.3764C67.2219 98.9846 68.3071 99.9248 69.3192 100.536C70.1383 101.011 70.8114 100.912 71.7609 101.215Z" fill="black"/>
<path d="M82.2842 109.317C82.035 109.075 81.8333 108.788 81.6895 108.471C81.6296 108.282 81.6437 108.078 81.729 107.899C81.8143 107.721 81.9644 107.582 82.1486 107.51C82.2724 107.463 82.4044 107.443 82.5364 107.45C82.6685 107.457 82.7976 107.492 82.9155 107.552C83.2386 107.79 83.5281 108.072 83.7764 108.387C84.199 108.852 84.2512 109.495 83.8547 109.751C83.3486 110.085 82.8738 109.981 82.2842 109.317Z" fill="black"/>
<path d="M79.0443 279.845C79.7225 279.171 80.1869 278.685 80.6721 278.22C81.5956 277.327 81.9034 277.39 82.9051 278.419C83.286 278.81 83.119 278.983 82.8529 279.291C82.3625 279.866 81.5695 280.195 81.6164 281.213C81.6164 281.584 80.9173 282.326 80.573 282.3C79.5295 282.227 79.1278 283.271 78.1469 283.344C77.2965 283.418 76.9834 284.656 76.0078 284.912C75.1835 285.141 74.4426 285.685 73.6548 286.008C71.9331 286.703 70.5505 288.228 68.5001 288.124C67.3314 289.367 65.8131 288.845 64.4149 288.908C64.2427 288.908 63.9349 288.631 63.8932 288.437C63.8149 288.067 63.8358 287.393 64.201 287.429C65.1558 287.57 65.4636 286.479 66.2566 286.515C67.0497 286.552 67.8636 286.515 68.3436 285.679C69.387 283.882 71.4739 284.149 72.9713 283.261C74.1348 283.6 74.7191 282.357 75.773 282.216C76.2948 282.148 76.66 281.077 77.2182 280.931C77.9325 280.787 78.5765 280.404 79.0443 279.845Z" fill="black"/>
<path d="M84.3086 274.58C84.9555 273.869 85.4042 273.43 86.192 273.535C86.7138 273.613 87.3398 273.477 87.3242 274.25C87.3242 274.851 87.679 275.818 86.8025 275.917C86.0407 276.006 85.7173 276.575 85.1277 276.794C85.0033 276.829 84.8726 276.833 84.746 276.808C84.6195 276.783 84.5007 276.728 84.3992 276.648C84.2977 276.568 84.2163 276.466 84.1616 276.349C84.1069 276.232 84.0804 276.103 84.0842 275.974C84.0658 275.499 84.1421 275.025 84.3086 274.58Z" fill="black"/>
</svg>
