<svg width="92" height="297" viewBox="0 0 92 297" fill="none" xmlns="http://www.w3.org/2000/svg">
<path d="M15.5096 216.005C15.922 215.588 16.2425 215.294 16.5295 214.972C16.7747 214.692 17.2177 214.902 17.4378 214.521C17.6134 214.222 18.3797 214.521 18.2236 213.791C18.2236 213.718 18.4075 213.511 18.4827 213.511C19.04 213.595 19.2434 212.87 19.7896 212.996C20.1462 212.638 20.4834 212.254 20.8679 211.932C21.0658 211.767 21.4029 211.77 21.584 211.599C21.7652 211.429 21.6175 211.04 21.9017 210.872C22.119 210.74 22.1803 210.427 22.0856 210.312C21.3639 209.584 21.768 208.688 21.6816 207.871C21.6565 207.616 21.4893 207.513 21.3862 207.339C21.1828 206.989 21.0686 206.606 20.8289 206.259C20.6617 206.007 20.7955 205.556 20.7955 205.195C20.7955 204.255 20.8122 203.312 20.7955 202.374C20.7991 202.234 20.8311 202.097 20.8896 201.97C20.948 201.844 21.0317 201.731 21.1354 201.638C21.3444 201.391 21.2608 201.126 21.0268 200.899C20.9604 200.818 20.9162 200.722 20.8986 200.619C21.3639 200.325 21.0881 199.779 21.2692 199.466C21.4503 199.152 21.6286 198.744 21.8125 198.385C21.8766 198.265 22.0912 198.167 22.0912 198.072C22.0271 197.249 22.4088 196.583 22.8992 196.02C23.3897 195.458 23.5736 194.621 24.2618 194.198C24.6742 193.949 24.6296 193.47 24.8692 193.143C25.4544 193.179 25.7052 192.703 26.0646 192.376C26.3504 192.077 26.7028 191.851 27.0928 191.715C27.5191 191.578 27.7922 191.01 28.1851 190.696C28.6644 190.316 28.8956 189.577 29.6786 189.613C30.0938 189.252 30.378 188.704 31.0301 188.692C31.2028 188.273 31.331 187.886 31.9106 187.76C32.2644 187.682 32.5403 187.234 32.5459 186.75C32.5459 186.694 32.7744 186.644 32.8942 186.585C33.3301 186.419 33.7498 186.213 34.1481 185.969C34.541 185.651 34.9013 185.295 35.2236 184.905C35.5246 184.575 35.8255 184.318 36.3215 184.407C36.5272 184.467 36.7465 184.458 36.9472 184.383C37.1478 184.308 37.3192 184.17 37.4361 183.99C37.907 183.248 38.8739 183.134 39.3866 182.451C39.5983 182.171 39.8937 182.232 40.1668 182.252C40.607 182.28 40.7519 181.896 41.0027 181.675C41.0306 181.653 40.9275 181.395 40.8912 181.395C40.3172 181.423 39.7516 181.46 39.7209 180.64L38.5088 179.408C38.5088 178.613 38.5088 177.816 38.5088 177.021C38.5088 176.598 39.0661 176.41 38.9547 175.901C38.8724 175.547 38.8724 175.178 38.9547 174.823C39.0326 174.555 39.2049 174.324 39.4395 174.174C39.8491 173.928 40.3256 173.827 40.6377 173.396C40.9497 172.965 41.5265 173.085 41.8386 172.635C42.1507 172.184 42.5519 171.921 42.8863 171.543C43.0674 171.339 43.3377 171.495 43.4659 171.381C43.7284 171.163 44.0316 171 44.3575 170.902C44.7449 170.756 44.4551 170.25 44.5665 169.931C44.6306 169.746 44.8953 169.631 44.9622 169.447C45.0142 169.354 45.0336 169.247 45.0174 169.143C45.0012 169.038 44.9504 168.942 44.873 168.87C44.7692 168.78 44.6757 168.679 44.5944 168.568C45.2854 168.1 44.9343 167.389 44.9929 166.782C45.0309 166.574 45.0229 166.361 44.9695 166.157C44.916 165.952 44.8184 165.763 44.6836 165.601C44.5403 165.396 44.4634 165.151 44.4634 164.901C44.4634 164.651 44.5403 164.406 44.6836 164.201C45.174 163.672 44.926 163.121 45.0124 162.583C45.0765 162.18 44.8368 161.945 44.6362 161.646C44.5415 161.509 45.0514 161.341 45.0179 160.988C44.9845 160.635 45.0848 160.271 44.7086 160.025C44.6659 159.995 44.6296 159.956 44.6019 159.911C44.5741 159.866 44.5554 159.816 44.5469 159.764C44.5383 159.712 44.5401 159.659 44.5521 159.608C44.5641 159.557 44.586 159.508 44.6167 159.465C45.0235 159.152 45.0179 158.752 45.0151 158.312C45.0012 157.083 44.9761 155.852 45.0291 154.626C45.0486 154.22 44.5192 153.974 44.6808 153.769C45.3022 152.986 44.8703 152.11 45.0096 151.292C44.7309 150.979 44.4523 150.685 45.0096 150.329C45.0848 150.282 45.0932 149.932 44.873 149.77C44.5498 149.521 44.4244 149.21 44.7755 148.885C44.9374 148.744 45.0433 148.549 45.074 148.336C45.1047 148.122 45.0581 147.905 44.9427 147.724C44.4662 146.979 44.4244 146.341 44.9678 145.627C45.0059 145.567 45.0309 145.499 45.0412 145.428C45.0514 145.358 45.0466 145.286 45.0271 145.217C45.0077 145.148 44.9739 145.084 44.9282 145.03C44.8824 144.975 44.8256 144.93 44.7616 144.899C44.5833 144.779 44.5888 144.72 44.7198 144.583C45.2492 144.046 45.1461 143.38 44.8312 142.845C44.6278 142.498 44.7532 142.425 44.9148 142.201C45.0235 142.053 44.9761 141.801 45.0263 141.602C45.1517 141.115 44.4551 140.956 44.5944 140.483C44.6891 140.158 45.1238 140.007 45.0291 139.573C44.9343 139.139 45.0765 138.786 44.7894 138.361C44.6042 138.061 44.5034 137.715 44.4975 137.362C44.4916 137.009 44.5809 136.661 44.756 136.354C45.1322 135.649 45.2102 135.081 44.7226 134.412C44.5889 134.245 44.5217 134.034 44.534 133.821C44.5464 133.607 44.6374 133.406 44.7894 133.256C45.0291 133.02 44.9789 132.755 45.0347 132.483C45.1433 131.971 44.1987 131.691 44.7003 131.198C45.0765 130.82 45.0514 130.429 45.0124 130.02C44.9427 129.273 45.3551 128.427 44.6028 127.806C44.6028 126.796 44.6028 125.785 44.6028 124.772C45.4387 124.089 44.9371 123.157 45.0068 122.345C45.043 121.908 44.469 121.573 44.586 121.004C44.6349 120.573 44.6405 120.138 44.6028 119.706C44.6028 119.199 44.6028 118.692 44.6028 118.189C44.6028 117.772 44.5805 117.399 44.9148 117.002C45.2492 116.604 45.0932 116.053 44.9594 115.574C44.5387 114.069 44.5637 114.077 44.9761 112.196C45.0876 111.687 45.2548 111.076 44.7644 110.587C44.6722 110.488 44.617 110.36 44.6083 110.226C44.5819 109.719 44.5819 109.212 44.6083 108.706C44.6334 108.364 44.4105 107.947 44.7532 107.69C45.3718 107.222 44.43 107.082 44.5777 106.671C44.6919 106.349 44.6 105.954 44.6 105.593C44.6 103.494 44.6278 101.395 44.5833 99.2983C44.5693 98.6965 44.887 97.9995 44.2684 97.4677C44.2294 97.4313 44.547 97.0675 44.586 96.8352C44.6126 96.5467 44.6182 96.2567 44.6028 95.9675C44.6195 95.6876 44.561 95.3041 44.717 95.1614C45.2743 94.6575 44.8953 94.386 44.6501 93.9158C44.4551 93.5407 44.6501 92.9557 44.1904 92.6115C44.3269 92.4519 44.5833 92.2868 44.5777 92.13C44.5582 91.5898 44.8563 90.9769 44.2572 90.5234C44.2099 90.4378 44.1851 90.3415 44.1851 90.2435C44.1851 90.1456 44.2099 90.0493 44.2572 89.9636C44.6975 89.6473 44.6028 89.2079 44.5972 88.7908C44.5972 88.3066 44.7365 87.7664 44.1931 87.4417C44.3538 87.3079 44.4767 87.1341 44.5496 86.9376C44.6225 86.7412 44.6427 86.5289 44.6083 86.3221C44.5693 85.8211 44.6083 85.3089 44.5916 84.8051C44.5683 84.6671 44.5821 84.5253 44.6316 84.3944C44.6811 84.2635 44.7644 84.1483 44.873 84.0606C44.9572 83.997 45.0134 83.9029 45.0295 83.7983C45.0457 83.6937 45.0205 83.587 44.9594 83.5008C44.5498 83.1873 44.561 82.7842 44.5665 82.3476C44.5665 81.3371 44.5665 80.3239 44.5665 79.3107C44.5876 79.1353 44.567 78.9573 44.5064 78.7915C44.4459 78.6256 44.3471 78.4764 44.2182 78.3562C44.1693 78.2711 44.1436 78.1746 44.1436 78.0763C44.1436 77.9781 44.1693 77.8815 44.2182 77.7964C44.3517 77.6795 44.4529 77.53 44.512 77.3623C44.5711 77.1946 44.586 77.0144 44.5554 76.8392C44.5164 76.4221 44.4857 75.9995 44.4495 75.5824C43.7306 75.171 44.6668 74.9666 44.5777 74.5888C44.5213 74.159 44.5139 73.7243 44.5554 73.2928V69.1643C44.5554 68.7305 44.5331 68.2939 44.5554 67.8628C44.5644 67.7224 44.5418 67.5818 44.4892 67.4515C44.4366 67.3211 44.3554 67.2043 44.2517 67.1099C44.1402 66.9895 44.0845 66.6145 44.1597 66.5501C44.7978 66.0435 44.4551 65.3493 44.547 64.7447C44.625 64.2073 44.3158 63.5944 44.8981 63.1437C44.9424 63.0565 44.9641 62.9595 44.9612 62.8617C44.9582 62.7638 44.9308 62.6683 44.8814 62.5839C44.5442 62.3488 44.6557 61.9094 44.4272 61.6798C44.0483 61.3048 43.9647 60.9941 44.3966 60.6162C44.4882 60.515 44.5397 60.3836 44.5415 60.2468C44.5921 59.0911 44.5828 57.9335 44.5136 56.7788C44.4634 56.2694 44.0037 55.8355 44.0956 55.217C44.1407 54.6396 44.1482 54.0599 44.1179 53.4816C44.1179 53.0674 44.0176 52.6419 44.4356 52.2976C44.5888 52.1689 44.5498 51.7658 44.5387 51.4915C44.5219 51.0129 44.7254 50.4643 44.1792 50.1256C44.3492 49.7757 44.625 49.4902 44.5637 49.0284C44.5247 48.5237 44.5191 48.0169 44.547 47.5114C44.547 47.0187 44.6613 46.4897 44.1263 46.165C44.1709 45.8264 43.9786 45.4625 44.2517 45.1406C44.678 44.648 44.717 44.147 44.2294 43.6599C44.195 43.6173 44.1703 43.5676 44.1569 43.5144C44.926 43.0218 44.3715 42.5739 44.1179 42.1149C44.1013 42.0824 44.0926 42.0465 44.0926 42.0099C44.0926 41.9734 44.1013 41.9375 44.1179 41.905C44.8117 41.1912 44.4606 40.2956 44.5498 39.4755C44.5777 39.2208 44.3854 39.1088 44.2712 38.9325C44.0371 38.5378 44.0148 38.4958 44.2572 38.2075C44.4997 37.9192 44.717 37.6309 44.3575 37.309C44.1096 37.0879 44.1263 36.8304 44.0789 36.5449C44.012 35.9851 45.0709 35.4981 44.1458 34.9271C44.1263 34.2833 44.1123 33.6396 44.0873 32.9958C44.0705 32.562 44.0678 32.1561 44.4774 31.8426C44.5916 31.7558 44.5693 31.4648 44.4049 31.2828C44.2798 31.158 44.1805 31.0095 44.1128 30.8459C44.045 30.6823 44.0101 30.5069 44.0101 30.3298C44.0101 30.1526 44.045 29.9772 44.1128 29.8136C44.1805 29.6501 44.2798 29.5016 44.4049 29.3767C44.4747 29.2973 44.5206 29.1997 44.5374 29.0952C44.5542 28.9907 44.5411 28.8835 44.4997 28.7861C44.0176 27.549 44.0092 27.5518 44.4523 26.267C44.4746 26.2027 44.5108 26.1467 44.5303 26.0823C44.7365 25.3434 44.2767 24.7472 44.0984 24.0922C44.6724 23.6052 44.5275 22.939 44.5164 22.3177C44.5164 22.2113 44.3603 22.0797 44.2377 22.007C44.0483 21.881 44.0483 21.811 44.2377 21.6879C44.5164 21.5171 44.6696 21.1757 44.4774 20.9657C43.7167 20.1456 44.1987 19.2052 44.1402 18.3207C44.5275 18.0632 44.5024 17.8197 44.1402 17.5482C43.9368 17.3998 43.9591 17.3774 44.0873 16.6301C44.1096 16.4902 44.0678 16.3502 44.0873 16.1991C44.1486 15.8576 43.8978 15.4489 44.2461 15.183C44.7839 14.7744 44.0873 14.6596 44.0845 14.3853C44.0845 14.0242 44.0845 13.6632 44.0845 13.3021C44.0845 13.0222 44.0176 12.7423 44.2879 12.5156C44.6278 12.2357 44.5442 11.9558 44.2879 11.6171C44.1173 11.3917 44.0187 11.1196 44.0053 10.8367C43.9919 10.5539 44.0642 10.2736 44.2127 10.0329C44.6668 9.33874 44.6167 8.78734 44.2461 8.08759C44.0755 7.77908 43.9879 7.43126 43.9918 7.07839C43.9957 6.72551 44.091 6.37974 44.2684 6.07512C44.4802 5.72524 44.3464 5.65527 44.1848 5.43135C44.0956 5.24423 44.0599 5.03588 44.0817 4.82957C44.0817 3.67359 44.0984 2.5148 44.0817 1.35882C44.0817 0.916581 44.3798 0.740245 44.6139 0.491135C44.848 0.242024 45.1517 0.370778 45.4053 0.533119C45.9347 0.857802 45.7842 1.59114 46.2941 1.93261C46.3257 1.99456 46.3421 2.06316 46.3421 2.13274C46.3421 2.20233 46.3257 2.27092 46.2941 2.33287C45.7758 2.68274 45.865 3.20336 45.8901 3.69038C45.9096 4.02066 45.7257 4.197 45.5557 4.42931C45.5055 4.51309 45.4767 4.60804 45.4718 4.7057C45.467 4.80336 45.4862 4.90072 45.5279 4.98911C46.2077 5.82881 45.8232 6.74128 45.7926 7.63136C45.2994 7.94204 45.6532 8.13797 45.8567 8.41227C45.912 8.50601 45.931 8.617 45.9099 8.72394C45.8888 8.83087 45.8292 8.92621 45.7424 8.99166C45.6404 9.08349 45.5471 9.18469 45.4638 9.29396C46.0879 9.68581 45.8455 10.3128 45.8734 10.8586C45.9012 11.3624 45.8734 11.869 45.8734 12.3756C45.8734 12.7927 45.748 13.2573 46.2189 13.5344C46.1297 13.9039 45.7675 14.1586 45.8539 14.6232C45.8999 15.0556 45.9055 15.4913 45.8706 15.9248C45.8706 16.3586 45.8706 16.7924 45.8706 17.2263C45.8706 17.6601 45.8706 18.0408 46.2551 18.3823C46.4585 18.567 46.2941 18.9225 46.0322 19.0988C45.9442 19.1583 45.8811 19.2483 45.8549 19.3515C45.8287 19.4547 45.8412 19.5641 45.8901 19.6586C46.2607 20.0645 46.5923 20.4171 45.982 20.879C45.9458 20.907 45.9124 21.0161 45.9263 21.0245C46.7149 21.6627 46.1659 22.2365 45.8984 22.8719C45.8177 23.0351 45.7964 23.2215 45.8381 23.3989C45.8798 23.5763 45.982 23.7334 46.1269 23.8431C46.439 24.0642 46.1269 24.1622 46.0266 24.3021C45.7814 24.694 45.7285 25.1418 46.0406 25.4609C46.3526 25.78 46.152 25.8612 45.996 26.1047C45.8875 26.3605 45.8471 26.6402 45.8789 26.9164C45.8789 27.8513 45.9096 28.7833 45.9263 29.7154C46.5087 29.9953 45.826 30.4571 45.9988 30.6083C46.4111 30.9721 46.2774 31.392 46.3081 31.8006C46.3335 31.9401 46.321 32.0839 46.272 32.2169C46.2229 32.3499 46.1392 32.4672 46.0294 32.5564C45.6978 32.8363 45.9458 33.2337 45.8762 33.5724C46.4697 33.8887 46.1074 34.191 45.8762 34.524C45.8093 34.622 45.8511 34.8039 45.8762 34.9495C45.918 35.2882 45.7563 35.652 46.0768 35.9543C46.5282 36.3798 45.6811 36.5421 45.8511 36.9872C45.9709 37.3034 45.8873 37.7037 45.8706 38.062C45.842 38.4839 45.9779 38.9004 46.2495 39.2235C46.3667 39.4069 46.4084 39.6288 46.3658 39.8424C46.3231 40.056 46.1995 40.2446 46.021 40.3683C45.9338 40.4287 45.8726 40.52 45.8499 40.6239C45.8271 40.7279 45.8445 40.8366 45.8984 40.9281C46.3108 41.3368 46.478 41.6335 45.996 42.1709C45.8515 42.3742 45.7716 42.6166 45.7666 42.8663C45.7617 43.116 45.8319 43.3614 45.9681 43.5704C46.3582 44.0826 46.4279 44.4101 45.9235 44.8075C45.8835 44.8653 45.8589 44.9325 45.852 45.0025C45.8452 45.0726 45.8564 45.1433 45.8845 45.2078C46.7009 46.1483 46.1437 47.2678 46.2913 48.2867C46.2913 48.3762 46.1269 48.5134 46.0127 48.5946C45.8427 48.7149 45.8622 48.7765 46.035 48.9109C46.3582 49.1656 46.4474 49.4706 46.1186 49.8037C46.0406 49.8849 45.9291 50.0836 45.9486 50.0836C46.5338 50.6434 46.4669 51.164 45.9263 51.7434C45.7285 51.9534 45.8789 52.2892 46.1464 52.4656C46.3303 52.5887 46.3248 52.6475 46.1687 52.7819C45.7034 53.1737 45.7814 53.6216 46.0378 54.1086C46.4084 54.8083 46.3777 54.8167 46.113 55.4353C45.7452 56.3002 45.7758 56.6081 46.2384 57.7892C46.2704 57.8804 46.2833 57.9772 46.2761 58.0736C46.2689 58.1699 46.2418 58.2637 46.1966 58.349C46.0322 58.573 45.826 58.6765 46.1325 58.9872C46.2074 59.0623 46.2668 59.1516 46.3074 59.2498C46.3479 59.348 46.3688 59.4533 46.3688 59.5596C46.3688 59.6659 46.3479 59.7712 46.3074 59.8694C46.2668 59.9676 46.2074 60.0569 46.1325 60.132C45.8288 60.4455 45.8845 60.7674 45.8539 61.1144C45.826 61.5091 46.4307 61.6043 46.2802 62.0185C46.1882 62.2648 45.8901 62.4748 45.8762 62.7099C45.8288 63.6475 45.8567 64.5908 45.8567 65.5312C46.5616 66.2394 46.244 67.1323 46.2802 67.9552C46.3192 68.8229 46.2802 69.6933 46.2969 70.5582C46.2969 70.9081 45.8984 71.076 45.9235 71.2552C45.9653 71.5519 46.3108 71.7338 46.3081 72.1537C46.2718 74.7567 46.2913 77.3626 46.2858 79.9656C46.2858 80.17 46.3777 80.4051 46.1409 80.5562C45.7758 80.7885 45.9765 80.9509 46.1715 81.1804C46.2858 81.3176 46.2328 81.5835 46.2941 81.7766C46.5449 82.5687 45.3997 83.2181 45.9625 83.9318C46.5254 84.6456 46.1437 85.4489 46.2802 86.1934C46.3446 86.4011 46.3415 86.624 46.2714 86.8298C46.2012 87.0356 46.0677 87.2137 45.8901 87.3382C45.853 87.3975 45.8314 87.4654 45.8275 87.5354C45.8236 87.6054 45.8375 87.6753 45.8678 87.7384C46.4028 88.2674 46.5059 88.8076 45.9793 89.3898C45.8594 89.5214 45.8734 89.5746 46.0322 89.7089C46.2573 89.8902 46.4619 90.0958 46.6424 90.3219C46.7149 90.4171 46.7678 90.6438 46.7121 90.711C45.9068 91.6542 46.3554 92.7682 46.3108 93.7898C46.2356 95.4525 46.2969 97.1178 46.2858 98.7804C46.2858 99.2199 46.2858 99.6201 46.687 99.9308C46.7442 100.019 46.766 100.126 46.7479 100.23C46.7298 100.334 46.6732 100.427 46.5895 100.491C46.477 100.576 46.3893 100.69 46.3354 100.821C46.2815 100.952 46.2634 101.095 46.283 101.235C46.283 102.898 46.283 104.563 46.283 106.226C46.283 108.398 46.2663 110.567 46.283 112.739C46.283 113.416 46.0322 114.18 46.7065 114.729L46.6731 116.017C46.1158 116.344 46.2774 116.887 46.2774 117.371C46.2774 120.335 46.2774 123.301 46.2774 126.269C46.2774 126.745 46.0824 127.297 46.6341 127.638C46.5115 127.856 46.2913 128.075 46.2858 128.296C46.2551 129.816 46.2663 131.335 46.2858 132.855C46.2858 132.964 46.4307 133.096 46.5393 133.174C46.7177 133.298 46.726 133.368 46.5728 133.488C46.1214 133.838 46.1604 134.19 46.5728 134.538C46.6104 134.579 46.638 134.629 46.6536 134.683C45.8873 135.173 46.4167 135.621 46.687 136.083C46.7036 136.115 46.7123 136.151 46.7123 136.188C46.7123 136.224 46.7036 136.26 46.687 136.292C45.9124 137.155 46.3359 138.196 46.2718 139.156C46.2077 140.116 46.2579 141.037 46.2579 141.977C47.027 142.671 46.5533 143.592 46.6954 144.401C46.7427 144.681 46.5477 144.796 46.3944 144.925C46.2412 145.053 46.2384 145.123 46.4223 145.241C46.8013 145.479 46.6814 145.868 46.7009 146.212C46.7204 146.556 46.1297 146.699 46.2802 147.113C46.3721 147.363 46.5839 147.564 46.6898 147.81C46.7058 147.877 46.7063 147.946 46.6914 148.012C46.6764 148.079 46.6463 148.141 46.6034 148.194C46.4139 148.401 46.1632 148.569 46.5421 148.815C46.6301 148.875 46.6934 148.964 46.7201 149.068C46.7468 149.171 46.735 149.28 46.687 149.375C46.0433 149.868 46.3108 150.251 46.6647 150.794C46.7552 150.989 46.7991 151.203 46.7928 151.418C46.7865 151.634 46.7302 151.844 46.6285 152.034C46.1409 152.781 46.0963 153.434 46.6452 154.125C46.3666 154.447 46.2468 154.718 46.6759 155.071C46.7457 155.196 46.7823 155.337 46.7823 155.481C46.7823 155.625 46.7457 155.766 46.6759 155.891C45.8817 156.7 46.3972 157.663 46.2858 158.544C46.9768 159.009 46.6313 159.72 46.6814 160.327C46.7093 160.658 46.8263 161.033 46.5003 161.332C46.0294 161.763 46.8876 161.92 46.7204 162.362C46.6006 162.679 46.7204 163.079 46.6926 163.44C46.6926 163.72 46.7316 164.112 46.5783 164.243C46.0907 164.66 46.3276 165.175 46.2663 165.643C46.2186 165.853 46.2324 166.073 46.3061 166.275C46.3797 166.478 46.5101 166.655 46.6814 166.785C46.7302 166.879 46.7433 166.987 46.7182 167.09C46.6931 167.193 46.6315 167.284 46.5449 167.344C46.3682 167.47 46.2469 167.659 46.2063 167.873C46.1658 168.086 46.2093 168.307 46.3276 168.489C46.591 168.817 46.724 169.231 46.7009 169.651C46.7009 170.401 46.7567 170.362 47.6205 171.193C47.9911 171.551 48.4425 171.677 48.8353 171.943C48.6375 172.738 49.4595 172.503 49.7354 172.831C50.0558 173.217 50.3846 173.737 50.8109 173.866C51.3403 174.026 51.6914 174.25 51.8753 174.728C52.0592 175.207 52.4326 175.641 52.3463 176.284C52.2599 176.875 52.0676 177.592 52.7475 178.053C52.675 178.389 52.9063 178.77 52.5887 179.075C52.2645 179.362 51.9609 179.672 51.6803 180.002C51.5065 180.287 51.3483 180.581 51.2066 180.883C51.1048 181.024 50.9724 181.141 50.8194 181.223C50.6664 181.305 50.4968 181.352 50.3233 181.359C50.1171 181.395 50.131 181.535 50.2899 181.659C50.4487 181.782 50.6187 182.106 50.7496 182.09C51.3069 182.017 51.5549 182.554 52.0537 182.649C52.4661 182.733 52.7559 183.332 53.1515 183.632C53.5472 183.931 53.9875 184.309 54.372 184.284C55.0714 184.242 55.4169 184.62 55.8154 185.026C56.1219 185.334 56.4144 185.655 56.7377 185.941C56.9884 186.165 57.3507 186.148 57.6488 186.372C57.947 186.596 58.3817 186.686 58.6742 187.016C59.053 187.452 59.4617 187.86 59.8975 188.239C60.2597 188.552 60.491 188.969 61.0343 189.151C61.5248 189.317 61.8703 189.879 62.3105 190.237C62.6226 190.495 63.1465 190.417 63.3499 190.859C63.5728 191.351 63.6675 191.978 64.4812 191.732C64.6038 191.696 64.835 191.92 64.9744 192.062C65.3756 192.468 65.9552 192.835 66.0889 193.325C66.2505 193.885 66.6462 194.12 66.9694 194.481C67.3428 194.92 67.836 195.264 68.162 195.729C68.3849 196.048 68.4407 196.482 68.7193 196.787C68.5856 197.548 69.1874 198.041 69.3936 198.679C69.4354 198.805 69.597 198.937 69.572 199.029C69.4131 199.589 69.9286 199.914 70.0039 200.375C70.0596 200.714 70.107 201.103 69.7252 201.335C69.5469 201.442 69.5608 201.529 69.7475 201.646C70.1265 201.884 69.9509 202.284 70.0262 202.615C70.0902 202.864 70.3577 203.062 70.4218 203.312C70.4636 203.468 70.2964 203.681 70.2268 203.871C70.1571 204.062 69.9732 204.297 70.0317 204.431C70.1878 204.773 70.6252 205.064 70.0317 205.386C70.0317 205.819 70.1794 206.351 69.9816 206.659C69.7229 206.985 69.5815 207.39 69.5803 207.807C69.597 208.224 69.023 208.42 69.1429 208.926C69.188 209.286 69.1927 209.649 69.1568 210.009C69.1568 210.371 69.1568 210.732 69.1568 211.093C69.1568 211.625 69.1568 211.652 69.7726 211.675C70.1627 211.692 70.4748 211.675 70.4636 212.218C70.4608 212.271 70.4709 212.325 70.493 212.374C70.5152 212.423 70.5488 212.465 70.5909 212.498C70.6331 212.531 70.6825 212.554 70.7351 212.563C70.7876 212.573 70.8417 212.57 70.8927 212.554C70.9596 212.554 71.0766 212.529 71.0989 212.554C71.4974 213.178 72.2358 213.326 72.7708 213.766C73.1888 214.107 73.3894 214.695 74.0999 214.754C74.5346 214.79 74.6572 215.549 75.2563 215.593C75.8554 215.638 75.9195 216.537 76.63 216.478C76.7777 216.478 77.0034 216.688 77.1037 216.859C77.5244 217.575 78.3855 217.679 78.9204 218.233C79.4554 218.787 80.1325 219.297 80.57 219.943C80.8793 220.402 81.6846 220.111 81.7264 220.951C81.7487 221.455 82.6459 221.622 82.5623 222.325C82.5623 222.37 82.6543 222.468 82.7072 222.471C83.1725 222.51 83.4846 222.653 83.4679 223.221C83.4679 223.369 83.7465 223.54 83.9054 223.677C84.3722 224.092 84.739 224.608 84.9781 225.186C85.1732 225.619 85.2819 226.112 85.7333 226.395C85.8475 226.465 86.0119 226.627 85.9896 226.708C85.7779 227.607 86.4633 228.004 86.9704 228.474C87.1064 228.588 87.2085 228.737 87.2655 228.905C87.3226 229.072 87.3323 229.253 87.2937 229.426C87.2101 229.86 87.7785 229.927 87.7395 230.333C87.7088 230.694 87.5918 231.173 87.7674 231.394C88.0397 231.713 88.1864 232.121 88.1798 232.541C88.1798 233.023 88.6562 233.233 88.9572 233.504C89.1454 233.663 89.2909 233.868 89.3805 234.098C89.47 234.328 89.5008 234.577 89.4699 234.823C89.4336 235.399 89.4699 235.981 89.4699 236.561C89.9965 236.972 89.7959 237.585 89.9352 238.109C90.0723 238.629 90.311 239.117 90.6374 239.544C90.7421 239.689 90.8048 239.859 90.8186 240.037C90.8324 240.215 90.7966 240.393 90.7154 240.552C90.5621 240.857 90.2612 240.997 90.668 241.361C90.8185 241.495 90.7628 241.893 90.7628 242.173C90.7628 243.547 90.7628 244.921 90.7628 246.296C90.7628 246.721 90.7043 247.135 91.1278 247.46C91.2114 247.522 91.1668 247.857 91.0888 248.02C90.6513 248.983 90.6318 248.988 91.0609 249.931C91.1334 250.094 91.2281 250.119 91.0609 250.253C90.7942 250.43 90.5835 250.68 90.4536 250.973C90.3237 251.266 90.2802 251.59 90.3281 251.908C90.3559 252.479 90.3447 253.051 90.2947 253.621C89.6844 254.029 90.1414 254.771 89.8711 255.168C89.5256 255.672 89.6789 256.35 89.3417 256.677C88.829 257.172 89.3807 258.043 88.6144 258.356C88.6843 258.637 88.6624 258.932 88.552 259.199C88.4415 259.465 88.2485 259.689 88.0014 259.837C87.7299 260.013 87.5187 260.268 87.3965 260.569C87.2744 260.869 87.2473 261.2 87.3187 261.517C87.3745 261.861 87.0791 261.998 86.9426 262.23C86.7141 262.622 85.8029 262.275 86.0231 263.112C85.7221 263.42 85.4212 263.728 85.1258 264.041C84.9837 264.195 84.7218 264.394 84.7469 264.52C84.8973 265.211 84.432 265.55 84.0698 265.995C83.776 266.362 83.5658 266.789 83.454 267.246C83.3787 267.576 83.1196 267.691 82.9914 267.929C82.7964 268.287 82.0803 267.929 82.1165 268.618C82.1388 269.012 81.7069 269.177 81.4784 269.429C81.1611 269.723 80.8615 270.035 80.5812 270.364C80.3445 270.768 80.1404 271.19 79.9709 271.626C79.9152 271.747 79.8818 271.954 79.7982 271.974C79.4694 272.063 79.0821 272.016 78.8006 272.169C78.6195 272.27 78.5833 272.85 78.4802 272.85C77.7836 272.85 77.544 273.449 77.1371 273.81C76.7074 274.197 76.299 274.607 75.9139 275.038C75.6102 275.374 75.2981 275.615 74.7993 275.52C74.6636 275.514 74.5309 275.561 74.4287 275.651C74.0135 276.024 73.6987 276.519 72.9937 276.407C72.8042 276.379 72.5228 276.687 72.3445 276.88C71.9229 277.34 71.4091 277.706 70.837 277.952C70.4051 278.151 69.9203 278.26 69.6333 278.711C69.5804 278.804 69.5022 278.879 69.4079 278.929C69.3136 278.978 69.2071 279 69.1011 278.991C68.8224 278.991 68.3543 278.881 68.3543 279.173C68.3543 279.665 67.8527 279.847 67.8611 280.292C67.8611 280.645 67.8834 280.961 67.5657 281.263C67.0725 281.731 66.3731 282.103 66.5431 283.013C66.5682 283.147 66.3313 283.363 66.1753 283.494C65.4843 284.074 65.0607 284.983 64.066 285.188C64.066 285.784 63.5226 285.823 63.1994 286.108C62.8762 286.394 62.3969 286.293 62.1127 286.668C61.8285 287.043 61.3018 286.595 60.9507 286.976C60.6721 287.256 60.4492 287.603 59.9476 287.698C59.5938 287.763 59.2705 288.199 59.0114 288.538C58.7049 288.935 58.312 288.91 57.8968 288.994C57.4816 289.078 57.0776 289.442 56.6401 289.593C56.0829 289.786 55.6203 290.201 54.9683 290.307C54.3831 290.402 53.8537 290.774 53.1933 290.716C52.7224 290.674 52.4382 291.303 51.8558 291.155C51.449 291.051 50.9948 291.155 50.5657 291.13C50.2871 291.13 50.1143 291.27 50.1505 291.482C50.2704 292.174 49.7827 292.652 49.5431 293.19C49.3653 293.484 49.2691 293.82 49.2645 294.164C49.2735 294.215 49.2719 294.268 49.2595 294.319C49.2472 294.37 49.2244 294.418 49.1927 294.459C49.161 294.501 49.121 294.536 49.0753 294.561C49.0297 294.586 48.9792 294.602 48.9273 294.606C48.5139 294.829 48.1301 295.104 47.7849 295.423C47.4198 295.743 47.2053 296.246 46.6703 296.35C46.2077 296.434 45.8845 296.806 45.3356 296.823C44.7059 296.84 44.3353 296.397 43.8253 296.235C43.5968 296.136 43.3908 295.99 43.2203 295.808C43.0497 295.625 42.918 295.41 42.8334 295.174C42.6913 294.76 42.5965 294.615 42.1646 294.578C41.9417 294.553 41.5572 294.183 41.5795 294.018C41.677 293.268 41.0222 292.767 41.0445 292.059C41.064 291.163 41.0083 291.161 40.1055 291.155H38.3779C37.8958 290.573 37.1658 290.897 36.6308 290.674C36.1627 290.478 35.5636 290.36 35.2376 289.862C34.6636 290.108 34.4936 289.168 33.9056 289.414C33.418 289.618 33.2035 289.061 32.7911 288.944C32.3007 288.801 31.7211 288.636 31.3979 288.171C30.718 287.208 29.57 286.987 28.6532 286.416C28.2241 286.136 27.6696 285.966 27.2405 285.686C26.8682 285.388 26.4612 285.137 26.0284 284.938C25.9271 284.898 25.8351 284.838 25.7584 284.76C25.6816 284.683 25.6218 284.59 25.5826 284.488C25.4711 284.062 25.421 283.648 24.8247 283.735C24.7773 283.735 24.6686 283.519 24.6408 283.393C24.4206 282.386 24.2117 282.058 23.4788 281.524C23.2661 281.393 23.0972 281.201 22.9939 280.973C22.8906 280.745 22.8576 280.492 22.8992 280.245C22.9968 279.581 22.6624 279.195 22.0382 278.996C21.3388 278.769 20.7648 278.257 20.0404 278.075C19.8286 277.641 19.2797 277.795 18.9955 277.465C18.7586 277.185 18.4939 276.945 18.232 276.698C18.0843 276.555 17.9784 276.326 17.7081 276.396C17.1118 276.55 16.8276 276.116 16.4403 275.789C16.093 275.47 15.6728 275.242 15.2171 275.125C14.7127 275.044 14.7016 274.786 14.6598 274.423C14.6458 274.308 14.4536 274.227 14.3811 274.109C14.083 273.689 13.4755 273.815 13.1662 273.356C12.8876 272.945 12.4501 272.645 12.1185 272.265C11.8873 272.004 11.6114 272.055 11.3356 272.057C11.0068 272.057 10.7783 271.968 10.8145 271.582C10.8145 271.439 10.8145 271.302 10.8145 271.148C10.8482 271.009 10.8523 270.865 10.8265 270.724C10.8007 270.584 10.7455 270.451 10.6647 270.333C10.5839 270.216 10.4792 270.117 10.3576 270.043C10.2359 269.969 10.1001 269.922 9.95906 269.905C9.78459 269.877 9.62032 269.805 9.4825 269.694C9.34468 269.583 9.23809 269.438 9.17328 269.272C9.06876 268.866 8.84089 268.502 8.52126 268.231C8.137 267.903 7.78436 267.54 7.46799 267.145C7.21164 266.77 7.12526 266.278 6.9107 265.863C6.77935 265.643 6.61378 265.446 6.42029 265.278C6.30415 265.196 6.21295 265.084 6.15687 264.953C6.10078 264.822 6.08201 264.678 6.10264 264.537C6.12814 264.398 6.1157 264.254 6.06665 264.122C6.01759 263.989 5.93374 263.872 5.82399 263.784C5.19426 263.188 4.60911 262.547 3.97938 261.953C3.645 261.64 3.42209 261.332 3.5029 260.834C3.50865 260.766 3.49939 260.698 3.47577 260.635C3.45215 260.571 3.41478 260.514 3.36636 260.467C2.85087 260.036 2.53043 259.529 2.60845 258.824C2.08182 258.6 2.35767 257.858 1.84497 257.623C1.82546 257.125 1.9007 256.599 1.76138 256.137C1.55797 255.479 1.20409 254.869 1.35177 254.138C1.10935 253.878 0.878078 253.604 0.616153 253.363C0.476832 253.231 0.485191 253.178 0.655163 253.044C0.981176 252.786 1.05084 252.484 0.724824 252.154C0.630085 252.059 0.482404 251.916 0.501909 251.824C0.605007 251.281 0.223266 250.917 0.0783719 250.472C5.53891e-06 250.308 -0.0203387 250.123 0.0207178 249.946C0.0617744 249.769 0.161761 249.612 0.304073 249.5C0.521415 249.352 0.582716 249.027 0.474045 248.941C-0.122251 248.434 0.0839448 247.768 0.0588669 247.149C0.033789 246.531 0.033789 245.99 0.0588669 245.414C0.0839448 244.837 -0.175193 244.107 0.479618 243.634C0.513055 243.609 0.479618 243.497 0.479618 243.424C0.479618 243.01 -0.247641 242.802 0.111809 242.335C0.23381 242.211 0.329946 242.065 0.39455 241.903C0.459154 241.741 0.490921 241.569 0.487977 241.395C0.457324 240.961 0.457324 240.526 0.487977 240.093C0.518628 239.533 1.10935 239.192 0.939379 238.531C0.825136 238.081 0.780553 237.524 1.31276 237.174C1.38242 237.126 1.31276 236.894 1.34898 236.765C1.45487 236.082 1.12328 235.366 1.60255 234.694C1.93692 234.215 2.06231 233.574 2.40226 233.082C3.11001 232.074 3.03756 230.719 3.9125 229.798C3.9307 229.768 3.94236 229.735 3.94668 229.7C3.95101 229.666 3.9479 229.63 3.93758 229.597C3.69516 228.679 4.21622 228.111 4.83202 227.576C4.98806 227.439 5.2472 227.212 5.21377 227.103C4.93512 226.193 5.90759 225.93 6.09149 225.284C6.2754 224.637 7.05002 224.371 7.24507 223.809C7.57387 222.862 8.39308 222.409 8.96151 221.701C9.21787 221.382 9.6832 221.189 9.57174 220.651C9.85039 220.455 9.97856 220.019 10.3882 220.024C10.6473 220.024 10.7448 219.817 10.9232 219.744C11.4303 219.534 11.0764 218.493 11.9625 218.686C12.3665 218.308 12.673 217.796 13.3111 217.757C13.3613 217.757 13.4365 217.662 13.4421 217.603C13.5424 216.682 14.1498 216.514 14.9328 216.523C15.0944 216.528 15.2477 216.257 15.5096 216.005ZM21.2357 267.988C21.2357 268.422 21.2357 268.855 21.2357 269.292C21.846 269.678 21.7122 270.308 21.6453 270.846C21.5618 271.514 21.9519 271.626 22.4228 271.817C22.6485 271.906 22.98 272.284 22.9299 272.433C22.6708 273.272 23.4064 273.88 23.3952 274.649C23.3952 275.615 23.4119 275.612 24.1058 276.522C24.1964 276.624 24.2469 276.755 24.2479 276.891C24.0807 277.709 24.7857 277.991 25.1869 278.456C25.2835 278.551 25.4112 278.608 25.5464 278.616C25.9783 278.635 26.4129 278.596 26.842 278.616C27.3993 278.658 27.5442 279.282 28.0012 279.469C28.1238 279.52 28.2798 279.469 28.4275 279.469C28.9848 279.52 29.4446 279.875 29.8625 280.161C30.4198 280.533 30.9994 280.105 31.4842 280.44C31.6013 280.519 31.696 280.734 31.7935 280.72C32.3703 280.69 32.7131 281.406 33.3289 281.199C33.9447 280.992 34.2818 281.714 34.8809 281.644C35.48 281.574 36.1432 281.756 36.6614 281.216C36.7645 281.107 37.0961 281.143 37.2884 281.216C37.5364 281.305 37.7342 281.566 37.9822 281.619C38.3384 281.676 38.7015 281.676 39.0578 281.619C39.3724 281.57 39.6944 281.608 39.989 281.73C40.2836 281.851 40.5397 282.051 40.7296 282.307C41.1002 282.747 41.1754 282.027 41.5488 282.027C43.2736 282.092 45.004 282.067 46.7316 282.047C47.0827 282.047 47.1746 282.481 47.4003 282.436C47.626 282.391 47.7542 282.025 48.1025 282.05C48.5335 282.089 48.9672 282.089 49.3982 282.05C49.7159 282.011 49.7883 282.736 50.2091 282.268C50.4877 281.96 51.0255 282.083 51.2623 281.658C51.2985 281.594 51.541 281.63 51.6691 281.627C51.9478 281.627 52.2459 281.627 52.5357 281.627C53.0317 281.627 53.5277 281.706 53.8871 281.207C53.9817 281.163 54.0885 281.152 54.1899 281.177C54.2913 281.202 54.3811 281.261 54.4444 281.345C54.4969 281.436 54.5742 281.512 54.6674 281.561C54.7606 281.611 54.8659 281.633 54.9711 281.624C55.7847 281.526 56.6819 281.904 57.3841 281.185C58.0055 281.165 58.6687 281.331 59.1507 280.751C59.6885 280.897 60.0647 280.536 60.4826 280.317C61.1347 280.653 61.4439 279.758 62.0347 279.883C62.2938 279.405 62.8706 279.478 63.2551 279.159C63.6305 278.877 64.0652 278.685 64.5257 278.599C64.9381 278.509 65.3867 278.599 65.8159 278.571C65.9449 278.544 66.0615 278.475 66.1474 278.375C65.9329 277.79 66.7911 277.625 66.6574 277.031C66.6211 276.883 67.1143 276.667 67.2146 276.418C67.4153 275.92 67.8388 275.523 67.8917 274.966C67.9363 274.607 67.9363 274.244 67.8917 273.885C67.8221 273.451 68.3654 273.359 68.3292 272.978C68.3135 272.845 68.2719 272.715 68.2066 272.598C67.9893 272.164 67.9809 272.158 68.2066 271.982C68.3682 271.859 68.5326 271.68 68.7137 271.652C68.945 271.618 69.2209 271.531 69.1791 271.352C69.0063 270.596 69.8283 270.087 69.6277 269.356C69.4382 268.674 70.0039 268.186 70.0512 267.582C70.107 266.863 70.0512 266.138 70.0763 265.413C70.0763 265.301 70.224 265.186 70.3187 265.088C70.6531 264.741 70.5333 264.441 70.2101 264.198C70.0345 264.061 70.0819 264.038 70.2101 263.876C70.4467 263.568 70.5812 263.194 70.5947 262.805C70.6082 262.416 70.5 262.033 70.2853 261.71C69.9732 261.2 70.132 260.747 70.0819 260.271C70.0736 260.218 70.0788 260.163 70.0971 260.113C70.1153 260.062 70.1461 260.017 70.1864 259.981C70.2267 259.946 70.2753 259.921 70.3277 259.91C70.3801 259.898 70.4345 259.9 70.4859 259.915C70.8955 259.983 71.3887 259.711 71.7036 260.075C71.8513 260.246 71.7315 260.635 71.8123 260.89C71.868 261.074 72.1076 261.203 72.1661 261.391C72.1963 261.483 72.2069 261.58 72.1973 261.676C72.1877 261.773 72.1581 261.866 72.1104 261.95C72.0087 262.045 71.9277 262.161 71.8725 262.289C71.8174 262.417 71.7893 262.555 71.79 262.695C71.8178 263.274 71.79 263.854 71.79 264.433C71.7504 265.01 71.757 265.59 71.8095 266.166C71.9098 266.79 71.5308 267.212 71.3776 267.73C71.2828 268.082 71.2828 268.453 71.3776 268.805C71.5085 269.326 70.8955 269.474 70.9206 269.925C70.9485 270.484 71.0293 271.069 70.4971 271.478C70.7757 272.113 70.185 272.511 70.0401 273.029C69.9342 273.404 69.6277 273.686 69.597 274.148C69.556 274.619 69.3599 275.062 69.0398 275.408C68.7193 275.733 68.8949 276.264 68.4574 276.485C68.3041 276.561 68.3348 276.69 68.5215 276.785C68.584 276.814 68.6537 276.825 68.7221 276.816C68.8531 276.788 69.0286 276.777 69.0955 276.69C69.3184 276.41 69.5079 276.354 69.7169 276.69C69.8172 276.852 69.8868 276.807 70.0289 276.653C70.2779 276.405 70.5412 276.171 70.8175 275.954C71.503 276.158 71.9321 275.727 72.2414 275.254C72.5813 274.708 73.1553 274.568 73.6346 274.381C74.7188 273.962 75.6909 273.295 76.474 272.433C76.8585 272.002 77.2876 271.612 77.6916 271.201C77.7446 271.156 77.7874 271.101 77.8172 271.038C77.847 270.975 77.8631 270.907 77.8644 270.837C77.8657 270.768 77.8522 270.699 77.8248 270.635C77.7974 270.572 77.7568 270.514 77.7056 270.468C77.1929 270.023 76.8195 269.527 76.995 268.808C77.1594 268.13 76.7805 267.733 76.3402 267.338C76.2427 267.252 76.1061 267.059 76.1396 267.003C76.4545 266.339 75.5823 266.017 75.7021 265.443C75.8442 264.825 75.4235 264.397 75.2869 263.879C75.1504 263.361 75.2619 262.871 75.2619 262.365V259.314C74.4705 258.927 75.2897 258.544 75.2758 258.152C75.234 257.142 75.2758 256.128 75.2563 255.115C75.2452 254.941 75.2693 254.767 75.3273 254.603C75.3852 254.439 75.4758 254.289 75.5934 254.161C75.7033 254.02 75.763 253.847 75.763 253.668C75.763 253.49 75.7033 253.316 75.5934 253.176C75.1142 252.688 75.1671 252.336 75.652 251.95C75.9187 251.726 76.1007 251.416 76.1674 251.073C76.2175 250.861 76.3451 250.674 76.5252 250.552C76.7052 250.429 76.9246 250.378 77.1399 250.41C77.3543 250.451 77.5761 250.414 77.7659 250.306C77.9557 250.197 78.1011 250.025 78.1765 249.82C78.4551 249.285 78.7087 248.742 78.9678 248.199C78.9985 248.137 79.1016 248.101 79.1127 248.042C79.1434 247.841 79.2242 247.614 79.0124 247.457C78.8918 247.38 78.798 247.267 78.7441 247.135C78.6902 247.002 78.6788 246.855 78.7115 246.715C78.77 246.399 78.5749 246.209 78.4328 245.963C78.182 245.551 77.5969 245.809 77.4213 245.338C77.2458 244.868 77.0953 244.459 76.8975 244.037C76.8585 243.953 76.6579 243.944 76.5353 243.894C76.4127 243.844 76.1842 243.771 76.1897 243.726C76.265 242.92 75.8247 242.399 75.2619 241.935C75.3845 241.504 74.9526 241.33 74.8467 241.022C74.6906 240.569 75.0389 240.02 74.6433 239.586C74.1947 239.094 74.4454 238.5 74.4092 237.952C74.3949 237.381 74.4098 236.811 74.4538 236.242C75.1448 235.746 74.2309 235.36 74.3479 234.842C74.4649 234.324 74.5513 233.904 74.9609 233.566C75.0511 233.51 75.1266 233.433 75.1814 233.342C75.2362 233.251 75.2685 233.148 75.2758 233.042C75.2897 232.569 75.1337 232.088 75.5544 231.643C75.8999 231.265 75.6798 230.683 75.6826 230.193C75.6762 230.052 75.7053 229.912 75.7671 229.785C75.829 229.658 75.9216 229.549 76.0365 229.468C76.2378 229.322 76.3945 229.123 76.489 228.892C76.5836 228.662 76.6121 228.41 76.5715 228.164C76.5436 227.819 76.4851 227.324 76.6746 227.148C77.073 226.795 76.9337 226.218 77.3963 225.897C78.1542 225.368 78.4022 224.469 78.8201 223.685C79.1322 223.098 79.3078 222.342 80.0963 222.006C79.5808 221.511 79.135 221.043 78.6502 220.62C78.2035 220.187 77.839 219.676 77.5746 219.112C77.5132 218.982 77.4127 218.874 77.2872 218.804C77.1618 218.734 77.0176 218.706 76.8752 218.723C76.738 218.754 76.5951 218.751 76.4596 218.712C76.3242 218.673 76.2007 218.601 76.1006 218.502C75.8853 218.239 75.7234 217.937 75.6241 217.612C75.4513 217.225 74.9386 217.561 74.6516 217.407C74.3643 217.195 74.1017 216.951 73.8686 216.679C73.5064 216.344 73.1804 215.84 72.7541 215.731C72.1968 215.579 72.024 214.933 71.6005 214.891C70.9234 214.799 70.6615 214.289 70.2658 213.92C70.1513 213.787 70.0084 213.682 69.8476 213.612C69.6869 213.543 69.5126 213.511 69.3379 213.519C69.1324 213.52 68.934 213.444 68.7806 213.307C68.449 213.004 68.1843 213.027 67.8778 213.34C67.3372 213.878 66.8998 214.605 65.9468 214.432C65.866 214.418 65.7518 214.631 65.6403 214.712C64.7765 215.426 64.1719 215.672 63.2384 215.691C63.0232 215.676 62.8072 215.676 62.592 215.691C62.4916 215.711 62.4108 215.845 62.3133 215.929C62.3703 215.973 62.4209 216.025 62.4638 216.083C62.6867 216.506 63.3192 216.414 63.4697 216.716C63.6167 217.099 63.8373 217.449 64.1189 217.746C64.6038 218.177 65.0663 218.628 64.8852 219.378C65.3895 219.702 65.3143 220.388 65.7406 220.758C65.462 221.393 66.0583 221.788 66.2004 222.305C66.3063 222.681 66.6796 222.955 66.6183 223.439C66.557 223.923 67.067 224.122 67.3345 224.433C67.6716 224.825 67.2091 225.443 67.7803 225.776C67.9961 225.903 68.1662 226.096 68.2663 226.326C68.3665 226.556 68.3914 226.813 68.3376 227.058C68.3097 227.26 68.2986 227.601 68.4044 227.66C69.0732 228.041 68.4463 228.987 69.1568 229.317C69.232 229.787 69.0648 230.341 69.6138 230.646C69.6138 231.077 69.597 231.511 69.6333 231.942C69.6639 232.284 69.4521 232.687 69.7726 232.964C70.3299 233.437 69.9398 234.044 70.0512 234.579C69.4438 234.94 69.8116 235.217 70.1293 235.5C70.2449 235.579 70.3395 235.686 70.405 235.81C70.4706 235.934 70.505 236.073 70.5054 236.214C70.4776 237.009 70.5054 237.806 70.4915 238.601C70.4915 239.13 69.9649 239.547 69.3379 239.556C68.8893 239.556 68.8085 239.477 68.7611 239.136C68.6831 238.576 68.9757 237.98 68.619 237.456C68.1648 236.796 68.1425 236.194 68.6413 235.525C68.7748 235.358 68.8409 235.146 68.8264 234.932C68.812 234.718 68.7181 234.517 68.5633 234.369C68.2568 234.067 68.3571 233.577 67.9809 233.289C67.8388 233.182 68.5716 232.897 68.0645 232.541C67.8502 232.418 67.6785 232.232 67.5724 232.008C67.4663 231.784 67.4309 231.532 67.471 231.287C67.5295 230.935 67.4181 230.548 67.4961 230.207C67.6131 229.695 66.9221 229.53 67.0586 229.087C67.2564 228.449 66.4735 228.155 66.6044 227.526C66.78 226.658 66.284 225.955 65.958 225.197C65.7239 224.637 65.1666 224.212 65.3115 223.517C65.3338 223.411 65.2224 223.168 65.1694 223.165C64.2777 223.145 64.47 222.496 64.4561 221.964C64.4561 221.757 64.5034 221.404 64.2805 221.404C63.478 221.427 63.5393 220.892 63.6034 220.405C63.7065 219.604 63.3248 219.095 62.8009 218.549C62.2771 218.003 61.4802 217.67 61.3854 216.758C61.3631 216.523 60.9312 216.45 60.6777 216.696C60.2904 217.074 59.9727 217.153 59.6272 216.696C59.5046 216.537 59.4349 216.545 59.3123 216.724C59.2427 216.825 59.0476 216.962 59.0337 216.94C58.3399 216.38 57.6683 216.408 56.955 216.926C56.6262 217.167 56.1358 216.825 55.7819 217.231C55.428 217.637 54.8345 217.393 54.3581 217.418C53.4943 217.458 52.6277 217.418 51.7639 217.418C51.2735 217.418 50.7719 217.326 50.4097 217.83C50.3456 217.917 50.0335 217.894 49.8357 217.715C49.3564 217.284 48.8604 217.259 48.3617 217.738C48.1248 217.964 47.8517 217.9 47.6288 217.654C47.3502 217.329 47.0325 217.306 46.7427 217.654C46.682 217.741 46.5954 217.806 46.4953 217.841C46.3952 217.876 46.2867 217.878 46.1855 217.847C45.9375 217.754 45.7396 217.528 45.4916 217.435C45.082 217.284 45.0012 217.947 44.5944 217.858C44.4664 217.82 44.3424 217.771 44.2238 217.71C44.0789 217.642 44.065 217.385 43.7529 217.581C43.0897 217.998 43.0619 217.939 42.4433 217.659C41.7467 217.346 41.7272 217.315 41.1281 217.659C40.8494 217.816 40.6321 217.956 40.3897 217.74C40.2978 217.636 40.185 217.552 40.0587 217.495C39.9324 217.438 39.7955 217.408 39.6568 217.407C38.6482 217.43 37.6395 217.407 36.6308 217.407C36.1376 217.407 35.6165 217.505 35.2961 216.973C34.8114 217.008 34.3299 216.871 33.9363 216.584C33.5741 216.355 32.9555 216.548 32.4511 216.534C32.2775 216.505 32.0996 216.52 31.9329 216.576C31.7662 216.633 31.616 216.73 31.4954 216.859C31.2864 217.099 30.9743 217.024 30.7737 216.766C30.5731 216.509 30.2805 216.548 30.0019 216.534C29.7762 216.534 29.4724 216.579 29.4836 216.775C29.5142 217.5 28.8789 217.715 28.5139 218.107C28.0848 218.574 28.0904 219.325 27.4634 219.632C27.2628 219.73 27.2767 219.814 27.4411 219.943C27.8981 220.296 27.8145 220.637 27.416 220.993C27.2071 221.175 26.8588 221.446 26.8978 221.625C27.0482 222.529 26.3405 222.868 25.8835 223.389C25.7525 223.545 25.5213 223.635 25.5686 223.912C25.6188 224.12 25.6045 224.339 25.5279 224.539C25.4512 224.739 25.3158 224.911 25.1395 225.032C25.2538 225.591 24.7689 225.762 24.5014 226.067C24.3398 226.249 24.2841 226.37 24.5014 226.535C24.6394 226.652 24.7322 226.813 24.7637 226.992C24.7953 227.17 24.7636 227.354 24.6742 227.512C24.3956 227.951 24.1866 228.351 24.2757 228.872C23.7825 229.199 23.9051 229.919 23.4119 230.246C23.4119 230.823 23.398 231.397 23.3813 231.973C23.3813 232.026 23.2893 232.08 23.2336 232.124C22.7404 232.525 23.1695 233.124 22.955 233.524C22.6606 233.993 22.5149 234.54 22.537 235.094C22.5816 235.741 22.4423 236.415 22.5732 237.053C22.7348 237.831 22.0884 238.335 22.094 239.049C22.094 239.55 21.9491 239.547 21.4113 239.572C20.8735 239.598 20.6785 239.178 20.4026 238.887C20.3519 238.79 20.3373 238.679 20.3613 238.573C20.3853 238.466 20.4464 238.372 20.5336 238.307C20.6534 238.212 20.9376 238.095 20.6394 237.854C20.3413 237.613 20.2493 237.263 20.5949 236.967C20.8735 236.745 20.8038 236.466 20.8206 236.188C20.8429 235.847 20.6896 235.461 21.0491 235.2C21.3277 234.993 21.2162 234.685 21.2525 234.414C21.2887 234.142 21.1048 234.044 20.9989 233.854C20.7203 233.389 20.7398 233.378 20.9487 233.118C21.6732 232.222 21.6732 232.222 21.6816 231.254C21.6816 230.694 21.584 230.109 22.1135 229.698C21.9741 228.838 22.8407 228.186 22.5621 227.268C22.3559 226.591 22.6708 226.02 23.242 225.611C23.4621 225.454 23.32 225.121 23.4259 225.051C23.8689 224.743 23.9079 224.212 24.1141 223.8C24.3426 223.341 24.7912 222.927 24.7132 222.317C24.6352 221.706 25.2705 221.544 25.5241 221.135C25.5692 221.002 25.5853 220.861 25.5714 220.721C25.5714 220.578 25.5129 220.391 25.5714 220.296C25.7841 220.011 26.024 219.747 26.2875 219.509C26.6581 219.179 25.6801 219.039 26.1872 218.745C26.5745 218.521 26.2207 217.581 27.0733 217.844C27.3854 217.564 27.2795 217.049 27.678 216.783C28.0115 216.527 28.3254 216.246 28.617 215.943C28.369 215.582 28.0597 215.714 27.7811 215.663C27.313 215.585 26.817 215.857 26.36 215.426C26.0256 215.109 25.46 215.098 25.173 214.645C25.1287 214.546 25.0529 214.465 24.9575 214.414C24.8621 214.363 24.7526 214.346 24.6463 214.365C24.0445 214.513 23.7491 214.068 23.398 213.724C22.9828 213.315 23.1807 213.284 22.1218 213.497C21.3889 213.625 20.6994 213.935 20.1156 214.398C19.8035 214.678 19.5165 215.12 19.1571 215.196C18.5775 215.316 18.4242 215.988 17.9979 216.036C17.3236 216.128 17.0867 216.663 16.6549 216.996C16.4905 217.125 16.3511 217.32 16.1644 217.376C15.9025 217.458 15.5737 217.36 15.3285 217.474C15.0109 217.634 15.2728 218.177 14.8632 218.356C14.6793 218.437 14.5232 218.675 14.3533 218.678C13.8322 218.678 13.3362 218.647 13.3836 219.397C12.7734 220.013 12.1576 220.62 11.5529 221.242C11.1489 221.653 11.1767 222.191 11.6114 222.723C11.8441 222.968 12.0327 223.252 12.1687 223.562C12.4455 224.353 12.939 225.05 13.5926 225.572C14.1499 225.992 14.4452 226.526 14.292 227.232C14.1387 227.937 14.8297 228.486 14.7684 229.227C14.7461 229.471 15.1864 229.759 15.426 230.017C15.7604 230.375 15.6127 230.66 15.2979 230.91C15.1362 231.036 15.1418 231.097 15.3202 231.226C15.4126 231.279 15.4879 231.357 15.5373 231.452C15.5867 231.547 15.608 231.654 15.5988 231.76C15.5124 232.81 15.9527 233.644 16.7134 234.333C16.8638 234.467 16.9223 234.557 16.783 234.641C16.3038 234.921 16.5044 235.408 16.4709 235.813C16.4292 236.317 16.4375 236.779 16.8778 237.179C16.9461 237.304 16.9819 237.443 16.9819 237.585C16.9819 237.727 16.9461 237.867 16.8778 237.991C16.223 238.509 16.5796 239.192 16.4793 239.794C16.4236 240.132 16.6298 240.521 16.2843 240.798C15.9387 241.075 16.1031 241.624 15.6768 241.854C15.557 241.918 15.4762 242.055 15.3675 242.153C14.9969 242.492 14.5985 242.816 14.7489 243.415C14.7743 243.484 14.7743 243.56 14.7489 243.628C14.2947 244.238 13.4867 244.574 13.3808 245.45C13.3808 245.503 13.2693 245.599 13.2331 245.59C12.5477 245.417 12.7316 246.097 12.478 246.324C12.0712 246.685 12.2356 247.105 12.1492 247.505C11.9987 248.199 11.9263 248.274 12.191 248.426C12.6898 248.706 12.5114 249.321 12.9294 249.663C13.3615 249.996 13.8108 250.306 14.2752 250.592C14.8181 250.943 15.2654 251.424 15.5765 251.992C15.7827 252.392 15.6322 252.985 15.6127 253.489C15.5932 254.049 15.6127 254.609 16.0335 255.062C16.1421 255.18 16.1031 255.499 16.0335 255.692C15.9443 255.941 15.7158 256.14 15.6239 256.389C15.4734 256.803 16.0502 256.904 16.0586 257.29C16.0585 257.396 16.0309 257.5 15.9787 257.593C15.9264 257.685 15.8512 257.762 15.7604 257.816C15.5821 257.951 15.5821 258.009 15.7604 258.135C15.9371 258.261 16.0584 258.45 16.099 258.664C16.1395 258.877 16.0961 259.098 15.9777 259.28C15.4985 259.89 15.3926 260.366 15.9527 260.96C16.0474 261.06 16.0056 261.354 15.9527 261.519C15.8997 261.684 15.6434 261.852 15.6294 262.029C15.5876 262.605 15.4873 263.224 15.6462 263.756C15.8496 264.444 15.0889 264.724 15.1725 265.32C15.2393 265.816 15.2672 266.334 14.7489 266.658C14.8176 266.939 14.7949 267.234 14.684 267.501C14.5732 267.767 14.3801 267.991 14.1331 268.139C13.7402 268.419 14.1331 268.55 14.2334 268.76C14.273 268.848 14.2934 268.944 14.2934 269.04C14.2934 269.137 14.273 269.232 14.2334 269.32C14.0272 269.6 13.5926 269.807 13.5201 270.107C13.4645 270.464 13.2873 270.792 13.0186 271.033C13.7096 271.632 14.2167 272.433 15.1362 272.749C15.27 272.796 15.1362 273.281 15.4706 273.415C16.0279 273.633 16.6911 273.709 17.07 274.235C17.449 274.761 18.2626 274.689 18.5803 275.302C19.5527 275.744 20.3831 276.567 21.5645 276.444C21.9073 276.41 22.0661 276.645 22.2807 276.824C22.2807 276.824 22.5036 276.693 22.5203 276.603C22.5334 276.397 22.4743 276.193 22.3531 276.026C22.0243 275.366 21.5032 274.764 21.6509 273.924C21.6555 273.823 21.6362 273.722 21.5946 273.63C21.5529 273.537 21.4901 273.456 21.4113 273.393C20.7593 272.967 20.7732 272.332 20.8066 271.682C20.8289 271.263 20.5503 271.271 20.2493 271.232C20.0264 271.201 19.9484 271.027 19.9233 270.778C19.837 269.961 20.2438 269.054 19.5026 268.352C19.9289 267.232 18.2738 266.138 19.4441 264.993C19.4608 264.976 19.4441 264.87 19.4023 264.847C19.0456 264.615 19.0735 264.262 19.0623 263.898C19.0623 263.451 19.0846 263.059 19.4831 262.754C19.5288 262.66 19.541 262.553 19.5177 262.451C19.4944 262.349 19.4369 262.258 19.3549 262.194C18.7976 261.746 19.1097 261.125 19.1236 260.59C19.1236 260.38 19.4664 260.103 19.7116 259.997C19.9857 259.933 20.2697 259.923 20.5475 259.969C20.5825 259.976 20.6151 259.992 20.642 260.015C20.6689 260.039 20.6892 260.069 20.7007 260.103C20.776 260.792 21.0073 261.503 20.5475 262.138C20.358 262.395 20.2438 262.633 20.4611 262.877C20.5661 262.969 20.6501 263.082 20.7073 263.21C20.7645 263.337 20.7937 263.476 20.7927 263.616C20.7648 264.338 20.776 265.063 20.7927 265.785C20.7927 265.986 20.7927 266.278 20.9264 266.367C21.4001 266.695 21.1884 267.148 21.2357 267.988ZM65.9691 207.865C66.0416 207.98 66.1781 208.098 66.1753 208.21C66.1558 208.744 66.4874 208.77 66.8691 208.733C67.0781 208.733 67.2955 208.772 67.4459 208.554C67.7246 208.154 68.2819 207.977 68.3376 207.409C68.3376 207.294 68.2456 207.163 68.1787 207.048C67.8332 206.463 67.7887 206.416 68.2679 206.01C68.9199 205.45 68.8754 204.773 68.6636 204.092C68.5911 203.857 68.3181 203.687 68.3376 203.359C68.3654 202.869 68.4574 202.34 67.9252 202.016C67.9558 201.61 67.7887 201.195 68.2038 200.823C68.4825 200.566 68.4212 200.347 68.2038 200.104C67.8165 199.692 67.3456 199.362 67.4849 198.654C67.549 198.338 67.0335 198.184 67.0475 197.753C67.0475 197.445 66.6406 197.266 66.6016 196.851C66.5738 196.572 66.1586 196.325 65.9162 196.065C65.6738 195.805 65.7741 195.43 65.4843 195.147C65.1945 194.864 64.7152 194.982 64.5954 194.699C64.4728 194.305 64.2545 193.948 63.9601 193.661C63.5811 193.344 63.2746 192.852 62.8455 192.709C62.2464 192.507 61.9706 192.018 61.5498 191.665C61.1291 191.312 60.8532 190.932 60.4659 190.61C60.2709 190.445 59.9281 190.453 59.7498 190.279C59.4166 189.929 59.0048 189.663 58.5488 189.504C58.0417 189.339 58.103 188.664 57.7742 188.329C57.6082 188.102 57.3688 187.941 57.0971 187.872C56.6457 187.791 56.3086 187.329 55.7568 187.447C55.5479 187.492 55.4364 187.298 55.3974 187.041C55.2358 186.036 54.0042 186.201 53.6057 185.44C53.4775 185.194 53.224 185.317 53.0206 185.292C52.8172 185.266 52.6054 185.353 52.4354 185.135C51.9506 184.513 51.2261 184.295 50.5406 183.976C50.1728 183.811 49.8106 183.556 49.7855 183.058C49.7895 183.005 49.7816 182.953 49.7624 182.903C49.7432 182.854 49.7131 182.81 49.6745 182.774C49.6359 182.739 49.5898 182.712 49.5395 182.697C49.4893 182.681 49.4362 182.678 49.3843 182.686C49.2116 182.709 49.0361 182.698 48.8677 182.652C48.6994 182.607 48.5417 182.529 48.4035 182.423C48.3144 182.335 48.2071 182.269 48.0893 182.229C47.9715 182.188 47.8462 182.175 47.7225 182.189C47.5989 182.204 47.48 182.246 47.3746 182.312C47.2692 182.379 47.18 182.468 47.1133 182.574C46.6675 183.276 45.9988 183.086 45.3857 183.134C45.0068 183.159 44.678 183.106 44.4579 182.764C44.0204 182.095 43.3433 182.227 42.7219 182.286C42.421 182.313 42.2538 182.767 41.8191 182.719C41.6324 182.7 41.5878 182.999 41.5683 183.229C41.5488 183.458 41.3677 183.509 41.142 183.584C40.4538 183.822 40.0469 184.704 39.1386 184.505C39.0605 184.488 38.9463 184.704 38.8348 184.785C38.6231 184.961 38.4029 185.258 38.18 185.264C37.7258 185.264 37.5614 185.905 37.0655 185.725C36.706 186.078 36.341 186.422 35.9899 186.783C35.5914 187.195 35.2264 187.665 34.5437 187.461C34.084 187.741 33.6131 188.021 33.17 188.32C32.8162 188.564 32.9193 189.07 32.5765 189.384C32.2338 189.697 31.7601 189.554 31.501 189.966C31.2871 190.257 31.0328 190.517 30.7458 190.736C30.4393 191.016 30.2582 191.491 29.7121 191.368C29.5792 191.671 29.4208 191.963 29.2384 192.239C29.0768 192.449 28.9068 192.751 28.5613 192.667C27.887 192.505 27.8591 193.045 27.5972 193.431C27.2377 193.957 26.7055 194.369 26.2485 194.831C25.3374 194.716 25.577 195.726 25.0671 196.054C24.5572 196.381 24.089 196.893 24.2813 197.666C24.2813 197.702 24.1726 197.758 24.1392 197.82C23.8299 198.413 23.5652 199.035 23.2113 199.6C22.7934 200.275 23.0887 201 22.9912 201.68C22.9717 201.814 22.9912 202.018 22.9104 202.072C22.3698 202.435 22.5955 202.976 22.5649 203.451C22.5849 203.884 22.5784 204.318 22.5454 204.75C22.4395 205.31 22.8742 205.64 22.9745 206.094C23.0143 206.23 23.0267 206.372 23.0109 206.513C22.9951 206.654 22.9515 206.79 22.8825 206.914C22.6457 207.308 22.6791 207.339 22.863 207.518C23.1806 207.789 23.4056 208.154 23.5067 208.56C23.5875 208.921 23.8216 208.54 23.9219 208.434C24.0222 208.327 24.1197 208.28 24.2395 208.464C24.3096 208.589 24.4246 208.682 24.5609 208.725C24.6973 208.767 24.8445 208.755 24.9723 208.691C25.2092 208.585 25.1507 208.333 25.1535 208.131C25.1973 207.627 25.1907 207.12 25.134 206.617C25.0197 206.043 25.4767 205.735 25.5909 205.276C25.6247 205.03 25.7464 204.804 25.9335 204.641C26.1205 204.478 26.3602 204.388 26.608 204.389C26.7027 204.389 26.8866 204.204 26.8699 204.109C26.7863 203.27 27.8034 203.647 27.9845 203.099C27.9845 203.057 28.3356 203.043 28.3802 203.113C28.7285 203.628 29.2412 203.524 29.7316 203.527C29.8347 203.51 29.9404 203.518 30.04 203.55C30.1397 203.581 30.2306 203.636 30.3056 203.709C30.6316 204.07 30.9381 204.476 31.4954 204.481C31.6443 204.924 31.8376 205.351 32.0722 205.755C32.3784 206.21 32.5485 206.743 32.5626 207.292C33.2007 207.787 32.8412 208.487 32.9081 209.094C32.9527 209.522 32.9304 209.906 33.3066 210.247C33.5072 210.432 33.3428 210.79 33.0753 210.964C32.8858 211.084 32.8663 211.199 33.0753 211.269C33.7134 211.485 34.2874 211.916 35.0258 211.787C35.3574 211.731 35.7531 211.661 35.9927 212.042C36.1097 212.226 36.249 212.254 36.2908 212.07C36.4106 211.527 36.5444 210.95 36.1432 210.471C35.9425 210.236 36.0373 210.127 36.2017 210.007C36.3661 209.886 36.4023 209.8 36.2546 209.696C35.5274 209.178 36.3911 208.103 35.5385 207.628C36.2351 207.068 35.8617 206.304 35.9397 205.629C35.9815 205.274 35.9397 204.904 35.9537 204.546C35.9676 204.188 35.806 203.824 36.1459 203.544C36.6336 203.141 35.8673 203.046 35.9453 202.735C35.9648 202.668 35.9175 202.567 35.9453 202.525C36.1604 202.244 36.397 201.98 36.6531 201.736C37.0348 201.4 36.5639 200.874 36.9512 200.555C37.0684 200.47 37.1702 200.366 37.2521 200.247C37.6269 199.595 38.0547 198.975 38.5311 198.394C38.3277 197.694 38.8488 197.352 39.2417 196.955C39.7989 196.395 40.3562 195.835 40.9135 195.276C41.4151 195.46 41.6241 194.929 42.0281 194.805C42.325 194.703 42.5936 194.532 42.8124 194.306C43.0312 194.079 43.194 193.805 43.2876 193.504C43.3294 193.381 43.4074 193.157 43.4603 193.16C44.0566 193.188 44.3102 192.706 44.6501 192.37C44.7922 192.233 44.834 192.23 44.9678 192.398C45.3356 192.866 45.6616 192.695 46.0183 192.339C46.101 192.287 46.1961 192.257 46.2939 192.253C46.3918 192.249 46.4889 192.271 46.5756 192.317C47.0883 192.807 47.5564 193.344 48.0384 193.868C47.9827 194.386 48.3533 194.324 48.6905 194.447C49.1864 194.629 49.5849 195.096 50.0837 195.248C50.5824 195.399 50.9363 195.642 51.0728 196.18C51.1277 196.379 51.2426 196.556 51.4016 196.686C52.0815 197.218 52.4326 197.968 52.7949 198.718C52.8534 198.839 52.8506 198.998 52.9342 199.091C53.2769 199.463 53.6726 199.788 53.9875 200.177C54.3023 200.566 53.8621 201.19 54.4444 201.517C54.567 201.585 54.5057 201.929 54.62 202.077C54.7955 202.304 54.9878 202.477 54.9683 202.808C54.9348 203.314 54.9683 203.821 54.9683 204.328C54.9683 204.834 55.0658 205.363 54.9432 205.839C54.7872 206.441 55.5144 206.62 55.4197 207.185C55.3389 207.667 55.4921 208.199 54.9683 208.52C54.9683 209.676 54.9683 210.835 54.9683 211.991C54.9683 212.036 55.2218 212.14 55.2469 212.109C55.3321 211.996 55.4434 211.906 55.5711 211.847C55.6989 211.787 55.8391 211.76 55.9798 211.767C56.3388 211.791 56.699 211.791 57.0581 211.767C57.2946 211.725 57.5114 211.608 57.6773 211.433C57.8431 211.258 57.9493 211.035 57.9804 210.796C58.0278 209.97 57.7798 209.097 58.4012 208.364C58.4513 208.305 58.3454 208.112 58.3092 207.98C58.273 207.849 57.8494 207.773 58.1114 207.527C58.5934 207.076 58.9975 206.612 58.8665 205.887C59.4238 205.45 59.2845 204.302 60.3684 204.364C60.4297 204.364 60.5579 204.148 60.5606 204.031C60.5606 203.687 60.6944 203.535 61.0566 203.513C61.5275 203.485 61.9929 203.639 62.4499 203.211C62.7898 202.9 63.3304 203.012 63.7623 203.44C64.1384 203.815 64.3669 204.465 65.0886 204.406C65.1555 204.406 65.3282 204.633 65.3059 204.714C65.1276 205.411 65.6013 205.766 66.0053 206.166C66.3481 206.505 66.2227 206.807 65.9022 207.057C65.6793 207.216 65.7713 207.446 65.9691 207.865ZM2.65025 239.337C2.50814 239.494 2.25457 239.64 2.23786 239.81C2.15422 240.383 2.15422 240.965 2.23786 241.537C2.37439 242.187 1.91184 242.576 1.78645 243.099C1.75302 243.236 1.72237 243.432 1.78645 243.522C2.09575 243.928 2.11804 244.303 1.78645 244.689V249.243C2.21278 249.702 2.50535 250.153 1.78645 250.642C1.75488 250.705 1.73843 250.774 1.73843 250.844C1.73843 250.914 1.75488 250.983 1.78645 251.045C2.19885 251.292 2.17655 251.765 2.37718 252.115C2.72827 252.722 2.70876 252.736 2.44127 253.436C2.39947 253.542 2.28523 253.716 2.2908 253.733C2.75056 254.012 2.51929 254.527 2.67533 254.883C2.83013 255.252 3.01173 255.61 3.21868 255.952C3.37751 256.198 3.56698 256.389 3.49732 256.705C3.43974 256.986 3.46496 257.277 3.5699 257.544C3.67483 257.81 3.85491 258.04 4.08805 258.205C4.32489 258.404 4.38341 258.799 4.56731 259.076C4.75122 259.353 5.1246 259.591 5.19983 259.893C5.37538 260.733 5.89923 260.867 6.60977 260.842C6.66422 260.833 6.72014 260.837 6.77228 260.856C6.82442 260.874 6.87106 260.905 6.90783 260.947C6.9446 260.988 6.97029 261.038 6.98249 261.092C6.99469 261.147 6.993 261.203 6.97758 261.256C6.92742 261.522 7.10575 261.816 6.83547 262.068C6.72401 262.169 6.40636 262.286 6.72401 262.519C7.14324 262.88 7.46035 263.347 7.64353 263.87C7.97512 264.601 8.38472 265.298 8.68566 266.04C8.77482 266.258 8.82219 266.434 9.04789 266.462C9.69156 266.541 9.92005 267.145 10.3519 267.487C10.4328 267.548 10.4411 267.744 10.4328 267.876C10.3714 268.752 11.1099 269.043 11.617 269.496C11.6811 269.519 11.7499 269.526 11.8171 269.515C11.8842 269.504 11.9477 269.477 12.0015 269.435C12.2216 269.175 12.648 269.04 12.5922 268.595C12.5059 267.87 13.2582 267.366 13.0799 266.636C13.6901 266.23 13.2498 265.516 13.5006 265.082C13.7816 264.607 13.92 264.059 13.8991 263.507C13.8824 262.421 13.9158 261.337 13.8824 260.254C13.8824 259.851 14.1331 259.627 14.2641 259.322C14.4201 258.955 14.3059 258.482 14.331 258.049C14.3393 257.91 14.3202 257.77 14.2747 257.639C14.2293 257.507 14.1585 257.386 14.0663 257.282C13.8071 256.951 13.8406 256.907 14.0495 256.557C14.1526 256.383 14.3505 256.277 14.3282 256.022C14.2947 255.518 14.3059 255.014 14.3003 254.511C13.6762 254.119 13.9715 253.486 13.874 252.952C13.814 252.753 13.6943 252.578 13.5313 252.451C13.1802 252.129 12.9461 251.611 12.3415 251.678C12.0963 251.353 11.5919 251.183 11.7284 250.631C11.252 250.203 11.1712 249.565 10.8674 249.036C10.6222 248.594 10.0315 248.137 10.8089 247.636C10.7579 247.526 10.6902 247.424 10.6083 247.334C10.5222 247.273 10.4594 247.184 10.43 247.083C10.4006 246.981 10.4065 246.872 10.4467 246.774C10.5944 246.472 10.9845 246.29 10.8619 245.862C11.2687 245.45 11.8622 245.109 12.0349 244.616C12.269 243.958 12.7399 243.589 13.1495 243.127C13.3671 242.939 13.5668 242.731 13.7458 242.506C13.9409 242.173 13.9855 241.758 14.2669 241.465C13.8879 241.21 13.8684 240.922 14.2669 240.706C14.7657 240.426 14.6152 239.799 15.0248 239.497C15.3202 239.279 15.2003 238.937 15.1558 238.696C15.0972 238.38 14.8353 238.103 14.7573 237.787C14.6681 237.414 15.2477 237.316 15.1892 236.883C15.1418 236.451 15.1418 236.015 15.1892 235.584C15.2449 234.904 15.1307 234.31 14.5232 233.904C14.317 233.767 14.3338 233.552 14.3115 233.345C14.2697 232.939 14.4954 232.471 14.0635 232.147C13.6316 231.822 14.1331 231.251 13.7486 230.988C13.3641 230.725 13.5898 230.148 13.1523 229.924C12.9879 229.84 13.0241 229.74 13.1941 229.614C13.3641 229.488 13.4142 229.406 13.2721 229.149C12.9182 228.5 12.9628 227.64 12.1938 227.19C12.0963 227.131 12.1408 226.781 12.1603 226.571C12.2161 226.011 12.0851 225.762 11.4609 225.552C10.8368 225.342 10.703 224.466 10.4467 223.848C10.2962 223.481 10.0789 223.509 9.79744 223.489C9.51978 223.48 9.24947 223.58 9.04511 223.769C8.34014 224.287 8.25376 225.256 7.54044 225.765C7.41783 225.852 7.43176 226.146 7.40669 226.347C7.40924 226.555 7.34901 226.759 7.23393 226.932C6.15837 228.365 5.4729 229.779 4.80416 231.772C4.72019 231.961 4.60737 232.135 4.46979 232.289C4.3026 232.511 3.9125 232.785 3.97102 232.925C4.19114 233.591 3.645 233.988 3.4611 234.473C3.27719 234.957 2.99019 235.312 3.07379 235.83C2.48028 236.222 2.65861 236.832 2.64468 237.384C2.64189 237.89 2.65025 238.397 2.65025 239.337ZM76.9894 254.096C76.9365 254.499 77.1288 254.936 76.7108 255.289C76.4572 255.504 76.4684 255.641 76.7637 255.997C77.0591 256.352 77.1455 256.929 76.9198 257.156C76.4099 257.662 76.6411 258.222 76.5687 258.762C77.2737 259.47 76.9198 260.366 77.0034 261.186C77.0285 261.466 77.0034 261.788 77.1232 261.998C77.243 262.208 77.3768 262.309 77.1845 262.645C76.8362 263.246 76.9811 263.484 77.2904 264.394C77.4854 264.954 77.6888 265.541 77.8282 266.118C77.9591 266.644 77.8282 267.238 78.2991 267.663C78.0037 268.304 78.7003 268.66 78.7477 269.217C78.7811 269.58 79.1601 269.496 79.4359 269.496C79.5692 269.521 79.7067 269.494 79.8212 269.422C79.9358 269.349 80.019 269.236 80.0545 269.105C80.3025 268.486 80.5199 267.825 81.066 267.352C81.5536 266.927 81.9549 266.398 82.4592 265.989C82.6945 265.827 82.8768 265.599 82.9829 265.333C83.089 265.067 83.1143 264.775 83.0555 264.495C83.0281 264.354 83.0426 264.209 83.0972 264.077C83.1517 263.945 83.2438 263.832 83.362 263.753C83.6474 263.461 83.8719 263.114 84.0224 262.734C84.2175 262.362 84.301 262.219 83.9778 261.925C83.8942 261.847 83.9388 261.5 84.0419 261.365C84.2955 261.029 84.5825 260.708 85.1035 260.806C85.3961 260.862 85.5271 260.716 85.6803 260.386C86.0426 259.596 86.2822 258.706 86.8924 258.077C87.3355 257.609 87.4831 257.01 87.8092 256.498C87.6002 255.756 88.5531 255.275 88.2494 254.505C88.1993 254.382 88.1937 254.133 88.2494 254.091C89.1188 253.551 88.202 252.347 89.0854 251.829C89.0854 251.395 89.0854 250.962 89.0854 250.528C89.0854 250.094 89.1244 249.688 89.1439 249.251C89.8377 248.885 89.0658 248.61 89.0826 248.286C89.0993 247.961 89.0408 247.614 89.3306 247.295C89.6203 246.976 89.6092 246.878 89.364 246.581C89.1769 246.374 89.077 246.102 89.0854 245.823C89.0993 244.306 89.0854 242.786 89.0854 241.269C89.1098 241.094 89.0955 240.917 89.0434 240.749C88.9914 240.581 88.9029 240.427 88.7844 240.297C88.464 239.973 88.7203 239.474 88.6479 239.063C88.5754 238.652 88.1073 238.442 88.202 237.943C88.2801 237.524 88.1798 237.073 88.2299 236.645C88.294 236.113 87.5974 235.897 87.7674 235.298C87.9039 234.82 87.2547 234.545 87.3104 233.96C87.3494 233.557 86.99 233.104 86.7782 232.687C86.689 232.511 86.4243 232.424 86.4995 232.155C86.6138 231.671 86.3853 231.341 86.0342 231.035C85.8252 230.859 85.5521 230.677 85.6385 230.339C85.7667 229.849 85.3599 229.583 85.2038 229.219C85.0144 228.791 84.9252 228.284 84.6326 227.945C84.3401 227.607 84.3986 226.957 83.8914 226.728C83.3843 226.498 83.6128 225.776 83.128 225.527C82.6431 225.278 82.7183 224.659 82.3645 224.326C82.0596 224.03 81.7397 223.75 81.4059 223.487C81.3335 223.433 81.0437 223.503 81.0326 223.559C80.8682 224.304 80.3109 224.76 79.787 225.205C79.018 225.86 78.9372 226.915 78.2879 227.626C78.6084 228.332 77.7111 228.746 77.8644 229.395C78.0594 230.201 77.4381 230.529 77.0675 231.03C76.9254 231.22 76.9978 231.59 76.9922 231.87C76.9922 232.303 77.0814 232.765 76.9644 233.166C76.81 233.612 76.5747 234.026 76.2705 234.386C76.1089 234.593 76.2232 234.848 76.1117 234.971C75.6185 235.511 75.4681 236.021 76.0058 236.631C76.1053 236.812 76.1452 237.021 76.1201 237.227C76.134 237.949 76.1201 238.671 76.1201 239.396C76.1201 239.609 76.1201 239.824 76.3179 239.956C76.9198 240.362 77.0758 240.947 76.9839 241.635C76.9669 241.743 76.9815 241.853 77.0261 241.953C77.0706 242.052 77.1431 242.136 77.2347 242.195C78.3492 242.993 78.7951 244.367 79.8232 245.249C80.127 245.509 80.0044 246.074 80.4418 246.287C80.4418 247.225 80.4669 248.168 80.4418 249.106C80.4223 249.666 79.7174 249.797 79.6059 250.27C79.5362 250.572 79.291 250.771 79.2548 250.99C79.1545 251.619 78.8452 251.829 78.2684 251.714C77.9898 251.667 77.9201 251.924 77.7474 252.028C77.296 252.308 77.4994 252.991 76.995 253.248C76.9393 253.273 76.9894 253.517 76.9894 254.096ZM37.2271 206.793V209.388C38.063 210.071 37.5057 211.003 37.6534 211.806C37.7091 212.086 38.2107 212.677 38.4893 212.646C39.1581 212.562 39.9383 212.976 40.4677 212.226C41.4764 212.422 42.6049 211.762 43.516 212.657C43.8504 212.587 44.1764 212.719 44.5359 212.512C44.8638 212.324 45.2315 212.216 45.6088 212.198C45.9861 212.18 46.3623 212.252 46.7065 212.408C47.4393 212.688 47.4366 212.688 48.0273 212.45C48.7963 212.126 49.9499 212.081 50.627 212.47C51.006 212.688 51.2568 212.73 51.5243 212.403C51.7917 212.075 51.8419 212.403 51.984 212.498C52.349 212.716 52.4967 212.727 52.7196 212.498C52.8729 212.347 53.1738 212.165 53.1515 212.044C53.0289 211.361 53.667 210.908 53.6392 210.292C53.6327 210.116 53.67 209.941 53.7479 209.783C53.8257 209.625 53.9416 209.49 54.085 209.388C53.4748 209.005 53.6754 208.389 53.6559 207.837C53.6364 207.286 53.759 206.701 53.2323 206.276C53.2066 206.212 53.197 206.143 53.2042 206.074C53.2115 206.006 53.2355 205.941 53.2741 205.884C53.6113 205.604 53.6865 205.372 53.2741 205.108C53.2518 204.467 53.1905 203.824 53.2268 203.188C53.2591 202.943 53.2243 202.693 53.1262 202.466C53.028 202.238 52.8701 202.042 52.6695 201.898C52.5489 201.822 52.4538 201.712 52.3962 201.581C52.3386 201.45 52.3212 201.305 52.3463 201.165C52.4072 200.886 52.3853 200.596 52.2832 200.329C52.1812 200.063 52.0035 199.833 51.7722 199.667C51.3348 199.32 50.8499 198.9 50.6577 198.408C50.482 198.03 50.2295 197.693 49.9165 197.42C49.6178 197.123 49.3034 196.843 48.9747 196.58C48.2753 196.703 48.6152 195.875 48.2697 195.777C47.9242 195.679 47.5815 195.611 47.3948 195.292C47.1523 194.875 46.6591 194.937 46.3554 194.677C46.1561 194.487 45.9895 194.266 45.8622 194.022C45.6059 193.582 45.6142 193.63 45.2687 193.885C44.9232 194.139 45.1489 194.651 44.8173 194.772C44.489 194.857 44.1853 195.019 43.9312 195.245C43.399 195.782 42.5826 195.942 42.1173 196.58C41.1532 196.742 40.8801 197.554 40.4649 198.259C40.32 198.511 40.3284 198.819 40.1668 198.995C40.0051 199.172 39.6568 199.169 39.459 199.329C39.1971 199.538 38.8098 199.768 38.9547 200.185C39.1609 200.776 38.3639 200.969 38.5033 201.523C38.6649 202.153 38.0686 202.363 37.776 202.729C37.5392 203.026 37.9404 203.026 37.9683 203.191C37.9961 203.356 38.0992 203.698 38.0184 203.751C37.6005 204.062 37.6729 204.484 37.6339 204.907C37.6005 205.47 37.854 206.06 37.2271 206.779V206.793ZM62.5112 281.247C61.9539 281.893 61.0148 281.876 60.4185 282.464C60.3631 282.505 60.2994 282.533 60.2319 282.546C60.1645 282.559 60.095 282.557 60.0284 282.54C59.3486 282.347 58.8052 282.758 58.2786 283.016C57.8327 283.237 57.4426 283.461 56.9299 283.427C56.2138 283.385 55.4921 283.427 54.7732 283.427C54.28 283.427 53.759 283.528 53.4385 282.996C53.0373 283.041 52.5747 282.82 52.2654 283.29C52.1568 283.479 51.9988 283.635 51.8085 283.74C51.3208 283.95 50.6939 283.766 50.2899 284.278C50.2536 284.323 49.9388 284.146 49.7549 284.068C48.7619 283.751 47.6928 283.771 46.7121 284.124C46.5616 284.188 46.4892 284.32 46.4028 284.172C46.1102 283.687 45.6365 283.914 45.2353 283.858C45.097 283.845 44.9574 283.863 44.8271 283.911C44.6968 283.96 44.5791 284.037 44.4829 284.138C44.1235 284.418 44.0483 283.704 43.647 283.838C43.3879 283.922 43.0702 283.813 42.7888 283.861C42.1897 283.964 41.4903 283.553 40.9776 284.194C40.8722 284.184 40.7735 284.138 40.699 284.062C40.3841 283.637 39.7989 284.082 39.5426 283.749C39.2138 283.323 38.5534 283.525 38.3277 282.996C37.9906 283.046 37.6005 282.817 37.319 283.133C37.2268 283.239 37.1105 283.321 36.98 283.372C36.8495 283.423 36.7087 283.442 36.5695 283.427C35.5636 283.407 34.5549 283.405 33.549 283.427C33.4091 283.443 33.2675 283.422 33.1387 283.365C33.0098 283.308 32.8985 283.217 32.8162 283.102C32.6815 282.892 32.4874 282.726 32.2587 282.626C32.0299 282.526 31.7769 282.497 31.5316 282.543C31.2183 282.613 30.8912 282.587 30.5929 282.467C30.2947 282.348 30.0392 282.141 29.8597 281.874C29.6034 281.515 29.152 281.815 28.8761 281.658C28.5328 281.409 28.2138 281.128 27.9232 280.818C27.8814 280.782 27.7839 280.818 27.7114 280.818C27.3535 280.782 26.9925 280.787 26.6358 280.835C26.1231 280.961 25.9727 280.315 25.5213 280.384C25.454 280.388 25.3875 280.4 25.3234 280.421C25.134 280.516 25.1367 280.603 25.2594 280.729C25.6495 281.123 26.1677 281.454 26.0145 282.153C26.0175 282.221 26.0339 282.287 26.0626 282.348C26.0913 282.409 26.1317 282.464 26.1817 282.509C26.9897 283.332 27.8145 284.141 28.617 284.969C28.7703 285.105 28.9705 285.174 29.1743 285.162C29.5783 285.207 30.0409 284.98 30.3613 285.423C30.5786 285.722 31.005 285.543 31.2725 285.865C31.54 286.187 32.022 286.114 32.3034 286.486C32.6594 287.01 33.187 287.391 33.7942 287.564C34.3849 287.704 34.7862 288.342 35.466 288.196C35.7447 288.14 35.8617 288.336 35.9927 288.476C36.3271 288.882 36.6977 289.145 37.2689 289.064C37.6237 289.041 37.9798 289.048 38.3333 289.087C38.637 289.741 39.42 289.254 39.8045 289.702C39.9884 289.918 40.0999 289.848 40.2699 289.686C40.6237 289.352 41.0361 289.425 41.4318 289.602C41.6157 289.68 41.7662 289.881 41.9501 289.907C42.3045 289.974 42.6684 289.974 43.0229 289.907C43.5411 289.775 43.7083 290.419 44.1374 290.349C44.756 290.245 44.9734 290.542 45.1155 291.096C45.174 291.32 45.4916 291.429 45.16 291.726C44.6947 292.143 44.6975 292.191 44.1179 291.844C43.9527 291.719 43.7503 291.655 43.5439 291.662C43.3433 291.684 43.0786 291.662 42.956 291.782C42.7191 292.003 42.9058 292.241 43.0061 292.515C43.3099 293.355 43.9814 293.867 44.5582 294.475C44.7867 294.712 45.9263 294.827 46.1492 294.615C46.7867 294.029 47.3931 293.411 47.966 292.762C48.1109 292.594 48.0719 292.202 48.0022 291.922C47.913 291.575 47.5619 291.678 47.2917 291.642C46.9601 291.603 46.804 291.852 46.57 291.997C46.1854 292.235 45.9096 292.039 45.8483 291.625C45.7731 291.133 45.9347 290.707 46.3415 290.545C46.8988 290.321 47.3251 289.848 48.0134 289.884C48.7016 289.921 49.44 290.181 50.0084 289.492C50.0892 289.394 50.4152 289.442 50.5657 289.658C50.7524 289.918 51.123 290.063 51.2763 289.842C51.6413 289.305 52.3017 289.697 52.5998 289.378C53.0345 288.907 53.5165 289.064 53.993 289.056C54.134 289.048 54.2708 289.005 54.3906 288.93C54.5105 288.855 54.6095 288.751 54.6785 288.628C54.7942 288.445 54.964 288.304 55.164 288.223C55.3639 288.143 55.584 288.128 55.7931 288.18C56.4897 288.322 56.9355 287.782 57.4649 287.53C57.894 287.329 58.2312 286.878 58.5377 286.481C58.8442 286.083 59.2928 286.117 59.5715 285.857C59.8501 285.596 60.1956 285.599 60.5439 285.563C61.0121 285.515 61.3158 284.944 61.8786 285.123C61.9706 285.154 62.1406 285.045 62.2297 284.955C63.0517 284.144 63.9016 283.351 64.6595 282.492C64.9604 282.156 65.0942 281.669 65.2948 281.247C65.3212 281.177 65.3212 281.1 65.2948 281.031C65.2251 280.858 64.1245 280.505 63.9657 280.62C63.6619 280.858 63.1548 280.79 62.5112 281.227V281.247ZM31.8242 214.81C32.0415 214.972 32.153 215.274 32.5096 215.252C32.9403 215.228 33.3719 215.228 33.8025 215.252C34.4852 215.283 35.2264 215.056 35.7809 215.683C36.38 215.7 37.0125 215.554 37.5141 216.047C38.0714 215.367 38.8516 215.803 39.5203 215.683C40.2225 216.388 41.1141 216.1 41.9278 216.109C44.6613 216.136 47.392 216.128 50.1255 216.109C50.6632 216.109 51.2902 216.338 51.6803 215.708C52.1651 215.708 52.7029 215.507 53.1125 215.829C53.3912 216.047 53.472 216.067 53.7534 215.829C54.1546 215.493 54.8401 215.91 55.1466 215.624C55.5924 215.218 56.0355 215.26 56.5175 215.249C57.2309 215.23 57.9442 215.218 58.6547 215.204C58.9863 214.659 59.5269 214.79 60.0034 214.824C60.7473 214.877 61.4244 214.824 61.8814 214.135C62.0207 213.92 62.2409 213.953 62.4387 213.942C63.0703 213.946 63.7012 213.898 64.3251 213.799C64.5508 213.752 64.7877 213.57 65.0524 213.48C65.3171 213.391 65.54 213.018 65.9608 213.041C66.1056 213.041 66.2951 212.78 66.4094 212.604C66.688 212.168 67.1143 212.207 67.5462 212.201C67.8054 212.201 68.0422 211.762 67.8834 211.574C67.6577 211.294 67.4348 211.076 67.4208 210.67C67.4208 210.455 67.0698 210.413 66.8831 210.485C66.5738 210.603 66.3926 211.062 65.9803 210.9C65.2725 210.62 64.8657 211.409 64.2164 211.345C63.9545 211.776 63.5477 211.806 63.1019 211.778C62.2409 211.722 61.3715 211.65 60.8281 212.559C60.7751 212.603 60.7121 212.632 60.645 212.644C60.5779 212.657 60.5087 212.653 60.4436 212.632C59.8613 212.394 59.6439 213.147 59.1061 213.091C58.6352 213.044 58.0891 212.934 57.7659 213.483C57.2676 213.451 56.7675 213.467 56.2723 213.531C55.7541 213.64 55.35 214.062 54.7175 213.97C54.0022 213.905 53.2829 213.898 52.5664 213.948C52.363 213.948 52.1428 213.869 51.9757 214.085C51.6246 214.538 51.3125 214.435 50.9224 214.085C50.6437 213.833 50.5713 214.396 50.2982 214.393C49.8663 214.393 49.4094 214.298 49.0109 214.415C48.6124 214.533 48.253 213.547 47.8378 214.351C47.4226 213.847 46.8458 213.964 46.3081 213.956C45.8059 213.991 45.3018 213.986 44.8006 213.939C44.1792 213.825 43.7613 214.284 43.2458 214.359C42.4601 214.45 41.6671 214.456 40.8801 214.379C40.1361 214.328 39.2946 214.717 38.6844 213.956C37.7509 213.956 36.8147 213.956 35.8812 213.956C35.5377 213.967 35.1995 213.869 34.9143 213.676C34.6023 213.475 34.1007 213.598 33.6883 213.525C33.2759 213.452 33.0669 213.035 32.5737 213.074C32.0805 213.114 31.4146 213.335 31.005 212.725C30.6908 212.75 30.3755 212.694 30.0894 212.561C29.8033 212.428 29.5563 212.223 29.3721 211.966C29.2791 211.867 29.151 211.809 29.0155 211.804C28.4415 211.787 27.8312 211.916 27.299 211.764C26.7124 211.605 26.1675 211.318 25.7024 210.925C25.6606 210.888 25.5631 210.925 25.4906 210.925C25.0225 210.858 24.4764 211.135 24.1169 210.589C24.0473 210.483 23.9442 210.564 23.8104 210.698C23.6712 210.805 23.5583 210.943 23.4805 211.1C23.4027 211.258 23.3621 211.432 23.3618 211.608C23.3813 212.053 23.4928 212.279 23.9664 212.235C24.0001 212.239 24.0325 212.25 24.0614 212.268C24.0902 212.286 24.1149 212.31 24.1336 212.338C24.5349 212.957 25.29 213.072 25.8055 213.531C26.5634 213.228 27.0427 214.135 27.7894 213.987C27.9761 213.95 28.3885 214.328 28.4108 214.3C28.7368 213.867 28.9124 214.23 29.2105 214.337C29.5532 214.454 29.804 214.692 30.0994 214.799C30.4923 214.916 30.9604 214.81 31.8242 214.81ZM45.2241 180.942C45.957 181.046 46.7901 180.628 47.4059 181.353C47.9158 180.844 48.4341 180.343 48.9273 179.817C49.1028 179.629 49.3007 179.671 49.5041 179.635C50.34 179.489 50.6187 179.181 50.6187 178.437C50.6187 178.157 50.6187 177.858 50.6187 177.569C50.6549 176.693 50.7078 175.867 49.5041 175.655C49.1558 175.593 48.7378 175.131 48.6096 174.762C48.2084 173.609 47.1523 173.06 46.4474 172.195C45.9514 171.591 45.3049 171.848 44.6975 171.915C44.6659 171.929 44.6382 171.951 44.6168 171.978C44.5954 172.006 44.581 172.038 44.5749 172.072C44.7477 172.775 44.0371 172.548 43.8226 172.814C43.2653 173.497 42.1869 173.852 42.3931 175.053C42.3931 175.117 42.1897 175.308 42.1145 175.294C41.6826 175.207 41.5572 175.699 41.2089 175.733C40.8606 175.767 40.7185 175.82 40.6516 176.201C40.5875 176.66 40.0442 176.995 40.2448 177.538C40.3117 177.723 40.5736 177.885 40.5596 178.042C40.5401 178.269 40.3228 178.47 40.2448 178.7C40.2261 178.75 40.2179 178.803 40.2206 178.856C40.2232 178.909 40.2368 178.961 40.2603 179.008C40.2838 179.056 40.3169 179.098 40.3573 179.132C40.3978 179.166 40.4449 179.192 40.4956 179.207C41.0534 179.429 41.5977 179.684 42.1256 179.971C42.7331 180.251 43.2402 180.447 43.3126 181.205C43.3321 181.401 43.5105 181.415 43.5913 181.255C43.9145 180.771 44.3882 181.004 45.2241 180.95V180.942ZM28.3662 210.026C28.7953 209.903 29.0099 210.441 29.2662 210.424C29.9577 210.399 30.6435 210.556 31.2558 210.88C31.3226 210.914 31.4815 210.76 31.5957 210.69C31.5575 210.636 31.5146 210.585 31.4675 210.538C31.1694 210.275 31.005 209.998 31.3393 209.643C31.4228 209.546 31.5 209.444 31.5706 209.338C30.9186 209.03 31.3561 208.291 30.9743 207.84C30.7092 207.454 30.4868 207.04 30.3111 206.606C30.5898 205.797 29.9238 205.741 29.4752 205.47C28.8037 205.075 28.1238 205.262 27.4383 205.335C27.3854 205.335 27.2934 205.453 27.3046 205.486C27.4774 205.99 26.8365 206.15 26.856 206.606C26.8894 207.474 26.7919 208.35 26.895 209.206C26.9424 209.699 27.3185 210.091 28.3662 210.035V210.026ZM59.7024 208.506C59.7024 209.223 59.7024 209.937 59.7024 210.653C59.7024 210.796 60.0591 210.967 60.2263 210.891C60.5885 210.732 60.8532 210.435 61.3409 210.427C61.806 210.403 62.2488 210.219 62.5947 209.906C62.9988 209.514 63.1186 209.802 63.3861 209.995C63.4749 210.052 63.5816 210.072 63.6849 210.053C63.7881 210.034 63.8804 209.976 63.9434 209.892C64.1886 209.542 63.8347 209.052 64.222 208.719C64.6957 208.322 64.2555 208.05 64.0994 207.675C63.9239 207.247 64.0019 206.701 64.0214 206.208C64.0353 205.867 63.7845 205.73 63.6285 205.509C63.3722 205.136 62.8929 205.229 62.5585 204.949C62.3245 204.745 62.0514 205.274 61.8508 205.509C61.6028 205.789 61.0288 205.542 61.0148 205.962C61.0009 206.382 60.6331 206.544 60.569 206.858C60.4771 207.398 60.0368 207.776 59.7024 208.515V208.506Z" fill="black"/>
<path d="M47.0604 278.73C46.8514 278.52 46.7427 278.422 46.648 278.316C46.1548 277.756 46.1771 277.63 46.7204 277.11C46.809 277.003 46.9311 276.931 47.0664 276.904C47.2017 276.877 47.3422 276.897 47.4644 276.961C48.501 277.423 48.7991 277.434 49.8022 277.059C49.9248 277.015 50.0391 276.9 50.1617 276.894C50.666 276.875 51.1704 276.894 51.6747 276.894C52.0091 276.413 52.5106 276.432 53.0066 276.455C53.5026 276.477 54.0181 276.427 54.5197 276.455C55.0212 276.483 55.2803 276.189 55.6509 276.052C56.4869 275.744 57.2002 275.268 57.9832 274.893C58.1599 274.805 58.3472 274.741 58.5405 274.703C59.2427 274.554 59.5965 274.26 60.1956 273.561C60.569 273.124 61.0065 272.738 61.4105 272.326C61.561 272.175 61.8312 272.01 61.8257 271.859C61.8034 271.237 62.5585 271.067 62.5892 270.664C62.6449 269.885 63.3053 269.292 63.1464 268.492C63.0238 267.893 63.3081 267.428 63.57 266.93C63.8319 266.432 64.1635 266.006 64.027 265.376C63.8681 264.651 64.3195 263.806 63.6034 263.182C64.4087 262.485 63.8514 261.556 64.0075 260.747C64.0363 260.573 64.0216 260.395 63.9647 260.228C63.9077 260.061 63.8104 259.912 63.6814 259.792C63.531 259.622 63.5588 259.249 63.5895 258.978C63.6842 258.169 63.6146 257.623 63.3108 257.284C63.0709 257.014 62.815 256.759 62.5446 256.52C62.4416 256.424 62.3645 256.302 62.3207 256.168C62.2769 256.033 62.2676 255.89 62.2938 255.751C62.3148 255.618 62.2847 255.482 62.2097 255.371C62.1346 255.26 62.0203 255.181 61.8898 255.152C60.2709 254.455 60.2848 254.424 59.5464 253.064C59.1451 252.33 59.1396 252.028 59.6105 251.588C59.9588 251.267 60.1845 250.729 60.8003 250.816C61.1151 249.814 61.9845 249.268 62.6282 248.535C62.7055 248.421 62.7382 248.282 62.7201 248.146C62.6631 247.831 62.6959 247.506 62.8148 247.209C62.9336 246.912 63.1335 246.654 63.3917 246.466C63.7595 246.186 63.648 245.842 63.322 245.585C63.1548 245.453 63.1381 245.392 63.2941 245.271C63.8514 244.826 63.4752 244.199 63.5728 243.665C62.8762 243.206 63.0935 242.467 63.1882 241.893C63.3164 241.115 62.5251 240.636 62.7146 239.894C62.7195 239.861 62.7165 239.827 62.7059 239.795C62.6952 239.763 62.6772 239.733 62.6532 239.71C61.9316 239.119 61.756 238.176 61.2405 237.487C60.725 236.799 60.4046 235.844 59.6021 235.335C59.2454 235.111 59.2315 234.758 59.2622 234.392C59.2928 234.025 59.0922 233.888 58.7522 233.907C58.2981 233.932 57.8494 233.952 57.9637 233.269C57.6627 232.961 57.3674 232.645 57.0525 232.348C57.0074 232.298 56.9529 232.258 56.8921 232.23C56.8314 232.202 56.7656 232.186 56.6986 232.183C56.1163 232.298 55.7763 231.962 55.4225 231.584C55.0686 231.206 54.7983 230.865 54.2382 230.781C53.9066 230.733 54.2633 229.902 53.5221 229.961C53.2769 229.98 52.9648 229.555 52.7363 229.297C52.5079 229.04 52.0425 229.23 51.828 228.849C51.6914 228.606 51.4044 228.455 51.2372 228.225C50.7775 227.598 50.2063 227.262 49.4121 227.386C49.2695 227.402 49.1254 227.372 49.0014 227.299C48.8774 227.226 48.78 227.115 48.7239 226.983C48.4062 226.448 47.6957 226.588 47.3474 226.081C47.0329 225.685 46.6791 225.322 46.2913 224.998C46.1039 224.845 45.8686 224.764 45.6272 224.769C45.3859 224.775 45.1542 224.865 44.9733 225.026C44.6585 225.326 44.3631 225.642 44.0538 225.944C43.8058 226.188 43.3823 226.034 43.1538 226.4C42.5965 227.288 41.7606 227.548 40.7575 227.391C40.4287 227.338 40.281 227.498 40.2225 227.859C40.1507 228.129 39.9807 228.363 39.746 228.514C39.3719 228.796 38.9413 228.994 38.4837 229.093C37.8568 229.166 38.2887 229.933 37.8011 229.975C37.661 229.97 37.5221 230.001 37.3977 230.066C37.2732 230.131 37.1674 230.227 37.0905 230.344C36.575 231.156 35.5468 231.299 34.9589 232.024C34.8558 232.147 34.5744 232.163 34.3765 232.158C34.1276 232.138 33.8807 232.216 33.6889 232.377C33.4972 232.538 33.3759 232.768 33.3511 233.017C33.287 233.356 33.0195 233.462 32.8914 233.7C32.6963 234.056 32.0136 233.7 31.9969 234.389C31.9969 234.669 31.6124 234.948 31.3811 235.203C31.1025 235.522 30.6734 235.763 30.4923 236.138C30.2778 236.648 29.9577 237.106 29.5532 237.482C29.5031 237.524 29.4334 237.605 29.4446 237.65C29.6703 238.542 28.9486 238.909 28.486 239.424C28.3495 239.575 28.1321 239.791 28.1628 239.928C28.3216 240.614 27.5414 241.022 27.6919 241.711C27.7377 241.915 27.8506 242.097 28.0123 242.229C28.2074 242.408 28.2102 242.73 28.1099 242.788C27.6027 243.155 27.7114 243.667 27.7142 244.154C27.7142 244.874 27.7393 245.59 27.756 246.307C28.4721 246.634 27.8061 247.614 28.5195 247.941C28.447 248.734 28.8873 249.24 29.4278 249.741C30.2638 250.525 31.0663 251.367 31.8771 252.187C31.9281 252.234 31.9688 252.291 31.9966 252.354C32.0244 252.418 32.0388 252.486 32.0388 252.556C32.0388 252.625 32.0244 252.693 31.9966 252.757C31.9688 252.82 31.9281 252.877 31.8771 252.924C31.1025 253.626 30.5145 254.541 29.4696 254.942C29.2974 255.002 29.1541 255.126 29.068 255.287C28.9819 255.449 28.9591 255.637 29.0043 255.815C28.5975 256.224 28.1879 256.632 27.7838 257.044C27.1708 257.665 27.0817 258.25 27.5554 259.104C27.6696 259.308 27.7699 259.636 27.7003 259.664C26.9535 260.013 27.5749 260.923 26.9841 261.343C26.9019 261.454 26.8482 261.583 26.8278 261.72C26.8074 261.857 26.8209 261.996 26.8671 262.127C27.1959 262.896 27.7393 263.616 26.9368 264.43C26.8866 264.481 27.2377 264.839 27.2628 265.071C27.3507 265.57 27.3507 266.081 27.2628 266.58C27.104 267.187 27.8507 267.355 27.742 267.932C27.6724 268.312 27.5386 268.805 28.0207 269.11C28.252 269.259 28.1907 269.505 28.1572 269.698C28.0402 270.342 28.291 270.792 28.7786 271.184C29.1576 271.489 29.0405 272.178 29.5532 272.365C30.0213 272.533 30.2164 272.838 30.4755 273.25C31.0133 274.112 31.6208 274.369 32.883 274.68L34.3069 275.422C35.3072 276.228 35.7893 276.41 36.9206 276.416C37.28 276.416 37.6729 276.508 37.9933 276.396C38.6565 276.164 38.9881 276.852 39.5509 276.855C40.0414 276.855 40.5959 276.791 40.9999 276.995C41.2889 277.177 41.6229 277.274 41.964 277.275C42.5213 277.25 43.0117 277.303 43.5467 276.883C44.0817 276.463 44.5888 276.933 44.5888 277.625C44.5888 277.84 44.6696 278.109 44.5721 278.263C44.391 278.543 44.1235 278.943 43.8588 278.971C43.4018 279.024 42.8445 279.251 42.4405 278.797C42.212 278.54 41.9417 278.585 41.6658 278.576L39.537 278.495C38.9658 277.809 38.1633 278.35 37.5336 278.115C37.1602 277.975 36.8983 277.583 36.5834 278.143C36.249 278.07 35.9202 278.215 35.558 278.003C34.7514 277.525 33.9136 277.102 33.0502 276.737C32.8106 276.637 32.649 276.34 32.3229 276.407C31.6013 276.561 31.1108 276.203 30.6734 275.685C30.4471 275.404 30.1901 275.15 29.9071 274.926C29.6251 274.747 29.3298 274.59 29.0238 274.456C28.0291 273.924 28.0318 273.922 27.5219 272.948C27.3659 272.651 27.2266 272.346 27.0622 272.055C26.6442 271.33 26.3265 270.605 26.4046 269.712C26.4575 269.113 26.6832 268.399 25.995 267.94C26.1928 267.327 25.7525 266.893 25.5686 266.381C25.407 265.931 24.7076 265.488 25.4906 264.982C25.616 264.211 25.616 263.426 25.4906 262.656C25.0309 262.376 25.4432 262.169 25.5073 261.88C25.6033 261.24 25.621 260.591 25.5603 259.946C25.5587 259.84 25.5855 259.735 25.6379 259.642C25.6903 259.55 25.7665 259.473 25.8584 259.42C26.0312 259.289 26.0145 259.244 25.8584 259.098C25.4098 258.704 25.524 258.275 25.7414 257.769C26.0005 257.158 26.5773 256.649 26.4464 255.891C26.36 255.384 26.5662 255.233 27.09 255.068C27.6139 254.903 27.9817 254.345 28.3133 253.881C28.6449 253.416 29.361 253.497 29.7065 252.98C29.8848 252.7 30.0046 252.42 29.8263 252.235C29.5926 251.959 29.3353 251.704 29.0572 251.474C28.7798 251.293 28.4881 251.134 28.1851 251.001C28.291 250.564 27.9789 250.337 27.7114 250.113C27.4299 249.902 27.2036 249.626 27.0517 249.307C26.8998 248.989 26.8269 248.638 26.8392 248.286C26.8392 247.726 26.4826 247.149 26.307 246.57C26.229 246.312 25.9727 246.167 26.307 245.943C26.356 245.899 26.3983 245.848 26.4324 245.792C25.7191 245.249 26.0841 244.471 26.0368 243.793C26.0368 243.583 26.3321 243.362 26.3544 243.133C26.3711 242.979 26.1036 242.816 26.0284 242.632C26.013 242.565 26.0128 242.496 26.0278 242.43C26.0427 242.364 26.0725 242.301 26.1148 242.248C26.3043 242.041 26.4965 241.932 26.1928 241.613C25.8891 241.294 25.9392 241.227 26.1649 240.891C26.5801 240.272 26.7222 239.511 27.221 238.931C27.296 238.816 27.3258 238.676 27.3046 238.54C27.2776 238.364 27.2984 238.185 27.3646 238.02C27.4308 237.856 27.54 237.712 27.6807 237.605C27.9594 237.375 28.1656 237.045 28.4582 236.852C28.6988 236.695 28.884 236.466 28.9875 236.197C29.091 235.928 29.1076 235.633 29.035 235.354C29.0021 235.175 29.0336 234.989 29.1239 234.83C29.2141 234.671 29.3573 234.55 29.5282 234.487C30.6427 234.056 31.2502 233.056 32.0861 232.315C32.465 231.982 32.8078 231.612 33.1644 231.259C33.6632 231.441 33.836 230.842 34.279 230.798C34.4873 230.766 34.6797 230.667 34.8266 230.515C34.9735 230.364 35.067 230.168 35.0927 229.958C35.1142 229.746 35.2062 229.548 35.3539 229.396C35.5016 229.243 35.6963 229.146 35.9063 229.118C36.3243 229.093 36.4023 228.606 36.8063 228.648C36.987 228.651 37.1635 228.593 37.3071 228.483C37.4507 228.372 37.5531 228.217 37.5977 228.041C37.7147 227.559 37.8763 227.372 38.3695 227.274C38.6621 227.215 38.9268 226.823 39.1302 226.535C39.4757 226.065 39.9299 225.975 40.4482 226.048C40.5866 226.086 40.7333 226.079 40.8678 226.029C41.0023 225.979 41.1177 225.887 41.1977 225.768C41.4764 225.309 42.0058 225.267 42.3875 224.992C42.7693 224.718 43.0201 224.217 43.5913 224.234C43.7504 223.698 44.0694 223.224 44.5052 222.876C44.9594 222.462 45.9792 222.448 46.4139 222.876C46.7232 223.179 47.0269 223.489 47.3334 223.795C47.7118 224.231 48.1246 224.636 48.5678 225.006C48.944 225.286 49.4762 225.334 49.7521 225.787C49.8303 225.91 49.9482 226.001 50.0859 226.046C50.2235 226.091 50.3724 226.087 50.5072 226.034C51.2149 225.818 51.6357 226.465 52.2376 226.577C52.558 226.638 52.1763 227.36 52.7447 227.338C53.185 227.324 53.3577 227.674 53.5806 227.923C53.7478 228.111 53.7562 228.572 53.9094 228.612C54.1671 228.699 54.409 228.827 54.6255 228.992C55.0769 229.272 55.6844 229.323 56.0633 229.656C56.3949 229.936 56.4367 230.495 56.8408 230.842C57.1835 231.122 57.4649 231.419 57.9553 231.307C58.0062 231.291 58.0601 231.287 58.1128 231.295C58.1655 231.304 58.2156 231.324 58.2592 231.355C58.3028 231.386 58.3388 231.426 58.3644 231.473C58.3899 231.52 58.4044 231.573 58.4067 231.626C58.414 231.874 58.5116 232.111 58.6811 232.292C58.8506 232.472 59.0801 232.584 59.3262 232.606C59.5012 232.638 59.6645 232.717 59.8 232.833C59.9354 232.948 60.0382 233.098 60.0981 233.266C60.2095 233.639 60.1928 233.966 60.6972 233.91C61.274 234.405 62.0179 234.792 61.8703 235.752C62.2771 236.216 62.2771 237.084 62.8734 237.252C63.6313 237.462 63.7232 237.901 63.5811 238.464C63.439 239.027 64.0938 239.234 64.1133 239.794C64.1133 240.267 64.718 240.692 64.8685 241.193C65.0189 241.694 64.8963 242.195 64.8963 242.702C64.8489 243.641 64.8573 244.582 64.9214 245.52C65.0245 246.36 64.6205 246.993 64.339 247.678C64.2387 247.922 63.9657 248.098 64.0325 248.417C64.2554 249.467 63.687 250.116 63.0183 250.833C62.461 251.423 61.7059 251.622 61.1792 252.185C61.1126 252.238 61.0616 252.308 61.0313 252.388C61.001 252.468 60.9927 252.554 61.0073 252.638C61.0218 252.723 61.0587 252.801 61.1139 252.866C61.1692 252.931 61.2408 252.98 61.3213 253.008C61.4997 253.097 61.7309 253.114 61.8786 253.24C62.3722 253.668 62.8299 254.136 63.2468 254.639C63.6146 255.112 64.2359 255.115 64.6177 255.541C64.8267 255.77 65.0356 256.022 64.8768 256.277C64.718 256.532 64.339 256.722 64.8072 257.063C65.1527 257.318 65.4341 257.623 65.3477 258.144C65.2822 258.5 65.2822 258.865 65.3477 259.221C65.3979 259.47 65.6905 259.669 65.7406 259.918C65.8051 260.19 65.7643 260.476 65.6264 260.719C65.4341 260.976 65.4007 261.049 65.5929 261.365C65.9022 261.88 65.8158 262.387 65.5929 262.958C65.214 263.938 65.2168 264.122 65.6737 265.306C65.7934 265.635 65.7993 265.995 65.6905 266.328C65.671 266.39 65.5874 266.426 65.5428 266.482C65.0774 267.07 65.0663 267.909 64.4728 268.424C64.4728 269.219 64.4449 270.014 64.4728 270.806C64.4867 271.265 64.4561 271.694 64.013 271.926C63.5003 272.183 63.7344 272.886 63.2551 273.135C63.1728 273.545 62.9718 273.922 62.6774 274.217C62.383 274.513 62.0082 274.715 61.6 274.798C61.2015 275.299 60.4297 275.254 60.0897 275.867C59.7749 276.427 59.2399 276.586 58.6213 276.477L57.1333 277.073C56.7878 277.412 56.498 277.837 55.938 277.84C55.6593 278.313 55.102 278.025 54.8039 278.221C54.2717 278.562 54.0933 277.412 53.5583 278.033C53.2463 278.4 52.7224 278.232 52.3407 278.162C51.7054 278.042 51.3849 278.702 50.7831 278.638C50.2129 278.608 49.6415 278.615 49.0722 278.658C48.4954 279.31 47.8406 279.164 47.0604 278.73Z" fill="black"/>
<path d="M22.8602 250.948C22.597 251.392 22.2692 251.795 21.8878 252.143C21.3305 252.143 20.6896 252.299 20.1992 252.098C19.7088 251.896 19.38 251.32 18.9509 250.939C18.5218 250.558 18.505 250.242 18.9509 249.887C18.9951 249.841 19.0343 249.79 19.0679 249.736C18.4437 249.344 18.6889 248.72 18.6611 248.174C18.6332 247.673 18.6611 247.163 18.6611 246.659C18.6611 246.156 18.8283 246.049 19.2797 246.046C19.4831 246.046 19.5137 245.767 19.5416 245.543C19.6308 244.762 19.6447 244.762 20.3775 244.762C20.5224 244.762 20.6562 244.762 20.8094 244.762C21.1104 244.762 21.4113 245.148 21.233 245.296C20.7314 245.716 21.0045 246.416 20.6757 246.797C20.2187 247.331 20.4806 247.885 20.3608 248.414C20.319 248.594 20.0822 248.731 19.9484 248.887C20.4667 249.117 20.2493 249.814 20.7063 250.091C20.8205 250.178 20.9235 250.278 21.0128 250.391C21.0909 250.287 21.2525 250.144 21.2274 250.083C20.9487 249.433 21.6816 249.086 21.676 248.524C21.676 248.02 21.6955 247.513 21.676 247.009C21.6565 246.659 21.885 246.492 22.094 246.318C22.2416 246.195 22.5147 246.038 22.6178 246.086C22.916 246.245 23.3506 246.494 23.3785 246.743C23.4732 247.602 23.4732 248.468 23.3785 249.327C23.3451 249.607 22.8797 249.822 22.6596 250.105C22.4395 250.388 22.5008 250.628 22.8602 250.948Z" fill="black"/>
<path d="M70.5082 249.971C70.749 249.64 70.9067 249.256 70.968 248.851C71.0209 248.342 70.4497 248.196 70.4971 247.731C70.5305 247.382 70.6169 246.872 70.433 246.699C69.976 246.273 70.1042 245.795 70.0735 245.313C70.052 245.208 70.0623 245.098 70.103 244.998C70.1437 244.899 70.213 244.813 70.302 244.753C70.4358 244.672 71.2912 244.798 71.3051 244.913C71.3887 245.713 72.0909 246.032 72.5395 246.564C72.7123 246.76 72.7374 247.043 72.6371 247.141C72.2024 247.552 72.024 247.911 72.5618 248.378C72.6036 248.414 72.2832 248.781 72.2525 249.008C72.208 249.512 72.208 250.018 72.2525 250.522C72.2943 251.051 72.1411 251.283 71.5726 251.32C71.3581 251.32 71.1798 251.714 70.9568 251.896C70.5445 252.235 69.5636 252.246 69.2125 251.896C68.7695 251.463 68.2039 251.101 68.3376 250.304C68.3933 249.976 67.719 249.775 67.9419 249.416C68.2707 248.899 67.0308 248.496 67.9029 248.017C67.9029 247.443 67.9029 246.867 67.9252 246.293C67.9252 246.142 68.3265 245.949 68.4463 246.049C68.7723 246.329 69.0844 246.609 69.3992 246.889C69.472 246.937 69.5326 247.002 69.5761 247.077C69.6196 247.153 69.6448 247.238 69.6497 247.326C69.6546 247.413 69.639 247.5 69.6042 247.58C69.5694 247.661 69.5164 247.732 69.4494 247.787C68.9618 248.322 69.0871 248.845 69.6082 249.251C69.9704 249.531 70.0485 249.934 70.224 250.304C70.3568 250.232 70.4581 250.113 70.5082 249.971Z" fill="black"/>
<path d="M72.9909 218.392C73.4563 218.857 73.8269 219.21 74.1696 219.576C74.5123 219.943 74.504 220.044 74.0135 220.62C73.9662 220.676 73.9104 220.724 73.8296 220.808C73.4507 220.808 73.3504 220.413 73.1024 220.226C72.8833 220.037 72.6767 219.834 72.4838 219.618C72.1773 219.316 71.8959 218.81 71.5559 218.779C71.0349 218.712 70.8203 218.373 70.5333 218.09C70.2463 217.807 69.6974 217.919 69.4828 217.486C68.2735 217.365 68.2874 216.5 68.3459 215.607C68.3654 215.294 68.7583 215.048 68.9785 215.272C69.5775 215.865 70.4107 216.011 71.0962 216.456C72.2358 217.181 72.2832 217.105 72.9909 218.392Z" fill="black"/>
<path d="M75.3705 222.515C75.295 222.274 75.2528 222.024 75.2451 221.771C75.2346 221.72 75.2352 221.667 75.2469 221.616C75.2586 221.565 75.2811 221.517 75.3128 221.476C75.3445 221.434 75.3848 221.4 75.4308 221.376C75.4768 221.351 75.5275 221.337 75.5795 221.334C75.8204 221.28 76.0719 221.302 76.3004 221.395C76.529 221.489 76.7237 221.65 76.8585 221.858C76.9065 221.908 76.9434 221.968 76.9668 222.033C76.9902 222.099 76.9996 222.169 76.9944 222.238C76.9891 222.308 76.9693 222.375 76.9363 222.437C76.9033 222.498 76.8578 222.551 76.8027 222.594C76.7498 222.641 76.7024 222.695 76.6495 222.745C76.173 223.229 76.173 223.229 75.3705 222.515Z" fill="black"/>
<path d="M61.756 194.083C62.2158 194.609 62.7062 194.892 62.8065 195.542C62.8734 195.97 62.9626 196.269 62.6198 196.454C62.4554 196.541 62.1657 196.605 62.0626 196.521C61.7113 196.268 61.4027 195.96 61.1486 195.609C60.87 195.206 60.3322 195.399 60.087 195.007C60.0117 194.889 59.8083 194.805 59.8083 194.696C59.761 193.82 59.0337 193.666 58.4513 193.336C58.1532 193.165 57.9163 192.712 57.6433 192.706C56.8073 192.689 56.2919 192.426 56.2083 191.531C55.7206 191.156 55.4504 190.473 54.7092 190.459C54.4807 189.932 53.7451 190.207 53.5138 189.692C52.6026 189.818 52.1206 189.163 51.58 188.617C50.8667 187.903 50.1422 187.201 49.4512 186.464C49.231 186.229 49.3592 185.977 49.5487 185.723C49.6768 185.554 49.8485 185.424 50.0451 185.347C50.2416 185.27 50.4555 185.249 50.6633 185.286C50.7149 185.283 50.7666 185.29 50.8153 185.308C50.864 185.326 50.9087 185.353 50.9467 185.388C50.9847 185.423 51.0152 185.466 51.0364 185.513C51.0576 185.561 51.069 185.612 51.0701 185.664C51.0896 185.795 51.123 186.028 51.1788 186.036C51.9534 186.159 52.3268 186.809 52.8228 187.287C53.0067 187.464 53.2881 187.371 53.38 187.478C53.6782 187.814 54.1602 187.788 54.4389 188.06C54.8126 188.468 55.2792 188.779 55.7987 188.967C55.6677 189.591 56.2111 189.526 56.5148 189.736C56.8185 189.946 57.1835 189.96 57.4148 190.179C57.8317 190.532 58.2804 190.846 58.7551 191.116C59.3458 191.503 59.7944 192.107 60.3015 192.622C60.3991 192.72 60.5662 192.846 60.5551 192.941C60.4966 193.384 60.8505 193.551 61.0594 193.826C61.2266 194.061 61.4468 193.946 61.756 194.083Z" fill="black"/>
<path d="M64.7793 199.726C64.5145 199.723 64.2577 199.635 64.0472 199.473C63.8368 199.312 63.684 199.086 63.6118 198.83C63.4418 198.327 63.687 197.89 64.1161 197.568C64.2247 197.492 64.3556 197.454 64.4879 197.461C64.6202 197.468 64.7463 197.52 64.8462 197.607C65.2084 197.87 65.2614 198.279 65.4397 198.637C65.8214 199.407 65.8131 199.502 65.0385 199.984C64.7932 200.137 65.1722 199.888 64.7793 199.726Z" fill="black"/>
<path d="M82.1778 230.003C81.964 229.645 81.7096 229.314 81.4199 229.015C81.2109 228.76 81.314 228.528 81.5063 228.27C81.6286 228.095 81.7999 227.961 81.9983 227.884C82.1968 227.808 82.4135 227.792 82.6208 227.839C82.749 227.859 82.9692 227.945 82.9692 228.001C82.9692 228.586 83.4317 228.841 83.7438 229.208C83.8298 229.312 83.8805 229.442 83.8887 229.577C83.8757 229.926 83.9786 230.268 84.1813 230.551C84.5686 231.083 84.6271 231.828 85.1258 232.317C85.424 232.611 85.8085 232.855 85.2234 233.261C85.1286 233.328 85.1565 233.636 85.3209 233.837C85.6608 234.254 86.0036 234.797 86.0036 235.262C86.0036 235.822 86.5999 236.118 86.4717 236.597C86.3101 237.19 86.9733 237.414 86.9342 237.943C86.9008 238.422 86.7726 238.965 87.3132 239.304C87.3522 239.326 87.3522 239.43 87.3522 239.497C87.3829 239.93 87.3829 240.365 87.3522 240.798C87.2937 241.232 87.8593 241.305 87.798 241.705C87.6949 242.377 88.099 243.161 87.3661 243.695C87.4414 244.236 87.2881 244.756 87.6448 245.327C87.8428 245.626 87.9189 245.99 87.8572 246.344C87.7954 246.698 87.6007 247.014 87.3132 247.228C87.2389 247.303 87.1439 247.355 87.0402 247.377C86.9365 247.398 86.8289 247.388 86.7308 247.348C86.3881 247.091 86.1234 246.732 85.7946 246.45C85.5884 246.273 85.6441 246.063 85.6413 245.859C85.6413 245.21 85.6581 244.557 85.6413 243.9C85.6413 243.62 85.803 243.511 85.9506 243.376C86.1485 243.197 86.1513 242.878 86.0509 242.802C85.6469 242.492 85.633 242.094 85.6469 241.655C85.6636 241.075 85.6023 240.49 85.6664 239.92C85.6956 239.706 85.6615 239.489 85.5683 239.296C85.4751 239.102 85.327 238.94 85.1426 238.831C84.6995 238.526 84.797 238.092 84.7859 237.672C84.7859 237.392 85.3432 237.364 85.0841 237.045C84.9038 236.835 84.7911 236.576 84.7608 236.3C84.7302 236.06 84.2983 235.965 84.354 235.606C84.4933 234.711 83.9667 234.053 83.5905 233.317C83.2924 232.729 82.88 232.119 83.0555 231.371C83.114 231.131 82.9608 230.977 82.8048 230.812C82.5453 230.586 82.3323 230.311 82.1778 230.003Z" fill="black"/>
<path d="M86.1735 251.16C85.5549 250.729 85.4908 250.178 85.6831 249.761C85.7754 249.526 85.9466 249.331 86.167 249.21C86.3874 249.089 86.6431 249.049 86.8896 249.097C87.1181 249.139 87.3243 249.19 87.3522 249.408C87.4247 249.76 87.4247 250.123 87.3522 250.475C87.1934 250.939 86.8813 251.331 86.1735 251.16Z" fill="black"/>
</svg>
