<svg width="409" height="432" viewBox="0 0 409 432" fill="none" xmlns="http://www.w3.org/2000/svg">
<path d="M108.356 346.287L125.068 362.999" stroke="#010101" stroke-width="4.64985" stroke-linecap="round" stroke-linejoin="round"/>
<path d="M50.9801 288.883L81.6973 319.628" stroke="#010101" stroke-width="4.64985" stroke-linecap="round" stroke-linejoin="round"/>
<path d="M103.03 292.603L218.769 408.313" stroke="#010101" stroke-width="4.64985" stroke-linecap="round" stroke-linejoin="round"/>
<path d="M44.0476 233.591L67.4942 257.066" stroke="#010101" stroke-width="4.64985" stroke-linecap="round" stroke-linejoin="round"/>
<path d="M186.22 327.406L288.038 429.224" stroke="#B19B6C" stroke-width="4.64985" stroke-linecap="round" stroke-linejoin="round"/>
<path d="M32.578 173.763L141.131 282.345" stroke="#B19B6C" stroke-width="4.64985" stroke-linecap="round" stroke-linejoin="round"/>
<path d="M117.684 210.54L297.422 390.249" stroke="#010101" stroke-width="4.64985" stroke-linecap="round" stroke-linejoin="round"/>
<path d="M43.3712 136.227L81.4155 174.271" stroke="#010101" stroke-width="4.64985" stroke-linecap="round" stroke-linejoin="round"/>
<path d="M266.085 310.554L309.286 353.755" stroke="#010101" stroke-width="4.64985" stroke-linecap="round" stroke-linejoin="round"/>
<path d="M0.338989 44.8074L220.658 265.126" stroke="#010101" stroke-width="4.64985" stroke-linecap="round" stroke-linejoin="round"/>
<path d="M177.033 173.172L392.279 388.389" stroke="#B19B6C" stroke-width="4.64985" stroke-linecap="round" stroke-linejoin="round"/>
<path d="M81.9791 78.0892L131.972 128.11" stroke="#B19B6C" stroke-width="4.64985" stroke-linecap="round" stroke-linejoin="round"/>
<path d="M218.826 166.577L357.842 305.594" stroke="#010101" stroke-width="4.64985" stroke-linecap="round" stroke-linejoin="round"/>
<path d="M76.8784 24.6301L179.626 127.378" stroke="#010101" stroke-width="4.64985" stroke-linecap="round" stroke-linejoin="round"/>
<path d="M333.494 232.887L406.116 305.509" stroke="#B19B6C" stroke-width="4.64985" stroke-linecap="round" stroke-linejoin="round"/>
<path d="M139.666 39.0587L280.739 180.132" stroke="#B19B6C" stroke-width="4.64985" stroke-linecap="round" stroke-linejoin="round"/>
<path d="M263.154 114.161L361.252 212.287" stroke="#010101" stroke-width="4.64985" stroke-linecap="round" stroke-linejoin="round"/>
<path d="M151.304 2.33887L224.687 75.6938" stroke="#010101" stroke-width="4.64985" stroke-linecap="round" stroke-linejoin="round"/>
<path d="M350.346 153.022L388.503 191.179" stroke="#B19B6C" stroke-width="4.64985" stroke-linecap="round" stroke-linejoin="round"/>
<path d="M210.005 12.6814L306.75 109.398" stroke="#B19B6C" stroke-width="4.64985" stroke-linecap="round" stroke-linejoin="round"/>
<path d="M330.507 84.8246L353.953 108.271" stroke="#010101" stroke-width="4.64985" stroke-linecap="round" stroke-linejoin="round"/>
<path d="M289.334 43.6522L305.51 59.7999" stroke="#010101" stroke-width="4.64985" stroke-linecap="round" stroke-linejoin="round"/>
</svg>
