<svg width="57" height="56" viewBox="0 0 57 56" fill="none" xmlns="http://www.w3.org/2000/svg">
<g clip-path="url(#clip0_431_157615)">
<path d="M40.9643 0H16.4643C7.71429 0 0.714294 7 0.714294 15.75V40.25C0.714294 49 7.71429 56 16.4643 56H40.9643C49.7143 56 56.7143 49 56.7143 40.25V15.75C56.7143 7 49.7143 0 40.9643 0Z" fill="#0097D3"/>
<path d="M26.5143 34.1905C26.5143 34.6762 26.1943 35 25.7143 35H22.5143C22.0343 35 21.7143 34.6762 21.7143 34.1905V24.4762C21.7143 23.9905 22.0343 23.6667 22.5143 23.6667H25.7143C26.1943 23.6667 26.5143 23.9905 26.5143 24.4762V34.1905ZM24.1143 22.8571C22.7543 22.8571 21.7143 21.8048 21.7143 20.4286C21.7143 19.0524 22.7543 18 24.1143 18C25.4743 18 26.5143 19.0524 26.5143 20.4286C26.5143 21.8048 25.4743 22.8571 24.1143 22.8571ZM37.7143 34.1905C37.7143 34.6762 37.3943 35 36.9143 35H34.5143C34.0343 35 33.7143 34.6762 33.7143 34.1905V31.3571V30.5476V28.9286C33.7143 28.281 33.1543 27.7143 32.5143 27.7143C31.8743 27.7143 31.3143 28.281 31.3143 28.9286V30.5476V31.3571V34.1905C31.3143 34.6762 30.9943 35 30.5143 35H28.1143C27.6343 35 27.3143 34.6762 27.3143 34.1905V24.4762C27.3143 23.9905 27.6343 23.6667 28.1143 23.6667H31.3143C31.5543 23.6667 31.7143 23.7476 31.8743 23.9095C32.3543 23.7476 32.8343 23.6667 33.3143 23.6667C35.7143 23.6667 37.7143 25.6905 37.7143 28.119V34.1905Z" fill="white" stroke="#0097D3"/>
</g>
<defs>
<clipPath id="clip0_431_157615">
<rect x="0.714294" width="56" height="56" rx="28" fill="white"/>
</clipPath>
</defs>
</svg>
