<svg width="57" height="60" viewBox="0 0 57 60" fill="none" xmlns="http://www.w3.org/2000/svg">
<g clip-path="url(#clip0_88_30)">
<path d="M48.8493 35.4573V32.7286H51.5645V35.4573H48.8493Z" fill="#B19B6C"/>
<path d="M9.64307 49.0904V46.3668H12.3533V49.0904H9.64307Z" fill="#B19B6C"/>
<path d="M15.0685 49.0904V46.3668H17.7838V49.0904H15.0685Z" fill="#B19B6C"/>
<path d="M0 0V60H57V0H0ZM54.2798 57.2814H2.72023V2.73366H54.2798V57.2814Z" fill="#B19B6C"/>
<path d="M51.5595 5.45227V13.6432H16.2764V10.9045H24.4271V5.45227H27.1474V10.9045H48.8543V8.18593H38.0033V5.45227H51.5595Z" fill="#B19B6C"/>
<path d="M43.4238 16.3568V24.5477H48.8543V27.2814H40.7036V30H51.5546V16.3568H43.4238ZM48.8543 21.8091H46.1291V19.0955H48.8543V21.8091Z" fill="#B19B6C"/>
<path d="M27.1474 19.0955V21.8091H32.5728V24.5477H21.7019V21.8091H24.4271V16.3568H32.5728V19.0955H27.1474Z" fill="#B19B6C"/>
<path d="M37.9983 16.3568H35.2781V30H37.9983V16.3568Z" fill="#B19B6C"/>
<path d="M29.8527 27.2814H27.1474V43.6382H29.8527V27.2814Z" fill="#B19B6C"/>
<path d="M37.9983 32.7336V35.4523H43.4238V46.3568H40.7036V38.1859H32.5728V46.3568H24.4271V51.809H5.42548V54.5477H27.1474V49.0955H46.1141V32.7336H37.9983ZM35.2781 46.3568V40.9045H37.9983V46.3568H35.2781Z" fill="#B19B6C"/>
<path d="M51.5595 38.1909V54.5477H29.8526V51.8141H48.8543V38.1909H51.5595Z" fill="#B19B6C"/>
<path d="M13.5762 30V32.7337H21.7019V43.6432H5.42548V5.45227H13.5762V8.18593H8.1457V40.9045H19.0017V35.4523H10.851V27.2814H21.7019V30H13.5762Z" fill="#B19B6C"/>
<path d="M18.8619 18.0572C18.8619 18.0572 19.7603 18.0873 19.7004 19.3112C19.6405 20.535 19.6555 20.1338 19.5757 20.9714C19.4934 21.868 19.5253 22.7714 19.6705 23.6599C19.7903 23.8856 18.4077 24.2669 16.6757 24.2518C14.9438 24.2368 12.1337 23.5997 11.0706 23.8405C11.0706 23.8405 10.9208 24.1465 10.7362 22.1652C10.6269 20.9868 10.6369 19.8003 10.7661 18.624C10.7814 18.536 10.8187 18.4533 10.8745 18.3838C10.9304 18.3143 11.0029 18.2602 11.0852 18.2266C11.1676 18.193 11.2571 18.181 11.3453 18.1917C11.4336 18.2024 11.5177 18.2355 11.5897 18.2879C12.2236 18.6541 12.8025 18.1976 12.9223 18.4735C13.5245 18.4761 14.1252 18.4139 14.7142 18.2879C15.3123 18.0421 15.9499 17.9078 16.5959 17.8917C16.8105 17.9819 17.4793 18.1976 17.4793 18.1023C17.4793 18.007 17.689 18.3331 18.268 18.1976L18.8619 18.0572Z" stroke="#B19B6C" stroke-width="0.76" stroke-miterlimit="10"/>
<path d="M12.9423 18.4735C11.5148 19.3563 11.1505 19.2359 11.1505 19.2359" stroke="#B19B6C" stroke-width="0.25" stroke-miterlimit="10"/>
<path d="M13.641 18.6842C12.2135 19.572 11.8492 19.4466 11.8492 19.4466" stroke="#B19B6C" stroke-width="0.25" stroke-miterlimit="10"/>
<path d="M18.9667 18.318C18.9667 18.318 19.0266 18.3481 17.7838 19.0503C17.2656 19.3966 16.6888 19.6448 16.0818 19.7826" stroke="#B19B6C" stroke-width="0.25" stroke-miterlimit="10"/>
<path d="M19.5008 18.6541C19.5008 18.6541 19.5607 18.6841 18.3179 19.3864C17.8002 19.7337 17.2232 19.9819 16.6158 20.1187" stroke="#B19B6C" stroke-width="0.25" stroke-miterlimit="10"/>
<path d="M19.411 19.6623C19.411 19.6623 19.5607 20.1639 18.3478 20.9714" stroke="#B19B6C" stroke-width="0.25" stroke-miterlimit="10"/>
<path d="M19.5607 20.4247C19.5607 20.4247 19.7154 20.9263 18.4976 21.7338" stroke="#B19B6C" stroke-width="0.25" stroke-miterlimit="10"/>
<path d="M11.6995 18.3481C11.6995 18.3481 13.6411 16.3417 15.1933 16.3066C16.7456 16.2715 18.6573 17.9669 18.8669 18.0572" stroke="#B19B6C" stroke-width="0.76" stroke-miterlimit="10"/>
<path d="M11.1804 23.5345C11.527 23.0035 12.0243 22.5894 12.6079 22.3458C13.4913 22.0398 14.1052 20.8811 14.1052 20.8811" stroke="#B19B6C" stroke-width="0.25" stroke-miterlimit="10"/>
<path d="M11.8193 23.6599C12.2181 23.3793 12.6467 23.1438 13.097 22.9577C13.3666 22.9276 14.4297 21.6435 14.4297 21.4529" stroke="#B19B6C" stroke-width="0.25" stroke-miterlimit="10"/>
<path d="M15.972 16.5173C16.3438 16.7294 16.6737 17.0082 16.9453 17.3399" stroke="#B19B6C" stroke-width="0.25" stroke-miterlimit="10"/>
</g>
<defs>
<clipPath id="clip0_88_30">
<rect width="57" height="60" fill="white"/>
</clipPath>
</defs>
</svg>
