<svg width="51" height="50" viewBox="0 0 51 50" fill="none" xmlns="http://www.w3.org/2000/svg">
<path d="M46.4211 28.4242C46.6731 30.5246 46.5051 32.121 45.917 33.2132C45.3288 34.3055 44.5727 35.5238 43.6484 36.8681C42.8083 37.1201 42.3461 37.3722 42.2621 37.6242C42.1781 37.8763 42.0101 38.0443 41.758 38.1283C41.0018 38.6325 40.1196 39.0105 39.1114 39.2626C38.1872 39.4306 37.179 39.4727 36.0867 39.3886C35.0785 39.3046 34.1123 39.0526 33.1881 38.6325C32.2639 38.2124 31.6337 37.6662 31.2976 36.9941C30.8775 37.0781 30.5835 37.0781 30.4154 36.9941C30.2474 36.8261 30.0374 36.7 29.7853 36.616C29.7853 35.7758 29.3652 35.3557 28.525 35.3557C28.609 34.5155 28.483 34.0114 28.1469 33.8434C27.8949 33.6753 27.6848 33.4653 27.5168 33.2132C27.7688 32.8772 27.8109 32.5831 27.6428 32.331C27.4748 31.995 27.4748 31.6169 27.6428 31.1968C27.4748 30.8607 27.2647 30.6507 27.0127 30.5666C26.8446 30.4826 26.6766 30.3566 26.5086 30.1886C26.2565 29.6004 26.3405 29.1383 26.7606 28.8022C27.1807 28.4662 27.3487 27.962 27.2647 27.2899C27.0967 27.1219 26.8026 26.9958 26.3825 26.9118C26.0465 26.8278 25.7524 26.7018 25.5003 26.5337C25.6684 26.2817 25.6264 26.0296 25.3743 25.7776C25.2063 25.5255 25.0382 25.3154 24.8702 25.1474C25.0382 24.5593 25.2063 24.1812 25.3743 24.0132C25.5423 23.8451 25.6264 23.6351 25.6264 23.383C27.3908 21.3666 28.8191 19.6022 29.9113 18.0898C31.0876 16.4934 32.3899 14.9811 33.8182 13.5528C34.6584 13.0487 35.4146 12.7126 36.0867 12.5446C36.8429 12.3765 37.431 12.0404 37.8511 11.5363C38.9434 11.4523 40.0776 11.2423 41.2539 10.9062C42.5142 10.4861 43.6064 10.6961 44.5306 11.5363C44.5306 11.9564 44.1946 12.2925 43.5224 12.5446C42.8503 12.7126 42.3882 12.5866 42.1361 12.1665C41.8 12.7546 41.4639 13.0907 41.1279 13.1747C40.8758 13.2587 40.7078 13.4268 40.6238 13.6788C37.9351 14.2669 35.9187 15.6533 34.5744 17.8378C33.2301 20.0222 33.02 22.5008 33.9442 25.2734C34.6164 25.5255 35.2045 25.4835 35.7086 25.1474C36.2968 24.7273 36.8429 24.5593 37.347 24.6433C38.4393 24.8954 39.1954 24.9374 39.6155 24.7693C40.0356 24.6013 40.3297 24.7273 40.4977 25.1474C41.2539 24.9794 41.842 25.0634 42.2621 25.3995C42.6822 25.7355 43.1863 25.9876 43.7745 26.1556C44.6987 26.7438 45.2448 27.2479 45.4128 27.668C45.6649 28.0041 46.001 28.2561 46.4211 28.4242ZM25.5003 31.1968C25.6684 31.6169 25.6684 32.163 25.5003 32.8351C25.3323 33.5073 24.9122 33.9274 24.24 34.0954C23.904 35.1877 23.6099 36.1539 23.3578 36.9941C23.1058 37.7503 22.7697 38.5064 22.3496 39.2626C21.6775 39.4306 21.0893 39.6827 20.5852 40.0188C20.1651 40.3549 19.703 40.6069 19.1989 40.7749C17.7706 41.195 16.4263 41.027 15.166 40.2708C13.9057 39.5147 12.8135 38.6745 11.8892 37.7503C10.4609 36.3219 9.15863 34.8096 7.98236 33.2132C6.80609 31.5329 5.9659 29.8525 5.46179 28.1721C5.37777 27.92 5.37777 27.71 5.46179 27.542C5.54581 27.3739 5.58782 27.1219 5.58782 26.7858C5.0837 26.3657 4.83165 25.9876 4.83165 25.6515C4.83165 25.2314 4.74763 24.8954 4.57959 24.6433C5.16772 23.9711 5.67184 23.215 6.09193 22.3748C6.51203 21.5346 6.93212 20.6944 7.35222 19.8542C7.77231 19.014 8.23442 18.2158 8.73853 17.4597C9.24265 16.7035 9.87279 16.0734 10.629 15.5692C10.797 14.8971 11.0491 14.435 11.3851 14.1829C11.7212 13.8468 12.0153 13.4688 12.2673 13.0487C13.1915 12.4605 14.0317 11.7884 14.7879 11.0322C15.5441 10.276 16.5103 9.68791 17.6866 9.26781C18.3587 9.18379 19.0729 9.09977 19.829 9.01575C20.6692 8.93173 21.2994 9.18379 21.7195 9.77192C21.7195 10.192 21.6355 10.5701 21.4674 10.9062C21.2994 11.1582 21.1313 11.4523 20.9633 11.7884C19.787 11.9564 18.6108 12.2505 17.4345 12.6706C16.2582 13.0067 15.4601 13.6788 15.04 14.687C14.7039 14.603 14.4938 14.687 14.4098 14.9391C14.3258 15.1912 14.1578 15.4012 13.9057 15.5692C13.6536 16.2414 13.4436 16.9556 13.2756 17.7117C13.1075 18.4679 12.8135 19.098 12.3934 19.6022C12.4774 20.2743 12.4774 20.9465 12.3934 21.6186C12.3934 22.2067 12.2253 22.7529 11.8892 23.257C12.2253 23.341 12.3514 23.551 12.2673 23.8871C12.1833 24.1392 12.0993 24.3912 12.0153 24.6433C12.0993 25.0634 12.2673 25.3995 12.5194 25.6515C12.8555 25.8196 13.1075 26.0716 13.2756 26.4077C13.9477 25.7355 14.6619 25.3575 15.418 25.2734C16.2582 25.1894 17.0564 25.0634 17.8126 24.8954C18.6528 25.3154 19.745 25.8616 21.0893 26.5337C22.5177 27.1219 23.4839 27.752 23.988 28.4242C24.3241 29.2643 24.6181 29.8525 24.8702 30.1886C25.2063 30.4406 25.4163 30.7767 25.5003 31.1968ZM31.0456 24.1392C30.5415 23.551 30.2474 23.341 30.1634 23.509C30.0794 23.6771 29.8693 23.7611 29.5332 23.7611C30.0374 24.4332 30.3734 24.7273 30.5415 24.6433C30.7095 24.4753 30.8775 24.3072 31.0456 24.1392ZM40.2457 27.4159C39.3215 26.9958 38.5653 27.0798 37.9772 27.668C37.473 28.1721 36.7589 28.4242 35.8347 28.4242C35.1625 28.9283 34.4484 29.3904 33.6922 29.8105C32.936 30.2306 32.0958 30.6507 31.1716 31.0707C31.5077 31.7429 31.7177 32.037 31.8018 31.9529C31.9698 31.8689 32.1798 31.8689 32.4319 31.9529C32.684 31.2808 33.1461 30.8187 33.8182 30.5666C34.4904 30.3146 35.2885 30.1465 36.2128 30.0625C36.3808 29.3904 36.9689 28.9703 37.9772 28.8022C39.0694 28.5502 39.8256 28.0881 40.2457 27.4159ZM43.9005 29.0543C43.0603 28.8022 42.5982 28.7602 42.5142 28.9283C42.4302 29.0123 42.3041 29.0963 42.1361 29.1803C41.2959 29.4324 40.6238 29.7685 40.1196 30.1886C39.6995 30.6086 39.2794 30.9027 38.8594 31.0707C38.7753 31.4068 38.4393 31.7009 37.8511 31.9529C37.263 32.121 36.6329 32.247 35.9607 32.331C36.8009 33.0032 37.5151 33.0872 38.1032 32.5831C38.7753 32.079 39.3635 31.8269 39.8676 31.8269C39.6995 32.163 39.4895 32.4151 39.2374 32.5831C38.9854 32.6671 38.7753 32.8351 38.6073 33.0872C38.0192 32.8351 37.5991 32.9612 37.347 33.4653C37.095 33.8854 36.6329 34.0954 35.9607 34.0954C34.9525 33.5913 34.3643 33.6333 34.1963 34.2215C34.3643 34.3895 34.5324 34.3475 34.7004 34.0954C34.9525 33.8434 35.2465 33.7594 35.5826 33.8434C35.2465 34.3475 34.9525 34.7676 34.7004 35.1037C34.5324 35.4397 34.2383 35.6498 33.8182 35.7338C34.2383 36.742 34.9105 37.2461 35.8347 37.2461C36.7589 37.2461 37.8091 37.3302 38.9854 37.4982C39.5735 36.9941 40.2457 36.49 41.0018 35.9859C41.842 35.4817 42.5142 34.8936 43.0183 34.2215C43.6064 33.5493 44.0265 32.7931 44.2786 31.9529C44.5306 31.1128 44.4046 30.1465 43.9005 29.0543ZM31.9278 27.668C31.1716 26.9958 30.6255 26.8278 30.2894 27.1639C30.0374 27.4159 29.7013 27.626 29.2812 27.794C30.1214 28.2981 30.6675 28.4662 30.9196 28.2981C31.1716 28.0461 31.5077 27.836 31.9278 27.668ZM38.2292 29.9365C37.8931 29.8525 37.5991 29.9365 37.347 30.1886C37.179 30.3566 36.8849 30.3566 36.4648 30.1886C35.8767 31.1128 34.9945 31.7009 33.8182 31.9529C32.726 32.205 31.8018 32.6671 31.0456 33.3393C32.4739 33.6753 33.6502 33.4233 34.5744 32.5831C35.4986 31.7429 36.5488 31.2388 37.7251 31.0707L38.2292 29.9365ZM32.684 28.6762C31.9278 28.5082 31.2556 28.6762 30.6675 29.1803C30.1634 29.6844 29.9113 30.1465 29.9113 30.5666C30.4154 30.3986 30.8775 30.1465 31.2976 29.8105C31.8018 29.4744 32.2639 29.0963 32.684 28.6762ZM9.74676 20.8624C9.41068 20.8624 9.07461 21.0305 8.73853 21.3666C8.48647 21.7026 8.27643 22.0387 8.10839 22.3748C8.02437 22.7109 8.02437 23.0469 8.10839 23.383C8.27643 23.7191 8.65451 23.8871 9.24265 23.8871C9.41068 23.383 9.53671 22.9209 9.62073 22.5008C9.70475 22.0807 9.74676 21.5346 9.74676 20.8624ZM23.3578 32.9612C23.4419 32.289 23.3158 31.7429 22.9798 31.3228C22.7277 30.8187 22.5177 30.3566 22.3496 29.9365C21.4254 29.6004 20.6692 29.1803 20.0811 28.6762C19.577 28.0881 18.9889 27.584 18.3167 27.1639C17.5605 27.2479 16.9724 27.3319 16.5523 27.4159C16.1322 27.4159 15.8381 27.542 15.6701 27.794C16.0902 27.878 16.4263 27.878 16.6783 27.794C16.9304 27.626 17.1824 27.4999 17.4345 27.4159C17.6025 28.5922 17.2665 29.3904 16.4263 29.8105C15.5861 30.1465 14.9559 30.7347 14.5358 31.5749C15.5441 31.4068 16.3843 31.1128 17.0564 30.6927C17.7286 30.1886 18.6108 30.0205 19.703 30.1886C20.1231 30.6927 20.2491 31.1968 20.0811 31.7009C19.9971 32.205 19.787 32.6671 19.451 33.0872C19.1149 33.4233 18.7368 33.7174 18.3167 33.9694C17.8966 34.2215 17.5605 34.4315 17.3085 34.5996C17.2245 35.2717 17.0984 35.7338 16.9304 35.9859C16.7624 36.2379 16.5523 36.49 16.3002 36.742C16.5523 37.7503 16.6783 38.3384 16.6783 38.5064C17.0984 38.5064 17.4765 38.5484 17.8126 38.6325C18.2327 38.7165 18.6948 38.6745 19.1989 38.5064C19.535 38.4224 19.9551 38.1283 20.4592 37.6242C20.9633 37.1201 21.4254 36.574 21.8455 35.9859C22.2656 35.3137 22.6017 34.7256 22.8537 34.2215C23.1898 33.6333 23.3578 33.2132 23.3578 32.9612ZM9.4947 24.6433C9.07461 24.5593 8.73853 24.6013 8.48647 24.7693C8.31844 24.9374 8.10839 25.0634 7.85633 25.1474C7.94035 25.5675 7.85633 25.9036 7.60427 26.1556C7.43624 26.4077 7.43624 26.7438 7.60427 27.1639C8.27643 26.4917 8.90657 25.6515 9.4947 24.6433ZM19.1989 31.9529C18.3587 31.4488 17.7286 31.3648 17.3085 31.7009C16.8884 31.9529 16.3843 32.163 15.7961 32.331C14.7879 32.7511 14.0737 33.1292 13.6536 33.4653C13.3176 33.8014 12.7294 33.9274 11.8892 33.8434C12.1413 34.4315 12.4774 34.9356 12.8975 35.3557C13.3176 35.6918 13.6116 36.1959 13.7797 36.8681C15.124 36.0279 16.1322 35.1877 16.8044 34.3475C17.4765 33.4233 18.2747 32.6251 19.1989 31.9529ZM10.629 27.794C10.0408 27.794 9.66274 27.92 9.4947 28.1721C9.32667 28.4242 9.0326 28.6342 8.6125 28.8022C9.20064 29.3904 9.62073 29.4744 9.87279 29.0543C10.2089 28.6342 10.4609 28.2141 10.629 27.794ZM13.2756 30.3146C12.8555 30.3986 12.3934 30.5666 11.8892 30.8187C11.3851 31.0707 10.965 31.3648 10.629 31.7009C10.3769 31.9529 10.2089 32.247 10.1248 32.5831C10.1248 32.9192 10.4609 33.2552 11.1331 33.5913C11.2171 32.8351 11.5532 32.289 12.1413 31.9529C12.8135 31.5329 13.1915 30.9867 13.2756 30.3146ZM43.3964 31.0707C43.3964 31.5749 43.2283 31.9109 42.8923 32.079C42.6402 32.247 42.4302 32.5411 42.2621 32.9612C41.2539 33.3813 40.7498 33.4233 40.7498 33.0872C41.2539 32.331 41.674 31.8269 42.0101 31.5749C42.4302 31.3228 42.6822 30.9447 42.7662 30.4406L43.3964 31.0707ZM41.632 31.7009C40.8758 31.9529 40.4137 31.995 40.2457 31.8269C40.7498 31.5749 41.1279 31.4488 41.3799 31.4488C41.632 31.3648 41.716 31.1128 41.632 30.6927V31.7009ZM40.6238 33.7174C40.7918 34.1374 40.6658 34.5155 40.2457 34.8516C39.9096 35.1037 39.6575 35.3977 39.4895 35.7338C39.7416 35.1457 39.8676 34.7256 39.8676 34.4735C39.9516 34.2215 39.9096 34.0114 39.7416 33.8434L40.6238 33.7174Z" fill="black"/>
</svg>
