<svg width="51" height="50" viewBox="0 0 51 50" fill="none" xmlns="http://www.w3.org/2000/svg">
<path d="M4.73811 21.5758C4.48605 19.4754 4.65409 17.879 5.24223 16.7868C5.83036 15.6945 6.58653 14.4762 7.51074 13.1319C8.35093 12.8799 8.81303 12.6278 8.89705 12.3758C8.98107 12.1237 9.14911 11.9557 9.40117 11.8717C10.1573 11.3675 11.0395 10.9895 12.0478 10.7374C12.972 10.5694 13.9802 10.5273 15.0725 10.6114C16.0807 10.6954 17.0469 10.9474 17.9711 11.3675C18.8953 11.7876 19.5255 12.3338 19.8615 13.0059C20.2816 12.9219 20.5757 12.9219 20.7437 13.0059C20.9118 13.1739 21.1218 13.3 21.3739 13.384C21.3739 14.2242 21.794 14.6443 22.6342 14.6443C22.5501 15.4845 22.6762 15.9886 23.0123 16.1566C23.2643 16.3247 23.4744 16.5347 23.6424 16.7868C23.3903 17.1228 23.3483 17.4169 23.5164 17.669C23.6844 18.005 23.6844 18.3831 23.5164 18.8032C23.6844 19.1393 23.8945 19.3493 24.1465 19.4334C24.3145 19.5174 24.4826 19.6434 24.6506 19.8114C24.9027 20.3996 24.8187 20.8617 24.3986 21.1978C23.9785 21.5338 23.8104 22.038 23.8945 22.7101C24.0625 22.8781 24.3566 23.0042 24.7767 23.0882C25.1127 23.1722 25.4068 23.2982 25.6588 23.4663C25.4908 23.7183 25.5328 23.9704 25.7849 24.2224C25.9529 24.4745 26.121 24.6846 26.289 24.8526C26.121 25.4407 25.9529 25.8188 25.7849 25.9868C25.6168 26.1549 25.5328 26.3649 25.5328 26.617C23.7684 28.6334 22.3401 30.3978 21.2479 31.9102C20.0716 33.5066 18.7693 35.0189 17.341 36.4472C16.5008 36.9513 15.7446 37.2874 15.0725 37.4554C14.3163 37.6235 13.7281 37.9596 13.3081 38.4637C12.2158 38.5477 11.0815 38.7577 9.90528 39.0938C8.645 39.5139 7.55275 39.3039 6.62854 38.4637C6.62854 38.0436 6.96461 37.7075 7.63677 37.4554C8.30892 37.2874 8.77102 37.4134 9.02308 37.8335C9.35916 37.2454 9.69523 36.9093 10.0313 36.8253C10.2834 36.7413 10.4514 36.5732 10.5354 36.3212C13.224 35.7331 15.2405 34.3467 16.5848 32.1622C17.9291 29.9778 18.1391 27.4992 17.2149 24.7266C16.5428 24.4745 15.9547 24.5165 15.4505 24.8526C14.8624 25.2727 14.3163 25.4407 13.8122 25.3567C12.7199 25.1046 11.9637 25.0626 11.5437 25.2307C11.1236 25.3987 10.8295 25.2727 10.6615 24.8526C9.90528 25.0206 9.31715 24.9366 8.89705 24.6005C8.47696 24.2645 7.97284 24.0124 7.38471 23.8444C6.4605 23.2562 5.91438 22.7521 5.74634 22.332C5.49428 21.9959 5.15821 21.7439 4.73811 21.5758ZM25.6588 18.8032C25.4908 18.3831 25.4908 17.837 25.6588 17.1649C25.8269 16.4927 26.247 16.0726 26.9191 15.9046C27.2552 14.8123 27.5493 13.8461 27.8013 13.0059C28.0534 12.2497 28.3895 11.4936 28.8096 10.7374C29.4817 10.5694 30.0698 10.3173 30.574 9.98122C30.9941 9.64515 31.4562 9.39309 31.9603 9.22505C33.3886 8.80495 34.7329 8.973 35.9932 9.72917C37.2535 10.4853 38.3457 11.3255 39.2699 12.2497C40.6983 13.6781 42.0006 15.1904 43.1768 16.7868C44.3531 18.4671 45.1933 20.1475 45.6974 21.8279C45.7814 22.08 45.7814 22.29 45.6974 22.458C45.6134 22.6261 45.5714 22.8781 45.5714 23.2142C46.0755 23.6343 46.3275 24.0124 46.3275 24.3485C46.3275 24.7686 46.4116 25.1046 46.5796 25.3567C45.9915 26.0289 45.4873 26.785 45.0672 27.6252C44.6472 28.4654 44.2271 29.3056 43.807 30.1458C43.3869 30.986 42.9248 31.7842 42.4206 32.5403C41.9165 33.2965 41.2864 33.9266 40.5302 34.4308C40.3622 35.1029 40.1101 35.565 39.774 35.8171C39.438 36.1532 39.1439 36.5312 38.8918 36.9513C37.9676 37.5395 37.1274 38.2116 36.3713 38.9678C35.6151 39.724 34.6489 40.3121 33.4726 40.7322C32.8005 40.8162 32.0863 40.9002 31.3301 40.9842C30.4899 41.0683 29.8598 40.8162 29.4397 40.2281C29.4397 39.808 29.5237 39.4299 29.6918 39.0938C29.8598 38.8418 30.0278 38.5477 30.1959 38.2116C31.3721 38.0436 32.5484 37.7495 33.7247 37.3294C34.9009 36.9933 35.6991 36.3212 36.1192 35.313C36.4553 35.397 36.6653 35.313 36.7494 35.0609C36.8334 34.8088 37.0014 34.5988 37.2535 34.4308C37.5055 33.7586 37.7156 33.0444 37.8836 32.2883C38.0517 31.5321 38.3457 30.902 38.7658 30.3978C38.6818 29.7257 38.6818 29.0535 38.7658 28.3814C38.7658 27.7933 38.9339 27.2471 39.2699 26.743C38.9339 26.659 38.8078 26.449 38.8918 26.1129C38.9759 25.8608 39.0599 25.6088 39.1439 25.3567C39.0599 24.9366 38.8918 24.6005 38.6398 24.3485C38.3037 24.1804 38.0517 23.9284 37.8836 23.5923C37.2115 24.2645 36.4973 24.6425 35.7411 24.7266C34.9009 24.8106 34.1028 24.9366 33.3466 25.1046C32.5064 24.6846 31.4142 24.1384 30.0698 23.4663C28.6415 22.8781 27.6753 22.248 27.1712 21.5758C26.8351 20.7357 26.541 20.1475 26.289 19.8114C25.9529 19.5594 25.7429 19.2233 25.6588 18.8032ZM20.1136 25.8608C20.6177 26.449 20.9118 26.659 20.9958 26.491C21.0798 26.3229 21.2899 26.2389 21.6259 26.2389C21.1218 25.5668 20.7857 25.2727 20.6177 25.3567C20.4497 25.5247 20.2816 25.6928 20.1136 25.8608ZM10.9135 22.5841C11.8377 23.0042 12.5939 22.9202 13.182 22.332C13.6861 21.8279 14.4003 21.5758 15.3245 21.5758C15.9967 21.0717 16.7108 20.6096 17.467 20.1895C18.2232 19.7694 19.0634 19.3493 19.9876 18.9293C19.6515 18.2571 19.4414 17.963 19.3574 18.0471C19.1894 18.1311 18.9793 18.1311 18.7273 18.0471C18.4752 18.7192 18.0131 19.1813 17.341 19.4334C16.6688 19.6854 15.8706 19.8535 14.9464 19.9375C14.7784 20.6096 14.1903 21.0297 13.182 21.1978C12.0898 21.4498 11.3336 21.9119 10.9135 22.5841ZM7.25868 20.9457C8.09887 21.1978 8.56098 21.2398 8.645 21.0717C8.72902 20.9877 8.85505 20.9037 9.02308 20.8197C9.86327 20.5676 10.5354 20.2315 11.0395 19.8114C11.4596 19.3914 11.8797 19.0973 12.2998 18.9293C12.3838 18.5932 12.7199 18.2991 13.3081 18.0471C13.8962 17.879 14.5263 17.753 15.1985 17.669C14.3583 16.9968 13.6441 16.9128 13.056 17.4169C12.3838 17.921 11.7957 18.1731 11.2916 18.1731C11.4596 17.837 11.6697 17.5849 11.9217 17.4169C12.1738 17.3329 12.3838 17.1649 12.5519 16.9128C13.14 17.1649 13.5601 17.0388 13.8122 16.5347C14.0642 16.1146 14.5263 15.9046 15.1985 15.9046C16.2067 16.4087 16.7948 16.3667 16.9629 15.7785C16.7948 15.6105 16.6268 15.6525 16.4588 15.9046C16.2067 16.1566 15.9126 16.2406 15.5766 16.1566C15.9126 15.6525 16.2067 15.2324 16.4588 14.8963C16.6268 14.5603 16.9209 14.3502 17.341 14.2662C16.9209 13.258 16.2487 12.7539 15.3245 12.7539C14.4003 12.7539 13.3501 12.6698 12.1738 12.5018C11.5857 13.0059 10.9135 13.51 10.1573 14.0141C9.31715 14.5183 8.645 15.1064 8.14088 15.7785C7.55275 16.4507 7.13265 17.2069 6.8806 18.0471C6.62854 18.8872 6.75457 19.8535 7.25868 20.9457ZM19.2314 22.332C19.9876 23.0042 20.5337 23.1722 20.8698 22.8361C21.1218 22.5841 21.4579 22.374 21.878 22.206C21.0378 21.7019 20.4917 21.5338 20.2396 21.7019C19.9876 21.9539 19.6515 22.164 19.2314 22.332ZM12.93 20.0635C13.266 20.1475 13.5601 20.0635 13.8122 19.8114C13.9802 19.6434 14.2743 19.6434 14.6944 19.8114C15.2825 18.8872 16.1647 18.2991 17.341 18.0471C18.4332 17.795 19.3574 17.3329 20.1136 16.6607C18.6853 16.3247 17.509 16.5767 16.5848 17.4169C15.6606 18.2571 14.6103 18.7612 13.4341 18.9293L12.93 20.0635ZM18.4752 21.3238C19.2314 21.4918 19.9035 21.3238 20.4917 20.8197C20.9958 20.3156 21.2479 19.8535 21.2479 19.4334C20.7437 19.6014 20.2816 19.8535 19.8615 20.1895C19.3574 20.5256 18.8953 20.9037 18.4752 21.3238ZM41.4124 29.1376C41.7485 29.1376 42.0846 28.9695 42.4206 28.6334C42.6727 28.2974 42.8828 27.9613 43.0508 27.6252C43.1348 27.2891 43.1348 26.9531 43.0508 26.617C42.8828 26.2809 42.5047 26.1129 41.9165 26.1129C41.7485 26.617 41.6225 27.0791 41.5384 27.4992C41.4544 27.9193 41.4124 28.4654 41.4124 29.1376ZM27.8013 17.0388C27.7173 17.711 27.8433 18.2571 28.1794 18.6772C28.4315 19.1813 28.6415 19.6434 28.8096 20.0635C29.7338 20.3996 30.4899 20.8197 31.0781 21.3238C31.5822 21.9119 32.1703 22.416 32.8425 22.8361C33.5986 22.7521 34.1868 22.6681 34.6069 22.5841C35.027 22.5841 35.321 22.458 35.4891 22.206C35.069 22.122 34.7329 22.122 34.4808 22.206C34.2288 22.374 33.9767 22.5001 33.7247 22.5841C33.5566 21.4078 33.8927 20.6096 34.7329 20.1895C35.5731 19.8535 36.2032 19.2653 36.6233 18.4251C35.6151 18.5932 34.7749 18.8872 34.1028 19.3073C33.4306 19.8114 32.5484 19.9795 31.4562 19.8114C31.0361 19.3073 30.91 18.8032 31.0781 18.2991C31.1621 17.795 31.3721 17.3329 31.7082 16.9128C32.0443 16.5767 32.4224 16.2826 32.8425 16.0306C33.2626 15.7785 33.5986 15.5685 33.8507 15.4004C33.9347 14.7283 34.0608 14.2662 34.2288 14.0141C34.3968 13.7621 34.6069 13.51 34.8589 13.258C34.6069 12.2497 34.4808 11.6616 34.4808 11.4936C34.0608 11.4936 33.6827 11.4516 33.3466 11.3675C32.9265 11.2835 32.4644 11.3255 31.9603 11.4936C31.6242 11.5776 31.2041 11.8717 30.7 12.3758C30.1959 12.8799 29.7338 13.426 29.3137 14.0141C28.8936 14.6863 28.5575 15.2744 28.3055 15.7785C27.9694 16.3667 27.8013 16.7868 27.8013 17.0388ZM41.6645 25.3567C42.0846 25.4407 42.4206 25.3987 42.6727 25.2307C42.8407 25.0626 43.0508 24.9366 43.3028 24.8526C43.2188 24.4325 43.3028 24.0964 43.5549 23.8444C43.7229 23.5923 43.7229 23.2562 43.5549 22.8361C42.8828 23.5083 42.2526 24.3485 41.6645 25.3567ZM31.9603 18.0471C32.8005 18.5512 33.4306 18.6352 33.8507 18.2991C34.2708 18.0471 34.7749 17.837 35.363 17.669C36.3713 17.2489 37.0854 16.8708 37.5055 16.5347C37.8416 16.1986 38.4297 16.0726 39.2699 16.1566C39.0179 15.5685 38.6818 15.0644 38.2617 14.6443C37.8416 14.3082 37.5475 13.8041 37.3795 13.1319C36.0352 13.9721 35.027 14.8123 34.3548 15.6525C33.6827 16.5767 32.8845 17.3749 31.9603 18.0471ZM40.5302 22.206C41.1184 22.206 41.4964 22.08 41.6645 21.8279C41.8325 21.5758 42.1266 21.3658 42.5467 21.1978C41.9585 20.6096 41.5384 20.5256 41.2864 20.9457C40.9503 21.3658 40.6983 21.7859 40.5302 22.206ZM37.8836 19.6854C38.3037 19.6014 38.7658 19.4334 39.2699 19.1813C39.774 18.9293 40.1941 18.6352 40.5302 18.2991C40.7823 18.0471 40.9503 17.753 41.0343 17.4169C41.0343 17.0808 40.6983 16.7448 40.0261 16.4087C39.9421 17.1649 39.606 17.711 39.0179 18.0471C38.3457 18.4671 37.9676 19.0133 37.8836 19.6854ZM7.76279 18.9293C7.76279 18.4251 7.93084 18.0891 8.26691 17.921C8.51897 17.753 8.72902 17.4589 8.89705 17.0388C9.90528 16.6187 10.4094 16.5767 10.4094 16.9128C9.90528 17.669 9.48519 18.1731 9.14911 18.4251C8.72902 18.6772 8.47696 19.0553 8.39294 19.5594L7.76279 18.9293ZM9.52719 18.2991C10.2834 18.0471 10.7455 18.005 10.9135 18.1731C10.4094 18.4251 10.0313 18.5512 9.77925 18.5512C9.52719 18.6352 9.44318 18.8872 9.52719 19.3073V18.2991ZM10.5354 16.2826C10.3674 15.8626 10.4934 15.4845 10.9135 15.1484C11.2496 14.8963 11.5016 14.6023 11.6697 14.2662C11.4176 14.8543 11.2916 15.2744 11.2916 15.5265C11.2076 15.7785 11.2496 15.9886 11.4176 16.1566L10.5354 16.2826Z" fill="black"/>
</svg>
