<svg width="57" height="56" viewBox="0 0 57 56" fill="none" xmlns="http://www.w3.org/2000/svg">
<g clip-path="url(#clip0_431_157622)">
<path d="M28.7143 56C44.1783 56 56.7143 43.464 56.7143 28C56.7143 12.536 44.1783 0 28.7143 0C13.2503 0 0.714294 12.536 0.714294 28C0.714294 43.464 13.2503 56 28.7143 56Z" fill="#FFFC00"/>
<path d="M28.8412 20.2529L28.851 20.2539H28.8618C29.5744 20.2539 31.9533 20.455 33.0795 23V23.001C33.2579 23.4079 33.333 23.9777 33.3491 24.6211C33.365 25.2585 33.3233 25.9389 33.2846 26.5566L33.2807 26.6025C33.2699 26.7411 33.2629 26.8731 33.2592 27.002L33.2553 27.1445L33.3754 27.2207C33.4816 27.2878 33.6269 27.3262 33.812 27.3262V27.3271L33.8237 27.3262C34.0942 27.3133 34.3993 27.2179 34.6948 27.0742L34.7055 27.0684C34.7738 27.0309 34.857 27.0205 34.933 27.0205C35.0463 27.0205 35.146 27.0385 35.2211 27.0693L35.2368 27.0752C35.5098 27.1673 35.6186 27.3431 35.6186 27.4746H35.6176L35.6186 27.4824C35.6212 27.5668 35.5881 27.6615 35.4741 27.7725C35.3566 27.8866 35.1631 28.006 34.8745 28.123C34.8377 28.135 34.7965 28.151 34.7573 28.165L34.6284 28.209C34.4596 28.2605 34.2258 28.3346 34.0141 28.4443C33.8085 28.5509 33.5787 28.7136 33.4721 28.9658L33.4702 28.9727C33.3684 29.233 33.4146 29.5386 33.5727 29.8379L33.5903 29.8701L33.5952 29.875C33.6727 30.0448 33.968 30.6561 34.5092 31.2988C35.0795 31.9761 35.9372 32.7057 37.1157 32.9736L37.3559 33.0205C37.4226 33.0318 37.467 33.0955 37.4643 33.1465L37.4633 33.1543V33.1611C37.4633 33.1734 37.4627 33.1856 37.4604 33.1973L37.4477 33.2354C37.3977 33.3552 37.2389 33.5095 36.8637 33.6631C36.4982 33.8126 35.9746 33.9425 35.2817 34.0479L35.1743 34.0645L35.1127 34.1553C35.0823 34.2002 35.0619 34.2517 35.0493 34.2881C35.0349 34.3292 35.0226 34.375 35.0112 34.4189C34.9885 34.5065 34.9681 34.6035 34.9526 34.6768H34.9516L34.9496 34.6904C34.931 34.8096 34.8991 34.9355 34.8559 35.0732L34.8539 35.082C34.8382 35.1396 34.8155 35.1641 34.7993 35.1758C34.7813 35.1887 34.7464 35.2041 34.6801 35.2041H34.6586C34.6221 35.2041 34.5771 35.1994 34.519 35.1904L34.3012 35.1514C34.0199 35.0925 33.701 35.0439 33.2983 35.0439C33.0672 35.0439 32.8259 35.0547 32.5698 35.1045C32.0543 35.1942 31.6141 35.5056 31.1743 35.8184C30.5327 36.2745 29.8605 36.7499 28.8481 36.75C28.8427 36.75 28.8351 36.749 28.811 36.7461C28.7911 36.7437 28.7545 36.7393 28.7143 36.7393H28.602C27.5895 36.7393 26.927 36.2742 26.2885 35.8096L26.2856 35.8086L25.9575 35.5781C25.6285 35.3555 25.2919 35.1639 24.9057 35.0938L24.8989 35.0928L24.5307 35.0488C24.4079 35.0385 24.2857 35.0332 24.1655 35.0332C23.7334 35.0332 23.3975 35.1057 23.1645 35.1514L23.1635 35.1523C23.0006 35.1853 22.8912 35.2041 22.808 35.2041C22.7228 35.204 22.6854 35.1801 22.6674 35.1641C22.6449 35.1439 22.6254 35.1112 22.6127 35.0664L22.6108 35.0596L22.562 34.8633C22.5477 34.7962 22.5314 34.7169 22.5121 34.6426H22.5131C22.5053 34.6117 22.4965 34.5744 22.4868 34.5312C22.4773 34.4894 22.4665 34.4421 22.4555 34.3975C22.4446 34.3535 22.4325 34.3067 22.4184 34.2646C22.407 34.2305 22.3853 34.1696 22.3471 34.1191L22.2827 34.0342L22.1762 34.0225L21.6782 33.9531C21.2133 33.8783 20.8476 33.7844 20.5727 33.6758C20.198 33.5276 20.0395 33.3709 19.9887 33.2451L19.9838 33.2334L19.978 33.2217L19.9711 33.2002L19.9643 33.1533C19.9619 33.1016 20.0002 33.0406 20.0756 33.0264C21.3771 32.8079 22.3115 32.0269 22.9194 31.3037C23.5001 30.6128 23.7979 29.9576 23.8481 29.8428L23.8578 29.8203C24.0015 29.5364 24.0793 29.2172 23.9467 28.9434C23.8357 28.7022 23.6081 28.5468 23.4077 28.4434C23.1994 28.3359 22.9676 28.2585 22.8071 28.2021L22.7944 28.1973L22.7807 28.1943C22.7109 28.178 22.6404 28.15 22.5551 28.1162C22.1634 27.96 21.9749 27.806 21.8871 27.6895C21.8271 27.6095 21.8092 27.5406 21.809 27.4814L21.8139 27.4248C21.8317 27.3334 21.9006 27.2362 22.0258 27.1562C22.1515 27.0761 22.3076 27.0313 22.4428 27.0312C22.5161 27.0312 22.5769 27.0454 22.6303 27.0674C22.958 27.218 23.27 27.3154 23.561 27.3154C23.7838 27.3154 23.9365 27.2564 24.0268 27.208L24.1713 27.1309L24.1577 26.9678L24.1225 26.543H24.1235C24.0864 25.924 24.0446 25.2423 24.061 24.6045C24.0775 23.9615 24.1524 23.3933 24.3305 22.9902L24.3315 22.9883C25.2864 20.7751 27.2205 20.347 28.1674 20.2744L28.5073 20.2607H28.5151L28.8139 20.25L28.8412 20.2529Z" fill="white" stroke="black" stroke-width="0.5"/>
</g>
<defs>
<clipPath id="clip0_431_157622">
<rect width="56" height="56" fill="white" transform="translate(0.714294)"/>
</clipPath>
</defs>
</svg>
