<svg width="314" height="399" viewBox="0 0 314 399" fill="none" xmlns="http://www.w3.org/2000/svg">
<path d="M357.423 220.714L194.251 57.5423C191.668 54.9594 187.481 54.9594 184.898 57.5423L21.7263 220.714C19.1433 223.297 19.1434 227.484 21.7263 230.067L184.898 393.239C187.481 395.822 191.668 395.822 194.251 393.239L357.423 230.067C360.006 227.484 360.006 223.297 357.423 220.714Z" stroke="#B19B6C" stroke-width="6.80626" stroke-miterlimit="10"/>
<path d="M192.882 7.61378C194.985 7.61378 196.689 5.90938 196.689 3.80689C196.689 1.7044 194.985 0 192.882 0C190.78 0 189.076 1.7044 189.076 3.80689C189.076 5.90938 190.78 7.61378 192.882 7.61378Z" fill="#010101"/>
<path d="M237.912 48.8359C237.377 49.3814 236.692 49.7553 235.944 49.9099C235.196 50.0645 234.419 49.9929 233.712 49.7041C233.005 49.4154 232.399 48.9225 231.973 48.2885C231.548 47.6545 231.32 46.908 231.32 46.1442C231.32 45.3804 231.548 44.6339 231.973 43.9998C232.399 43.3658 233.005 42.873 233.712 42.5842C234.419 42.2955 235.196 42.2238 235.944 42.3784C236.692 42.5331 237.377 42.907 237.912 43.4524C238.616 44.1712 239.011 45.1376 239.011 46.1442C239.011 47.1507 238.616 48.1171 237.912 48.8359Z" fill="#010101"/>
<path d="M280.249 91.1732C279.528 91.8894 278.553 92.2914 277.538 92.2914C276.522 92.2914 275.547 91.8894 274.827 91.1732C274.197 90.4376 273.867 89.4914 273.905 88.5236C273.942 87.5558 274.343 86.6378 275.028 85.9529C275.713 85.2681 276.631 84.8669 277.599 84.8295C278.567 84.7921 279.513 85.1213 280.249 85.7513C280.965 86.4718 281.367 87.4464 281.367 88.4623C281.367 89.4781 280.965 90.4528 280.249 91.1732Z" fill="#010101"/>
<path d="M157.659 44.3366C157.124 44.8821 156.439 45.2559 155.691 45.4106C154.943 45.5652 154.166 45.4936 153.459 45.2048C152.752 44.916 152.147 44.4232 151.721 43.7892C151.295 43.1552 151.068 42.4087 151.068 41.6448C151.068 40.881 151.295 40.1345 151.721 39.5005C152.147 38.8665 152.752 38.3737 153.459 38.0849C154.166 37.7961 154.943 37.7245 155.691 37.8791C156.439 38.0337 157.124 38.4076 157.659 38.9531C158.364 39.6719 158.758 40.6383 158.758 41.6448C158.758 42.6514 158.364 43.6178 157.659 44.3366Z" fill="#010101"/>
<path d="M199.958 86.6355C199.237 87.3517 198.263 87.7537 197.247 87.7537C196.231 87.7537 195.256 87.3517 194.536 86.6355C193.831 85.9167 193.437 84.9503 193.437 83.9438C193.437 82.9372 193.831 81.9708 194.536 81.252C194.872 80.8265 195.293 80.4766 195.773 80.2255C196.254 79.9743 196.782 79.8275 197.323 79.7947C197.863 79.7618 198.405 79.8437 198.912 80.0349C199.419 80.2261 199.88 80.5224 200.265 80.9042C200.65 81.2861 200.949 81.7449 201.144 82.2506C201.339 82.7563 201.424 83.2975 201.395 83.8386C201.366 84.3798 201.223 84.9087 200.976 85.3907C200.728 85.8727 200.381 86.2969 199.958 86.6355Z" fill="#010101"/>
<path d="M242.257 128.973C241.538 129.677 240.571 130.072 239.565 130.072C238.558 130.072 237.592 129.677 236.873 128.973C236.328 128.438 235.954 127.753 235.799 127.005C235.645 126.257 235.716 125.48 236.005 124.773C236.294 124.066 236.787 123.461 237.421 123.035C238.055 122.609 238.801 122.381 239.565 122.381C240.329 122.381 241.075 122.609 241.709 123.035C242.343 123.461 242.836 124.066 243.125 124.773C243.414 125.48 243.485 126.257 243.331 127.005C243.176 127.753 242.802 128.438 242.257 128.973Z" fill="#010101"/>
<path d="M284.748 171.271C284.027 171.988 283.053 172.39 282.037 172.39C281.021 172.39 280.046 171.988 279.326 171.271C278.621 170.553 278.227 169.586 278.227 168.58C278.227 167.573 278.621 166.607 279.326 165.888C280.063 165.298 280.991 165 281.934 165.051C282.876 165.101 283.768 165.497 284.438 166.162C285.107 166.827 285.509 167.715 285.566 168.657C285.624 169.6 285.332 170.53 284.748 171.271Z" fill="#010101"/>
<path d="M119.975 82.1367C119.44 82.6822 118.755 83.0561 118.007 83.2107C117.259 83.3653 116.482 83.2937 115.775 83.0049C115.068 82.7161 114.462 82.2233 114.036 81.5893C113.611 80.9553 113.383 80.2088 113.383 79.445C113.383 78.6811 113.611 77.9346 114.036 77.3006C114.462 76.6666 115.068 76.1738 115.775 75.885C116.482 75.5962 117.259 75.5246 118.007 75.6792C118.755 75.8339 119.44 76.2077 119.975 76.7532C120.679 77.472 121.074 78.4384 121.074 79.445C121.074 80.4515 120.679 81.4179 119.975 82.1367Z" fill="#010101"/>
<path d="M162.273 124.474C161.555 125.178 160.588 125.573 159.582 125.573C158.575 125.573 157.609 125.178 156.89 124.474C156.344 123.939 155.971 123.254 155.816 122.506C155.661 121.758 155.733 120.981 156.022 120.274C156.31 119.567 156.803 118.962 157.437 118.536C158.071 118.11 158.818 117.882 159.582 117.882C160.345 117.882 161.092 118.11 161.726 118.536C162.36 118.962 162.853 119.567 163.142 120.274C163.43 120.981 163.502 121.758 163.347 122.506C163.193 123.254 162.819 123.939 162.273 124.474Z" fill="#010101"/>
<path d="M204.611 166.773C203.89 167.489 202.916 167.891 201.9 167.891C200.884 167.891 199.909 167.489 199.189 166.773C198.484 166.054 198.089 165.087 198.089 164.081C198.089 163.074 198.484 162.108 199.189 161.389C199.909 160.673 200.884 160.271 201.9 160.271C202.916 160.271 203.89 160.673 204.611 161.389C205.315 162.108 205.71 163.074 205.71 164.081C205.71 165.087 205.315 166.054 204.611 166.773Z" fill="#010101"/>
<path d="M246.91 209.11C246.191 209.815 245.224 210.209 244.218 210.209C243.211 210.209 242.245 209.815 241.526 209.11C240.981 208.575 240.607 207.89 240.452 207.142C240.297 206.394 240.369 205.617 240.658 204.91C240.947 204.203 241.439 203.598 242.073 203.172C242.707 202.746 243.454 202.519 244.218 202.519C244.982 202.519 245.728 202.746 246.362 203.172C246.996 203.598 247.489 204.203 247.778 204.91C248.067 205.617 248.138 206.394 247.984 207.142C247.829 207.89 247.455 208.575 246.91 209.11Z" fill="#010101"/>
<path d="M289.247 251.409C288.526 252.125 287.552 252.527 286.536 252.527C285.52 252.527 284.545 252.125 283.825 251.409C283.12 250.69 282.726 249.723 282.726 248.717C282.726 247.71 283.12 246.744 283.825 246.025C284.16 245.6 284.582 245.25 285.062 244.999C285.543 244.747 286.07 244.601 286.611 244.568C287.152 244.535 287.694 244.617 288.201 244.808C288.708 244.999 289.169 245.295 289.554 245.677C289.938 246.059 290.238 246.518 290.433 247.024C290.627 247.529 290.713 248.071 290.684 248.612C290.655 249.153 290.512 249.682 290.264 250.164C290.017 250.646 289.67 251.07 289.247 251.409Z" fill="#010101"/>
<path d="M82.1363 119.975C81.4175 120.679 80.4511 121.074 79.4446 121.074C78.4381 121.074 77.4716 120.679 76.7528 119.975C76.2074 119.44 75.8335 118.755 75.6789 118.007C75.5242 117.259 75.5959 116.482 75.8846 115.775C76.1734 115.068 76.6662 114.463 77.3002 114.037C77.9343 113.611 78.6808 113.383 79.4446 113.383C80.2084 113.383 80.9549 113.611 81.5889 114.037C82.223 114.463 82.7158 115.068 83.0045 115.775C83.2933 116.482 83.3649 117.259 83.2103 118.007C83.0557 118.755 82.6818 119.44 82.1363 119.975Z" fill="#010101"/>
<path d="M124.474 162.274C123.939 162.819 123.254 163.193 122.506 163.348C121.758 163.502 120.981 163.431 120.274 163.142C119.567 162.853 118.962 162.36 118.536 161.726C118.11 161.092 117.882 160.346 117.882 159.582C117.882 158.818 118.11 158.072 118.536 157.438C118.962 156.804 119.567 156.311 120.274 156.022C120.981 155.733 121.758 155.662 122.506 155.816C123.254 155.971 123.939 156.345 124.474 156.89C125.178 157.609 125.573 158.575 125.573 159.582C125.573 160.588 125.178 161.555 124.474 162.274Z" fill="#010101"/>
<path d="M166.773 204.611C166.054 205.315 165.087 205.71 164.081 205.71C163.074 205.71 162.108 205.315 161.389 204.611C160.673 203.89 160.271 202.916 160.271 201.9C160.271 200.884 160.673 199.909 161.389 199.189C162.108 198.484 163.074 198.09 164.081 198.09C165.087 198.09 166.054 198.484 166.773 199.189C167.489 199.909 167.891 200.884 167.891 201.9C167.891 202.916 167.489 203.89 166.773 204.611Z" fill="#010101"/>
<path d="M209.11 246.91C208.575 247.455 207.89 247.829 207.142 247.984C206.394 248.138 205.617 248.067 204.91 247.778C204.203 247.489 203.598 246.996 203.172 246.362C202.746 245.728 202.518 244.982 202.518 244.218C202.518 243.454 202.746 242.708 203.172 242.074C203.598 241.44 204.203 240.947 204.91 240.658C205.617 240.369 206.394 240.298 207.142 240.452C207.89 240.607 208.575 240.981 209.11 241.526C209.814 242.245 210.209 243.211 210.209 244.218C210.209 245.225 209.814 246.191 209.11 246.91Z" fill="#010101"/>
<path d="M251.408 289.247C251.079 289.698 250.655 290.071 250.167 290.342C249.678 290.612 249.137 290.773 248.58 290.813C248.023 290.853 247.464 290.771 246.942 290.573C246.42 290.375 245.947 290.066 245.557 289.667C245.166 289.268 244.867 288.789 244.68 288.262C244.494 287.736 244.424 287.176 244.476 286.62C244.528 286.064 244.7 285.526 244.981 285.043C245.262 284.561 245.644 284.145 246.102 283.825C246.821 283.121 247.787 282.726 248.794 282.726C249.8 282.726 250.767 283.121 251.485 283.825C252.191 284.556 252.58 285.536 252.565 286.552C252.551 287.568 252.135 288.537 251.408 289.247Z" fill="#010101"/>
<path d="M44.3368 157.659C43.8022 158.205 43.1172 158.579 42.3692 158.733C41.6212 158.888 40.8441 158.816 40.1369 158.528C39.4298 158.239 38.8247 157.746 38.3988 157.112C37.9728 156.478 37.7454 155.731 37.7454 154.968C37.7454 154.204 37.9728 153.457 38.3988 152.823C38.8247 152.189 39.4298 151.696 40.1369 151.408C40.8441 151.119 41.6212 151.047 42.3692 151.202C43.1172 151.357 43.8022 151.73 44.3368 152.276C45.0414 152.995 45.4361 153.961 45.4361 154.968C45.4361 155.974 45.0414 156.941 44.3368 157.659Z" fill="#010101"/>
<path d="M86.6354 199.958C86.2968 200.381 85.8726 200.728 85.3906 200.976C84.9086 201.224 84.3797 201.367 83.8385 201.396C83.2974 201.425 82.7562 201.339 82.2505 201.144C81.7448 200.949 81.2859 200.65 80.9041 200.265C80.5222 199.881 80.226 199.42 80.0348 198.913C79.8436 198.406 79.7617 197.864 79.7945 197.323C79.8274 196.782 79.9742 196.254 80.2254 195.774C80.4765 195.294 80.8263 194.872 81.2519 194.536C81.9707 193.832 82.9371 193.437 83.9436 193.437C84.9502 193.437 85.9166 193.832 86.6354 194.536C87.3516 195.257 87.7536 196.231 87.7536 197.247C87.7536 198.263 87.3516 199.238 86.6354 199.958Z" fill="#010101"/>
<path d="M128.973 242.257C128.438 242.803 127.753 243.176 127.005 243.331C126.257 243.486 125.48 243.414 124.773 243.125C124.066 242.836 123.461 242.344 123.035 241.71C122.609 241.076 122.381 240.329 122.381 239.565C122.381 238.802 122.609 238.055 123.035 237.421C123.461 236.787 124.066 236.294 124.773 236.005C125.48 235.717 126.257 235.645 127.005 235.8C127.753 235.954 128.438 236.328 128.973 236.874C129.677 237.592 130.072 238.559 130.072 239.565C130.072 240.572 129.677 241.538 128.973 242.257Z" fill="#010101"/>
<path d="M171.271 284.748C170.53 285.332 169.6 285.624 168.657 285.566C167.715 285.509 166.827 285.107 166.162 284.438C165.497 283.768 165.101 282.876 165.051 281.934C165 280.991 165.298 280.063 165.888 279.326C166.607 278.621 167.573 278.227 168.58 278.227C169.586 278.227 170.553 278.621 171.271 279.326C171.988 280.046 172.39 281.021 172.39 282.037C172.39 283.053 171.988 284.027 171.271 284.748Z" fill="#010101"/>
<path d="M213.609 327.047C213.074 327.592 212.389 327.966 211.641 328.12C210.893 328.275 210.116 328.203 209.409 327.915C208.702 327.626 208.097 327.133 207.671 326.499C207.245 325.865 207.017 325.119 207.017 324.355C207.017 323.591 207.245 322.844 207.671 322.21C208.097 321.576 208.702 321.084 209.409 320.795C210.116 320.506 210.893 320.434 211.641 320.589C212.389 320.744 213.074 321.118 213.609 321.663C214.313 322.382 214.708 323.348 214.708 324.355C214.708 325.361 214.313 326.328 213.609 327.047Z" fill="#010101"/>
<path d="M6.53701 195.612C5.81653 196.329 4.84192 196.731 3.82604 196.731C2.81015 196.731 1.83554 196.329 1.11507 195.612C0.485101 194.877 0.155916 193.931 0.193297 192.963C0.230679 191.995 0.631873 191.077 1.31671 190.392C2.00154 189.707 2.91958 189.306 3.88736 189.269C4.85514 189.231 5.80139 189.561 6.53701 190.191C7.25321 190.911 7.65521 191.886 7.65521 192.901C7.65521 193.917 7.25321 194.892 6.53701 195.612Z" fill="#010101"/>
<path d="M48.8359 237.912C48.3012 238.457 47.6162 238.831 46.8682 238.986C46.1202 239.14 45.3431 239.069 44.636 238.78C43.9288 238.491 43.3237 237.998 42.8978 237.364C42.4719 236.73 42.2444 235.984 42.2444 235.22C42.2444 234.456 42.4719 233.71 42.8978 233.076C43.3237 232.442 43.9288 231.949 44.636 231.66C45.3431 231.371 46.1202 231.3 46.8682 231.454C47.6162 231.609 48.3012 231.983 48.8359 232.528C49.5404 233.247 49.9351 234.213 49.9351 235.22C49.9351 236.227 49.5404 237.193 48.8359 237.912Z" fill="#010101"/>
<path d="M91.173 280.249C90.4525 280.965 89.4779 281.367 88.462 281.367C87.4461 281.367 86.4715 280.965 85.7511 280.249C85.1211 279.513 84.7919 278.567 84.8293 277.599C84.8667 276.631 85.2679 275.713 85.9527 275.028C86.6375 274.343 87.5556 273.942 88.5233 273.905C89.4911 273.867 90.4374 274.197 91.173 274.827C91.8892 275.547 92.2912 276.522 92.2912 277.538C92.2912 278.553 91.8892 279.528 91.173 280.249Z" fill="#010101"/>
<path d="M133.472 322.548C132.937 323.093 132.252 323.467 131.504 323.622C130.756 323.776 129.979 323.705 129.272 323.416C128.565 323.127 127.96 322.634 127.534 322C127.108 321.366 126.88 320.62 126.88 319.856C126.88 319.092 127.108 318.346 127.534 317.712C127.96 317.078 128.565 316.585 129.272 316.296C129.979 316.007 130.756 315.936 131.504 316.09C132.252 316.245 132.937 316.619 133.472 317.164C134.176 317.883 134.571 318.85 134.571 319.856C134.571 320.863 134.176 321.829 133.472 322.548Z" fill="#010101"/>
<path d="M175.771 364.885C175.029 365.469 174.099 365.761 173.157 365.703C172.214 365.646 171.326 365.244 170.661 364.574C169.996 363.905 169.6 363.013 169.55 362.071C169.499 361.128 169.797 360.2 170.387 359.463C171.106 358.758 172.072 358.364 173.079 358.364C174.085 358.364 175.052 358.758 175.771 359.463C176.487 360.183 176.889 361.158 176.889 362.174C176.889 363.19 176.487 364.164 175.771 364.885Z" fill="#010101"/>
</svg>
