<svg width="57" height="56" viewBox="0 0 57 56" fill="none" xmlns="http://www.w3.org/2000/svg">
<g clip-path="url(#clip0_431_157618)">
<circle cx="28.7143" cy="28" r="28" fill="#F61C0D"/>
<circle cx="28.7143" cy="27.9998" r="18.2" fill="white"/>
<path d="M45.0838 8.18652H12.3448C5.92143 8.18652 0.714294 13.3937 0.714294 19.817V36.1831C0.714294 42.6064 5.92143 47.8135 12.3448 47.8135H45.0838C51.5072 47.8135 56.7143 42.6064 56.7143 36.1831V19.817C56.7143 13.3937 51.5072 8.18652 45.0838 8.18652ZM37.2182 28.7963L21.9051 36.0997C21.4971 36.2943 21.0257 35.9968 21.0257 35.5448V20.4815C21.0257 20.023 21.5094 19.7259 21.9183 19.9331L37.2314 27.6931C37.6867 27.9237 37.6788 28.5767 37.2182 28.7963Z" fill="#F61C0D"/>
</g>
<defs>
<clipPath id="clip0_431_157618">
<rect x="0.714294" width="56" height="56" rx="28" fill="white"/>
</clipPath>
</defs>
</svg>
